<?xml version="1.0" encoding="UTF-8"?>
<svg version="1.1" xmlns="http://www.w3.org/2000/svg" width="200" height="200">
<path d="M0 0 C66 0 132 0 200 0 C200 66 200 132 200 200 C134 200 68 200 0 200 C0 134 0 68 0 0 Z " fill="#ECDDDA" transform="translate(0,0)"/>
<path d="M0 0 C1.2065625 0.0309375 1.2065625 0.0309375 2.4375 0.0625 C3.77083333 2.72916667 5.10416667 5.39583333 6.4375 8.0625 C6.76097412 8.65329346 7.08444824 9.24408691 7.41772461 9.8527832 C8.58997868 12.3929009 9.19618295 14.83267552 9.82421875 17.55859375 C11.34752038 23.8533154 13.2145867 29.97892815 15.25 36.125 C15.56775391 37.12337891 15.88550781 38.12175781 16.21289062 39.15039062 C18.27090963 45.38105328 20.86124673 50.90008595 24.10180664 56.6003418 C25.77473523 59.68414455 26.79535776 62.56471112 27.75 65.9375 C28.20826172 67.51144531 28.20826172 67.51144531 28.67578125 69.1171875 C29.05283203 70.57511719 29.05283203 70.57511719 29.4375 72.0625 C29.63859375 72.8153125 29.8396875 73.568125 30.046875 74.34375 C31.57188134 84.95779413 30.97586878 96.97130789 25.05078125 106.078125 C23.08958672 108.49044175 20.95896596 110.25221675 18.4375 112.0625 C16.6032543 114.28904103 14.96602865 116.61685416 13.4375 119.0625 C13.09001709 119.59294922 12.74253418 120.12339844 12.38452148 120.66992188 C11.02163436 124.11315308 11.15221047 127.47698571 11.171875 131.125 C11.16996155 131.91213379 11.1680481 132.69926758 11.16607666 133.51025391 C11.1647169 135.17790038 11.16839878 136.84555751 11.17675781 138.51318359 C11.18734607 141.02596872 11.1769155 143.53802001 11.1640625 146.05078125 C11.16538636 147.67968904 11.16795341 149.30859639 11.171875 150.9375 C11.16782654 151.67234619 11.16377808 152.40719238 11.15960693 153.16430664 C11.21699547 159.7817727 12.30969861 165.29569168 13.4375 172.0625 C-28.4725 172.0625 -70.3825 172.0625 -113.5625 172.0625 C-112.5725 169.7525 -111.5825 167.4425 -110.5625 165.0625 C-110.05772089 163.17850119 -109.59708404 161.28195946 -109.1875 159.375 C-107.95273105 154.2269633 -106.21656406 149.60997203 -104.09765625 144.76953125 C-101.53063664 138.74724392 -99.43441075 132.52923915 -97.24145508 126.36376953 C-96.90911865 125.4354834 -96.57678223 124.50719727 -96.234375 123.55078125 C-95.9362793 122.71071533 -95.63818359 121.87064941 -95.33105469 121.00512695 C-94.5625 119.0625 -94.5625 119.0625 -93.5625 118.0625 C-91.19156005 104.49545473 -92.99691848 93.1705121 -98.796875 80.9375 C-100.8673068 76.53620473 -102.19086005 72.00737864 -103.53515625 67.33984375 C-104.68775336 63.66292749 -106.09303422 60.12063184 -107.5625 56.5625 C-109.97440578 50.72171973 -111.95911848 44.85060661 -113.703125 38.76953125 C-114.44218328 36.13471691 -114.44218328 36.13471691 -115.60400391 34.17749023 C-116.69631694 31.76722334 -116.79340206 30.1492527 -116.7578125 27.515625 C-116.75136719 26.67128906 -116.74492188 25.82695313 -116.73828125 24.95703125 C-116.72152344 24.08433594 -116.70476562 23.21164063 -116.6875 22.3125 C-116.67847656 21.42433594 -116.66945313 20.53617188 -116.66015625 19.62109375 C-116.63664577 17.43461942 -116.60378499 15.24869906 -116.5625 13.0625 C-107.58885049 12.43836673 -101.9703493 12.99078618 -94.5625 18.0625 C-92.89539946 19.10543491 -91.22793114 20.14785417 -89.55273438 21.17773438 C-87.88703332 22.20407543 -86.23228601 23.24813033 -84.578125 24.29296875 C-77.07299064 28.69688827 -70.06498674 28.7008804 -61.5625 28.0625 C-59.42817132 27.46876518 -59.42817132 27.46876518 -57.75 26.5625 C-53.33373122 24.48425587 -49.36250814 24.80173497 -44.5625 25.0625 C-44.5625 25.7225 -44.5625 26.3825 -44.5625 27.0625 C-48.39048108 30.12905705 -52.79665593 32.22021536 -57.3125 34.0625 C-61.16595184 35.68640717 -63.2680587 37.47120057 -65.5625 41.0625 C-59.75467364 39.79782894 -59.75467364 39.79782894 -54.5625 37.0625 C-48.22916667 36.72916667 -48.22916667 36.72916667 -45.5625 38.0625 C-45.75390625 39.921875 -45.75390625 39.921875 -46.5625 42.0625 C-48.77734375 43.328125 -48.77734375 43.328125 -51.5 44.3125 C-52.39589844 44.64765625 -53.29179688 44.9828125 -54.21484375 45.328125 C-56.5625 46.0625 -56.5625 46.0625 -58.5625 46.0625 C-58.5625 46.7225 -58.5625 47.3825 -58.5625 48.0625 C-59.655625 48.206875 -60.74875 48.35125 -61.875 48.5 C-65.49372987 48.94538104 -65.49372987 48.94538104 -68.5625 50.0625 C-68.5625 53.3625 -68.5625 56.6625 -68.5625 60.0625 C-62.6225 59.5675 -62.6225 59.5675 -56.5625 59.0625 C-56.2325 57.7425 -55.9025 56.4225 -55.5625 55.0625 C-54.634375 54.9078125 -54.634375 54.9078125 -53.6875 54.75 C-51.19723516 54.18724627 -51.19723516 54.18724627 -49.5625 51.0625 C-47.57069591 50.04627342 -45.57097365 49.04537008 -43.5625 48.0625 C-43.0675 47.0725 -43.0675 47.0725 -42.5625 46.0625 C-40.3828125 45.46484375 -40.3828125 45.46484375 -37.6875 45 C-34.8516156 44.49979298 -32.30182151 43.97560717 -29.5625 43.0625 C-29.2325 41.4125 -28.9025 39.7625 -28.5625 38.0625 C-25.49851549 37.92719156 -22.44052874 37.8282593 -19.375 37.75 C-18.51068359 37.70810547 -17.64636719 37.66621094 -16.75585938 37.62304688 C-10.23660191 37.49815689 -10.23660191 37.49815689 -6.68359375 40.47265625 C-5.98363281 41.32730469 -5.28367187 42.18195313 -4.5625 43.0625 C0.64430189 46.06805231 6.53524288 46.66628367 12.4375 47.0625 C12.4375 45.7425 12.4375 44.4225 12.4375 43.0625 C11.7775 43.0625 11.1175 43.0625 10.4375 43.0625 C10.4375 42.4025 10.4375 41.7425 10.4375 41.0625 C7.45345261 39.3592766 5.2281951 38.83213855 1.8125 38.6875 C-3.80803256 38.24421395 -8.47067665 36.39173834 -13.5625 34.0625 C-13.2325 32.0825 -12.9025 30.1025 -12.5625 28.0625 C-13.18898438 27.89234375 -13.81546875 27.7221875 -14.4609375 27.546875 C-15.27820313 27.30453125 -16.09546875 27.0621875 -16.9375 26.8125 C-17.74960938 26.58046875 -18.56171875 26.3484375 -19.3984375 26.109375 C-22.02035454 24.8410108 -22.55632318 23.73826692 -23.5625 21.0625 C-22.1875 19.5625 -22.1875 19.5625 -20.5625 18.0625 C-19.9025 18.0625 -19.2425 18.0625 -18.5625 18.0625 C-18.500625 17.340625 -18.43875 16.61875 -18.375 15.875 C-17.2978111 12.14626919 -15.47709849 10.57041033 -12.5625 8.0625 C-11.22916667 7.39583333 -9.89583333 6.72916667 -8.5625 6.0625 C-6.85663425 4.43597684 -5.1847454 2.77243434 -3.5625 1.0625 C-2.5625 0.0625 -2.5625 0.0625 0 0 Z " fill="#6A4E43" transform="translate(146.5625,27.9375)"/>
<path d="M0 0 C1.2065625 0.0309375 1.2065625 0.0309375 2.4375 0.0625 C3.77083333 2.72916667 5.10416667 5.39583333 6.4375 8.0625 C6.76097412 8.65329346 7.08444824 9.24408691 7.41772461 9.8527832 C8.58997868 12.3929009 9.19618295 14.83267552 9.82421875 17.55859375 C11.34752038 23.8533154 13.2145867 29.97892815 15.25 36.125 C15.56775391 37.12337891 15.88550781 38.12175781 16.21289062 39.15039062 C18.27090963 45.38105328 20.86124673 50.90008595 24.10180664 56.6003418 C25.77473523 59.68414455 26.79535776 62.56471112 27.75 65.9375 C28.20826172 67.51144531 28.20826172 67.51144531 28.67578125 69.1171875 C30.09469006 74.60363491 30.43589 78.40495665 29.4375 84.0625 C28.7775 84.0625 28.1175 84.0625 27.4375 84.0625 C27.1075 84.7225 26.7775 85.3825 26.4375 86.0625 C26.2209375 84.515625 26.2209375 84.515625 26 82.9375 C25.814375 81.65875 25.62875 80.38 25.4375 79.0625 C25.293125 78.051875 25.14875 77.04125 25 76 C23.4187363 67.74228956 19.87609805 62.33808231 13.08203125 57.32421875 C11.55502954 56.32033345 10.01311614 55.33853153 8.453125 54.38671875 C6.4375 53.0625 6.4375 53.0625 4.98828125 51.4921875 C2.93647421 49.60059713 1.06151545 49.19240089 -1.625 48.5 C-6.35416667 47.27083333 -6.35416667 47.27083333 -8.5625 45.0625 C-9.2225 44.7325 -9.8825 44.4025 -10.5625 44.0625 C-10.5625 42.4125 -10.5625 40.7625 -10.5625 39.0625 C-14.8525 39.3925 -19.1425 39.7225 -23.5625 40.0625 C-23.0675 42.0425 -23.0675 42.0425 -22.5625 44.0625 C-23.12839844 44.19527344 -23.69429688 44.32804687 -24.27734375 44.46484375 C-25.01082031 44.64144531 -25.74429688 44.81804687 -26.5 45 C-27.23089844 45.17402344 -27.96179688 45.34804687 -28.71484375 45.52734375 C-30.56219898 45.90137569 -30.56219898 45.90137569 -31.5625 47.0625 C-33.56208364 47.10330783 -35.56295254 47.10504356 -37.5625 47.0625 C-37.8925 48.0525 -38.2225 49.0425 -38.5625 50.0625 C-40.20284193 50.79154086 -41.87551918 51.44905243 -43.5625 52.0625 C-48.36383668 54.70323518 -52.49755895 57.46508842 -55.5625 62.0625 C-57.875 62.6875 -57.875 62.6875 -60.5625 63.0625 C-61.408125 63.248125 -62.25375 63.43375 -63.125 63.625 C-65.5625 64.0625 -65.5625 64.0625 -69.5625 64.0625 C-71.03112641 68.36347734 -72.33431613 72.68709495 -73.5625 77.0625 C-73.93682271 78.37519332 -74.31180117 79.68769987 -74.6875 81 C-74.97625 82.010625 -75.265 83.02125 -75.5625 84.0625 C-76.2225 84.0625 -76.8825 84.0625 -77.5625 84.0625 C-77.22025391 84.93261719 -77.22025391 84.93261719 -76.87109375 85.8203125 C-73.80697334 94.14702536 -73.80697334 94.14702536 -75.5625 99.0625 C-76.8825 100.0525 -78.2025 101.0425 -79.5625 102.0625 C-78.9025 97.4425 -78.2425 92.8225 -77.5625 88.0625 C-78.5525 88.0625 -79.5425 88.0625 -80.5625 88.0625 C-79.80853175 80.52281746 -79.80853175 80.52281746 -78.59375 78.25 C-77.14380766 75.17436473 -76.87332362 72.17456791 -76.4375 68.8125 C-76.26992187 67.54921875 -76.10234375 66.2859375 -75.9296875 64.984375 C-75.74792969 63.53804687 -75.74792969 63.53804687 -75.5625 62.0625 C-74.9025 62.0625 -74.2425 62.0625 -73.5625 62.0625 C-73.5625 60.4125 -73.5625 58.7625 -73.5625 57.0625 C-75.2125 57.0625 -76.8625 57.0625 -78.5625 57.0625 C-78.5625 58.0525 -78.5625 59.0425 -78.5625 60.0625 C-79.2225 60.0625 -79.8825 60.0625 -80.5625 60.0625 C-80.5625 60.7225 -80.5625 61.3825 -80.5625 62.0625 C-81.2225 62.0625 -81.8825 62.0625 -82.5625 62.0625 C-82.5625 63.0525 -82.5625 64.0425 -82.5625 65.0625 C-84.59873126 67.19848899 -86.93505102 68.73228525 -89.5625 70.0625 C-92.125 69.9375 -92.125 69.9375 -94.5625 69.0625 C-96.56147128 68.72305205 -98.56125639 68.38828384 -100.5625 68.0625 C-100.8925 69.3825 -101.2225 70.7025 -101.5625 72.0625 C-105.55388787 62.54457508 -109.02988501 52.94352073 -112.20141602 43.12231445 C-112.61991821 41.83393677 -112.61991821 41.83393677 -113.046875 40.51953125 C-113.29147461 39.75616455 -113.53607422 38.99279785 -113.78808594 38.20629883 C-114.50976726 36.04067567 -114.50976726 36.04067567 -115.64501953 34.06811523 C-116.7194255 31.71946036 -116.79257875 30.08832786 -116.7578125 27.515625 C-116.75136719 26.67128906 -116.74492188 25.82695313 -116.73828125 24.95703125 C-116.72152344 24.08433594 -116.70476562 23.21164063 -116.6875 22.3125 C-116.67847656 21.42433594 -116.66945313 20.53617188 -116.66015625 19.62109375 C-116.63664577 17.43461942 -116.60378499 15.24869906 -116.5625 13.0625 C-107.58885049 12.43836673 -101.9703493 12.99078618 -94.5625 18.0625 C-92.89539946 19.10543491 -91.22793114 20.14785417 -89.55273438 21.17773438 C-87.88703332 22.20407543 -86.23228601 23.24813033 -84.578125 24.29296875 C-77.07299064 28.69688827 -70.06498674 28.7008804 -61.5625 28.0625 C-59.42817132 27.46876518 -59.42817132 27.46876518 -57.75 26.5625 C-53.33373122 24.48425587 -49.36250814 24.80173497 -44.5625 25.0625 C-44.5625 25.7225 -44.5625 26.3825 -44.5625 27.0625 C-48.39048108 30.12905705 -52.79665593 32.22021536 -57.3125 34.0625 C-61.16595184 35.68640717 -63.2680587 37.47120057 -65.5625 41.0625 C-59.75467364 39.79782894 -59.75467364 39.79782894 -54.5625 37.0625 C-48.22916667 36.72916667 -48.22916667 36.72916667 -45.5625 38.0625 C-45.75390625 39.921875 -45.75390625 39.921875 -46.5625 42.0625 C-48.77734375 43.328125 -48.77734375 43.328125 -51.5 44.3125 C-52.39589844 44.64765625 -53.29179688 44.9828125 -54.21484375 45.328125 C-56.5625 46.0625 -56.5625 46.0625 -58.5625 46.0625 C-58.5625 46.7225 -58.5625 47.3825 -58.5625 48.0625 C-59.655625 48.206875 -60.74875 48.35125 -61.875 48.5 C-65.49372987 48.94538104 -65.49372987 48.94538104 -68.5625 50.0625 C-68.5625 53.3625 -68.5625 56.6625 -68.5625 60.0625 C-62.6225 59.5675 -62.6225 59.5675 -56.5625 59.0625 C-56.2325 57.7425 -55.9025 56.4225 -55.5625 55.0625 C-54.634375 54.9078125 -54.634375 54.9078125 -53.6875 54.75 C-51.19723516 54.18724627 -51.19723516 54.18724627 -49.5625 51.0625 C-47.57069591 50.04627342 -45.57097365 49.04537008 -43.5625 48.0625 C-43.0675 47.0725 -43.0675 47.0725 -42.5625 46.0625 C-40.3828125 45.46484375 -40.3828125 45.46484375 -37.6875 45 C-34.8516156 44.49979298 -32.30182151 43.97560717 -29.5625 43.0625 C-29.2325 41.4125 -28.9025 39.7625 -28.5625 38.0625 C-25.49851549 37.92719156 -22.44052874 37.8282593 -19.375 37.75 C-18.51068359 37.70810547 -17.64636719 37.66621094 -16.75585938 37.62304688 C-10.23660191 37.49815689 -10.23660191 37.49815689 -6.68359375 40.47265625 C-5.98363281 41.32730469 -5.28367187 42.18195313 -4.5625 43.0625 C0.64430189 46.06805231 6.53524288 46.66628367 12.4375 47.0625 C12.4375 45.7425 12.4375 44.4225 12.4375 43.0625 C11.7775 43.0625 11.1175 43.0625 10.4375 43.0625 C10.4375 42.4025 10.4375 41.7425 10.4375 41.0625 C7.45345261 39.3592766 5.2281951 38.83213855 1.8125 38.6875 C-3.80803256 38.24421395 -8.47067665 36.39173834 -13.5625 34.0625 C-13.2325 32.0825 -12.9025 30.1025 -12.5625 28.0625 C-13.18898438 27.89234375 -13.81546875 27.7221875 -14.4609375 27.546875 C-15.27820313 27.30453125 -16.09546875 27.0621875 -16.9375 26.8125 C-17.74960938 26.58046875 -18.56171875 26.3484375 -19.3984375 26.109375 C-22.02035454 24.8410108 -22.55632318 23.73826692 -23.5625 21.0625 C-22.1875 19.5625 -22.1875 19.5625 -20.5625 18.0625 C-19.9025 18.0625 -19.2425 18.0625 -18.5625 18.0625 C-18.500625 17.340625 -18.43875 16.61875 -18.375 15.875 C-17.2978111 12.14626919 -15.47709849 10.57041033 -12.5625 8.0625 C-11.22916667 7.39583333 -9.89583333 6.72916667 -8.5625 6.0625 C-6.85663425 4.43597684 -5.1847454 2.77243434 -3.5625 1.0625 C-2.5625 0.0625 -2.5625 0.0625 0 0 Z " fill="#8C6C5D" transform="translate(146.5625,27.9375)"/>
<path d="M0 0 C1.2065625 0.0309375 1.2065625 0.0309375 2.4375 0.0625 C3.77083333 2.72916667 5.10416667 5.39583333 6.4375 8.0625 C6.76097412 8.65329346 7.08444824 9.24408691 7.41772461 9.8527832 C8.58997868 12.3929009 9.19618295 14.83267552 9.82421875 17.55859375 C11.34752038 23.8533154 13.2145867 29.97892815 15.25 36.125 C15.56775391 37.12337891 15.88550781 38.12175781 16.21289062 39.15039062 C18.27090963 45.38105328 20.86124673 50.90008595 24.10180664 56.6003418 C25.77473523 59.68414455 26.79535776 62.56471112 27.75 65.9375 C28.20826172 67.51144531 28.20826172 67.51144531 28.67578125 69.1171875 C30.09469006 74.60363491 30.43589 78.40495665 29.4375 84.0625 C28.7775 84.0625 28.1175 84.0625 27.4375 84.0625 C27.1075 84.7225 26.7775 85.3825 26.4375 86.0625 C26.2209375 84.515625 26.2209375 84.515625 26 82.9375 C25.814375 81.65875 25.62875 80.38 25.4375 79.0625 C25.293125 78.051875 25.14875 77.04125 25 76 C23.4187363 67.74228956 19.87609805 62.33808231 13.08203125 57.32421875 C11.55502954 56.32033345 10.01311614 55.33853153 8.453125 54.38671875 C6.4375 53.0625 6.4375 53.0625 4.98828125 51.4921875 C2.93647421 49.60059713 1.06151545 49.19240089 -1.625 48.5 C-6.35416667 47.27083333 -6.35416667 47.27083333 -8.5625 45.0625 C-9.5525 44.5675 -9.5525 44.5675 -10.5625 44.0625 C-10.5625 42.4125 -10.5625 40.7625 -10.5625 39.0625 C-16.9975 39.5575 -16.9975 39.5575 -23.5625 40.0625 C-23.0675 42.0425 -23.0675 42.0425 -22.5625 44.0625 C-23.12839844 44.19527344 -23.69429687 44.32804687 -24.27734375 44.46484375 C-25.01082031 44.64144531 -25.74429688 44.81804687 -26.5 45 C-27.23089844 45.17402344 -27.96179688 45.34804687 -28.71484375 45.52734375 C-30.56219898 45.90137569 -30.56219898 45.90137569 -31.5625 47.0625 C-33.56208364 47.10330783 -35.56295254 47.10504356 -37.5625 47.0625 C-37.8925 48.0525 -38.2225 49.0425 -38.5625 50.0625 C-40.20284193 50.79154086 -41.87551918 51.44905243 -43.5625 52.0625 C-48.36383668 54.70323518 -52.49755895 57.46508842 -55.5625 62.0625 C-57.875 62.6875 -57.875 62.6875 -60.5625 63.0625 C-61.3875 63.248125 -62.2125 63.43375 -63.0625 63.625 C-65.5625 64.0625 -65.5625 64.0625 -70.5625 64.0625 C-70.5625 60.1025 -70.5625 56.1425 -70.5625 52.0625 C-69.5725 51.5675 -69.5725 51.5675 -68.5625 51.0625 C-68.5625 54.0325 -68.5625 57.0025 -68.5625 60.0625 C-62.6225 59.5675 -62.6225 59.5675 -56.5625 59.0625 C-56.2325 57.7425 -55.9025 56.4225 -55.5625 55.0625 C-54.634375 54.9078125 -54.634375 54.9078125 -53.6875 54.75 C-51.19723516 54.18724627 -51.19723516 54.18724627 -49.5625 51.0625 C-47.57069591 50.04627342 -45.57097365 49.04537008 -43.5625 48.0625 C-43.2325 47.4025 -42.9025 46.7425 -42.5625 46.0625 C-40.3828125 45.46484375 -40.3828125 45.46484375 -37.6875 45 C-34.8516156 44.49979298 -32.30182151 43.97560717 -29.5625 43.0625 C-29.2325 41.4125 -28.9025 39.7625 -28.5625 38.0625 C-25.49851549 37.92719156 -22.44052874 37.8282593 -19.375 37.75 C-18.51068359 37.70810547 -17.64636719 37.66621094 -16.75585938 37.62304688 C-10.23660191 37.49815689 -10.23660191 37.49815689 -6.68359375 40.47265625 C-5.98363281 41.32730469 -5.28367187 42.18195313 -4.5625 43.0625 C0.64430189 46.06805231 6.53524288 46.66628367 12.4375 47.0625 C12.4375 45.7425 12.4375 44.4225 12.4375 43.0625 C11.7775 43.0625 11.1175 43.0625 10.4375 43.0625 C10.4375 42.4025 10.4375 41.7425 10.4375 41.0625 C7.45345261 39.3592766 5.2281951 38.83213855 1.8125 38.6875 C-3.80803256 38.24421395 -8.47067665 36.39173834 -13.5625 34.0625 C-13.2325 32.0825 -12.9025 30.1025 -12.5625 28.0625 C-13.18898437 27.89234375 -13.81546875 27.7221875 -14.4609375 27.546875 C-15.27820313 27.30453125 -16.09546875 27.0621875 -16.9375 26.8125 C-17.74960938 26.58046875 -18.56171875 26.3484375 -19.3984375 26.109375 C-22.02035454 24.8410108 -22.55632318 23.73826692 -23.5625 21.0625 C-22.1875 19.5625 -22.1875 19.5625 -20.5625 18.0625 C-19.9025 18.0625 -19.2425 18.0625 -18.5625 18.0625 C-18.500625 17.340625 -18.43875 16.61875 -18.375 15.875 C-17.2978111 12.14626919 -15.47709849 10.57041033 -12.5625 8.0625 C-11.22916667 7.39583333 -9.89583333 6.72916667 -8.5625 6.0625 C-6.85663425 4.43597684 -5.1847454 2.77243434 -3.5625 1.0625 C-2.5625 0.0625 -2.5625 0.0625 0 0 Z " fill="#BDA29C" transform="translate(146.5625,27.9375)"/>
<path d="M0 0 C0 0.99 0 1.98 0 3 C-2 4.6875 -2 4.6875 -4 6 C-2.99382318 8.67576692 -2.45785454 9.7785108 0.1640625 11.046875 C1.38222656 11.39492188 1.38222656 11.39492188 2.625 11.75 C3.44226563 11.99234375 4.25953125 12.2346875 5.1015625 12.484375 C5.72804687 12.65453125 6.35453125 12.8246875 7 13 C6.34 14.98 5.68 16.96 5 19 C5.63808594 19.13277344 6.27617187 19.26554687 6.93359375 19.40234375 C7.75988281 19.57894531 8.58617187 19.75554688 9.4375 19.9375 C10.26121094 20.11152344 11.08492187 20.28554688 11.93359375 20.46484375 C14 21 14 21 15 22 C17.4834257 22.24427138 19.96567293 22.38359759 22.45703125 22.5234375 C25.38619018 23.07237358 26.8478374 23.96322141 29 26 C29 26.66 29 27.32 29 28 C29.66 28 30.32 28 31 28 C31.495 29.98 31.495 29.98 32 32 C27.86172685 34.06913658 22.32617978 32.06316575 18 31 C15.01828513 29.63890772 12.76889563 27.90111999 10.62573242 25.3894043 C8.49693515 23.57006426 7.32032525 23.65126862 4.55078125 23.70703125 C3.27944336 23.7215332 3.27944336 23.7215332 1.98242188 23.73632812 C1.10134766 23.76146484 0.22027344 23.78660156 -0.6875 23.8125 C-1.58017578 23.82603516 -2.47285156 23.83957031 -3.39257812 23.85351562 C-5.59566166 23.88885921 -7.79752582 23.93819507 -10 24 C-10.18369141 25.19689453 -10.18369141 25.19689453 -10.37109375 26.41796875 C-11 29 -11 29 -13.0625 30.3125 C-16.82927169 31.19408486 -20.13419987 31.13104407 -24 31 C-24.33 31.99 -24.66 32.98 -25 34 C-26.99145391 35.01691264 -28.99187074 36.01642648 -31 37 C-31.66 37.99 -32.32 38.98 -33 40 C-34.0209375 40.2475 -34.0209375 40.2475 -35.0625 40.5 C-36.0215625 40.7475 -36.0215625 40.7475 -37 41 C-37.33 41.99 -37.66 42.98 -38 44 C-43.94 44.495 -43.94 44.495 -50 45 C-50.29296875 37.3828125 -50.29296875 37.3828125 -50 35 C-46.3558226 32.5705484 -44.28758728 32.83820425 -40 33 C-40 32.34 -40 31.68 -40 31 C-38.71802734 30.51080078 -38.71802734 30.51080078 -37.41015625 30.01171875 C-36.30542969 29.57472656 -35.20070313 29.13773438 -34.0625 28.6875 C-32.96035156 28.25824219 -31.85820313 27.82898438 -30.72265625 27.38671875 C-27.69139735 26.24391139 -27.69139735 26.24391139 -27 23 C-32.74793127 22.6618864 -36.07262111 22.80386234 -41 26 C-44.3125 26.1875 -44.3125 26.1875 -47 26 C-46.67 25.01 -46.34 24.02 -46 23 C-45.34 23 -44.68 23 -44 23 C-43.67 22.01 -43.34 21.02 -43 20 C-40.453125 18.46484375 -40.453125 18.46484375 -37.25 16.9375 C-36.20328125 16.43089844 -35.1565625 15.92429687 -34.078125 15.40234375 C-31.40982857 14.18671124 -28.7338766 13.0581115 -26 12 C-26 11.34 -26 10.68 -26 10 C-27.65 10 -29.3 10 -31 10 C-31 9.67 -31 9.34 -31 9 C-30.45472656 8.89042969 -29.90945312 8.78085937 -29.34765625 8.66796875 C-20.91017589 6.89393442 -13.09502314 4.1307479 -5.1640625 0.76953125 C-3 0 -3 0 0 0 Z " fill="#EADBD2" transform="translate(128,43)"/>
<path d="M0 0 C0.25564409 4.6868083 0.10329705 8.15570962 -1.5625 12.5625 C-3.09844631 16.77373308 -2.96766685 19.56486027 -2 24 C-1.03860736 29.18140034 -0.89383781 33.04432425 -3 38 C-5.25 38.75 -5.25 38.75 -8 39 C-13.94313973 34.22923744 -16.50338953 26.14343689 -17.38671875 18.7734375 C-17.43248142 16.10512166 -17.45506763 13.62981188 -17 11 C-14.30587786 8.30587786 -11.64104358 8.00442582 -8 7 C-6.64649406 6.37530495 -5.30065517 5.7283669 -4 5 C-4 4.01 -4 3.02 -4 2 C-1 0 -1 0 0 0 Z " fill="#3C291A" transform="translate(68,94)"/>
<path d="M0 0 C0 0.66 0 1.32 0 2 C-3.82798108 5.06655705 -8.23415593 7.15771536 -12.75 9 C-16.60345184 10.62390717 -18.7055587 12.40870057 -21 16 C-15.19217364 14.73532894 -15.19217364 14.73532894 -10 12 C-3.66666667 11.66666667 -3.66666667 11.66666667 -1 13 C-1.19140625 14.859375 -1.19140625 14.859375 -2 17 C-4.21484375 18.265625 -4.21484375 18.265625 -6.9375 19.25 C-8.28134766 19.75273438 -8.28134766 19.75273438 -9.65234375 20.265625 C-12 21 -12 21 -14 21 C-14 21.66 -14 22.32 -14 23 C-15.0725 23.103125 -16.145 23.20625 -17.25 23.3125 C-21.72759242 24.13155303 -21.72759242 24.13155303 -25 27 C-25.4349548 29.6008522 -25.6500276 31.83191898 -25.6875 34.4375 C-25.9705342 42.71018538 -25.9705342 42.71018538 -27 46 C-27.309375 47.03125 -27.61875 48.0625 -27.9375 49.125 C-29 52 -29 52 -31 54 C-30.85930804 51.87465341 -30.71229079 49.74972471 -30.5625 47.625 C-30.48128906 46.44164062 -30.40007812 45.25828125 -30.31640625 44.0390625 C-30 41 -30 41 -29 39 C-28.34 39 -27.68 39 -27 39 C-27.01160156 38.09636719 -27.02320312 37.19273438 -27.03515625 36.26171875 C-27.04417969 35.08222656 -27.05320312 33.90273437 -27.0625 32.6875 C-27.07410156 31.51574219 -27.08570312 30.34398437 -27.09765625 29.13671875 C-27 26 -27 26 -26 23 C-25.34 23 -24.68 23 -24 23 C-24.3403125 21.700625 -24.3403125 21.700625 -24.6875 20.375 C-25.06805282 16.26502958 -24.22983718 14.42439281 -22 11 C-21.01 10.67 -20.02 10.34 -19 10 C-18.67 8.68 -18.34 7.36 -18 6 C-22.29 6 -26.58 6 -31 6 C-31.33 5.34 -31.66 4.68 -32 4 C-30.49759766 3.94392578 -30.49759766 3.94392578 -28.96484375 3.88671875 C-20.83083672 3.77897003 -20.83083672 3.77897003 -13.1875 1.4375 C-8.76931046 -0.55501685 -4.77183025 -0.25923424 0 0 Z " fill="#A38779" transform="translate(102,53)"/>
<path d="M0 0 C0 0.66 0 1.32 0 2 C0.66 2 1.32 2 2 2 C2.495 4.475 2.495 4.475 3 7 C3.99 7.33 4.98 7.66 6 8 C10.65552143 14.67677984 11.15148644 23.15124957 12 31 C11.01 31.495 11.01 31.495 10 32 C9.60167969 30.26363281 9.60167969 30.26363281 9.1953125 28.4921875 C8.83869236 26.95309007 8.48191309 25.41402952 8.125 23.875 C7.86396484 22.73417969 7.86396484 22.73417969 7.59765625 21.5703125 C6.60201572 17.29274576 5.47028611 13.14594191 4 9 C2.35 8.67 0.7 8.34 -1 8 C-1 6.68 -1 5.36 -1 4 C-2.051875 3.5978125 -2.051875 3.5978125 -3.125 3.1875 C-6 2 -6 2 -8.6875 0.4375 C-17.82733117 -3.52884183 -28.43998365 -2.25023817 -37.6875 0.921875 C-41.49042795 2.54812708 -44.80351182 4.35463047 -48 7 C-49.4540625 7.8971875 -49.4540625 7.8971875 -50.9375 8.8125 C-57.35332749 13.39523392 -59.9479318 18.58676414 -62.984375 25.70703125 C-64 28 -64 28 -65 29 C-65.07271741 31.35313555 -65.08370868 33.70833668 -65.0625 36.0625 C-65.05347656 37.35285156 -65.04445313 38.64320312 -65.03515625 39.97265625 C-65.02355469 40.97167969 -65.01195313 41.97070312 -65 43 C-65.66 43 -66.32 43 -67 43 C-70.15651138 37.56378597 -69.62246713 31.58563269 -68.1875 25.625 C-67.03001784 23.06635522 -65.90492452 21.06366823 -64 19 C-63.34 19 -62.68 19 -62 19 C-61.773125 18.29875 -61.54625 17.5975 -61.3125 16.875 C-58.26109681 10.19097397 -54.24397465 7.35324564 -48 4 C-46.29078411 2.4587688 -46.29078411 2.4587688 -45 1 C-33.65369675 -6.56420217 -11.59517405 -7.0008598 0 0 Z " fill="#391C15" transform="translate(153,79)"/>
<path d="M0 0 C0.33 0 0.66 0 1 0 C1 2.97 1 5.94 1 9 C1.66 9 2.32 9 3 9 C6.05793991 14.38197425 6.05793991 14.38197425 5.8125 17 C5.544375 17.66 5.27625 18.32 5 19 C3.44384336 23.3996289 3.44384336 23.3996289 3 28 C2.01 28.33 1.02 28.66 0 29 C-1.21631654 32.45689963 -2 35.32831864 -2 39 C-2.474375 39.45375 -2.94875 39.9075 -3.4375 40.375 C-5.47591673 42.4949534 -5.46615942 44.13060689 -6 47 C-6.48082031 47.85980469 -6.96164063 48.71960938 -7.45703125 49.60546875 C-9.35221573 53.7748746 -9.7808581 57.47844051 -10.1875 62 C-10.26935547 62.78117187 -10.35121094 63.56234375 -10.43554688 64.3671875 C-10.85897904 68.59439264 -11.08861578 72.74644234 -11 77 C-14.3 77 -17.6 77 -21 77 C-20.566875 76.0925 -20.13375 75.185 -19.6875 74.25 C-18.27790105 70.99153172 -17.42011046 67.77009461 -16.625 64.3125 C-15.39023105 59.1644633 -13.65406406 54.54747203 -11.53515625 49.70703125 C-8.96813664 43.68474392 -6.87191075 37.46673915 -4.67895508 31.30126953 C-4.18045044 29.90884033 -4.18045044 29.90884033 -3.671875 28.48828125 C-3.3737793 27.64821533 -3.07568359 26.80814941 -2.76855469 25.94262695 C-2 24 -2 24 -1 23 C0.15748647 15.38345326 0.12068232 7.68344103 0 0 Z " fill="#B6A597" transform="translate(54,123)"/>
<path d="M0 0 C3.06398451 -0.13530844 6.12197126 -0.2342407 9.1875 -0.3125 C10.05181641 -0.35439453 10.91613281 -0.39628906 11.80664062 -0.43945312 C18.31296088 -0.56409528 18.31296088 -0.56409528 21.96875 2.4375 C22.6390625 3.283125 23.309375 4.12875 24 5 C26.16620544 6.29519995 26.16620544 6.29519995 28 7 C28 7.66 28 8.32 28 9 C29.98 9.66 31.96 10.32 34 11 C31.22057978 12.38971011 29.92961386 11.58597169 27 10.6875 C26.113125 10.42324219 25.22625 10.15898438 24.3125 9.88671875 C22 9 22 9 20 7 C19.34 6.67 18.68 6.34 18 6 C18 4.35 18 2.7 18 1 C11.565 1.495 11.565 1.495 5 2 C5.495 3.98 5.495 3.98 6 6 C5.43410156 6.13277344 4.86820313 6.26554687 4.28515625 6.40234375 C3.18494141 6.66724609 3.18494141 6.66724609 2.0625 6.9375 C1.33160156 7.11152344 0.60070312 7.28554687 -0.15234375 7.46484375 C-1.99969898 7.83887569 -1.99969898 7.83887569 -3 9 C-4.99958364 9.04080783 -7.00045254 9.04254356 -9 9 C-9.33 9.99 -9.66 10.98 -10 12 C-11.64034193 12.72904086 -13.31301918 13.38655243 -15 14 C-19.80133668 16.64073518 -23.93505895 19.40258842 -27 24 C-29.3125 24.625 -29.3125 24.625 -32 25 C-32.825 25.185625 -33.65 25.37125 -34.5 25.5625 C-37 26 -37 26 -42 26 C-42 22.04 -42 18.08 -42 14 C-41.34 13.67 -40.68 13.34 -40 13 C-40 15.97 -40 18.94 -40 22 C-36.04 21.67 -32.08 21.34 -28 21 C-27.67 19.68 -27.34 18.36 -27 17 C-26.38125 16.896875 -25.7625 16.79375 -25.125 16.6875 C-22.63473516 16.12474627 -22.63473516 16.12474627 -21 13 C-19.00819591 11.98377342 -17.00847365 10.98287008 -15 10 C-14.67 9.34 -14.34 8.68 -14 8 C-11.8203125 7.40234375 -11.8203125 7.40234375 -9.125 6.9375 C-6.2891156 6.43729298 -3.73932151 5.91310717 -1 5 C-0.67 3.35 -0.34 1.7 0 0 Z " fill="#B39C95" transform="translate(118,66)"/>
<path d="M0 0 C4.62 0 9.24 0 14 0 C14.495 2.475 14.495 2.475 15 5 C15.99 5.33 16.98 5.66 18 6 C18 6.66 18 7.32 18 8 C16.94256592 8.06731323 16.94256592 8.06731323 15.86376953 8.13598633 C12.61660194 8.34953879 9.37092894 8.58090844 6.125 8.8125 C4.46210937 8.91788086 4.46210937 8.91788086 2.765625 9.02539062 C-9.71827095 9.76100627 -9.71827095 9.76100627 -20 16 C-20.66 16 -21.32 16 -22 16 C-22.33 16.99 -22.66 17.98 -23 19 C-25.375 21.6875 -25.375 21.6875 -28 24 C-28.99 24 -29.98 24 -31 24 C-31.33 25.32 -31.66 26.64 -32 28 C-32.33 27.34 -32.66 26.68 -33 26 C-33.66 26.33 -34.32 26.66 -35 27 C-34.6875 25.0625 -34.6875 25.0625 -34 23 C-33.01 22.67 -32.02 22.34 -31 22 C-29.79455727 20.50134147 -28.59019721 19.0017498 -27.3984375 17.4921875 C-25.30003974 15.25311503 -22.77298006 14.23243558 -20 13 C-19.34 12.34 -18.68 11.68 -18 11 C-17.319375 10.835 -16.63875 10.67 -15.9375 10.5 C-15.298125 10.335 -14.65875 10.17 -14 10 C-13.67 9.34 -13.34 8.68 -13 8 C-10.68152126 7.2833793 -8.34680297 6.61757973 -6 6 C-5.34 5.67 -4.68 5.34 -4 5 C-2.00039988 4.960008 0.00047242 4.95653201 2 5 C1.34 3.35 0.68 1.7 0 0 Z " fill="#866C63" transform="translate(122,67)"/>
<path d="M0 0 C4.3177458 0.50797009 8.03302114 1.19682779 12 3 C12.33 2.01 12.66 1.02 13 0 C18.61367599 4.49094079 20.57233595 10.38142116 23 17 C23.38542969 17.99386719 23.77085937 18.98773438 24.16796875 20.01171875 C25.07256724 23.26062881 25.03117791 25.54434117 24.625 28.875 C24.45871094 30.32519531 24.45871094 30.32519531 24.2890625 31.8046875 C24.19367188 32.52914062 24.09828125 33.25359375 24 34 C23.34 34 22.68 34 22 34 C21.67 34.66 21.34 35.32 21 36 C20.855625 34.96875 20.71125 33.9375 20.5625 32.875 C20.376875 31.59625 20.19125 30.3175 20 29 C19.855625 27.989375 19.71125 26.97875 19.5625 25.9375 C17.98295459 17.68876288 14.44646342 12.18627411 7.57421875 7.26171875 C6.00723253 6.25454898 4.42357025 5.27258647 2.8203125 4.32421875 C1 3 1 3 0 0 Z " fill="#8E7366" transform="translate(152,78)"/>
<path d="M0 0 C4.20762981 1.37771949 6.62331977 3.26927291 9.6875 6.4375 C10.45449219 7.21996094 11.22148437 8.00242187 12.01171875 8.80859375 C17.06018828 14.37282048 18.05422288 20.95687401 18.25 28.3125 C17.95266238 32.69822996 17.32504114 35.5220695 14.375 38.8125 C13.694375 39.4003125 13.694375 39.4003125 13 40 C12.505 38.515 12.505 38.515 12 37 C10.68 38.32 9.36 39.64 8 41 C8.46218961 38.84311515 8.95442969 37.08238627 10.02685547 35.14355469 C11.12881459 32.71625889 11.23115121 31.10518954 11.1953125 28.453125 C11.18886719 27.60878906 11.18242187 26.76445313 11.17578125 25.89453125 C11.15902344 25.02183594 11.14226562 24.14914063 11.125 23.25 C11.11597656 22.36183594 11.10695312 21.47367188 11.09765625 20.55859375 C11.07414577 18.37211942 11.04128499 16.18619906 11 14 C10.34 14 9.68 14 9 14 C8.67 12.68 8.34 11.36 8 10 C7.34 10 6.68 10 6 10 C4.97388051 8.34928604 3.97691857 6.68029994 3 5 C2.443125 4.443125 1.88625 3.88625 1.3125 3.3125 C0.879375 2.879375 0.44625 2.44625 0 2 C0 1.34 0 0.68 0 0 Z " fill="#735745" transform="translate(155,82)"/>
<path d="M0 0 C1.91823404 2.87735106 2.85650787 5.18243346 3.9453125 8.4375 C4.29980469 9.49710938 4.65429688 10.55671875 5.01953125 11.6484375 C5.38433594 12.75445312 5.74914062 13.86046875 6.125 15 C6.49753906 16.10601562 6.87007812 17.21203125 7.25390625 18.3515625 C7.60582031 19.41117188 7.95773438 20.47078125 8.3203125 21.5625 C8.64273926 22.53316406 8.96516602 23.50382812 9.29736328 24.50390625 C10 27 10 27 10 30 C9.34 30.66 8.68 31.32 8 32 C5.8125 31.75 5.8125 31.75 3 31 C1.2984375 30.566875 1.2984375 30.566875 -0.4375 30.125 C-3.8560976 29.04544286 -6.84669358 27.69201808 -10 26 C-6.87819599 25.03338637 -4.47916205 25.01011091 -1.25 25.4375 C-0.45078125 25.53933594 0.3484375 25.64117187 1.171875 25.74609375 C1.77515625 25.82988281 2.3784375 25.91367188 3 26 C3 24.68 3 23.36 3 22 C2.34 22 1.68 22 1 22 C1 21.34 1 20.68 1 20 C0.01 19.67 -0.98 19.34 -2 19 C-1.34 17.02 -0.68 15.04 0 13 C-0.33 12.67 -0.66 12.34 -1 12 C-1.04080783 10.00041636 -1.04254356 7.99954746 -1 6 C-0.34 6 0.32 6 1 6 C0.67 4.02 0.34 2.04 0 0 Z " fill="#C8B3A8" transform="translate(156,49)"/>
<path d="M0 0 C0.66 0.33 1.32 0.66 2 1 C1.8125 3.375 1.8125 3.375 1 6 C-3.08656588 8.60054192 -7.32368122 8.15851928 -12 8 C-12.33 8.99 -12.66 9.98 -13 11 C-14.99145391 12.01691264 -16.99187074 13.01642648 -19 14 C-19.99 15.485 -19.99 15.485 -21 17 C-22.0209375 17.2475 -22.0209375 17.2475 -23.0625 17.5 C-24.0215625 17.7475 -24.0215625 17.7475 -25 18 C-25.33 18.99 -25.66 19.98 -26 21 C-29.96 21.33 -33.92 21.66 -38 22 C-38.29296875 14.3828125 -38.29296875 14.3828125 -38 12 C-35 10 -35 10 -32.8125 10.375 C-32.214375 10.58125 -31.61625 10.7875 -31 11 C-31.99 11.33 -32.98 11.66 -34 12 C-34.33 13.32 -34.66 14.64 -35 16 C-28.565 15.505 -28.565 15.505 -22 15 C-22 14.01 -22 13.02 -22 12 C-21.45730469 11.81824219 -20.91460937 11.63648437 -20.35546875 11.44921875 C-19.64003906 11.19785156 -18.92460938 10.94648437 -18.1875 10.6875 C-17.12595703 10.32205078 -17.12595703 10.32205078 -16.04296875 9.94921875 C-13.92805316 9.1130649 -13.92805316 9.1130649 -12.453125 7.41796875 C-11 6 -11 6 -7.5625 5.625 C-3.83489775 5.33492189 -3.83489775 5.33492189 -1.5625 2.4375 C-1.046875 1.633125 -0.53125 0.82875 0 0 Z " fill="#D5C1B5" transform="translate(116,66)"/>
<path d="M0 0 C0.33 0 0.66 0 1 0 C1.3935986 4.19838511 0.31641577 7.22323688 -1.24609375 11.03515625 C-2.00142109 13.00370367 -2.52899482 14.94678326 -3 17 C-2.01 17 -1.02 17 0 17 C0.20319651 23.29909171 0.3815817 30.05727961 -2 36 C-4.078125 37.28515625 -4.078125 37.28515625 -6 38 C-6 38.66 -6 39.32 -6 40 C-5.34 40.33 -4.68 40.66 -4 41 C-5.98 41.495 -5.98 41.495 -8 42 C-12 35.25 -12 35.25 -12 33 C-12.66 33 -13.32 33 -14 33 C-14 31.35 -14 29.7 -14 28 C-12.5 29.375 -12.5 29.375 -11 31 C-11 31.66 -11 32.32 -11 33 C-8.69 33 -6.38 33 -4 33 C-3.17219571 26.71316203 -2.70526145 22.0236887 -5 16 C-4.44521597 10.4521597 -2.11025464 5.12490413 0 0 Z " fill="#725A48" transform="translate(69,99)"/>
<path d="M0 0 C0.66 0 1.32 0 2 0 C2.33 1.32 2.66 2.64 3 4 C3.66 4 4.32 4 5 4 C6.19723186 7.7944526 6.20292115 11.47895326 6.25 15.4375 C6.28867188 17.38462891 6.28867188 17.38462891 6.328125 19.37109375 C5.98201235 23.19893486 5.09751632 24.86727537 3 28 C2.855625 29.216875 2.71125 30.43375 2.5625 31.6875 C2.376875 32.780625 2.19125 33.87375 2 35 C0 36.3125 0 36.3125 -2 37 C-2.33 37.66 -2.66 38.32 -3 39 C-4.32 39 -5.64 39 -7 39 C-5.77290164 35.20715052 -4.07185383 32.70532658 -1.31640625 29.8203125 C2.99787801 23.85456631 3.36102677 19.34283049 2.25 12.3125 C2.14945313 11.56677734 2.04890625 10.82105469 1.9453125 10.05273438 C1.47123858 6.64608779 0.86978523 3.32540498 0 0 Z " fill="#5A3D2C" transform="translate(161,92)"/>
<path d="M0 0 C0 0.66 0 1.32 0 2 C-5.18255654 5.98557013 -11.4236832 10 -18 10 C-18 8.68 -18 7.36 -18 6 C-22.29 6 -26.58 6 -31 6 C-31.33 5.34 -31.66 4.68 -32 4 C-30.49759766 3.94392578 -30.49759766 3.94392578 -28.96484375 3.88671875 C-20.83083672 3.77897003 -20.83083672 3.77897003 -13.1875 1.4375 C-8.76931046 -0.55501685 -4.77183025 -0.25923424 0 0 Z " fill="#9A8876" transform="translate(102,53)"/>
<path d="M0 0 C3.06398451 -0.13530844 6.12197126 -0.2342407 9.1875 -0.3125 C10.05181641 -0.35439453 10.91613281 -0.39628906 11.80664062 -0.43945312 C18.31296088 -0.56409528 18.31296088 -0.56409528 21.96875 2.4375 C22.6390625 3.283125 23.309375 4.12875 24 5 C26.16620544 6.29519995 26.16620544 6.29519995 28 7 C28 7.66 28 8.32 28 9 C29.98 9.66 31.96 10.32 34 11 C31.22057978 12.38971011 29.92961386 11.58597169 27 10.6875 C26.113125 10.42324219 25.22625 10.15898438 24.3125 9.88671875 C22 9 22 9 20 7 C19.34 6.67 18.68 6.34 18 6 C18 4.35 18 2.7 18 1 C11.565 1.495 11.565 1.495 5 2 C5.33 3.32 5.66 4.64 6 6 C5.43410156 6.13277344 4.86820313 6.26554687 4.28515625 6.40234375 C3.55167969 6.57894531 2.81820312 6.75554687 2.0625 6.9375 C1.33160156 7.11152344 0.60070312 7.28554687 -0.15234375 7.46484375 C-1.99969898 7.83887569 -1.99969898 7.83887569 -3 9 C-4.99958364 9.04080783 -7.00045254 9.04254356 -9 9 C-9.33 9.99 -9.66 10.98 -10 12 C-10.99 12 -11.98 12 -13 12 C-13 11.34 -13 10.68 -13 10 C-11.56328432 9.35242375 -10.12559584 8.70700547 -8.6875 8.0625 C-7.88699219 7.70285156 -7.08648437 7.34320313 -6.26171875 6.97265625 C-4 6 -4 6 -1 5 C-0.67 3.35 -0.34 1.7 0 0 Z " fill="#95796F" transform="translate(118,66)"/>
<path d="M0 0 C4.97306516 0.49730652 8.63799813 1.55302334 13 4 C13 4.66 13 5.32 13 6 C13.66 6 14.32 6 15 6 C15.33 7.65 15.66 9.3 16 11 C16.99 11.33 17.98 11.66 19 12 C23.65552143 18.67677984 24.15148644 27.15124957 25 35 C24.01 35.495 24.01 35.495 23 36 C22.73445313 34.84242187 22.46890625 33.68484375 22.1953125 32.4921875 C21.83869236 30.95309007 21.48191309 29.41402952 21.125 27.875 C20.95097656 27.11445312 20.77695313 26.35390625 20.59765625 25.5703125 C19.60201572 21.29274576 18.47028611 17.14594191 17 13 C15.35 12.67 13.7 12.34 12 12 C12 10.68 12 9.36 12 8 C11.2575 7.7525 10.515 7.505 9.75 7.25 C6.76975429 5.89534286 5.22008455 4.36809019 3 2 C2.01 1.34 1.02 0.68 0 0 Z " fill="#41241A" transform="translate(140,75)"/>
<path d="M0 0 C1.32 0.33 2.64 0.66 4 1 C4.125 8.75 4.125 8.75 3 11 C2.78308608 12.37206521 2.61076837 13.75139272 2.46484375 15.1328125 C2.37783203 15.93847656 2.29082031 16.74414062 2.20117188 17.57421875 C2.11416016 18.41597656 2.02714844 19.25773437 1.9375 20.125 C1.84662109 20.97449219 1.75574219 21.82398437 1.66210938 22.69921875 C1.4379632 24.7991145 1.21853552 26.89951293 1 29 C0.34 29 -0.32 29 -1 29 C-0.65775391 29.87011719 -0.65775391 29.87011719 -0.30859375 30.7578125 C2.75552666 39.08452536 2.75552666 39.08452536 1 44 C-0.32 44.99 -1.64 45.98 -3 47 C-2.34 42.38 -1.68 37.76 -1 33 C-1.99 33 -2.98 33 -4 33 C-3.24603175 25.46031746 -3.24603175 25.46031746 -2.03125 23.1875 C-0.58130766 20.11186473 -0.31082362 17.11206791 0.125 13.75 C0.29257813 12.48671875 0.46015625 11.2234375 0.6328125 9.921875 C0.75398438 8.95765625 0.87515625 7.9934375 1 7 C1.66 7 2.32 7 3 7 C3 5.35 3 3.7 3 2 C2.01 2 1.02 2 0 2 C0 1.34 0 0.68 0 0 Z " fill="#856C58" transform="translate(70,83)"/>
<path d="M0 0 C0.33 0.66 0.66 1.32 1 2 C1.99 2.33 2.98 2.66 4 3 C4.33 3.99 4.66 4.98 5 6 C6.87777659 7.15888418 6.87777659 7.15888418 9.0625 8.1875 C11.25390625 9.4609375 11.25390625 9.4609375 13 11 C13.73989029 13.94859981 13.41681299 15.92600419 13 19 C12.360625 19.103125 11.72125 19.20625 11.0625 19.3125 C10.381875 19.539375 9.70125 19.76625 9 20 C8.67 20.99 8.34 21.98 8 23 C6.6582322 19.73256344 5.32805641 16.46053092 4 13.1875 C3.6184375 12.25873047 3.236875 11.32996094 2.84375 10.37304688 C2.4828125 9.48037109 2.121875 8.58769531 1.75 7.66796875 C1.41484375 6.84578857 1.0796875 6.0236084 0.734375 5.17651367 C0 3 0 3 0 0 Z " fill="#BE9E95" transform="translate(36,74)"/>
<path d="M0 0 C0.66 0.33 1.32 0.66 2 1 C1.85546875 2.828125 1.85546875 2.828125 1 5 C-1.51171875 6.484375 -1.51171875 6.484375 -4.6875 7.75 C-6.24017578 8.39195313 -6.24017578 8.39195313 -7.82421875 9.046875 C-11.06265341 10.01880373 -13.64084283 10.18130384 -17 10 C-17 9.01 -17 8.02 -17 7 C-16.34 7 -15.68 7 -15 7 C-15 6.34 -15 5.68 -15 5 C-10.3470555 1.01176186 -6.19681841 -0.74361821 0 0 Z " fill="#6F5C53" transform="translate(99,65)"/>
<path d="M0 0 C1.12438477 0.08507813 1.12438477 0.08507813 2.27148438 0.171875 C4.11926559 0.31310669 5.966012 0.46776167 7.8125 0.625 C6.22388965 3.21694321 5.41395693 4.45089405 2.4375 5.3125 C0.6875 5.52083333 -1.0625 5.72916667 -2.8125 5.9375 C-5.84159249 6.81434256 -6.61139486 7.94562126 -8.1875 10.625 C-8.5175 11.615 -8.8475 12.605 -9.1875 13.625 C-9.8475 13.625 -10.5075 13.625 -11.1875 13.625 C-11.26832094 11.66733719 -11.32660778 9.70873272 -11.375 7.75 C-11.40980469 6.65945312 -11.44460937 5.56890625 -11.48046875 4.4453125 C-11.38378906 3.51460937 -11.28710938 2.58390625 -11.1875 1.625 C-7.31959648 -0.95360235 -4.42136085 -0.38614505 0 0 Z " fill="#7D5F46" transform="translate(76.1875,58.375)"/>
<path d="M0 0 C2.97 0 5.94 0 9 0 C9.66 1.32 10.32 2.64 11 4 C11.66 4.33 12.32 4.66 13 5 C13 5.66 13 6.32 13 7 C5.41 7.33 -2.18 7.66 -10 8 C-9.67 7.34 -9.34 6.68 -9 6 C-7.865625 5.71125 -6.73125 5.4225 -5.5625 5.125 C-4.386875 4.75375 -3.21125 4.3825 -2 4 C-1.34 2.68 -0.68 1.36 0 0 Z " fill="#78544E" transform="translate(127,68)"/>
<path d="M0 0 C0 3.63 0 7.26 0 11 C-8.57142857 11.28571429 -8.57142857 11.28571429 -12 9 C-9.94195865 3.44328837 -5.88351438 0 0 0 Z " fill="#A69182" transform="translate(135,42)"/>
<path d="M0 0 C0 0.99 0 1.98 0 3 C-1.33333333 4 -2.66666667 5 -4 6 C-4 6.99 -4 7.98 -4 9 C-10.75903614 8.07228916 -10.75903614 8.07228916 -13.5 7.25 C-17.27372056 6.87262794 -19.71991659 8.23380124 -23 10 C-23.33 10.99 -23.66 11.98 -24 13 C-25.32 12.67 -26.64 12.34 -28 12 C-27.34 12 -26.68 12 -26 12 C-26 11.34 -26 10.68 -26 10 C-27.65 10 -29.3 10 -31 10 C-31 9.67 -31 9.34 -31 9 C-30.45472656 8.89042969 -29.90945312 8.78085937 -29.34765625 8.66796875 C-20.91017589 6.89393442 -13.09502314 4.1307479 -5.1640625 0.76953125 C-3 0 -3 0 0 0 Z " fill="#CFC0B6" transform="translate(128,43)"/>
<path d="M0 0 C1.60407328 -0.02708567 3.2082785 -0.04643483 4.8125 -0.0625 C5.70582031 -0.07410156 6.59914062 -0.08570313 7.51953125 -0.09765625 C10 0 10 0 13 1 C13.6875 3.0625 13.6875 3.0625 14 5 C15.32 5 16.64 5 18 5 C18 5.66 18 6.32 18 7 C11.02330843 7.39325819 5.48343811 6.63096039 -1 4 C-0.67 2.68 -0.34 1.36 0 0 Z " fill="#74584F" transform="translate(134,58)"/>
<path d="M0 0 C1.0689485 2.71009886 1.11013214 3.73791862 -0.0390625 6.47265625 C-0.56242187 7.32730469 -1.08578125 8.18195313 -1.625 9.0625 C-2.13289063 9.91972656 -2.64078125 10.77695313 -3.1640625 11.66015625 C-5.65046547 14.82899748 -8.44911182 16.27191127 -12.046875 17.9609375 C-14.43351893 19.23063207 -16.24286286 20.81857657 -18.25 22.625 C-18.95640625 23.25664062 -19.6628125 23.88828125 -20.390625 24.5390625 C-20.92171875 25.02117187 -21.4528125 25.50328125 -22 26 C-22.33 25.01 -22.66 24.02 -23 23 C-21.23361856 21.51551984 -19.46173862 20.03758035 -17.6875 18.5625 C-16.20830078 17.32693359 -16.20830078 17.32693359 -14.69921875 16.06640625 C-12 14 -12 14 -9 13 C-7.79117904 10.99983534 -7.79117904 10.99983534 -7 9 C-6.01 9 -5.02 9 -4 9 C-3.896875 8.071875 -3.79375 7.14375 -3.6875 6.1875 C-2.9929808 2.96745642 -2.52259061 1.97420135 0 0 Z " fill="#795B47" transform="translate(167,118)"/>
<path d="M0 0 C0.34548714 6.33393082 -0.70657253 11.10261508 -3 17 C-4.4783226 14.04335481 -4.06032783 11.25770263 -4 8 C-4.99 9.485 -4.99 9.485 -6 11 C-8.09375 11.6953125 -8.09375 11.6953125 -10.5 12.125 C-13.85719457 12.73626636 -13.85719457 12.73626636 -17 14 C-16.7734375 12.13671875 -16.7734375 12.13671875 -16 10 C-14.0390625 8.76953125 -14.0390625 8.76953125 -11.625 7.8125 C-10.43777344 7.32716797 -10.43777344 7.32716797 -9.2265625 6.83203125 C-7.49724342 6.18581201 -5.75137929 5.5837931 -4 5 C-4 4.01 -4 3.02 -4 2 C-1 0 -1 0 0 0 Z " fill="#543D2A" transform="translate(68,94)"/>
<path d="M0 0 C-0.66 0 -1.32 0 -2 0 C-2 0.99 -2 1.98 -2 3 C1.63 3 5.26 3 9 3 C8.67 4.98 8.34 6.96 8 9 C7.34 8.67 6.68 8.34 6 8 C6.33 7.01 6.66 6.02 7 5 C1.25206873 4.6618864 -2.07262111 4.80386234 -7 8 C-10.3125 8.1875 -10.3125 8.1875 -13 8 C-12.67 7.01 -12.34 6.02 -12 5 C-11.34 5 -10.68 5 -10 5 C-9.67 4.01 -9.34 3.02 -9 2 C-3.69230769 -1.23076923 -3.69230769 -1.23076923 0 0 Z " fill="#D6C6B9" transform="translate(94,61)"/>
<path d="M0 0 C0.66 0.33 1.32 0.66 2 1 C1.25 7.75 1.25 7.75 -1 10 C-1.24377883 13.35744112 -1.24377883 13.35744112 -1.125 17.125 C-1.10695313 18.40632813 -1.08890625 19.68765625 -1.0703125 21.0078125 C-1.04710938 21.99523437 -1.02390625 22.98265625 -1 24 C-1.66 24 -2.32 24 -3 24 C-6.15651138 18.56378597 -5.62246713 12.58563269 -4.1875 6.625 C-3.04253309 4.09402052 -1.7903248 2.1158384 0 0 Z " fill="#4C2823" transform="translate(89,98)"/>
<path d="M0 0 C4.83290538 4.049191 6.3833652 7.96719209 8 14 C7.34 14 6.68 14 6 14 C6 13.34 6 12.68 6 12 C5.34 12 4.68 12 4 12 C4 11.34 4 10.68 4 10 C2.68 10 1.36 10 0 10 C0 9.34 0 8.68 0 8 C-0.99 7.67 -1.98 7.34 -3 7 C-4.84499398 5.12382302 -6.3683599 3.07262391 -8 1 C-5.69 1.66 -3.38 2.32 -1 3 C-0.67 2.01 -0.34 1.02 0 0 Z " fill="#A18B7F" transform="translate(165,78)"/>
<path d="M0 0 C4.24561354 3.11344993 4.87304029 6.46468176 5.6875 11.40234375 C6.35067846 16.91501466 6.73827852 21.95580272 4 27 C2.375 28.8125 2.375 28.8125 1 30 C1.16371094 29.22398438 1.32742187 28.44796875 1.49609375 27.6484375 C2.144912 22.9507922 2.10640387 18.35986339 2.0625 13.625 C2.05798828 12.69816406 2.05347656 11.77132812 2.04882812 10.81640625 C2.03711574 8.54420291 2.02071372 6.27213612 2 4 C1.34 4 0.68 4 0 4 C0 2.68 0 1.36 0 0 Z " fill="#806754" transform="translate(167,92)"/>
<path d="M0 0 C0.66 0.33 1.32 0.66 2 1 C1.8125 3.375 1.8125 3.375 1 6 C-3.08656588 8.60054192 -7.32368122 8.15851928 -12 8 C-12.33 8.99 -12.66 9.98 -13 11 C-14.98320018 12.03291676 -16.98347806 13.0337499 -19 14 C-19.33 14.66 -19.66 15.32 -20 16 C-22.50390625 16.4140625 -22.50390625 16.4140625 -25.5625 16.625 C-26.57441406 16.69976562 -27.58632812 16.77453125 -28.62890625 16.8515625 C-29.41136719 16.90054688 -30.19382812 16.94953125 -31 17 C-27.78360346 15.25434889 -25.67986596 14.795563 -22 15 C-22 14.01 -22 13.02 -22 12 C-21.45730469 11.81824219 -20.91460937 11.63648437 -20.35546875 11.44921875 C-19.28232422 11.07216797 -19.28232422 11.07216797 -18.1875 10.6875 C-17.12595703 10.32205078 -17.12595703 10.32205078 -16.04296875 9.94921875 C-13.92805316 9.1130649 -13.92805316 9.1130649 -12.453125 7.41796875 C-11 6 -11 6 -7.5625 5.625 C-3.83489775 5.33492189 -3.83489775 5.33492189 -1.5625 2.4375 C-1.046875 1.633125 -0.53125 0.82875 0 0 Z " fill="#DBC7C0" transform="translate(116,66)"/>
<path d="M0 0 C0.66 0 1.32 0 2 0 C2 0.66 2 1.32 2 2 C2.99 2.33 3.98 2.66 5 3 C6.1875 6.5625 6.1875 6.5625 7 10 C6.34 10 5.68 10 5 10 C4.67 10.66 4.34 11.32 4 12 C-2.43851588 10.82936075 -8.21700048 9.10307291 -14 6 C-12.4375 5.3125 -12.4375 5.3125 -10 5 C-7.64583651 5.94992562 -5.31104818 6.94952356 -3 8 C-2.01 8 -1.02 8 0 8 C0 5.36 0 2.72 0 0 Z " fill="#C0ABA0" transform="translate(160,69)"/>
<path d="M0 0 C1.65 0 3.3 0 5 0 C5 1.65 5 3.3 5 5 C4.34 5 3.68 5 3 5 C2.95101562 5.59167969 2.90203125 6.18335937 2.8515625 6.79296875 C2.43543133 11.19104472 1.95034405 14.96928897 0 19 C-1.4783226 16.04335481 -1.06032783 13.25770263 -1 10 C-1.99 10.495 -1.99 10.495 -3 11 C-2.67 8.36 -2.34 5.72 -2 3 C-1.34 3 -0.68 3 0 3 C0 2.01 0 1.02 0 0 Z " fill="#644C36" transform="translate(68,85)"/>
<path d="M0 0 C0.66 0.33 1.32 0.66 2 1 C1.49344006 3.85515602 1.04788763 6.32570343 0 9 C-3.68945957 11.52991513 -7.63020432 11.40461071 -12 11 C-13.75 9.5 -13.75 9.5 -15 8 C-15.99 8 -16.98 8 -18 8 C-18 7.34 -18 6.68 -18 6 C-14.95102801 5.92909367 -12.37949985 5.88892687 -9.4375 6.75 C-6.78196915 7.29516041 -6.78196915 7.29516041 -4.3125 5.0625 C-3.1678125 4.0415625 -3.1678125 4.0415625 -2 3 C-1.34 3 -0.68 3 0 3 C0 2.01 0 1.02 0 0 Z " fill="#6C4F40" transform="translate(64,90)"/>
<path d="M0 0 C0.33 0 0.66 0 1 0 C1.85944362 9.11965173 0.4902001 15.54615169 -5 23 C-5.99 23.66 -6.98 24.32 -8 25 C-8.33 24.01 -8.66 23.02 -9 22 C-7.71810412 19.96664791 -6.37843192 17.96918846 -5 16 C-4.28426473 14.35380887 -3.5974304 12.69271945 -3 11 C-2.34 11 -1.68 11 -1 11 C-1.01160156 10.37351562 -1.02320313 9.74703125 -1.03515625 9.1015625 C-1.04417969 8.28429687 -1.05320313 7.46703125 -1.0625 6.625 C-1.07410156 5.81289062 -1.08570313 5.00078125 -1.09765625 4.1640625 C-1 2 -1 2 0 0 Z " fill="#9E8A79" transform="translate(175,113)"/>
<path d="M0 0 C4.50874031 6.76311047 4.02369517 12.22545021 3 20 C2.34 20 1.68 20 1 20 C0.67 20.66 0.34 21.32 0 22 C-0.90249856 16.85910079 -0.97986395 12.30273626 -0.5625 7.0625 C-0.51029297 6.37865234 -0.45808594 5.69480469 -0.40429688 4.99023438 C-0.27630102 3.32628831 -0.13912281 1.6630527 0 0 Z " fill="#917C6B" transform="translate(173,92)"/>
<path d="M0 0 C0.99 0 1.98 0 3 0 C3.66 0.66 4.32 1.32 5 2 C5.99 1.67 6.98 1.34 8 1 C8 1.99 8 2.98 8 4 C8.66 4 9.32 4 10 4 C10 5.65 10 7.3 10 9 C11.32 9 12.64 9 14 9 C14 9.99 14 10.98 14 12 C12.35 11.67 10.7 11.34 9 11 C9 10.34 9 9.68 9 9 C8.443125 8.773125 7.88625 8.54625 7.3125 8.3125 C4.33840412 6.62449964 2.27991135 4.53323483 0 2 C0 1.34 0 0.68 0 0 Z " fill="#68423B" transform="translate(86,122)"/>
<path d="M0 0 C0.66 0 1.32 0 2 0 C2.33 1.32 2.66 2.64 3 4 C4.11375 4.103125 5.2275 4.20625 6.375 4.3125 C8.169375 4.6528125 8.169375 4.6528125 10 5 C12.96525275 9.44787913 13 13.73398395 13 19 C10.69 19 8.38 19 6 19 C6.99 18.34 7.98 17.68 9 17 C9.7777025 12.89692728 9.7777025 12.89692728 9 9 C7.0537324 7.34351002 5.15514273 6.2937888 2.84765625 5.203125 C1 4 1 4 0.24609375 1.859375 C0.16488281 1.24578125 0.08367188 0.6321875 0 0 Z " fill="#A17C70" transform="translate(39,76)"/>
<path d="M0 0 C1.32 0 2.64 0 4 0 C6 3 6 3 6 6 C5.43410156 6.13277344 4.86820313 6.26554687 4.28515625 6.40234375 C3.55167969 6.57894531 2.81820312 6.75554687 2.0625 6.9375 C1.33160156 7.11152344 0.60070312 7.28554687 -0.15234375 7.46484375 C-1.99969898 7.83887569 -1.99969898 7.83887569 -3 9 C-4.99958364 9.04080783 -7.00045254 9.04254356 -9 9 C-9.33 9.99 -9.66 10.98 -10 12 C-10.99 12 -11.98 12 -13 12 C-13 11.34 -13 10.68 -13 10 C-11.56328432 9.35242375 -10.12559584 8.70700547 -8.6875 8.0625 C-7.88699219 7.70285156 -7.08648437 7.34320313 -6.26171875 6.97265625 C-4 6 -4 6 -1 5 C-0.67 3.35 -0.34 1.7 0 0 Z " fill="#9A837A" transform="translate(118,66)"/>
<path d="M0 0 C0.33 0 0.66 0 1 0 C1 6.27 1 12.54 1 19 C-1.31 19 -3.62 19 -6 19 C-5.65066406 18.04738281 -5.30132812 17.09476563 -4.94140625 16.11328125 C-4.48158334 14.84642221 -4.02195838 13.5794913 -3.5625 12.3125 C-3.33240234 11.68666016 -3.10230469 11.06082031 -2.86523438 10.41601562 C-1.61946333 6.96757692 -0.60195551 3.6186521 0 0 Z " fill="#908475" transform="translate(42,181)"/>
<path d="M0 0 C0.91007812 0.00902344 1.82015625 0.01804688 2.7578125 0.02734375 C3.45648438 0.03894531 4.15515625 0.05054688 4.875 0.0625 C4.875 0.7225 4.875 1.3825 4.875 2.0625 C0.68338618 5.28599997 -4.28299666 7.98735571 -9.125 10.0625 C-9.785 9.7325 -10.445 9.4025 -11.125 9.0625 C-6.375 5.0625 -6.375 5.0625 -4.125 5.0625 C-5.115 3.7425 -6.105 2.4225 -7.125 1.0625 C-4.60024538 -0.19987731 -2.81299534 -0.03606404 0 0 Z " fill="#B0A196" transform="translate(97.125,52.9375)"/>
<path d="M0 0 C4.97306516 0.49730652 8.63799813 1.55302334 13 4 C13 4.66 13 5.32 13 6 C13.66 6 14.32 6 15 6 C15.33 7.65 15.66 9.3 16 11 C15.34 11 14.68 11 14 11 C13.67 10.34 13.34 9.68 13 9 C11.528595 8.117157 10.02304016 7.29043856 8.5 6.5 C4.11111111 4.22222222 4.11111111 4.22222222 3 2 C2.01 1.34 1.02 0.68 0 0 Z " fill="#53392E" transform="translate(140,75)"/>
<path d="M0 0 C2.42540943 3.63811414 2.5483974 4.69116326 2 9 C0.52365438 12.44137707 -1.18764587 15.72481718 -3 19 C-3.99 18.67 -4.98 18.34 -6 18 C-5.566875 17.2575 -5.13375 16.515 -4.6875 15.75 C-2.19116854 10.82866084 -1.21968804 5.34586673 0 0 Z " fill="#B1A69F" transform="translate(39,181)"/>
<path d="M0 0 C0.66 0.33 1.32 0.66 2 1 C1.67 1.33 1.34 1.66 1 2 C0.896875 3.134375 0.79375 4.26875 0.6875 5.4375 C0.460625 6.613125 0.23375 7.78875 0 9 C-2 10.3125 -2 10.3125 -4 11 C-4.33 11.66 -4.66 12.32 -5 13 C-6.32 13 -7.64 13 -9 13 C-7.47987323 7.59510481 -3.72614782 4.01507372 0 0 Z " fill="#693933" transform="translate(163,118)"/>
<path d="M0 0 C0.33 0.99 0.66 1.98 1 3 C0.34 3.66 -0.32 4.32 -1 5 C-1.60311615 6.68761858 -2.13850237 8.40014476 -2.625 10.125 C-2.88539062 11.03507813 -3.14578125 11.94515625 -3.4140625 12.8828125 C-3.60742188 13.58148438 -3.80078125 14.28015625 -4 15 C-4.66 15 -5.32 15 -6 15 C-6 16.65 -6 18.3 -6 20 C-6.66 19.34 -7.32 18.68 -8 18 C-7.64844426 13.42977535 -6.7202287 9.2499768 -5 5 C-4.34 4.67 -3.68 4.34 -3 4 C-2.67 3.01 -2.34 2.02 -2 1 C-1.34 0.67 -0.68 0.34 0 0 Z " fill="#A6978C" transform="translate(48,166)"/>
<path d="M0 0 C-1.4562545 0.67119549 -2.91507867 1.33681807 -4.375 2 C-5.18710938 2.37125 -5.99921875 2.7425 -6.8359375 3.125 C-9 4 -9 4 -11 4 C-11.33 4.99 -11.66 5.98 -12 7 C-13.70268601 7.98231885 -15.40907508 8.95962138 -17.14453125 9.8828125 C-19.90299102 11.54369564 -21.83115867 13.63399128 -24 16 C-21.58899127 10.30125208 -17.16748388 5.33015628 -12 2 C-2.9390681 -1.46953405 -2.9390681 -1.46953405 0 0 Z " fill="#5E473C" transform="translate(117,77)"/>
<path d="M0 0 C0.33 0 0.66 0 1 0 C1 2.97 1 5.94 1 9 C6.94 8.505 6.94 8.505 13 8 C11.02 8.99 11.02 8.99 9 10 C8.01 10.53625 7.02 11.0725 6 11.625 C3 13 3 13 -1 13 C-1.02686553 11.02090602 -1.04633375 9.04171029 -1.0625 7.0625 C-1.07410156 5.96035156 -1.08570312 4.85820313 -1.09765625 3.72265625 C-1 1 -1 1 0 0 Z " fill="#B7A192" transform="translate(77,79)"/>
<path d="M0 0 C0.66 0 1.32 0 2 0 C5.05793991 5.38197425 5.05793991 5.38197425 4.8125 8 C4.544375 8.66 4.27625 9.32 4 10 C2.44384336 14.3996289 2.44384336 14.3996289 2 19 C1.01 19 0.02 19 -1 19 C-0.76603516 17.44539063 -0.76603516 17.44539063 -0.52734375 15.859375 C-0.33032723 14.48964109 -0.13373489 13.11984611 0.0625 11.75 C0.16626953 11.06808594 0.27003906 10.38617188 0.37695312 9.68359375 C0.86524925 6.2150075 1.22762141 3.33088887 0 0 Z " fill="#A58D7B" transform="translate(55,132)"/>
<path d="M0 0 C4.455 0.99 4.455 0.99 9 2 C8.01 2.66 7.02 3.32 6 4 C6.66 5.32 7.32 6.64 8 8 C7.52046875 7.51917969 7.0409375 7.03835937 6.546875 6.54296875 C2.8724167 4.31687822 -0.5266376 4.43506856 -4.75 4.3125 C-5.93916016 4.26125977 -5.93916016 4.26125977 -7.15234375 4.20898438 C-9.10107504 4.12680896 -11.05051362 4.06171955 -13 4 C-13 3.67 -13 3.34 -13 3 C-12.14535156 2.95101562 -11.29070312 2.90203125 -10.41015625 2.8515625 C-9.30542969 2.77679688 -8.20070313 2.70203125 -7.0625 2.625 C-5.40927734 2.52058594 -5.40927734 2.52058594 -3.72265625 2.4140625 C-2.37494141 2.20910156 -2.37494141 2.20910156 -1 2 C-0.67 1.34 -0.34 0.68 0 0 Z " fill="#CEB8AD" transform="translate(133,62)"/>
<path d="M0 0 C0.66 0.33 1.32 0.66 2 1 C0.68 1.99 -0.64 2.98 -2 4 C-1.34 2.68 -0.68 1.36 0 0 Z M-4 4 C-3.34 4.33 -2.68 4.66 -2 5 C-8.435 10.94 -8.435 10.94 -15 17 C-15.33 16.01 -15.66 15.02 -16 14 C-14.82630859 13.04287109 -14.82630859 13.04287109 -13.62890625 12.06640625 C-12.61699219 11.24011719 -11.60507813 10.41382813 -10.5625 9.5625 C-9.55316406 8.73878906 -8.54382813 7.91507813 -7.50390625 7.06640625 C-5.70216039 5.58798996 -5.70216039 5.58798996 -4 4 Z " fill="#7A4441" transform="translate(160,127)"/>
<path d="M0 0 C1.60407328 -0.02708567 3.2082785 -0.04643483 4.8125 -0.0625 C5.70582031 -0.07410156 6.59914062 -0.08570313 7.51953125 -0.09765625 C10 0 10 0 13 1 C13.6875 3.0625 13.6875 3.0625 14 5 C15.32 5 16.64 5 18 5 C18 5.66 18 6.32 18 7 C14.7 7 11.4 7 8 7 C9.32 6.67 10.64 6.34 12 6 C11.1044206 3.87856267 11.1044206 3.87856267 9 2 C6.0141919 1.33825175 3.05138131 1.12794052 0 1 C0 0.67 0 0.34 0 0 Z " fill="#93766D" transform="translate(134,58)"/>
<path d="M0 0 C1.65 0 3.3 0 5 0 C5.37125 0.94875 5.7425 1.8975 6.125 2.875 C7.73995905 6.25553808 7.73995905 6.25553808 11.1875 7.375 C12.115625 7.58125 13.04375 7.7875 14 8 C14 8.66 14 9.32 14 10 C5.33333333 7.66666667 5.33333333 7.66666667 3 6 C1.25 2.875 1.25 2.875 0 0 Z " fill="#E5CDC1" transform="translate(138,65)"/>
<path d="M0 0 C2 3 2 3 1.625 5.1875 C1.41875 5.785625 1.2125 6.38375 1 7 C-0.98 7 -2.96 7 -5 7 C-5.33 6.34 -5.66 5.68 -6 5 C-3.9927092 1.9890638 -3.16115776 1.36983503 0 0 Z " fill="#947F6C" transform="translate(131,45)"/>
<path d="M0 0 C0.66 0 1.32 0 2 0 C2 0.66 2 1.32 2 2 C4.97 2.495 4.97 2.495 8 3 C8 3.99 8 4.98 8 6 C8.66 6.33 9.32 6.66 10 7 C9.34 8.32 8.68 9.64 8 11 C8 9.68 8 8.36 8 7 C6.68 7 5.36 7 4 7 C4 6.34 4 5.68 4 5 C3.01 5 2.02 5 1 5 C0.67 3.35 0.34 1.7 0 0 Z " fill="#7E554F" transform="translate(93,131)"/>
<path d="M0 0 C0.66 0.33 1.32 0.66 2 1 C-0.46153846 5.8 -0.46153846 5.8 -3.1875 6.8125 C-3.785625 6.874375 -4.38375 6.93625 -5 7 C-5 7.66 -5 8.32 -5 9 C-13.0625 9.15808824 -13.0625 9.15808824 -17 8 C-17.33 7.34 -17.66 6.68 -18 6 C-14.95102801 5.92909367 -12.37949985 5.88892687 -9.4375 6.75 C-6.78196915 7.29516041 -6.78196915 7.29516041 -4.3125 5.0625 C-3.1678125 4.0415625 -3.1678125 4.0415625 -2 3 C-1.34 3 -0.68 3 0 3 C0 2.01 0 1.02 0 0 Z " fill="#7A5C4D" transform="translate(64,90)"/>
<path d="M0 0 C0.99 0.495 0.99 0.495 2 1 C1.67 3.31 1.34 5.62 1 8 C1.515625 7.835 2.03125 7.67 2.5625 7.5 C5.73363876 6.84951 8.77218334 6.9379266 12 7 C12 7.66 12 8.32 12 9 C6.06 9.495 6.06 9.495 0 10 C0 6.7 0 3.4 0 0 Z " fill="#C7B3A6" transform="translate(78,78)"/>
<path d="M0 0 C0.33 0 0.66 0 1 0 C3.25 7.5 3.25 7.5 1 12 C-2.96 11.67 -6.92 11.34 -11 11 C-11 10.67 -11 10.34 -11 10 C-8.03 10 -5.06 10 -2 10 C-2 9.01 -2 8.02 -2 7 C-1.34 7 -0.68 7 0 7 C0 4.69 0 2.38 0 0 Z " fill="#BB9E93" transform="translate(154,55)"/>
<path d="M0 0 C1.98 0.495 1.98 0.495 4 1 C4.66 3.31 5.32 5.62 6 8 C3.03 7.505 3.03 7.505 0 7 C-1.04449911 3.86650268 -0.93423645 3.01031744 0 0 Z " fill="#CBBAB4" transform="translate(146,28)"/>
<path d="M0 0 C2.94230377 4.41345565 4.14218048 7.53080168 3.625 12.875 C3.41875 13.90625 3.2125 14.9375 3 16 C2.67 16 2.34 16 2 16 C-0.27141454 10.60539047 -0.20413361 5.73842251 0 0 Z " fill="#533E2E" transform="translate(63,112)"/>
<path d="M0 0 C1.32 1.32 2.64 2.64 4 4 C1.86640881 5.29539465 0.52392246 6.03274515 -2 5.875 C-4.59521914 4.73959163 -6.11664483 3.08514322 -8 1 C-5.69 1.66 -3.38 2.32 -1 3 C-0.67 2.01 -0.34 1.02 0 0 Z " fill="#AC968B" transform="translate(165,78)"/>
<path d="M0 0 C1.34374179 4.03122538 0.4530301 6.05606115 -1 10 C-3.125 12.4375 -3.125 12.4375 -5 14 C-5.33 13.01 -5.66 12.02 -6 11 C-4.71810412 8.96664791 -3.37843192 6.96918846 -2 5 C-1.28426473 3.35380887 -0.5974304 1.69271945 0 0 Z " fill="#8E7A6D" transform="translate(172,124)"/>
<path d="M0 0 C0.66 0.33 1.32 0.66 2 1 C1.2884375 1.61875 1.2884375 1.61875 0.5625 2.25 C-1.16266518 4.182185 -1.56584875 5.48192275 -2 8 C-2.99 8 -3.98 8 -5 8 C-5.33 9.32 -5.66 10.64 -6 12 C-6.33 11.34 -6.66 10.68 -7 10 C-7.99 10.495 -7.99 10.495 -9 11 C-8.6875 9.0625 -8.6875 9.0625 -8 7 C-7.01 6.67 -6.02 6.34 -5 6 C-3.57142881 4.59894424 -3.57142881 4.59894424 -2.3125 2.9375 C-1.1678125 1.4834375 -1.1678125 1.4834375 0 0 Z " fill="#917A6F" transform="translate(96,83)"/>
<path d="M0 0 C2.33936818 2.12669835 3.80653848 4.06224856 5 7 C5 7.99 5 8.98 5 10 C5.99 10 6.98 10 8 10 C8 10.66 8 11.32 8 12 C8.66 12.33 9.32 12.66 10 13 C8.68 13.33 7.36 13.66 6 14 C2 7.25 2 7.25 2 5 C1.34 5 0.68 5 0 5 C0 3.35 0 1.7 0 0 Z " fill="#866C5F" transform="translate(55,127)"/>
<path d="M0 0 C0.66 0.33 1.32 0.66 2 1 C1.8125 3.375 1.8125 3.375 1 6 C-1.68490027 7.59642719 -3.21434929 8.12740282 -6.3125 7.625 C-6.869375 7.41875 -7.42625 7.2125 -8 7 C-7.05125 6.401875 -6.1025 5.80375 -5.125 5.1875 C-1.86035803 3.18437474 -1.86035803 3.18437474 0 0 Z " fill="#CAB8AE" transform="translate(116,66)"/>
<path d="M0 0 C0.33 0.66 0.66 1.32 1 2 C1.99 2.33 2.98 2.66 4 3 C5.47666292 6.49029418 5.07164685 10.27436386 5 14 C4 12 4 12 3 10 C2.46375 9.01 1.9275 8.02 1.375 7 C0 4 0 4 0 0 Z " fill="#6F5D4C" transform="translate(46,101)"/>
<path d="M0 0 C0.33 0 0.66 0 1 0 C2.0034246 5.017123 2.08243558 8.28711947 0 13 C-0.66 13.66 -1.32 14.32 -2 15 C-1.85930804 12.87465341 -1.71229079 10.74972471 -1.5625 8.625 C-1.48128906 7.44164063 -1.40007812 6.25828125 -1.31640625 5.0390625 C-1 2 -1 2 0 0 Z " fill="#998069" transform="translate(73,92)"/>
<path d="M0 0 C1.32 0.33 2.64 0.66 4 1 C4.3152595 6.98993047 3.68219822 10.63560356 1 16 C0.67 16 0.34 16 0 16 C0.33 13.03 0.66 10.06 1 7 C1.66 7 2.32 7 3 7 C3 5.35 3 3.7 3 2 C2.01 2 1.02 2 0 2 C0 1.34 0 0.68 0 0 Z " fill="#77604A" transform="translate(70,83)"/>
<path d="M0 0 C0.66 0.33 1.32 0.66 2 1 C0.41138965 3.59194321 -0.39854307 4.82589405 -3.375 5.6875 C-4.24125 5.790625 -5.1075 5.89375 -6 6 C-6.928125 6.185625 -7.85625 6.37125 -8.8125 6.5625 C-9.534375 6.706875 -10.25625 6.85125 -11 7 C-10.34 6.01 -9.68 5.02 -9 4 C-5.375 3.3125 -5.375 3.3125 -2 3 C-2 2.34 -2 1.68 -2 1 C-1.34 0.67 -0.68 0.34 0 0 Z " fill="#A69186" transform="translate(92,85)"/>
<path d="M0 0 C0 1.32 0 2.64 0 4 C-2.3125 4.6875 -2.3125 4.6875 -5 5 C-6.8125 3.625 -6.8125 3.625 -8 2 C-8 1.67 -8 1.34 -8 1 C-2.25 0 -2.25 0 0 0 Z " fill="#4A3421" transform="translate(65,128)"/>
<path d="M0 0 C2.4375 0.6875 2.4375 0.6875 5 2 C5.8125 4.625 5.8125 4.625 6 7 C6.66 7 7.32 7 8 7 C8 7.99 8 8.98 8 10 C7.34 10 6.68 10 6 10 C4.97388051 8.34928604 3.97691857 6.68029994 3 5 C2.443125 4.443125 1.88625 3.88625 1.3125 3.3125 C0.879375 2.879375 0.44625 2.44625 0 2 C0 1.34 0 0.68 0 0 Z " fill="#6D5045" transform="translate(155,82)"/>
<path d="M0 0 C2.31282587 3.46923881 2.42478586 4.92205575 2 9 C0.5 10.875 0.5 10.875 -1 12 C-1.14285714 3.42857143 -1.14285714 3.42857143 0 0 Z " fill="#AEA096" transform="translate(39,181)"/>
<path d="M0 0 C0.33 0.99 0.66 1.98 1 3 C0.34 3.66 -0.32 4.32 -1 5 C-1.70710678 6.64991582 -2.37943989 8.31562256 -3 10 C-3.66 9.67 -4.32 9.34 -5 9 C-5 7.68 -5 6.36 -5 5 C-4.34 4.67 -3.68 4.34 -3 4 C-2.67 3.01 -2.34 2.02 -2 1 C-1.34 0.67 -0.68 0.34 0 0 Z " fill="#A19383" transform="translate(48,166)"/>
<path d="M0 0 C3.14958831 3.42346555 3.56179109 6.44262737 4 11 C3.01 11.495 3.01 11.495 2 12 C0.00214565 7.8794254 -0.17835515 4.54805635 0 0 Z " fill="#4C3B2A" transform="translate(51,109)"/>
<path d="M0 0 C0.33 0.66 0.66 1.32 1 2 C1.99 2.33 2.98 2.66 4 3 C4.33 3.99 4.66 4.98 5 6 C8.00007271 7.70855022 8.00007271 7.70855022 11 9 C8 10 8 10 4.9375 8.8125 C1.98090494 6.98821794 1.01334316 6.24269811 0 3 C0 2.01 0 1.02 0 0 Z " fill="#B39688" transform="translate(36,74)"/>
<path d="M0 0 C0 0.33 0 0.66 0 1 C-1.65 1 -3.3 1 -5 1 C-5 1.66 -5 2.32 -5 3 C-6.32 3 -7.64 3 -9 3 C-8.67 1.68 -8.34 0.36 -8 -1 C-4.59745511 -2.2151946 -3.06748874 -1.86240388 0 0 Z " fill="#543D36" transform="translate(92,71)"/>
<path d="M0 0 C0.33 0 0.66 0 1 0 C1.125 2.875 1.125 2.875 1 6 C0.34 6.66 -0.32 7.32 -1 8 C-3 7.8125 -3 7.8125 -5 7 C-5.66 6.01 -6.32 5.02 -7 4 C-4.69 4 -2.38 4 0 4 C0 2.68 0 1.36 0 0 Z " fill="#66503C" transform="translate(65,128)"/>
<path d="M0 0 C2.45823172 3.68734758 3.01242616 6.69699971 4 11 C3.01 11.495 3.01 11.495 2 12 C2 11.34 2 10.68 2 10 C1.34 10 0.68 10 0 10 C0 6.7 0 3.4 0 0 Z " fill="#9F8A7E" transform="translate(173,92)"/>
<path d="M0 0 C2.31 0.33 4.62 0.66 7 1 C7 5 7 5 5 8 C4 7 4 7 3.9375 4.4375 C3.958125 3.633125 3.97875 2.82875 4 2 C2.68 1.67 1.36 1.34 0 1 C0 0.67 0 0.34 0 0 Z " fill="#D6C1B3" transform="translate(127,54)"/>
<path d="M0 0 C0.33 0 0.66 0 1 0 C0.67 3.3 0.34 6.6 0 10 C-1.32 9.67 -2.64 9.34 -4 9 C-2.68 6.03 -1.36 3.06 0 0 Z " fill="#9C9186" transform="translate(40,190)"/>
<path d="M0 0 C0.33 0.66 0.66 1.32 1 2 C1.66 2 2.32 2 3 2 C3 5.3 3 8.6 3 12 C2.34 11.67 1.68 11.34 1 11 C0.5859375 8.49609375 0.5859375 8.49609375 0.375 5.4375 C0.30023438 4.42558594 0.22546875 3.41367188 0.1484375 2.37109375 C0.09945312 1.58863281 0.05046875 0.80617188 0 0 Z " fill="#937D6C" transform="translate(170,90)"/>
<path d="M0 0 C0.103125 0.639375 0.20625 1.27875 0.3125 1.9375 C0.539375 2.618125 0.76625 3.29875 1 4 C1.99 4.33 2.98 4.66 4 5 C1.29120665 6.35439668 -1.00933268 6.06501451 -4 6 C-3.67 5.01 -3.34 4.02 -3 3 C-2.34 3 -1.68 3 -1 3 C-0.67 2.01 -0.34 1.02 0 0 Z " fill="#BEA599" transform="translate(85,63)"/>
<path d="M0 0 C0.33 0.66 0.66 1.32 1 2 C-0.26149851 5.78449552 -1.58844695 6.13176857 -5 8 C-5.99 8.66 -6.98 9.32 -8 10 C-6.34908222 5.70761377 -3.26245434 3.1206085 0 0 Z " fill="#7F4E4B" transform="translate(162,127)"/>
<path d="M0 0 C0.66 0 1.32 0 2 0 C2 0.99 2 1.98 2 3 C2.66 3 3.32 3 4 3 C4 4.32 4 5.64 4 7 C3.01 6.67 2.02 6.34 1 6 C1 5.34 1 4.68 1 4 C0.01 3.67 -0.98 3.34 -2 3 C-1.34 2.01 -0.68 1.02 0 0 Z " fill="#5B362F" transform="translate(92,123)"/>
<path d="M0 0 C2 2 2 2 2.1953125 4.6015625 C2.17210937 5.59929687 2.14890625 6.59703125 2.125 7.625 C2.10695312 8.62789062 2.08890625 9.63078125 2.0703125 10.6640625 C2.03550781 11.82035156 2.03550781 11.82035156 2 13 C0.48046875 11.82421875 0.48046875 11.82421875 -1 10 C-1.07421875 7.51953125 -1.07421875 7.51953125 -0.6875 4.8125 C-0.56761719 3.91144531 -0.44773438 3.01039062 -0.32421875 2.08203125 C-0.21722656 1.39496094 -0.11023438 0.70789063 0 0 Z " fill="#87705C" transform="translate(171,101)"/>
<path d="M0 0 C0.66 0 1.32 0 2 0 C1.67 1.65 1.34 3.3 1 5 C-1.3431213 4.74438677 -3.67843403 4.40729228 -6 4 C-6.33 3.34 -6.66 2.68 -7 2 C-4.69 2 -2.38 2 0 2 C0 1.34 0 0.68 0 0 Z " fill="#D9C4BB" transform="translate(159,73)"/>
<path d="M0 0 C1.32 0.66 2.64 1.32 4 2 C2.02 4.97 2.02 4.97 0 8 C-0.66 7.67 -1.32 7.34 -2 7 C-2 6.01 -2 5.02 -2 4 C-1.34 3.67 -0.68 3.34 0 3 C0 2.01 0 1.02 0 0 Z " fill="#806A62" transform="translate(161,138)"/>
<path d="M0 0 C0.66 0 1.32 0 2 0 C2.66 1.65 3.32 3.3 4 5 C3.34 5 2.68 5 2 5 C1.67 5.66 1.34 6.32 1 7 C-0.32 6.67 -1.64 6.34 -3 6 C-2.01 6 -1.02 6 0 6 C0 4.02 0 2.04 0 0 Z " fill="#B9A69A" transform="translate(163,74)"/>
<path d="M0 0 C1.98 0.99 3.96 1.98 6 3 C5.01 3.33 4.02 3.66 3 4 C1.79117904 6.00016466 1.79117904 6.00016466 1 8 C-0.42944945 5.64561267 -1.08661261 4.51967567 -0.625 1.75 C-0.41875 1.1725 -0.2125 0.595 0 0 Z " fill="#8D7765" transform="translate(57,50)"/>
<path d="M0 0 C6.75 -0.125 6.75 -0.125 9 1 C8.67 2.32 8.34 3.64 8 5 C7.34 5 6.68 5 6 5 C6 3.68 6 2.36 6 1 C4.02 1 2.04 1 0 1 C0 0.67 0 0.34 0 0 Z " fill="#96877F" transform="translate(92,65)"/>
<path d="M0 0 C0.66 0.33 1.32 0.66 2 1 C0.625 3.5 0.625 3.5 -1 6 C-1.66 6 -2.32 6 -3 6 C-3 5.34 -3 4.68 -3 4 C-3.66 3.67 -4.32 3.34 -5 3 C-2.625 1.4375 -2.625 1.4375 0 0 Z " fill="#CDBFB4" transform="translate(121,45)"/>
<path d="M0 0 C0.66 0 1.32 0 2 0 C2 2.97 2 5.94 2 9 C1.34 8.67 0.68 8.34 0 8 C-0.6875 4.5 -0.6875 4.5 -1 1 C-0.67 0.67 -0.34 0.34 0 0 Z " fill="#9F8879" transform="translate(132,43)"/>
<path d="M0 0 C2.0625 0.4375 2.0625 0.4375 4 1 C3.01 1.495 3.01 1.495 2 2 C2.66 2.33 3.32 2.66 4 3 C4 3.66 4 4.32 4 5 C2.68 5 1.36 5 0 5 C-0.5625 3.0625 -0.5625 3.0625 -1 1 C-0.67 0.67 -0.34 0.34 0 0 Z " fill="#AF9C95" transform="translate(118,66)"/>
<path d="M0 0 C1.65 0.33 3.3 0.66 5 1 C5 1.66 5 2.32 5 3 C3.02 3.33 1.04 3.66 -1 4 C-0.67 2.68 -0.34 1.36 0 0 Z " fill="#938475" transform="translate(88,55)"/>
<path d="M0 0 C1.32 0 2.64 0 4 0 C2.92598892 2.91517292 2.22189824 4.77810176 0 7 C0 4.69 0 2.38 0 0 Z " fill="#8F7972" transform="translate(30,41)"/>
<path d="M0 0 C1.98 0.495 1.98 0.495 4 1 C4 1.66 4 2.32 4 3 C3.34 3 2.68 3 2 3 C1.67 3.99 1.34 4.98 1 6 C0.34 5.34 -0.32 4.68 -1 4 C-0.625 1.875 -0.625 1.875 0 0 Z " fill="#D0C0BA" transform="translate(146,28)"/>
</svg>
