<?xml version="1.0" encoding="UTF-8"?>
<svg version="1.1" xmlns="http://www.w3.org/2000/svg" width="200" height="200">
<path d="M0 0 C66 0 132 0 200 0 C200 66 200 132 200 200 C134 200 68 200 0 200 C0 134 0 68 0 0 Z " fill="#FDFDFD" transform="translate(0,0)"/>
<path d="M0 0 C0.66 0 1.32 0 2 0 C2.01417969 0.7734375 2.02835938 1.546875 2.04296875 2.34375 C2.35882729 9.24141764 2.99606344 14.90240688 8 20 C10.95995431 21.54326281 10.95995431 21.54326281 14 22 C17.06408011 22.70036117 18.2491697 23.16611314 21 25 C24.19806665 25.4603764 24.19806665 25.4603764 27.6875 25.625 C28.86699219 25.69976562 30.04648437 25.77453125 31.26171875 25.8515625 C32.61716797 25.92503906 32.61716797 25.92503906 34 26 C33.505 24.515 33.505 24.515 33 23 C33.99 23.33 34.98 23.66 36 24 C37.89212737 24.22179785 39.78884472 24.40614015 41.6875 24.5625 C42.68136719 24.64628906 43.67523438 24.73007813 44.69921875 24.81640625 C45.83810547 24.90728516 45.83810547 24.90728516 47 25 C47 24.01 47 23.02 47 22 C47.66 22 48.32 22 49 22 C49.495 24.475 49.495 24.475 50 27 C50.90492187 27.03867188 50.90492187 27.03867188 51.828125 27.078125 C57.11881635 27.45359342 59.35625181 27.9513909 63 32 C65.21858253 31.86358623 65.21858253 31.86358623 67 31 C67.495 32.98 67.495 32.98 68 35 C68.66 35 69.32 35 70 35 C70.33 33.68 70.66 32.36 71 31 C71.2165625 32.2065625 71.2165625 32.2065625 71.4375 33.4375 C71.74135249 35.92103706 71.74135249 35.92103706 73 37 C74.485 37.495 74.485 37.495 76 38 C75.01 38.495 75.01 38.495 74 39 C74.3141111 41.93170364 75.0389522 43.04249331 77.0625 45.25 C82.73131482 48.62716627 89.30275358 47.09374885 95.5 45.76171875 C98.8733608 44.73389788 101.64949283 43.10308548 104.65234375 41.28125 C107.21311271 39.88369223 109.72597287 39.02009638 112.5 38.125 C117.46719597 36.4160067 121.01575286 34.035929 124.9921875 30.63671875 C127 29 127 29 130.4375 27.3125 C134.626013 23.53262241 134.50548862 18.42257309 135 13 C135.78375 13.020625 136.5675 13.04125 137.375 13.0625 C139.98114961 13.18684063 139.98114961 13.18684063 142 12 C142.07863281 12.74636719 142.15726563 13.49273437 142.23828125 14.26171875 C143.59254152 19.13011081 147.78299116 21.5365988 152 24 C155.38336285 24.59349196 155.38336285 24.59349196 158 24 C158 24.66 158 25.32 158 26 C157.34 26 156.68 26 156 26 C157.97420135 28.52259061 158.96745642 28.9929808 162.1875 29.6875 C163.115625 29.790625 164.04375 29.89375 165 30 C165 30.66 165 31.32 165 32 C163.68 31.67 162.36 31.34 161 31 C163.71604715 33.87420123 163.71604715 33.87420123 167 36 C167 68.01 167 100.02 167 133 C106.28 133 45.56 133 -17 133 C-17 121.12 -17 109.24 -17 97 C-16.34 97 -15.68 97 -15 97 C-14.67 96.01 -14.34 95.02 -14 94 C-13.29875 94.04382813 -12.5975 94.08765625 -11.875 94.1328125 C-7.43544009 94.12074848 -4.21186904 94.05481421 -0.76953125 91.05859375 C1.28122076 88.44296394 3.15467796 85.76420166 5 83 C6.37242301 81.10779738 7.76767467 79.23189842 9.1875 77.375 C9.79980469 76.53710938 10.41210938 75.69921875 11.04296875 74.8359375 C13 73 13 73 15.73828125 72.7265625 C16.48464844 72.81679687 17.23101562 72.90703125 18 73 C18.66 70.03 19.32 67.06 20 64 C19.01 64.33 18.02 64.66 17 65 C17.495 63.515 17.495 63.515 18 62 C19.65 62 21.3 62 23 62 C22.505 59.03 22.505 59.03 22 56 C22.99 55.67 23.98 55.34 25 55 C25.33 55.66 25.66 56.32 26 57 C26.99 54.03 27.98 51.06 29 48 C29.495 49.98 29.495 49.98 30 52 C30.99 51.67 31.98 51.34 33 51 C32.814375 50.38125 32.62875 49.7625 32.4375 49.125 C32 47 32 47 33 45 C34.670625 44.8453125 34.670625 44.8453125 36.375 44.6875 C37.57125 44.460625 38.7675 44.23375 40 44 C41.01866229 42.34467377 42.01810813 40.67739862 43 39 C46.375 37.875 46.375 37.875 50 37 C53.82660279 35.27109507 53.82660279 35.27109507 55.8125 31.8125 C55.9053125 30.9153125 55.9053125 30.9153125 56 30 C54.02 30 52.04 30 50 30 C50 31.65 50 33.3 50 35 C49.34 35 48.68 35 48 35 C47.67 33.35 47.34 31.7 47 30 C45.68 30.99 44.36 31.98 43 33 C43.50603992 30.83125748 43.99983813 29.00032373 45 27 C42.36 27 39.72 27 37 27 C37.495 29.475 37.495 29.475 38 32 C37.01 31.34 36.02 30.68 35 30 C34.34 30 33.68 30 33 30 C33 29.34 33 28.68 33 28 C31.68 28 30.36 28 29 28 C28.505 29.485 28.505 29.485 28 31 C27.505 29.515 27.505 29.515 27 28 C26.34 28 25.68 28 25 28 C25 29.32 25 30.64 25 32 C24.34 32 23.68 32 23 32 C22.505 31.01 22.505 31.01 22 30 C21.34 30 20.68 30 20 30 C20 28.68 20 27.36 20 26 C14.95780988 24.89495111 14.95780988 24.89495111 10.125 26.3125 C7.9104069 27.82725163 7.9104069 27.82725163 7 30 C6.34 30 5.68 30 5 30 C5 29.01 5 28.02 5 27 C6.98 26.34 8.96 25.68 11 25 C11 24.34 11 23.68 11 23 C10.2575 22.896875 9.515 22.79375 8.75 22.6875 C5.82985982 21.95746496 4.26812446 20.93210602 2 19 C2.33 20.32 2.66 21.64 3 23 C2.34 22.67 1.68 22.34 1 22 C1.0825 20.824375 1.165 19.64875 1.25 18.4375 C1.29271412 13.62789023 -0.50724135 11.02057847 -3 7 C-2.67 6.34 -2.34 5.68 -2 5 C-1.34 5.33 -0.68 5.66 0 6 C0 4.02 0 2.04 0 0 Z " fill="#171834" transform="translate(33,67)"/>
<path d="M0 0 C0.66 0 1.32 0 2 0 C2 0.66 2 1.32 2 2 C3.34408936 1.99214478 3.34408936 1.99214478 4.71533203 1.98413086 C8.1111722 1.96686091 11.50696421 1.95444092 14.90283203 1.94506836 C16.35921984 1.94010813 17.81560285 1.93333785 19.27197266 1.92456055 C57.05438687 1.70292458 57.05438687 1.70292458 71 11 C71 10.34 71 9.68 71 9 C71.66 9 72.32 9 73 9 C73.04125 9.556875 73.0825 10.11375 73.125 10.6875 C74.24121023 13.63748419 76.1257764 14.62904118 78.56640625 16.49609375 C81.16083742 19.21777223 81.38516282 22.37246063 82 26 C83.65 25.67 85.3 25.34 87 25 C87 25.66 87 26.32 87 27 C85.35 27.33 83.7 27.66 82 28 C82 28.99 82 29.98 82 31 C83.98 31.495 83.98 31.495 86 32 C85.01 32.495 85.01 32.495 84 33 C86.0072908 36.0109362 86.83884224 36.63016497 90 38 C89.67 38.33 89.34 38.66 89 39 C90.32 39 91.64 39 93 39 C93.33 40.65 93.66 42.3 94 44 C93.34 44 92.68 44 92 44 C92.33 44.99 92.66 45.98 93 47 C96.465 46.505 96.465 46.505 100 46 C100 46.66 100 47.32 100 48 C98.68 48 97.36 48 96 48 C96.33 49.65 96.66 51.3 97 53 C98.32 53.33 99.64 53.66 101 54 C100.67 54.66 100.34 55.32 100 56 C100.99 56 101.98 56 103 56 C103.33 56.99 103.66 57.98 104 59 C104.66 59.33 105.32 59.66 106 60 C106 59.34 106 58.68 106 58 C106.66 58 107.32 58 108 58 C106.125 61.875 106.125 61.875 105 63 C104.73069319 64.93491087 104.48451454 66.87306473 104.25 68.8125 C103.28923585 74.66694054 103.28923585 74.66694054 100.9375 77.375 C99.968125 77.91125 98.99875 78.4475 98 79 C96.49495415 80.01337933 94.99537154 81.03489859 93.5 82.0625 C87.49733508 86.04666316 81.63426072 89.05371257 74.9375 91.71875 C71.99347403 92.92166499 71.99347403 92.92166499 69.42578125 94.58203125 C65.5114169 96.87013795 61.44205533 97.36833158 57 98 C55.92105469 98.16435547 55.92105469 98.16435547 54.8203125 98.33203125 C51.75050733 98.58884374 49.5390495 98.35320577 46.94921875 96.65625 C45.20514484 95.17431145 43.57769027 93.65657479 42 92 C42.495 90.02 42.495 90.02 43 88 C41.515 88.495 41.515 88.495 40 89 C40 87.68 40 86.36 40 85 C38.68 85 37.36 85 36 85 C36 83.68 36 82.36 36 81 C35.67 81.66 35.34 82.32 35 83 C32.59050007 82.58456898 31.31413312 82.35055435 29.65234375 80.49609375 C27.53208242 78.57632994 26.19542685 78.5495541 23.375 78.375 C19.08333333 78.08333333 19.08333333 78.08333333 18 77 C17.95936168 75.33382885 17.957279 73.66611905 18 72 C17.34 72 16.68 72 16 72 C16 72.99 16 73.98 16 75 C14.20841511 75.02696365 12.41671527 75.04637917 10.625 75.0625 C9.62726563 75.07410156 8.62953125 75.08570312 7.6015625 75.09765625 C5 75 5 75 3 74 C3 74.66 3 75.32 3 76 C0.91731407 76.08126087 -1.16628658 76.13930839 -3.25 76.1875 C-4.99023438 76.23970703 -4.99023438 76.23970703 -6.765625 76.29296875 C-10.2964404 75.97314851 -11.3846182 75.25583929 -14 73 C-15.99883869 72.65977214 -17.99890722 72.32670903 -20 72 C-23.94235713 70.31041837 -26.24203941 68.05725386 -28.28515625 64.25 C-29.74924218 59.64172954 -29.28220709 54.7740033 -29 50 C-29.66 50 -30.32 50 -31 50 C-31 50.99 -31 51.98 -31 53 C-32.65 53.66 -34.3 54.32 -36 55 C-36 53.68 -36 52.36 -36 51 C-36.66 50.67 -37.32 50.34 -38 50 C-38 48.35 -38 46.7 -38 45 C-39.65 45.66 -41.3 46.32 -43 47 C-43.86110474 33.03096751 -43.86110474 33.03096751 -40.625 29.1875 C-38 27 -38 27 -36 26 C-36.33 25.34 -36.66 24.68 -37 24 C-35.35 24 -33.7 24 -32 24 C-32.66 23.01 -33.32 22.02 -34 21 C-32.35 21 -30.7 21 -29 21 C-28.67 19.68 -28.34 18.36 -28 17 C-27.67 17.66 -27.34 18.32 -27 19 C-26.01 19 -25.02 19 -24 19 C-24.66 18.67 -25.32 18.34 -26 18 C-26 17.34 -26 16.68 -26 16 C-24.68 16.33 -23.36 16.66 -22 17 C-22 17.66 -22 18.32 -22 19 C-21.34 18.67 -20.68 18.34 -20 18 C-20 16.68 -20 15.36 -20 14 C-20.99 13.67 -21.98 13.34 -23 13 C-20.92446352 12.4465236 -19.15634036 12 -17 12 C-17 11.01 -17 10.02 -17 9 C-16.67 8.34 -16.34 7.68 -16 7 C-14.68 7.33 -13.36 7.66 -12 8 C-11.67 6.68 -11.34 5.36 -11 4 C-11 4.66 -11 5.32 -11 6 C-10.18595703 5.69255859 -10.18595703 5.69255859 -9.35546875 5.37890625 C-8.64003906 5.10949219 -7.92460938 4.84007812 -7.1875 4.5625 C-6.47980469 4.29566406 -5.77210937 4.02882813 -5.04296875 3.75390625 C-3.37327604 3.13774814 -1.68842296 2.56280765 0 2 C0 1.34 0 0.68 0 0 Z " fill="#F3C6B8" transform="translate(64,17)"/>
<path d="M0 0 C0 11.55 0 23.1 0 35 C-59.4 35 -118.8 35 -180 35 C-180 23.78 -180 12.56 -180 1 C-175.80603516 0.81824219 -175.80603516 0.81824219 -171.52734375 0.6328125 C-168.68644697 0.50862953 -165.84557298 0.38393587 -163.00469971 0.25921631 C-160.95113467 0.16935522 -158.89754546 0.08004507 -156.84393311 -0.00872803 C-146.31221101 -0.46437715 -135.78332609 -0.92551085 -125.26171875 -1.578125 C-35.38259845 -7.07651969 -35.38259845 -7.07651969 0 0 Z " fill="#E7E7E7" transform="translate(200,165)"/>
<path d="M0 0 C2.7839183 1.39195915 2.97898997 3.15575779 4 6 C4.92941406 5.979375 5.85882813 5.95875 6.81640625 5.9375 C16.47678685 6.09867423 16.47678685 6.09867423 20.171875 8.28515625 C22.12335651 10.39926122 23.53020913 12.5210465 25 15 C25.50708496 15.85102295 25.50708496 15.85102295 26.02441406 16.71923828 C28.39305042 20.73339866 30.63412322 24.80909006 32.85058594 28.90869141 C33.98558509 30.9737727 35.15866265 33.01086038 36.3515625 35.04296875 C36.90952515 35.99598877 36.90952515 35.99598877 37.47875977 36.96826172 C38.50570688 38.71585319 39.53596053 40.4615004 40.56640625 42.20703125 C42 45 42 45 42 48 C42.66 48 43.32 48 44 48 C44.99 50.97 44.99 50.97 46 54 C32.86874725 54.64837177 19.73629964 55.24124649 6.59960938 55.76855469 C3.23014202 55.90458732 -0.1380143 56.05215589 -3.50585938 56.22363281 C-24.68760934 57.26195389 -24.68760934 57.26195389 -32.125 52 C-34.5078125 49.75 -34.5078125 49.75 -36 48 C-33.23345343 41.19701662 -30.3850895 34.51943164 -27 28 C-27.33 27.67 -27.66 27.34 -28 27 C-28.66 27 -29.32 27 -30 27 C-30.33 27.99 -30.66 28.98 -31 30 C-31.33 29.34 -31.66 28.68 -32 28 C-32.99 28.33 -33.98 28.66 -35 29 C-34.67 28.01 -34.34 27.02 -34 26 C-32.35 26 -30.7 26 -29 26 C-29.33 24.02 -29.66 22.04 -30 20 C-29.01 19.67 -28.02 19.34 -27 19 C-26.67 19.66 -26.34 20.32 -26 21 C-25.01 18.03 -24.02 15.06 -23 12 C-22.67 13.32 -22.34 14.64 -22 16 C-21.01 15.67 -20.02 15.34 -19 15 C-19.185625 14.38125 -19.37125 13.7625 -19.5625 13.125 C-20 11 -20 11 -19 9 C-17.88625 8.896875 -16.7725 8.79375 -15.625 8.6875 C-14.42875 8.460625 -13.2325 8.23375 -12 8 C-10.98133771 6.34467377 -9.98189187 4.67739862 -9 3 C-5.4375 1.75 -5.4375 1.75 -2 1 C-1.34 0.67 -0.68 0.34 0 0 Z " fill="#181935" transform="translate(85,103)"/>
<path d="M0 0 C2.3833231 3.57498466 2.92607229 5.71219277 3 10 C0.86975248 12.61716124 -1.37923143 14.51345166 -4.0234375 16.5859375 C-6.85968762 20.04997421 -7.46354353 23.62963185 -8.4375 27.9375 C-11.82488981 41.69527374 -17.12876647 53.67270015 -24 66 C-23.24501221 65.98259766 -22.49002441 65.96519531 -21.7121582 65.94726562 C-12.78489708 65.83368896 -4.05515665 66.53918494 4.8125 67.5 C6.19850376 67.64514318 7.58457142 67.78967754 8.97070312 67.93359375 C12.31447625 68.28311707 15.65748447 68.6386816 19 69 C19 70.65 19 72.3 19 74 C18.04601318 73.93941406 17.09202637 73.87882812 16.10913086 73.81640625 C-27.35290579 71.12259182 -70.69456338 71.18324044 -114.15429688 73.93237305 C-129.80499937 74.90628133 -145.31472019 75.1243219 -161 75 C-161 86.22 -161 97.44 -161 109 C-162.32 109 -163.64 109 -165 109 C-165 97.12 -165 85.24 -165 73 C-164.34 73 -163.68 73 -163 73 C-162.67 72.01 -162.34 71.02 -162 70 C-161.29875 70.04382813 -160.5975 70.08765625 -159.875 70.1328125 C-155.43544009 70.12074848 -152.21186904 70.05481421 -148.76953125 67.05859375 C-146.71877924 64.44296394 -144.84532204 61.76420166 -143 59 C-141.62757699 57.10779738 -140.23232533 55.23189842 -138.8125 53.375 C-138.20019531 52.53710938 -137.58789062 51.69921875 -136.95703125 50.8359375 C-135 49 -135 49 -132.26171875 48.7265625 C-131.14216797 48.86191406 -131.14216797 48.86191406 -130 49 C-129.566875 47.63875 -129.566875 47.63875 -129.125 46.25 C-126.77272727 39.45454545 -126.77272727 39.45454545 -123.875 37.75 C-123.25625 37.5025 -122.6375 37.255 -122 37 C-122.5439085 42.47361889 -124.55393801 46.58317001 -127.0625 51.375 C-127.43955078 52.11105469 -127.81660156 52.84710938 -128.20507812 53.60546875 C-129.12944364 55.40739646 -130.06372614 57.20423099 -131 59 C-126.10124008 63.86103495 -122.00291936 67.494901 -114.8984375 67.81640625 C-112.72272518 67.77399535 -110.54751191 67.68785875 -108.375 67.5625 C-107.21911377 67.52898437 -106.06322754 67.49546875 -104.87231445 67.4609375 C-101.57726116 67.35384884 -98.29107783 67.1920283 -95 67 C-94.24412598 66.95601074 -93.48825195 66.91202148 -92.70947266 66.86669922 C-89.66224637 66.67725424 -86.61836595 66.45631512 -83.57421875 66.22265625 C-72.43126808 65.54563637 -61.15956883 65.9264627 -50 66 C-50.66 65.01 -51.32 64.02 -52 63 C-52 62.01 -52 61.02 -52 60 C-52.66 60 -53.32 60 -54 60 C-54.44730469 59.09378906 -54.89460938 58.18757813 -55.35546875 57.25390625 C-58.47230202 50.96666509 -61.60865213 44.73375263 -65.15234375 38.671875 C-66 37 -66 37 -66 35 C-65.34 35 -64.68 35 -64 35 C-64.66 32.69 -65.32 30.38 -66 28 C-62.37 27.67 -58.74 27.34 -55 27 C-54.4121875 28.3303125 -54.4121875 28.3303125 -53.8125 29.6875 C-52.16713573 33.10803094 -52.16713573 33.10803094 -49.3125 35.5 C-47 38 -47 38 -46.5 41 C-47.05551598 44.33309591 -48.25464804 46.13762279 -50 49 C-50.80765878 52.64721696 -50.80765878 52.64721696 -51 56 C-50.67 56.33 -50.34 56.66 -50 57 C-50 55.02 -50 53.04 -50 51 C-49.67 51 -49.34 51 -49 51 C-49 52.98 -49 54.96 -49 57 C-48.34 57 -47.68 57 -47 57 C-46.505 61.455 -46.505 61.455 -46 66 C-41.71 65.67 -37.42 65.34 -33 65 C-31.4268854 61.0672135 -30.57267372 58.10416164 -30 54 C-29.01 54 -28.02 54 -27 54 C-27.58910156 53.27554688 -28.17820313 52.55109375 -28.78515625 51.8046875 C-29.91244141 50.35449219 -29.91244141 50.35449219 -31.0625 48.875 C-31.81660156 47.92367187 -32.57070312 46.97234375 -33.34765625 45.9921875 C-35 43 -35 43 -34.96875 39.95703125 C-33.90154029 36.69945968 -32.48735167 34.54977668 -30.4375 31.8125 C-26.94251084 26.6475261 -26.68839996 23.47347937 -27.140625 17.39453125 C-27 15 -27 15 -25.796875 13.19921875 C-23.17106314 10.93668668 -21.48947735 10 -18 10 C-17.30418403 19.89604942 -18.647251 27.45086507 -21.90625 36.69921875 C-23.15727111 39.8950758 -23.15727111 39.8950758 -23 43 C-22.67 43 -22.34 43 -22 43 C-22.57610313 48.54955043 -24.02098548 53.26029497 -26.0625 58.4375 C-26.34416016 59.16904297 -26.62582031 59.90058594 -26.91601562 60.65429688 C-27.60413247 62.43873546 -28.30114606 64.21973905 -29 66 C-28.01 66 -27.02 66 -26 66 C-25.82984375 65.43152344 -25.6596875 64.86304688 -25.484375 64.27734375 C-25.12085938 63.11912109 -25.12085938 63.11912109 -24.75 61.9375 C-24.51796875 61.18339844 -24.2859375 60.42929688 -24.046875 59.65234375 C-23 57 -23 57 -21.14453125 53.93359375 C-18.23912032 48.984501 -16.6784765 43.56597088 -14.9375 38.125 C-14.42993164 36.56845703 -14.42993164 36.56845703 -13.91210938 34.98046875 C-13.41227539 33.44712891 -13.41227539 33.44712891 -12.90234375 31.8828125 C-12.5770166 30.88733398 -12.25168945 29.89185547 -11.91650391 28.86621094 C-11.3320694 27.03849087 -10.76943477 25.20355551 -10.23583984 23.36035156 C-8.87220982 18.79260927 -7.9051742 16.19040056 -3.75 13.5 C-1.58213588 11.92730522 -1.58213588 11.92730522 0 10 C0.28624064 7.37683954 -0.00273437 5.38238484 -0.59765625 2.8203125 C-0.73042969 2.21960938 -0.86320313 1.61890625 -1 1 C-0.67 0.67 -0.34 0.34 0 0 Z " fill="#111012" transform="translate(181,91)"/>
<path d="M0 0 C0.66 0 1.32 0 2 0 C2 0.66 2 1.32 2 2 C3.34408936 1.99214478 3.34408936 1.99214478 4.71533203 1.98413086 C8.1111722 1.96686091 11.50696421 1.95444092 14.90283203 1.94506836 C16.35921984 1.94010813 17.81560285 1.93333785 19.27197266 1.92456055 C57.05438687 1.70292458 57.05438687 1.70292458 71 11 C71 10.34 71 9.68 71 9 C71.66 9 72.32 9 73 9 C73.04125 9.556875 73.0825 10.11375 73.125 10.6875 C74.24121023 13.63748419 76.1257764 14.62904118 78.56640625 16.49609375 C81.16083742 19.21777223 81.38516282 22.37246063 82 26 C83.65 25.67 85.3 25.34 87 25 C87 25.66 87 26.32 87 27 C85.35 27.33 83.7 27.66 82 28 C82 28.99 82 29.98 82 31 C83.98 31.495 83.98 31.495 86 32 C85.01 32.495 85.01 32.495 84 33 C86.0072908 36.0109362 86.83884224 36.63016497 90 38 C89.67 38.33 89.34 38.66 89 39 C90.32 39 91.64 39 93 39 C93.33 40.65 93.66 42.3 94 44 C93.34 44 92.68 44 92 44 C92.33 44.99 92.66 45.98 93 47 C96.465 46.505 96.465 46.505 100 46 C100 46.66 100 47.32 100 48 C98.68 48 97.36 48 96 48 C96.33 49.65 96.66 51.3 97 53 C98.32 53.33 99.64 53.66 101 54 C100.67 54.66 100.34 55.32 100 56 C100.99 56 101.98 56 103 56 C103.33 56.99 103.66 57.98 104 59 C104.66 59.33 105.32 59.66 106 60 C106 59.34 106 58.68 106 58 C106.66 58 107.32 58 108 58 C107.71125 58.53625 107.4225 59.0725 107.125 59.625 C105.83288192 62.35280484 104.91441408 65.12612718 104 68 C103.67 68 103.34 68 103 68 C102.74605469 67.12085937 102.49210938 66.24171875 102.23046875 65.3359375 C100.27832186 60.04345037 97.13446636 55.82737737 93 52 C89.37400578 51.58274322 89.37400578 51.58274322 86 52 C83.25 49.6875 83.25 49.6875 81 47 C79.00047437 44.73966667 77.94490377 43.97772706 75.0625 42.8125 C70.88056113 40.33747495 69.43509973 37.58306043 68 33 C67.80606663 31.27556543 67.66076239 29.54502106 67.5625 27.8125 C67.31083171 24.16051344 67.14013058 23.18958844 64.875 20.125 C57.9746064 15.02470908 52.43893713 12.18827709 43.70703125 13.2890625 C39.9869962 14.04459458 36.60989922 15.13451357 33.125 16.625 C24.14693639 20.06039317 16.34119967 17.82054121 7.75 14.2890625 C5 13 5 13 2 11 C-0.53483094 10.72604216 -2.90190376 10.58437955 -5.4375 10.5625 C-6.75621094 10.52253906 -8.07492188 10.48257812 -9.43359375 10.44140625 C-13.12335489 10.66499434 -13.12335489 10.66499434 -15.39453125 13.3515625 C-16.91207256 15.85495182 -18.05165725 18.2340003 -19 21 C-23.95 21.495 -23.95 21.495 -29 22 C-29 22.99 -29 23.98 -29 25 C-30.98 25.99 -30.98 25.99 -33 27 C-32.360625 27.78375 -31.72125 28.5675 -31.0625 29.375 C-27.8334092 33.48475193 -27.73397045 35.76808553 -28 41 C-28.63028587 42.68076231 -29.29788106 44.34795544 -30 46 C-30.3813074 48.32597511 -30.72460254 50.65912158 -31 53 C-32.65 53.66 -34.3 54.32 -36 55 C-36 53.68 -36 52.36 -36 51 C-36.66 50.67 -37.32 50.34 -38 50 C-38 48.35 -38 46.7 -38 45 C-39.65 45.66 -41.3 46.32 -43 47 C-43.86110474 33.03096751 -43.86110474 33.03096751 -40.625 29.1875 C-38 27 -38 27 -36 26 C-36.33 25.34 -36.66 24.68 -37 24 C-35.35 24 -33.7 24 -32 24 C-32.66 23.01 -33.32 22.02 -34 21 C-32.35 21 -30.7 21 -29 21 C-28.67 19.68 -28.34 18.36 -28 17 C-27.67 17.66 -27.34 18.32 -27 19 C-26.01 19 -25.02 19 -24 19 C-24.66 18.67 -25.32 18.34 -26 18 C-26 17.34 -26 16.68 -26 16 C-24.68 16.33 -23.36 16.66 -22 17 C-22 17.66 -22 18.32 -22 19 C-21.34 18.67 -20.68 18.34 -20 18 C-20 16.68 -20 15.36 -20 14 C-20.99 13.67 -21.98 13.34 -23 13 C-20.92446352 12.4465236 -19.15634036 12 -17 12 C-17 11.01 -17 10.02 -17 9 C-16.67 8.34 -16.34 7.68 -16 7 C-14.68 7.33 -13.36 7.66 -12 8 C-11.67 6.68 -11.34 5.36 -11 4 C-11 4.66 -11 5.32 -11 6 C-10.18595703 5.69255859 -10.18595703 5.69255859 -9.35546875 5.37890625 C-8.64003906 5.10949219 -7.92460938 4.84007812 -7.1875 4.5625 C-6.47980469 4.29566406 -5.77210937 4.02882813 -5.04296875 3.75390625 C-3.37327604 3.13774814 -1.68842296 2.56280765 0 2 C0 1.34 0 0.68 0 0 Z " fill="#474747" transform="translate(64,17)"/>
<path d="M0 0 C0.66 0 1.32 0 2 0 C2.01417969 0.7734375 2.02835938 1.546875 2.04296875 2.34375 C2.35882729 9.24141764 2.99606344 14.90240688 8 20 C10.95995431 21.54326281 10.95995431 21.54326281 14 22 C17.06408011 22.70036117 18.2491697 23.16611314 21 25 C24.19806665 25.4603764 24.19806665 25.4603764 27.6875 25.625 C28.86699219 25.69976562 30.04648437 25.77453125 31.26171875 25.8515625 C32.61716797 25.92503906 32.61716797 25.92503906 34 26 C33.505 24.515 33.505 24.515 33 23 C33.99 23.33 34.98 23.66 36 24 C37.89212737 24.22179785 39.78884472 24.40614015 41.6875 24.5625 C42.68136719 24.64628906 43.67523438 24.73007813 44.69921875 24.81640625 C45.83810547 24.90728516 45.83810547 24.90728516 47 25 C47 24.01 47 23.02 47 22 C47.66 22 48.32 22 49 22 C49.495 24.475 49.495 24.475 50 27 C50.90492187 27.03867188 50.90492187 27.03867188 51.828125 27.078125 C57.11881635 27.45359342 59.35625181 27.9513909 63 32 C65.21858253 31.86358623 65.21858253 31.86358623 67 31 C67.495 32.98 67.495 32.98 68 35 C68.66 35 69.32 35 70 35 C70.33 33.68 70.66 32.36 71 31 C71.2165625 32.2065625 71.2165625 32.2065625 71.4375 33.4375 C71.74135249 35.92103706 71.74135249 35.92103706 73 37 C74.485 37.495 74.485 37.495 76 38 C75.01 38.495 75.01 38.495 74 39 C74.3141111 41.93170364 75.0389522 43.04249331 77.0625 45.25 C82.73131482 48.62716627 89.30275358 47.09374885 95.5 45.76171875 C98.8733608 44.73389788 101.64949283 43.10308548 104.65234375 41.28125 C107.21311271 39.88369223 109.72597287 39.02009638 112.5 38.125 C117.46719597 36.4160067 121.01575286 34.035929 124.9921875 30.63671875 C127 29 127 29 130.4375 27.3125 C134.626013 23.53262241 134.50548862 18.42257309 135 13 C135.78375 13.020625 136.5675 13.04125 137.375 13.0625 C139.98114961 13.18684063 139.98114961 13.18684063 142 12 C142.12375 12.7425 142.2475 13.485 142.375 14.25 C142.95486701 16.80141485 143.73708739 18.7267573 145 21 C143 20 141 19 139 18 C139.0825 18.86625 139.165 19.7325 139.25 20.625 C138.94171367 24.78686544 137.43629597 26.67777822 135 30 C134.02440109 32.92679674 133.80226551 35.12755965 133.625 38.1875 C133.22691196 43.36264448 132.50324809 48.40165826 131.5625 53.5 C131.4402002 54.18215576 131.31790039 54.86431152 131.19189453 55.56713867 C130.53635454 58.99614986 129.77972397 61.97986236 128 65 C127.34 65 126.68 65 126 65 C126.11555504 63.29100181 126.24293003 61.58280131 126.375 59.875 C126.44460937 58.92367187 126.51421875 57.97234375 126.5859375 56.9921875 C127 54 127 54 128 51.09375 C129.14734822 47.54414144 129.41446826 44.34439404 129.625 40.625 C129.69976562 39.37976563 129.77453125 38.13453125 129.8515625 36.8515625 C129.92503906 35.44003906 129.92503906 35.44003906 130 34 C125.3290863 36.10275389 125.3290863 36.10275389 122.0625 39.75 C121.93659984 42.20517278 121.93659984 42.20517278 122.4375 45.4375 C122.60948266 51.15592344 118.7891913 55.47183805 115.65234375 59.94921875 C113.76693784 62.81339298 113.76693784 62.81339298 114.09765625 65.66796875 C114.99778973 67.99428776 115.96390045 69.66915231 117.5 71.625 C119.25460694 73.87946589 120.07231748 75.21695244 121 78 C120.01 78 119.02 78 118 78 C118.061875 78.86625 118.12375 79.7325 118.1875 80.625 C117.97544498 84.44199033 116.87955693 86.71077536 115 90 C110.71 90 106.42 90 102 90 C101.505 85.545 101.505 85.545 101 81 C99.35 81 97.7 81 96 81 C96.4578173 75.59775581 97.18461333 72.65150841 100 68 C100.83483326 65.13023717 100.83483326 65.13023717 100 62 C98.30596586 59.78342796 96.49769665 57.81018294 94.53125 55.83203125 C93 54 93 54 93 51 C91.515 51.495 91.515 51.495 90 52 C88.60560336 52.06665376 87.20830125 52.08538199 85.8125 52.0625 C84.554375 52.041875 83.29625 52.02125 82 52 C82.66 54.31 83.32 56.62 84 59 C82.22265625 58.8359375 82.22265625 58.8359375 80 58 C78.18359375 55.6015625 78.18359375 55.6015625 76.4375 52.625 C73.81515152 47.7850251 73.81515152 47.7850251 70 44 C66.40287321 43.58927038 62.86875222 43.56044925 59.25 43.50390625 C56 43 56 43 53.98046875 41.26171875 C53 39 53 39 53.36328125 36.640625 C53.67652344 35.85171875 53.98976562 35.0628125 54.3125 34.25 C54.61800781 33.45078125 54.92351562 32.6515625 55.23828125 31.828125 C55.48964844 31.22484375 55.74101563 30.6215625 56 30 C54.02 30 52.04 30 50 30 C50 31.65 50 33.3 50 35 C49.34 35 48.68 35 48 35 C47.67 33.35 47.34 31.7 47 30 C45.68 30.99 44.36 31.98 43 33 C43.50603992 30.83125748 43.99983813 29.00032373 45 27 C42.36 27 39.72 27 37 27 C37.495 29.475 37.495 29.475 38 32 C37.01 31.34 36.02 30.68 35 30 C34.34 30 33.68 30 33 30 C33 29.34 33 28.68 33 28 C31.68 28 30.36 28 29 28 C28.67 28.99 28.34 29.98 28 31 C27.67 30.01 27.34 29.02 27 28 C26.34 28 25.68 28 25 28 C25 29.32 25 30.64 25 32 C24.34 32 23.68 32 23 32 C22.67 31.34 22.34 30.68 22 30 C21.34 30 20.68 30 20 30 C20 28.68 20 27.36 20 26 C14.95780988 24.89495111 14.95780988 24.89495111 10.125 26.3125 C7.9104069 27.82725163 7.9104069 27.82725163 7 30 C6.34 30 5.68 30 5 30 C5 29.01 5 28.02 5 27 C6.98 26.34 8.96 25.68 11 25 C11 24.34 11 23.68 11 23 C10.2575 22.896875 9.515 22.79375 8.75 22.6875 C5.82985982 21.95746496 4.26812446 20.93210602 2 19 C2.33 20.32 2.66 21.64 3 23 C2.34 22.67 1.68 22.34 1 22 C1.0825 20.824375 1.165 19.64875 1.25 18.4375 C1.29271412 13.62789023 -0.50724135 11.02057847 -3 7 C-2.67 6.34 -2.34 5.68 -2 5 C-1.34 5.33 -0.68 5.66 0 6 C0 4.02 0 2.04 0 0 Z " fill="#151111" transform="translate(33,67)"/>
<path d="M0 0 C2.5605475 0.02344027 5.1200373 0.0205638 7.68066406 0.01391602 C27.45475601 0.04804096 43.87394025 1.79568939 60.39941406 13.39868164 C62.62676201 16.57096508 62.96381015 18.38712505 63.64941406 22.14868164 C65.15385477 29.96640033 69.02962941 35.68665172 73.37988281 42.19555664 C75.46191406 45.33618164 75.46191406 45.33618164 75.46191406 46.33618164 C72.83691406 46.77368164 72.83691406 46.77368164 69.46191406 46.33618164 C67.73418853 44.68639861 66.35687156 42.9057542 64.90332031 41.01196289 C63.03388603 38.83855556 61.13992035 38.25234169 58.46191406 37.33618164 C55.49121964 35.033059 54.55607198 33.78503669 53.77441406 30.05883789 C53.67128906 28.85098633 53.56816406 27.64313477 53.46191406 26.39868164 C53.00366258 21.04286742 52.26879033 18.21091666 48.46191406 14.33618164 C46.48033879 12.76898154 46.48033879 12.76898154 44.39941406 11.58618164 C43.39201172 10.97516602 43.39201172 10.97516602 42.36425781 10.35180664 C36.77993978 7.37044588 30.61646923 7.80250963 24.46191406 8.33618164 C21.61945781 9.18369321 21.61945781 9.18369321 18.96191406 10.33618164 C10.37398384 13.81373249 2.42908695 13.45813999 -6.10058594 9.96118164 C-8.63118505 8.78687378 -11.08809339 7.60311109 -13.48730469 6.17993164 C-16.3170554 5.01569135 -18.74349437 5.14499487 -21.78808594 5.21118164 C-23.40457031 5.23825195 -23.40457031 5.23825195 -25.05371094 5.26586914 C-25.87355469 5.28907227 -26.69339844 5.31227539 -27.53808594 5.33618164 C-26.23824806 2.73650588 -25.39404116 2.65464685 -22.67089844 1.73071289 C-15.23799463 -0.36449463 -7.6584726 -0.07472742 0 0 Z " fill="#ECECEC" transform="translate(80.5380859375,20.663818359375)"/>
<path d="M0 0 C0.74609375 2.6328125 0.74609375 2.6328125 1 6 C-0.65234375 8.9296875 -0.65234375 8.9296875 -2.9375 11.875 C-6.46233554 16.64134216 -6.46233554 16.64134216 -7.8125 22.25 C-6.92857227 26.32966643 -5.45870427 28.55783494 -3.12109375 31.921875 C-1.19929528 35.48423314 -1.3310415 39.0777907 -2 43 C-2.99 45.475 -2.99 45.475 -4 48 C-8.29 48 -12.58 48 -17 48 C-18.33671784 42.56958377 -19.54119262 37.62840322 -19 32 C-18.505 31.195625 -18.01 30.39125 -17.5 29.5625 C-15.8133522 26.68114333 -15.34170505 24.32770815 -15.4296875 20.984375 C-16.36857003 17.71757825 -18.78768883 16.33562591 -21.44140625 14.38671875 C-23 13 -23 13 -23.4375 10.125 C-23.293125 9.42375 -23.14875 8.7225 -23 8 C-21.948125 7.566875 -20.89625 7.13375 -19.8125 6.6875 C-17.54532728 5.72429235 -15.60058536 4.75036585 -13.5 3.4375 C-9.12226377 0.92030167 -5.02083412 0 0 0 Z " fill="#9A0F02" transform="translate(152,109)"/>
<path d="M0 0 C2.0625 0.4375 2.0625 0.4375 4 1 C4 3.31 4 5.62 4 8 C0.17679443 9.42258812 -2.91281305 10.24042276 -7 10 C-7 10.99 -7 11.98 -7 13 C-8.98 13.99 -8.98 13.99 -11 15 C-10.360625 15.78375 -9.72125 16.5675 -9.0625 17.375 C-5.8334092 21.48475193 -5.73397045 23.76808553 -6 29 C-6.63028587 30.68076231 -7.29788106 32.34795544 -8 34 C-8.3813074 36.32597511 -8.72460254 38.65912158 -9 41 C-10.65 41.66 -12.3 42.32 -14 43 C-14 41.68 -14 40.36 -14 39 C-14.66 38.67 -15.32 38.34 -16 38 C-16 36.35 -16 34.7 -16 33 C-17.65 33.66 -19.3 34.32 -21 35 C-21.86110474 21.03096751 -21.86110474 21.03096751 -18.625 17.1875 C-16 15 -16 15 -14 14 C-14.33 13.34 -14.66 12.68 -15 12 C-13.35 12 -11.7 12 -10 12 C-10.66 11.01 -11.32 10.02 -12 9 C-10.35 9 -8.7 9 -7 9 C-6.67 7.68 -6.34 6.36 -6 5 C-5.67 5.66 -5.34 6.32 -5 7 C-4.01 7 -3.02 7 -2 7 C-2.66 6.67 -3.32 6.34 -4 6 C-4 5.34 -4 4.68 -4 4 C-2.68 4.33 -1.36 4.66 0 5 C0 5.66 0 6.32 0 7 C0.66 6.67 1.32 6.34 2 6 C2 4.68 2 3.36 2 2 C1.01 1.67 0.02 1.34 -1 1 C-0.67 0.67 -0.34 0.34 0 0 Z " fill="#403C3C" transform="translate(42,29)"/>
<path d="M0 0 C0.73131603 10.40093912 -0.82667366 18.45151999 -4.32861328 28.13867188 C-4.96075147 29.89118879 -5.55775994 31.6562634 -6.15234375 33.421875 C-8.70259969 40.85129984 -8.70259969 40.85129984 -11 42 C-12.04195135 40.64093302 -13.05783123 39.26185484 -14.0625 37.875 C-14.91521484 36.72644531 -14.91521484 36.72644531 -15.78515625 35.5546875 C-17.38910379 32.18175601 -17.06510247 30.54881124 -16 27 C-14.37109375 24.39453125 -14.37109375 24.39453125 -12.4375 21.8125 C-8.94251084 16.6475261 -8.68839996 13.47347937 -9.140625 7.39453125 C-9 5 -9 5 -7.796875 3.19921875 C-5.17106314 0.93668668 -3.48947735 0 0 0 Z " fill="#EFEFEC" transform="translate(163,101)"/>
<path d="M0 0 C4.21177536 0.65235017 8.30242805 1.5349371 12.4375 2.5625 C17.12447692 3.66721081 21.20476455 4.33455131 26 4 C28.63842176 8.70327357 29.19131138 11.33917966 30 17 C22.41 17 14.82 17 7 17 C7 13.37 7 9.74 7 6 C6.05125 5.855625 5.1025 5.71125 4.125 5.5625 C1 5 1 5 -1 4 C-0.67 2.68 -0.34 1.36 0 0 Z " fill="#121212" transform="translate(167,183)"/>
<path d="M0 0 C4.27814305 4.81291093 4 6.21088933 4 13.25 C-3.59 13.25 -11.18 13.25 -19 13.25 C-19 3.25 -19 3.25 -17 -0.75 C-11.72017415 -2.87328481 -4.85875278 -2.83427246 0 0 Z " fill="#E4E4E4" transform="translate(95,186.75)"/>
<path d="M0 0 C4.60204954 2.74371664 8.56783161 5.82049741 11.5625 10.3125 C12.10496576 13.85574859 12.4521326 17.39803832 12.8046875 20.96484375 C13.65170248 24.70655423 14.5687414 25.99275835 17.5625 28.3125 C18.7690625 28.745625 18.7690625 28.745625 20 29.1875 C22.71542715 30.37963875 23.34715826 31.13603835 25.0625 33.4375 C27.24338639 36.58542909 27.24338639 36.58542909 30.375 36.6875 C31.096875 36.56375 31.81875 36.44 32.5625 36.3125 C31.9025 35.3225 31.2425 34.3325 30.5625 33.3125 C30.17236284 31.3228005 29.83047351 29.32230131 29.5625 27.3125 C31.2125 26.9825 32.8625 26.6525 34.5625 26.3125 C35.0575 28.7875 35.0575 28.7875 35.5625 31.3125 C34.9025 31.3125 34.2425 31.3125 33.5625 31.3125 C33.8925 32.3025 34.2225 33.2925 34.5625 34.3125 C38.0275 33.8175 38.0275 33.8175 41.5625 33.3125 C41.5625 33.9725 41.5625 34.6325 41.5625 35.3125 C40.2425 35.3125 38.9225 35.3125 37.5625 35.3125 C38.0575 37.7875 38.0575 37.7875 38.5625 40.3125 C40.5425 40.8075 40.5425 40.8075 42.5625 41.3125 C42.0675 42.3025 42.0675 42.3025 41.5625 43.3125 C42.5525 43.3125 43.5425 43.3125 44.5625 43.3125 C44.8925 44.3025 45.2225 45.2925 45.5625 46.3125 C46.2225 46.6425 46.8825 46.9725 47.5625 47.3125 C47.5625 46.6525 47.5625 45.9925 47.5625 45.3125 C48.2225 45.3125 48.8825 45.3125 49.5625 45.3125 C49.27375 45.84875 48.985 46.385 48.6875 46.9375 C47.39538192 49.66530484 46.47691408 52.43862718 45.5625 55.3125 C45.2325 55.3125 44.9025 55.3125 44.5625 55.3125 C44.30855469 54.43335938 44.05460937 53.55421875 43.79296875 52.6484375 C41.84082186 47.35595037 38.69696636 43.13987737 34.5625 39.3125 C30.93650578 38.89524322 30.93650578 38.89524322 27.5625 39.3125 C24.8125 37 24.8125 37 22.5625 34.3125 C20.56297437 32.05216667 19.50740377 31.29022706 16.625 30.125 C12.44306113 27.64997495 10.99759973 24.89556043 9.5625 20.3125 C9.36856663 18.58806543 9.22326239 16.85752106 9.125 15.125 C8.87333171 11.47301344 8.70263058 10.50208844 6.4375 7.4375 C-0.4628936 2.33720908 -5.99856287 -0.49922291 -14.73046875 0.6015625 C-18.4505038 1.35709458 -21.82760078 2.44701357 -25.3125 3.9375 C-30.19522063 5.869018 -35.26099479 5.93142997 -40.4375 5.3125 C-42.765625 4.29296875 -42.765625 4.29296875 -44.4375 3.3125 C-41.1223399 2.20744663 -38.91319478 2.34543184 -35.4375 2.5 C-30.73047583 2.55727574 -27.27563582 2.13068928 -22.9375 0.3125 C-15.62284234 -2.67743306 -7.31937382 -3.42222631 0 0 Z " fill="#4A4342" transform="translate(122.4375,29.6875)"/>
<path d="M0 0 C5.59165396 1.47273139 10.64224822 4.80732696 14.06640625 9.50390625 C15.98948213 13.49451442 16.03951083 17.38460431 15.7734375 21.73046875 C14.1234375 21.73046875 12.4734375 21.73046875 10.7734375 21.73046875 C10.68707031 21.13878906 10.60070312 20.54710937 10.51171875 19.9375 C9.82713735 16.08751471 8.97530367 13.08373454 7.0234375 9.66796875 C1.55530776 6.40812217 -3.96693383 7.43796274 -10.2265625 7.73046875 C-10.8865625 12.35046875 -11.5465625 16.97046875 -12.2265625 21.73046875 C-13.8765625 21.73046875 -15.5265625 21.73046875 -17.2265625 21.73046875 C-17.66846744 14.36538649 -16.64923293 10.06164058 -12.2265625 3.98046875 C-8.24611256 -0.49753744 -5.627355 -0.70135656 0 0 Z " fill="#141414" transform="translate(88.2265625,178.26953125)"/>
<path d="M0 0 C0.66 0 1.32 0 2 0 C2.01417969 0.7734375 2.02835938 1.546875 2.04296875 2.34375 C2.35882729 9.24141764 2.99606344 14.90240688 8 20 C10.95995431 21.54326281 10.95995431 21.54326281 14 22 C17.06408011 22.70036117 18.2491697 23.16611314 21 25 C24.19806665 25.4603764 24.19806665 25.4603764 27.6875 25.625 C28.86699219 25.69976562 30.04648437 25.77453125 31.26171875 25.8515625 C32.61716797 25.92503906 32.61716797 25.92503906 34 26 C33.505 24.515 33.505 24.515 33 23 C33.99 23.33 34.98 23.66 36 24 C37.89212737 24.22179785 39.78884472 24.40614015 41.6875 24.5625 C42.68136719 24.64628906 43.67523438 24.73007813 44.69921875 24.81640625 C45.83810547 24.90728516 45.83810547 24.90728516 47 25 C47 24.01 47 23.02 47 22 C47.66 22 48.32 22 49 22 C49.495 24.475 49.495 24.475 50 27 C50.61488281 27.03738281 51.22976562 27.07476562 51.86328125 27.11328125 C52.67152344 27.17902344 53.47976562 27.24476562 54.3125 27.3125 C55.11300781 27.37050781 55.91351563 27.42851563 56.73828125 27.48828125 C59.36272334 28.08206694 60.30820672 28.95780294 62 31 C61.67 31.66 61.34 32.32 61 33 C59.35 32.67 57.7 32.34 56 32 C56 31.34 56 30.68 56 30 C54.02 30 52.04 30 50 30 C50 31.65 50 33.3 50 35 C49.34 35 48.68 35 48 35 C47.67 33.35 47.34 31.7 47 30 C45.68 30.99 44.36 31.98 43 33 C43.50603992 30.83125748 43.99983813 29.00032373 45 27 C42.36 27 39.72 27 37 27 C37.495 29.475 37.495 29.475 38 32 C37.01 31.34 36.02 30.68 35 30 C34.34 30 33.68 30 33 30 C33 29.34 33 28.68 33 28 C31.68 28 30.36 28 29 28 C28.67 28.99 28.34 29.98 28 31 C27.67 30.01 27.34 29.02 27 28 C26.34 28 25.68 28 25 28 C25 29.32 25 30.64 25 32 C24.34 32 23.68 32 23 32 C22.67 31.34 22.34 30.68 22 30 C21.34 30 20.68 30 20 30 C20 28.68 20 27.36 20 26 C14.95780988 24.89495111 14.95780988 24.89495111 10.125 26.3125 C7.9104069 27.82725163 7.9104069 27.82725163 7 30 C6.34 30 5.68 30 5 30 C5 29.01 5 28.02 5 27 C6.98 26.34 8.96 25.68 11 25 C11 24.34 11 23.68 11 23 C10.2575 22.896875 9.515 22.79375 8.75 22.6875 C5.82985982 21.95746496 4.26812446 20.93210602 2 19 C2.33 20.32 2.66 21.64 3 23 C2.34 22.67 1.68 22.34 1 22 C1.0825 20.824375 1.165 19.64875 1.25 18.4375 C1.29271412 13.62789023 -0.50724135 11.02057847 -3 7 C-2.67 6.34 -2.34 5.68 -2 5 C-1.34 5.33 -0.68 5.66 0 6 C0 4.02 0 2.04 0 0 Z " fill="#423D3C" transform="translate(33,67)"/>
<path d="M0 0 C0.391875 0.886875 0.78375 1.77375 1.1875 2.6875 C2.83286427 6.10803094 2.83286427 6.10803094 5.6875 8.5 C8 11 8 11 8.5 14 C7.94448402 17.33309591 6.74535196 19.13762279 5 22 C4.28076792 25.69523952 4.28076792 25.69523952 4 29 C0.71515839 24.74630452 -1.92454947 20.20038313 -4.625 15.5625 C-5.12773438 14.71623047 -5.63046875 13.86996094 -6.1484375 12.99804688 C-6.62796875 12.17498047 -7.1075 11.35191406 -7.6015625 10.50390625 C-8.03807129 9.75955322 -8.47458008 9.0152002 -8.92431641 8.24829102 C-10.07895712 5.83497137 -10.58433532 3.63399231 -11 1 C-3.375 0 -3.375 0 0 0 Z " fill="#F2F2EF" transform="translate(126,118)"/>
<path d="M0 0 C0.66 0 1.32 0 2 0 C5.86206897 10.55172414 5.86206897 10.55172414 5 14 C1.62167088 17.23144524 -1.0483171 19.77821785 -5.75 20.3125 C-9.85767229 19.91753151 -11.82926614 18.5942368 -15 16 C-16.4375 14 -16.4375 14 -17 12 C-16.67 10.68 -16.34 9.36 -16 8 C-10.06 8.33 -4.12 8.66 2 9 C1.34 6.03 0.68 3.06 0 0 Z " fill="#3E3A38" transform="translate(98,51)"/>
<path d="M0 0 C1.51003167 2.76075714 2.29968469 5.12289367 2.8046875 8.21875 C3.88405236 13.37266441 6.21061476 17.17332163 9.125 21.5 C14 28.94008264 14 28.94008264 14 30 C11.375 30.4375 11.375 30.4375 8 30 C6.27227447 28.35021697 4.8949575 26.56957256 3.44140625 24.67578125 C1.57197197 22.50237392 -0.32199371 21.91616005 -3 21 C-5.3125 18.875 -5.3125 18.875 -7 17 C-5.69386058 13.08158173 -4.16870152 10.67359191 -1 8 C-0.34 8 0.32 8 1 8 C0.16666667 5.83333333 0.16666667 5.83333333 -2 5 C-1.34 3.35 -0.68 1.7 0 0 Z " fill="#E8E8E8" transform="translate(142,37)"/>
<path d="M0 0 C2.07421875 -0.43359375 2.07421875 -0.43359375 5 0 C7.56963123 2.04201464 9.66033625 4.46862988 11.8125 6.9375 C12.7087207 7.9265332 12.7087207 7.9265332 13.62304688 8.93554688 C18 13.81272321 18 13.81272321 18 15 C12.72 15 7.44 15 2 15 C0.26379884 8.92329596 -0.20818303 5.93321622 0 0 Z " fill="#1D1D1D" transform="translate(119,185)"/>
<path d="M0 0 C2.3833231 3.57498466 2.92607229 5.71219277 3 10 C0.86975248 12.61716124 -1.37923143 14.51345166 -4.0234375 16.5859375 C-6.8594416 20.04967373 -7.46434356 23.6296777 -8.4375 27.9375 C-11.29772966 39.62602392 -15.35416407 50.35699865 -21 61 C-21.99 61 -22.98 61 -24 61 C-22.72049476 57.70818198 -21.29968264 54.54668381 -19.75 51.375 C-16.66982932 44.66788279 -14.57790044 37.69404696 -12.4296875 30.6484375 C-12.19314453 29.8843457 -11.95660156 29.12025391 -11.71289062 28.33300781 C-11.22567437 26.73854256 -10.7563958 25.13851457 -10.30273438 23.53417969 C-8.9243697 18.91647022 -7.94660006 16.21722306 -3.75 13.5 C-1.58213588 11.92730522 -1.58213588 11.92730522 0 10 C0.28624064 7.37683954 -0.00273437 5.38238484 -0.59765625 2.8203125 C-0.79681641 1.91925781 -0.79681641 1.91925781 -1 1 C-0.67 0.67 -0.34 0.34 0 0 Z " fill="#06060A" transform="translate(181,91)"/>
<path d="M0 0 C2 3 2 3 2 5 C1.34 5 0.68 5 0 5 C0.33 5.99 0.66 6.98 1 8 C4.465 7.505 4.465 7.505 8 7 C8 7.66 8 8.32 8 9 C6.68 9 5.36 9 4 9 C4.33 10.65 4.66 12.3 5 14 C6.32 14.33 7.64 14.66 9 15 C8.67 15.66 8.34 16.32 8 17 C8.99 17 9.98 17 11 17 C11.33 17.99 11.66 18.98 12 20 C12.66 20.33 13.32 20.66 14 21 C14 20.34 14 19.68 14 19 C14.66 19 15.32 19 16 19 C15.71125 19.53625 15.4225 20.0725 15.125 20.625 C13.83288192 23.35280484 12.91441408 26.12612718 12 29 C11.67 29 11.34 29 11 29 C10.61908203 27.68128906 10.61908203 27.68128906 10.23046875 26.3359375 C8.27832186 21.04345037 5.13446636 16.82737737 1 13 C-2.62599422 12.58274322 -2.62599422 12.58274322 -6 13 C-8.9375 10.5 -8.9375 10.5 -11 8 C-10.34 7.34 -9.68 6.68 -9 6 C-8.608125 6.66 -8.21625 7.32 -7.8125 8 C-6.14583333 10.29166667 -6.14583333 10.29166667 -3.3125 10.25 C-2.549375 10.1675 -1.78625 10.085 -1 10 C-1.66 9.01 -2.32 8.02 -3 7 C-3.39013716 5.0103005 -3.73202649 3.00980131 -4 1 C-2.68 0.67 -1.36 0.34 0 0 Z " fill="#434343" transform="translate(156,56)"/>
<path d="M0 0 C0 0.66 0 1.32 0 2 C-1.50390625 3.4453125 -1.50390625 3.4453125 -3.5625 5.125 C-7.27332891 8.24576777 -10.28853657 11.57682865 -13.26171875 15.3984375 C-15.4295265 17.39574352 -17.11536497 17.65600604 -20 18 C-20.33 18.99 -20.66 19.98 -21 21 C-21.33 20.34 -21.66 19.68 -22 19 C-22.99 19.33 -23.98 19.66 -25 20 C-24.505 18.515 -24.505 18.515 -24 17 C-22.35 17 -20.7 17 -19 17 C-19.33 15.02 -19.66 13.04 -20 11 C-19.01 10.67 -18.02 10.34 -17 10 C-16.67 10.66 -16.34 11.32 -16 12 C-15.01 9.03 -14.02 6.06 -13 3 C-12.67 4.32 -12.34 5.64 -12 7 C-11.01 6.67 -10.02 6.34 -9 6 C-9.185625 5.38125 -9.37125 4.7625 -9.5625 4.125 C-10 2 -10 2 -9 0 C-2.57142857 -1.28571429 -2.57142857 -1.28571429 0 0 Z " fill="#161717" transform="translate(75,112)"/>
<path d="M0 0 C0.99 0 1.98 0 3 0 C3.76532392 11.68485635 4.13339991 23.29045225 4 35 C2.68 35 1.36 35 0 35 C0 23.45 0 11.9 0 0 Z " fill="#0E0E0E" transform="translate(16,165)"/>
<path d="M0 0 C3.96 0.33 7.92 0.66 12 1 C12.33 3.64 12.66 6.28 13 9 C8.71 9 4.42 9 0 9 C0 6.03 0 3.06 0 0 Z " fill="#DDDDDD" transform="translate(179,191)"/>
<path d="M0 0 C1.67542976 0.28604898 3.34385343 0.61781233 5 1 C2.14415227 2.90389849 0.0688238 3.69462177 -3.1875 4.625 C-4.08855469 4.88539062 -4.98960938 5.14578125 -5.91796875 5.4140625 C-6.94857422 5.70410156 -6.94857422 5.70410156 -8 6 C-7.06994141 5.87818359 -7.06994141 5.87818359 -6.12109375 5.75390625 C3.23112109 5.08686327 9.95855264 8.74595497 18 13 C16.26953125 13.65234375 16.26953125 13.65234375 14 14 C11.94921875 13.00390625 11.94921875 13.00390625 9.6875 11.5625 C3.2619514 8.14384001 -3.89629384 7.57925877 -11 9 C-13.33213335 11.43215216 -13.33213335 11.43215216 -15 14 C-15.66 14 -16.32 14 -17 14 C-17 13.34 -17 12.68 -17 12 C-16.34 12 -15.68 12 -15 12 C-14.31292445 9.50935112 -14 7.62113708 -14 5 C-12.68 5.33 -11.36 5.66 -10 6 C-9.67 4.68 -9.34 3.36 -9 2 C-9 2.66 -9 3.32 -9 4 C-7.68628013 3.52418802 -6.37405454 3.04424851 -5.0625 2.5625 C-4.33160156 2.29566406 -3.60070312 2.02882813 -2.84765625 1.75390625 C-1.01694322 1.14613052 -1.01694322 1.14613052 0 0 Z " fill="#383231" transform="translate(62,19)"/>
<path d="M0 0 C1.23556641 0.01740234 1.23556641 0.01740234 2.49609375 0.03515625 C3.32238281 0.04417969 4.14867187 0.05320313 5 0.0625 C5.63808594 0.07410156 6.27617188 0.08570313 6.93359375 0.09765625 C7.18359375 7.72265625 7.18359375 7.72265625 4.93359375 11.09765625 C1.82099771 10.75181225 0.10486562 10.22385658 -2.44140625 8.34765625 C-4.06640625 6.09765625 -4.06640625 6.09765625 -3.87890625 3.41015625 C-2.72600725 0.12882832 -2.72600725 0.12882832 0 0 Z " fill="#E0E3E1" transform="translate(27.06640625,51.90234375)"/>
<path d="M0 0 C1.32 0 2.64 0 4 0 C4.33 6.27 4.66 12.54 5 19 C3.35 19 1.7 19 0 19 C-1.19825457 15.40523628 -1.14608744 12.11450601 -1.125 8.375 C-1.12886719 7.68148437 -1.13273438 6.98796875 -1.13671875 6.2734375 C-1.12666646 1.12666646 -1.12666646 1.12666646 0 0 Z " fill="#0C0C0C" transform="translate(142,181)"/>
<path d="M0 0 C3.69230769 0.69230769 3.69230769 0.69230769 5 2 C5.400383 4.85528607 5.7518227 7.69736487 6.0625 10.5625 C6.15337891 11.36880859 6.24425781 12.17511719 6.33789062 13.00585938 C6.56247449 15.00347377 6.78173236 17.0016856 7 19 C5.02 19 3.04 19 1 19 C0.66191314 16.93827387 0.32972639 14.8755797 0 12.8125 C-0.185625 11.66394531 -0.37125 10.51539063 -0.5625 9.33203125 C-0.93608948 6.48674706 -1.1673778 3.86111427 -1 1 C-0.67 0.67 -0.34 0.34 0 0 Z " fill="#171717" transform="translate(107,181)"/>
<path d="M0 0 C2.59719377 0.99068216 3.76257032 1.51689019 5.01171875 4.05859375 C5.23472656 4.84363281 5.45773438 5.62867188 5.6875 6.4375 C5.91824219 7.21996094 6.14898437 8.00242188 6.38671875 8.80859375 C6.69029297 9.89333984 6.69029297 9.89333984 7 11 C7.33 11.99 7.66 12.98 8 14 C8.12781786 16.67394964 8.04391871 19.32095857 8 22 C6.68 22 5.36 22 4 22 C3.89042969 21.28714844 3.78085938 20.57429688 3.66796875 19.83984375 C2.59946913 13.27291016 2.59946913 13.27291016 0.3125 7.0625 C-1 4 -1 4 -0.6875 1.5625 C-0.460625 1.046875 -0.23375 0.53125 0 0 Z " fill="#121212" transform="translate(61,178)"/>
<path d="M0 0 C0.66 0 1.32 0 2 0 C1.65256283 3.70599649 0.43119422 5.99260235 -1.625 9 C-3.59848944 12.03280322 -3.59848944 12.03280322 -4.125 15.5625 C-2.79145046 18.45185733 -1.10724191 20.84476475 0.84375 23.3515625 C2 25 2 25 3 28 C2.01 28 1.02 28 0 28 C0 29.98 0 31.96 0 34 C-0.33 34 -0.66 34 -1 34 C-1.0928125 32.2675 -1.0928125 32.2675 -1.1875 30.5 C-1.59535134 26.99000664 -2.53853275 24.8815805 -4.5625 22 C-6.69682178 18.7828698 -7.87206475 16.16755009 -7.6328125 12.1640625 C-6.27598955 7.52406303 -3.21480874 3.54938159 0 0 Z " fill="#1D0D0B" transform="translate(151,117)"/>
<path d="M0 0 C0.33 0 0.66 0 1 0 C1.18216119 4.64511035 0.80293791 7.75779316 -1 12 C-1.3813074 14.32597511 -1.72460254 16.65912158 -2 19 C-3.65 19.66 -5.3 20.32 -7 21 C-7 19.68 -7 18.36 -7 17 C-7.66 16.67 -8.32 16.34 -9 16 C-9 14.35 -9 12.7 -9 11 C-10.65 11.66 -12.3 12.32 -14 13 C-14.125 9.625 -14.125 9.625 -14 6 C-13.34 5.34 -12.68 4.68 -12 4 C-11.62875 4.763125 -11.2575 5.52625 -10.875 6.3125 C-8.6369085 9.52043115 -6.55788567 10.4977816 -3 12 C-2.01 8.04 -1.02 4.08 0 0 Z " fill="#4B4948" transform="translate(35,51)"/>
<path d="M0 0 C6.6 0.33 13.2 0.66 20 1 C20 1.33 20 1.66 20 2 C18.35 2.33 16.7 2.66 15 3 C15 3.66 15 4.32 15 5 C14.25234375 5.12117188 13.5046875 5.24234375 12.734375 5.3671875 C11.74953125 5.53476562 10.7646875 5.70234375 9.75 5.875 C8.28820312 6.11863281 8.28820312 6.11863281 6.796875 6.3671875 C4.22735883 6.94855848 2.27928944 7.70840265 0 9 C0 8.01 0 7.02 0 6 C-0.99 6.99 -1.98 7.98 -3 9 C-3.66 8.67 -4.32 8.34 -5 8 C-4.175 7.236875 -3.35 6.47375 -2.5 5.6875 C0.34055197 3.24565858 0.34055197 3.24565858 0 0 Z " fill="#E5E5E5" transform="translate(95,21)"/>
<path d="M0 0 C2.29141286 -0.05384521 4.58318188 -0.09272087 6.875 -0.125 C8.78925781 -0.15980469 8.78925781 -0.15980469 10.7421875 -0.1953125 C14 0 14 0 16 2 C13.69 2 11.38 2 9 2 C9 2.66 9 3.32 9 4 C7.94039062 4.27714844 6.88078125 4.55429687 5.7890625 4.83984375 C4.40101131 5.205614 3.01299213 5.57150572 1.625 5.9375 C0.57699219 6.21110352 0.57699219 6.21110352 -0.4921875 6.49023438 C-4.33955098 7.48512509 -4.33955098 7.48512509 -8 9 C-9.99960012 9.039992 -12.00047242 9.04346799 -14 9 C-12.19587357 5.73539027 -11.16605307 4.11070205 -8 2 C-8.33 3.32 -8.66 4.64 -9 6 C-8.175 5.505 -7.35 5.01 -6.5 4.5 C-2.24511812 2.67647919 0.42308671 2.76326311 5 3 C5 2.34 5 1.68 5 1 C3.35 1 1.7 1 0 1 C0 0.67 0 0.34 0 0 Z " fill="#F9F9F8" transform="translate(105,23)"/>
<path d="M0 0 C2.97 0 5.94 0 9 0 C9 1.32 9 2.64 9 4 C10.65 4 12.3 4 14 4 C14 3.01 14 2.02 14 1 C14.99 1 15.98 1 17 1 C16.42655063 3.86724686 16.1385485 4.8614515 14 7 C9.36273277 7.6947822 5.29185045 7.89199198 1.375 5.1875 C0 3 0 3 0 0 Z " fill="#DDE0DE" transform="translate(83,61)"/>
<path d="M0 0 C3.5625 0.1875 3.5625 0.1875 5.5625 2.1875 C5.23278521 5.48464793 4.9398161 6.8101839 2.5625 9.1875 C-0.73464793 8.85778521 -2.0601839 8.5648161 -4.4375 6.1875 C-4.625 3.625 -4.625 3.625 -4.4375 1.1875 C-3.4375 0.1875 -3.4375 0.1875 0 0 Z " fill="#1C1C1C" transform="translate(31.4375,172.8125)"/>
<path d="M0 0 C0.66 0 1.32 0 2 0 C2.33 1.65 2.66 3.3 3 5 C3.61488281 5.03738281 4.22976562 5.07476562 4.86328125 5.11328125 C5.67152344 5.17902344 6.47976562 5.24476562 7.3125 5.3125 C8.11300781 5.37050781 8.91351563 5.42851563 9.73828125 5.48828125 C12.36272334 6.08206694 13.30820672 6.95780294 15 9 C14.67 9.66 14.34 10.32 14 11 C11.525 10.505 11.525 10.505 9 10 C9 9.34 9 8.68 9 8 C7.02 8 5.04 8 3 8 C3 9.65 3 11.3 3 13 C2.34 13 1.68 13 1 13 C0.67 10.36 0.34 7.72 0 5 C-2.97 4.67 -5.94 4.34 -9 4 C-9 3.67 -9 3.34 -9 3 C-6.03 3 -3.06 3 0 3 C0 2.01 0 1.02 0 0 Z " fill="#5D5654" transform="translate(80,89)"/>
<path d="M0 0 C-2.97640008 1.6535556 -5.59667215 2.66796802 -9 3 C-10.67299959 2.34938905 -12.33859237 1.67966676 -14 1 C-16.98949866 0.5361992 -19.98569641 0.24955019 -23 0 C-23 -0.33 -23 -0.66 -23 -1 C-21.35 -1 -19.7 -1 -18 -1 C-18 -1.66 -18 -2.32 -18 -3 C-10.5816485 -4.30912085 -6.61084638 -3.53603411 0 0 Z " fill="#E3E3E3" transform="translate(132,28)"/>
<path d="M0 0 C0.66 0 1.32 0 2 0 C2.01417969 0.7734375 2.02835938 1.546875 2.04296875 2.34375 C2.36491156 9.37428481 3.2328686 14.62664379 8 20 C8.99 20.66 9.98 21.32 11 22 C10.01 22.33 9.02 22.66 8 23 C4.8125 21.0625 4.8125 21.0625 2 19 C2.33 20.32 2.66 21.64 3 23 C2.34 22.67 1.68 22.34 1 22 C1.0825 20.824375 1.165 19.64875 1.25 18.4375 C1.29271412 13.62789023 -0.50724135 11.02057847 -3 7 C-2.67 6.34 -2.34 5.68 -2 5 C-1.34 5.33 -0.68 5.66 0 6 C0 4.02 0 2.04 0 0 Z " fill="#3F3A38" transform="translate(33,67)"/>
<path d="M0 0 C2.12472576 -0.05386629 4.24983652 -0.09273071 6.375 -0.125 C7.55835937 -0.14820312 8.74171875 -0.17140625 9.9609375 -0.1953125 C13 0 13 0 15 2 C14.21625 2.61875 13.4325 3.2375 12.625 3.875 C10.03162353 5.89858661 10.03162353 5.89858661 8 8 C7.67 7.34 7.34 6.68 7 6 C7.33 5.01 7.66 4.02 8 3 C6.68 4.65 5.36 6.3 4 8 C3.67 6.02 3.34 4.04 3 2 C2.67 3.65 2.34 5.3 2 7 C0.4375 5.75 0.4375 5.75 -1 4 C-0.58984375 1.890625 -0.58984375 1.890625 0 0 Z " fill="#F8F8F7" transform="translate(82,21)"/>
<path d="M0 0 C0.66 0.33 1.32 0.66 2 1 C1.67 2.32 1.34 3.64 1 5 C0.34 5 -0.32 5 -1 5 C-1.33 6.65 -1.66 8.3 -2 10 C-2.99 10.33 -3.98 10.66 -5 11 C-4.67 12.32 -4.34 13.64 -4 15 C-6.31 15 -8.62 15 -11 15 C-6.3627685 6.6849642 -6.3627685 6.6849642 -4 4 C-3.34 4 -2.68 4 -2 4 C-1.34 2.68 -0.68 1.36 0 0 Z " fill="#CCCCCC" transform="translate(46,146)"/>
<path d="M0 0 C0.33 0 0.66 0 1 0 C1.37641301 7.6537313 0.4744052 15.0511896 -3 22 C-3.66 22 -4.32 22 -5 22 C-4.00804829 4.00804829 -4.00804829 4.00804829 0 0 Z " fill="#0B0B0C" transform="translate(164,110)"/>
<path d="M0 0 C3.12308506 0.60803426 5.19251662 1.62014042 7.75 3.5 C8.36359375 3.9434375 8.9771875 4.386875 9.609375 4.84375 C10.29773438 5.41609375 10.29773438 5.41609375 11 6 C11 6.33 11 6.66 11 7 C4.565 7.495 4.565 7.495 -2 8 C-1 2 -1 2 0 0 Z " fill="#181730" transform="translate(48,153)"/>
<path d="M0 0 C0.4125 0.474375 0.825 0.94875 1.25 1.4375 C3.182185 3.16266518 4.48192275 3.56584875 7 4 C6.67 4.66 6.34 5.32 6 6 C6.99 6 7.98 6 9 6 C9.33 6.99 9.66 7.98 10 9 C10.66 9.33 11.32 9.66 12 10 C12 9.34 12 8.68 12 8 C12.66 8 13.32 8 14 8 C13.71125 8.53625 13.4225 9.0725 13.125 9.625 C11.83288192 12.35280484 10.91441408 15.12612718 10 18 C9.67 18 9.34 18 9 18 C8.75507813 17.12085937 8.51015625 16.24171875 8.2578125 15.3359375 C6.91678207 11.77929158 5.30587544 9.52636746 2.875 6.625 C2.15054688 5.75101562 1.42609375 4.87703125 0.6796875 3.9765625 C0.12539062 3.32429688 -0.42890625 2.67203125 -1 2 C-0.67 1.34 -0.34 0.68 0 0 Z " fill="#34302F" transform="translate(158,67)"/>
<path d="M0 0 C0.33 0 0.66 0 1 0 C0.50104522 7.15168515 -2.31563815 13.41291281 -5 20 C-5.99 20 -6.98 20 -8 20 C-7.505 15.545 -7.505 15.545 -7 11 C-6.01 11 -5.02 11 -4 11 C-3.896875 9.9275 -3.79375 8.855 -3.6875 7.75 C-3.02743488 4.14964478 -2.48410084 2.58760504 0 0 Z " fill="#020103" transform="translate(158,134)"/>
<path d="M0 0 C2.3125 -0.1875 2.3125 -0.1875 5 0 C6 1 7 2 8 3 C11.10839021 3.7269226 11.10839021 3.7269226 14 4 C14 4.66 14 5.32 14 6 C12.68 5.67 11.36 5.34 10 5 C12.71604715 7.87420123 12.71604715 7.87420123 16 10 C16 10.99 16 11.98 16 13 C11.34458072 11.91734435 9.12109305 10.41224796 6.234375 6.59765625 C4.36374567 4.17649361 2.19237715 2.12973781 0 0 Z " fill="#171719" transform="translate(184,93)"/>
<path d="M0 0 C2.475 0.99 2.475 0.99 5 2 C4.01 4.31 3.02 6.62 2 9 C5.63 9 9.26 9 13 9 C13.33 9.66 13.66 10.32 14 11 C11.89695523 11.1080023 9.79233091 11.18558987 7.6875 11.25 C5.92986328 11.31960937 5.92986328 11.31960937 4.13671875 11.390625 C1 11 1 11 -0.96875 9.21875 C-2 7 -2 7 -1.1875 3.25 C-0.795625 2.1775 -0.40375 1.105 0 0 Z " fill="#0A090C" transform="translate(88,99)"/>
<path d="M0 0 C1.155 0.165 2.31 0.33 3.5 0.5 C6.41443607 0.87589016 9.18924572 1.02251219 12.125 0.9375 C15.95716677 0.99930914 18.47150971 1.58860388 22 3 C22.94875 3.37125 23.8975 3.7425 24.875 4.125 C25.57625 4.41375 26.2775 4.7025 27 5 C27 5.33 27 5.66 27 6 C23.96888839 6.18370373 21.84961592 5.950895 18.9375 5 C14.58392087 3.62871847 10.29080729 3.89385293 5.76953125 4.02734375 C3.29482647 4.00291084 1.35089437 3.72378371 -1 3 C-0.67 2.01 -0.34 1.02 0 0 Z " fill="#3E3330" transform="translate(45,78)"/>
<path d="M0 0 C4.29 0.33 8.58 0.66 13 1 C11.68 3.31 10.36 5.62 9 8 C8.67 7.01 8.34 6.02 8 5 C8.66 4.01 9.32 3.02 10 2 C7.36 2 4.72 2 2 2 C2.33 3.65 2.66 5.3 3 7 C2.01 6.34 1.02 5.68 0 5 C-0.66 5 -1.32 5 -2 5 C-2 4.34 -2 3.68 -2 3 C-3.32 3 -4.64 3 -6 3 C-6.33 3.99 -6.66 4.98 -7 6 C-7.33 4.68 -7.66 3.36 -8 2 C-5.36 2 -2.72 2 0 2 C0 1.34 0 0.68 0 0 Z " fill="#212021" transform="translate(68,92)"/>
<path d="M0 0 C1.875 1.5 1.875 1.5 3 3 C2.21625 3.28875 1.4325 3.5775 0.625 3.875 C-2.09671632 4.84912254 -2.09671632 4.84912254 -4 7 C-6.03833424 5.7260411 -8.03852126 4.38938077 -10 3 C-10 2.34 -10 1.68 -10 1 C-6.60444966 -0.04478472 -3.54294857 -0.30152754 0 0 Z " fill="#EDEDED" transform="translate(134,29)"/>
<path d="M0 0 C3.69459731 0.19970796 4.78742451 0.76444338 7.3125 3.5625 C8.1478125 4.7690625 8.1478125 4.7690625 9 6 C5.37 6 1.74 6 -2 6 C-1 1 -1 1 0 0 Z " fill="#1A192F" transform="translate(92,102)"/>
<path d="M0 0 C2 0.0625 2 0.0625 4 1 C5.25 3.5625 5.25 3.5625 6 6 C2.7 6 -0.6 6 -4 6 C-2 2 -2 2 0 0 Z " fill="#E8C0B5" transform="translate(27,45)"/>
<path d="M0 0 C1.9375 0.625 1.9375 0.625 4 2 C4.75 5.125 4.75 5.125 5 8 C3.98679687 7.93039063 3.98679687 7.93039063 2.953125 7.859375 C-2.73404931 7.48132384 -2.73404931 7.48132384 -7.625 10 C-8.07875 10.66 -8.5325 11.32 -9 12 C-9 9.69 -9 7.38 -9 5 C-8.34 4.67 -7.68 4.34 -7 4 C-7 4.66 -7 5.32 -7 6 C-3.7 6 -0.4 6 3 6 C1.515 3.03 1.515 3.03 0 0 Z " fill="#2F2928" transform="translate(30,45)"/>
<path d="M0 0 C0 0.99 0 1.98 0 3 C0.99 2.67 1.98 2.34 3 2 C5.00875442 2.27571139 7.01178687 2.60235737 9 3 C7 4 7 4 5 5 C4.071875 5.556875 4.071875 5.556875 3.125 6.125 C0.34632958 7.26915841 -2.02626695 7.13516968 -5 7 C-3.47793991 4.37098712 -2.15634036 2.15634036 0 0 Z " fill="#EDEDEE" transform="translate(96,25)"/>
<path d="M0 0 C0.99 0.33 1.98 0.66 3 1 C2.125 4.875 2.125 4.875 1 6 C0.63239269 8.32817964 0.29758419 10.6618385 0 13 C-1.32 12.67 -2.64 12.34 -4 12 C-3.5317879 7.22423661 -2.75668002 3.95523655 0 0 Z " fill="#281D1C" transform="translate(133,135)"/>
<path d="M0 0 C6.27 0.33 12.54 0.66 19 1 C17.68 1.33 16.36 1.66 15 2 C15 3.32 15 4.64 15 6 C13.68 6 12.36 6 11 6 C11 4.68 11 3.36 11 2 C7.37 2.33 3.74 2.66 0 3 C0 2.01 0 1.02 0 0 Z " fill="#1A1615" transform="translate(81,59)"/>
<path d="M0 0 C0.33 1.32 0.66 2.64 1 4 C0.01 4.495 0.01 4.495 -1 5 C-1.103125 5.598125 -1.20625 6.19625 -1.3125 6.8125 C-2.30393819 9.96707605 -4.37688273 11.11673632 -7 13 C-7.33 12.01 -7.66 11.02 -8 10 C-7.525625 9.566875 -7.05125 9.13375 -6.5625 8.6875 C-4.76313043 6.97690387 -4.76313043 6.97690387 -4 4 C-3.34 4 -2.68 4 -2 4 C-1.34 2.68 -0.68 1.36 0 0 Z " fill="#101010" transform="translate(49,147)"/>
<path d="M0 0 C0.33 0.99 0.66 1.98 1 3 C0.34 3 -0.32 3 -1 3 C-1.2475 3.598125 -1.495 4.19625 -1.75 4.8125 C-3.16370012 7.28647521 -4.65055383 8.43370255 -7 10 C-7 7.03 -7 4.06 -7 1 C-6.67 1.66 -6.34 2.32 -6 3 C-4.02 2.01 -2.04 1.02 0 0 Z " fill="#FAFAFA" transform="translate(142,42)"/>
<path d="M0 0 C0.43570313 0.3609375 0.87140625 0.721875 1.3203125 1.09375 C5.31407151 4.20577001 7.73840541 5.64165788 13 5 C13 5.66 13 6.32 13 7 C11.56260487 7.02712066 10.12506137 7.04645067 8.6875 7.0625 C7.48673828 7.07990234 7.48673828 7.07990234 6.26171875 7.09765625 C4 7 4 7 1 6 C-0.25 4.0625 -0.25 4.0625 -1 2 C-0.67 1.34 -0.34 0.68 0 0 Z " fill="#242425" transform="translate(178,86)"/>
<path d="M0 0 C0.99 0.33 1.98 0.66 3 1 C2.01 1.495 2.01 1.495 1 2 C3.0072908 5.0109362 3.83884224 5.63016497 7 7 C6.33333333 9 5.66666667 11 5 13 C-0.74031891 4.738041 -0.74031891 4.738041 0 0 Z " fill="#3B3B3B" transform="translate(147,48)"/>
<path d="M0 0 C0.33 0 0.66 0 1 0 C1.268125 0.928125 1.53625 1.85625 1.8125 2.8125 C2.94352306 5.84840401 3.46205303 7.12003928 6 9 C8.59915538 10.19027984 8.59915538 10.19027984 11 11 C11 11.99 11 12.98 11 14 C2.73821601 10.08561178 2.73821601 10.08561178 -0.125 5.875 C-1 3 -1 3 0 0 Z " fill="#4A4443" transform="translate(134,49)"/>
<path d="M0 0 C0.66 0 1.32 0 2 0 C2.33 1.32 2.66 2.64 3 4 C2.34 4 1.68 4 1 4 C1 5.32 1 6.64 1 8 C0.34 8 -0.32 8 -1 8 C-1.33 8.99 -1.66 9.98 -2 11 C-2.33 10.34 -2.66 9.68 -3 9 C-3.99 9.33 -4.98 9.66 -6 10 C-5.67 9.01 -5.34 8.02 -5 7 C-3.35 7 -1.7 7 0 7 C-0.185625 6.030625 -0.37125 5.06125 -0.5625 4.0625 C-0.706875 3.051875 -0.85125 2.04125 -1 1 C-0.67 0.67 -0.34 0.34 0 0 Z " fill="#505050" transform="translate(56,122)"/>
<path d="M0 0 C2.64 0 5.28 0 8 0 C6.68 0.33 5.36 0.66 4 1 C4 1.66 4 2.32 4 3 C2.46875 4.5078125 2.46875 4.5078125 0.5 6.125 C-0.1496875 6.66382813 -0.799375 7.20265625 -1.46875 7.7578125 C-1.9740625 8.16773438 -2.479375 8.57765625 -3 9 C-3.66 8.67 -4.32 8.34 -5 8 C-4.175 7.236875 -3.35 6.47375 -2.5 5.6875 C0.34055197 3.24565858 0.34055197 3.24565858 0 0 Z " fill="#D7D7D6" transform="translate(95,21)"/>
<path d="M0 0 C0.99 0 1.98 0 3 0 C3.33 0.99 3.66 1.98 4 3 C4.66 3.33 5.32 3.66 6 4 C6 3.34 6 2.68 6 2 C6.66 2 7.32 2 8 2 C7.34 3.32 6.68 4.64 6 6 C3 6 3 6 1.3125 4.6875 C0 3 0 3 0 0 Z " fill="#676767" transform="translate(164,73)"/>
<path d="M0 0 C0.53625 0.639375 1.0725 1.27875 1.625 1.9375 C4.44367193 4.38529404 6.33860732 4.66714612 10 5 C9.67 5.66 9.34 6.32 9 7 C5.6875 6.8125 5.6875 6.8125 2 6 C0.0625 3.4375 0.0625 3.4375 -1 1 C-0.67 0.67 -0.34 0.34 0 0 Z " fill="#6C615F" transform="translate(146,62)"/>
<path d="M0 0 C0.515625 0.763125 1.03125 1.52625 1.5625 2.3125 C4.55847644 5.61575607 6.85712514 6.48625726 11 8 C11 8.33 11 8.66 11 9 C8.3125 9.3125 8.3125 9.3125 5 9 C1.89835231 6.44975635 0.27433584 4.82300753 -1 1 C-0.67 0.67 -0.34 0.34 0 0 Z " fill="#322E2D" transform="translate(82,61)"/>
<path d="M0 0 C0.33 1.98 0.66 3.96 1 6 C-0.32 6 -1.64 6 -3 6 C-3 5.34 -3 4.68 -3 4 C-3.66 4 -4.32 4 -5 4 C-5 3.34 -5 2.68 -5 2 C-2 0 -2 0 0 0 Z " fill="#9C8079" transform="translate(84,44)"/>
<path d="M0 0 C1.65 0.33 3.3 0.66 5 1 C3.63055898 3.94956528 2.12169591 6.52468811 0 9 C-0.66 9 -1.32 9 -2 9 C-2 8.34 -2 7.68 -2 7 C-1.34 7 -0.68 7 0 7 C0.93423645 3.98968256 1.04449911 3.13349732 0 0 Z " fill="#302D2D" transform="translate(47,24)"/>
<path d="M0 0 C2 3 2 3 2 5 C1.34 5 0.68 5 0 5 C-0.33 5.66 -0.66 6.32 -1 7 C-1 6.34 -1 5.68 -1 5 C-1.66 5 -2.32 5 -3 5 C-3.33 3.68 -3.66 2.36 -4 1 C-2.68 0.67 -1.36 0.34 0 0 Z " fill="#6A6A6A" transform="translate(156,56)"/>
<path d="M0 0 C0.33 0 0.66 0 1 0 C0.67 2.31 0.34 4.62 0 7 C-1.32 7.33 -2.64 7.66 -4 8 C-2.25 2.25 -2.25 2.25 0 0 Z " fill="#0C0C0D" transform="translate(158,134)"/>
<path d="M0 0 C1.32 0.33 2.64 0.66 4 1 C1.69 2.65 -0.62 4.3 -3 6 C-3.66 5.67 -4.32 5.34 -5 5 C-2.75 2.4375 -2.75 2.4375 0 0 Z " fill="#030304" transform="translate(79,107)"/>
<path d="M0 0 C2.64 0 5.28 0 8 0 C7.34 1.32 6.68 2.64 6 4 C5.01 3.67 4.02 3.34 3 3 C3 2.34 3 1.68 3 1 C2.01 1.33 1.02 1.66 0 2 C0 1.34 0 0.68 0 0 Z " fill="#9D9D9D" transform="translate(70,94)"/>
<path d="M0 0 C1.32 0.33 2.64 0.66 4 1 C4 1.99 4 2.98 4 4 C3.01 4 2.02 4 1 4 C1 5.98 1 7.96 1 10 C0.67 10 0.34 10 0 10 C0 6.7 0 3.4 0 0 Z " fill="#3E2625" transform="translate(150,141)"/>
<path d="M0 0 C0.33 1.32 0.66 2.64 1 4 C1.66 4 2.32 4 3 4 C2.67 5.98 2.34 7.96 2 10 C1.34 9.01 0.68 8.02 0 7 C-0.99 7.495 -0.99 7.495 -2 8 C-1.34 5.36 -0.68 2.72 0 0 Z " fill="#2E2E31" transform="translate(158,128)"/>
<path d="M0 0 C1.98 0 3.96 0 6 0 C5.01 0.495 5.01 0.495 4 1 C4 1.66 4 2.32 4 3 C2.02 3.99 2.02 3.99 0 5 C-0.33 4.01 -0.66 3.02 -1 2 C-0.67 1.34 -0.34 0.68 0 0 Z " fill="#7C7C7C" transform="translate(66,112)"/>
<path d="M0 0 C0.2475 0.5775 0.495 1.155 0.75 1.75 C2.16683317 4.3002997 3.87627537 6.01785701 6 8 C3 8 3 8 0.3125 5.5 C-0.450625 4.675 -1.21375 3.85 -2 3 C-1.34 3 -0.68 3 0 3 C0 2.01 0 1.02 0 0 Z " fill="#3D3D3D" transform="translate(136,26)"/>
<path d="M0 0 C0.66 0 1.32 0 2 0 C2.99 1.98 3.98 3.96 5 6 C4.34 6.66 3.68 7.32 3 8 C0 3.375 0 3.375 0 0 Z " fill="#2A1A18" transform="translate(146,135)"/>
<path d="M0 0 C0.97608217 2.92824652 1.08226668 4.95613276 1 8 C0.01 8 -0.98 8 -2 8 C-2.125 5.125 -2.125 5.125 -2 2 C-1.34 1.34 -0.68 0.68 0 0 Z " fill="#100909" transform="translate(146,127)"/>
<path d="M0 0 C2.38564077 0.57584432 4.66682784 1.22227595 7 2 C7 2.66 7 3.32 7 4 C4.36 3.67 1.72 3.34 -1 3 C-0.67 2.01 -0.34 1.02 0 0 Z " fill="#645450" transform="translate(45,78)"/>
<path d="M0 0 C2.31 0 4.62 0 7 0 C7.33 0.66 7.66 1.32 8 2 C5.29120665 3.35439668 2.99066732 3.06501451 0 3 C0 2.01 0 1.02 0 0 Z " fill="#69615E" transform="translate(89,68)"/>
<path d="M0 0 C1.0625 1.875 1.0625 1.875 2 4 C1.67 4.66 1.34 5.32 1 6 C1.66 6.33 2.32 6.66 3 7 C1.02 7.99 1.02 7.99 -1 9 C-1.125 2.25 -1.125 2.25 0 0 Z " fill="#6C6C6C" transform="translate(22,55)"/>
<path d="M0 0 C0 2.62113708 -0.31292445 4.50935112 -1 7 C-2.32 6.67 -3.64 6.34 -5 6 C-3.35 4.02 -1.7 2.04 0 0 Z " fill="#F9F9F8" transform="translate(96,25)"/>
<path d="M0 0 C2.75 0.25 2.75 0.25 5 1 C1.81237635 3.12508244 -0.26512223 3.5020163 -4 4 C-2.3125 1.9375 -2.3125 1.9375 0 0 Z " fill="#232323" transform="translate(62,19)"/>
</svg>
