<?xml version="1.0" encoding="UTF-8"?>
<svg version="1.1" xmlns="http://www.w3.org/2000/svg" width="200" height="200">
<path d="M0 0 C66 0 132 0 200 0 C200 66 200 132 200 200 C134 200 68 200 0 200 C0 134 0 68 0 0 Z " fill="#100D0D" transform="translate(0,0)"/>
<path d="M0 0 C13.10270395 11.94658302 13.10270395 11.94658302 14.390625 17.1796875 C14.37009704 21.00302058 13.92349886 24.79039757 13.4921875 28.5859375 C13.14274921 32.61791774 13.02132654 34.55452978 15.1328125 38.12890625 C17.16435299 39.97416362 18.59337781 41.06146256 21.140625 41.9921875 C22.213125 42.3840625 23.285625 42.7759375 24.390625 43.1796875 C23.78681715 52.4380746 19.50057421 60.03598458 12.7421875 66.30078125 C1.91522783 74.95155799 -9.86029139 78.87117013 -23.484375 80.1171875 C-35.26970368 81.20316934 -48.4693366 84.17493808 -57.609375 92.1796875 C-58.89253803 94.76203457 -58.89253803 94.76203457 -59.609375 97.1796875 C-57.299375 97.8396875 -54.989375 98.4996875 -52.609375 99.1796875 C-52.114375 102.6446875 -52.114375 102.6446875 -51.609375 106.1796875 C-50.619375 105.8496875 -49.629375 105.5196875 -48.609375 105.1796875 C-48.41944858 134.53062449 -48.41944858 134.53062449 -49.046875 146.2421875 C-49.08611084 146.98895752 -49.12534668 147.73572754 -49.16577148 148.50512695 C-49.3904528 152.18757174 -49.8813382 155.53950352 -50.609375 159.1796875 C-77.669375 159.1796875 -104.729375 159.1796875 -132.609375 159.1796875 C-131.49641086 140.25929718 -131.49641086 140.25929718 -130.16015625 132.93359375 C-128.80010643 124.69002229 -128.13221993 116.48275092 -127.65234375 108.14453125 C-127.58016632 106.92182526 -127.50798889 105.69911926 -127.43362427 104.43936157 C-127.14056688 99.38165711 -126.85658893 94.32392882 -126.60620117 89.26391602 C-126.41628175 85.51402269 -126.19297778 81.7672681 -125.96484375 78.01953125 C-125.91772751 76.89224106 -125.87061127 75.76495087 -125.82206726 74.60350037 C-125.12685749 63.91100293 -120.85715076 55.83785999 -113.296875 48.3671875 C-104.42227721 39.13924362 -98.80831663 29.19126372 -94.19995117 17.30834961 C-88.56935063 3.1548832 -78.78830786 -6.09057038 -65.125 -12.375 C-43.38377571 -21.31305887 -17.40312015 -14.80993999 0 0 Z " fill="#ECC2B1" transform="translate(152.609375,40.8203125)"/>
<path d="M0 0 C66 0 132 0 200 0 C200 59.73 200 119.46 200 181 C197.98008564 178.98008564 197.13642276 177.40666666 195.875 174.875 C190.01017283 164.13146705 180.31437353 158.54994857 169.75 153.125 C164.77494714 150.56893556 159.88595029 147.96427232 155.12109375 145.03125 C149.70165884 141.736918 144.05879215 139.04629011 138.3125 136.375 C132.06622818 133.45656021 125.92593119 130.53069466 120 127 C120 126.67 120 126.34 120 126 C120.55236328 125.94054199 121.10472656 125.88108398 121.67382812 125.81982422 C141.63953697 123.57430228 160.65024906 119.32259464 174 103 C177.7844514 97.29041463 180.76011073 91.9567887 181 85 C181.07347656 83.48019531 181.07347656 83.48019531 181.1484375 81.9296875 C181.44864355 71.79196005 178.76059437 65.52972155 172.75 57.5625 C172.26563477 56.90725342 171.78126953 56.25200684 171.28222656 55.5769043 C168.11670995 51.33921354 164.79658907 47.35439506 161.046875 43.61328125 C160 42 160 42 160.15234375 40 C161.09321725 37.78005884 162.16208437 36.43819404 163.8125 34.6875 C168.9754057 28.81547232 171.81313329 24.38057788 171.4453125 16.30078125 C170.72352459 12.57154369 169.05102447 11.14220867 166 9 C161.02906842 6.53914278 157.37437759 5.6145808 151.74609375 5.5234375 C151.08215103 5.50785797 150.41820831 5.49227844 149.73414612 5.47622681 C147.6352751 5.42917349 145.53672633 5.4011164 143.4375 5.375 C141.33493518 5.3382782 139.23254356 5.29746437 137.13014221 5.25234985 C135.22549537 5.21308952 133.32062642 5.18507588 131.41577148 5.15771484 C128.19184188 5.00885783 125.17406137 4.55651257 122 4 C103.66718177 2.84754075 84.54537067 3.66129882 70 16 C69.41734375 16.43957031 68.8346875 16.87914063 68.234375 17.33203125 C58.34533534 25.06062756 53.13695191 34.8444992 51.41015625 47.06640625 C49.83807651 58.05300466 46.98702325 67.08148828 42 77 C41.57589844 77.87269531 41.15179688 78.74539062 40.71484375 79.64453125 C37.99106617 84.91665667 34.46191149 89.38127548 30.671875 93.93359375 C28.96370939 95.89348794 28.96370939 95.89348794 28 98 C27.34 98 26.68 98 26 98 C26 97.34 26 96.68 26 96 C25.29875 96.33773437 24.5975 96.67546875 23.875 97.0234375 C15.51986072 100.95126113 9.39148992 103 0 103 C0 69.01 0 35.02 0 0 Z " fill="#2D4992" transform="translate(0,0)"/>
<path d="M0 0 C-1.62422084 10.31106485 -9.09018977 18.64008502 -17 25 C-30.29887708 33.31975205 -44.67230676 36.29474356 -60 38 C-59.26998779 38.3623877 -58.53997559 38.72477539 -57.7878418 39.09814453 C-55.02299601 40.47193479 -52.25912323 41.84765989 -49.49584961 43.22460938 C-47.73428093 44.10170743 -45.97164671 44.97666441 -44.20898438 45.8515625 C-37.8982427 48.99799461 -31.66430166 52.24103916 -25.48999023 55.64697266 C-21.28542631 57.93167638 -16.98421559 60.01347001 -12.67773438 62.09765625 C-8.55795109 64.12297913 -4.77593664 66.36699185 -1 69 C-0.32195312 69.45761719 0.35609375 69.91523438 1.0546875 70.38671875 C9.42776256 76.37005351 14.37970955 82.75941909 19 92 C19 98.27 19 104.54 19 111 C-13.34 111 -45.68 111 -79 111 C-78.34 93.18 -77.68 75.36 -77 57 C-77.66 57 -78.32 57 -79 57 C-79.33 57.66 -79.66 58.32 -80 59 C-81 58 -81 58 -81.0625 54.4375 C-81.041875 53.303125 -81.02125 52.16875 -81 51 C-84.96 50.505 -84.96 50.505 -89 50 C-87.63742788 44.43616384 -85.52082248 42.29649734 -80.625 39.3125 C-71.36062052 34.37002004 -62.37577839 31.99339094 -52 31 C-35.83804163 29.44040904 -21.21503485 24.14391595 -10.58203125 11.25 C-8.29248969 7.99376311 -6.67446803 4.60654653 -5 1 C-3 0 -3 0 0 0 Z " fill="#09080B" transform="translate(181,89)"/>
<path d="M0 0 C1.63454022 2.45181033 2.50675896 4.13831562 3.4453125 6.84375 C6.84279596 16.30685487 10.39047914 24.26834034 17 32 C17.7115625 32.85980469 18.423125 33.71960938 19.15625 34.60546875 C24.01603245 40.26095501 29.41113669 46.36739821 36 50 C40.44571975 49.93075203 42.53109646 47.95379727 45.625 44.9375 C59.43329327 32 59.43329327 32 64 32 C63.67 33.32 63.34 34.64 63 36 C65.31 36.66 67.62 37.32 70 38 C70.495 41.465 70.495 41.465 71 45 C71.99 44.67 72.98 44.34 74 44 C74.18992642 73.35093699 74.18992642 73.35093699 73.5625 85.0625 C73.52326416 85.80927002 73.48402832 86.55604004 73.44360352 87.32543945 C73.2189222 91.00788424 72.7280368 94.35981602 72 98 C44.94 98 17.88 98 -10 98 C-8.88530322 79.0501547 -8.88530322 79.0501547 -7.56640625 71.78125 C-5.37629357 58.44762492 -4.76534194 44.97225362 -3.9375 31.5 C-3.62306031 26.38473435 -3.29748868 21.27036042 -2.96484375 16.15625 C-2.89708237 14.99283081 -2.82932098 13.82941162 -2.75950623 12.6307373 C-2.68925735 11.5544104 -2.61900848 10.4780835 -2.54663086 9.36914062 C-2.46027626 7.95405212 -2.46027626 7.95405212 -2.37217712 6.51037598 C-1.99380544 3.95821701 -1.28741296 2.21860445 0 0 Z " fill="#121112" transform="translate(30,102)"/>
<path d="M0 0 C3.57938307 10.7381492 0.61554125 25.4374997 -0.11694336 36.61083984 C-0.31075622 39.59812268 -0.49068957 42.58603026 -0.66992188 45.57421875 C-1.37228479 56.72943498 -2.5251251 67.68468815 -4.34204102 78.71435547 C-5.13636097 83.62023923 -5.51483424 88.50652434 -5.7890625 93.46875 C-6 96 -6 96 -7 100 C-13.6 100 -20.2 100 -27 100 C-27.24951819 90.03741902 -27.45087884 80.0769456 -27.56993389 70.11193466 C-27.62710474 65.48358931 -27.70450417 60.85750994 -27.82983398 56.23046875 C-27.95024978 51.75633103 -28.01530551 47.28435764 -28.04364967 42.80872345 C-28.06381937 41.1101501 -28.10320893 39.41168208 -28.16303062 37.71404266 C-28.43612655 29.63527969 -28.62370203 23.01731744 -23.16648579 16.62481308 C-20.88852154 14.25077288 -18.52143105 12.11800717 -16 10 C-15.34500519 9.42629166 -14.69001038 8.85258331 -14.01516724 8.26148987 C-12.54610731 7.0400456 -10.99550611 5.91824867 -9.4375 4.8125 C-8.44621094 4.09707031 -7.45492188 3.38164063 -6.43359375 2.64453125 C-2.52019002 0 -2.52019002 0 0 0 Z " fill="#262641" transform="translate(27,100)"/>
<path d="M0 0 C6.26894747 5.01756448 12.1752561 12.0561942 13.47265625 20.12890625 C12.69382782 24.9749498 11.78816694 29.79984744 10.91015625 34.62890625 C-5.58984375 34.62890625 -22.08984375 34.62890625 -39.08984375 34.62890625 C-39.17234375 30.11203125 -39.25484375 25.59515625 -39.33984375 20.94140625 C-39.37625977 19.52512939 -39.41267578 18.10885254 -39.45019531 16.6496582 C-39.46018555 15.52519287 -39.47017578 14.40072754 -39.48046875 13.2421875 C-39.50141602 12.09532471 -39.52236328 10.94846191 -39.54394531 9.7668457 C-38.99267441 5.95744524 -37.73881672 4.36444496 -35.08984375 1.62890625 C-32.87109375 0.08203125 -32.87109375 0.08203125 -30.58984375 -1.12109375 C-29.83703125 -1.5284375 -29.08421875 -1.93578125 -28.30859375 -2.35546875 C-19.37512261 -6.44473371 -8.14898683 -5.34634463 0 0 Z " fill="#262641" transform="translate(183.08984375,165.37109375)"/>
<path d="M0 0 C4.4582224 0.48582914 8.89066853 0.59700737 13.37109375 0.640625 C14.81054781 0.66008691 16.25000093 0.67961911 17.68945312 0.69921875 C19.90791182 0.72825037 22.12533232 0.75000349 24.34399414 0.75048828 C38.34107703 0.77203409 38.34107703 0.77203409 42.859375 3.87890625 C45.421875 6.5 45.421875 6.5 46.734375 9.1875 C46.01574105 16.80501987 39.86391056 23.49018719 35.421875 29.5 C31.63597384 28.1245467 28.51426728 26.3630346 25.171875 24.125 C9.25624147 13.89655285 -8.30770023 11.37665009 -26.94921875 13.96875 C-29.62356308 14.62083977 -32.03916188 15.43942047 -34.578125 16.5 C-35.5578125 16.9021875 -36.5375 17.304375 -37.546875 17.71875 C-50.2284307 23.4830935 -58.58331134 32.71926121 -65.578125 44.5 C-65.908125 44.5 -66.238125 44.5 -66.578125 44.5 C-65.68883932 30.93839334 -60.72012047 21.07611051 -50.828125 11.8125 C-35.81491568 -0.65511698 -18.73109958 -2.17046345 0 0 Z " fill="#F0C240" transform="translate(121.578125,8.5)"/>
<path d="M0 0 C2.4663413 1.07955282 4.8090763 2.19300036 7.1875 3.4375 C8.21919312 3.96549194 8.21919312 3.96549194 9.27172852 4.50415039 C11.51989306 5.6593069 13.76058889 6.82797175 16 8 C17.14952148 8.59941406 17.14952148 8.59941406 18.32226562 9.2109375 C23.89300152 12.11901908 29.44792078 15.05649889 35 18 C36.66137081 18.87907169 38.32282873 19.75797875 39.984375 20.63671875 C43.99058531 22.75592524 47.99562725 24.87732353 52 27 C52 27.33 52 27.66 52 28 C51.10539062 28.07476562 50.21078125 28.14953125 49.2890625 28.2265625 C39.23159488 29.32023169 32.34530348 31.53177422 25.23828125 38.83984375 C21.55680132 44.2244083 22.51333224 50.62960071 22.75 56.875 C22.8108837 59.33064274 22.86837141 61.78637288 22.921875 64.2421875 C22.95893555 65.3235498 22.99599609 66.40491211 23.03417969 67.51904297 C23 70 23 70 22 71 C20.00041636 71.04080783 17.99954746 71.04254356 16 71 C16.02618408 70.36497559 16.05236816 69.72995117 16.0793457 69.07568359 C16.18380395 66.17571122 16.24847747 63.2761353 16.3125 60.375 C16.35439453 59.37597656 16.39628906 58.37695312 16.43945312 57.34765625 C16.59920518 50.91468507 16.59920518 50.91468507 13.65625 45.40625 C11.20984415 43.19009411 8.93030098 41.50701193 6 40 C7 37 7 37 10 35 C10.48980725 31.53293298 10.35862053 29.62307812 8.6015625 26.5703125 C7.94929688 25.76335937 7.29703125 24.95640625 6.625 24.125 C2.97208465 19.37882862 -0.32539588 14.51663877 -3.5 9.4375 C-3.94520996 8.73447754 -4.39041992 8.03145508 -4.84912109 7.30712891 C-8 2.24767525 -8 2.24767525 -8 0 C-5.03005389 -1.48497305 -3.20927257 -0.75046444 0 0 Z " fill="#262640" transform="translate(117,129)"/>
<path d="M0 0 C0.99 0 1.98 0 3 0 C3.556875 1.01578125 4.11375 2.0315625 4.6875 3.078125 C5.45709599 4.46943515 6.22802565 5.86000808 7 7.25 C7.40138184 7.97348633 7.80276367 8.69697266 8.21630859 9.44238281 C11.38086897 15.07130269 14.85785139 20.32609501 18.6640625 25.546875 C20 28 20 28 19.8671875 30.19921875 C18.57210123 32.88856457 16.33003375 34.19422384 14 36 C13.67 36.99 13.34 37.98 13 39 C13.56332031 39.27070313 14.12664062 39.54140625 14.70703125 39.8203125 C17.12101878 41.06226179 19.39890296 42.41483726 21.6875 43.875 C22.47511719 44.36742187 23.26273438 44.85984375 24.07421875 45.3671875 C26.35794665 47.30349229 26.68270048 48.06107824 27 51 C27.09310777 53.14421728 27.12996239 55.29126791 27.125 57.4375 C27.12886719 59.10619141 27.12886719 59.10619141 27.1328125 60.80859375 C27 64 27 64 26 69 C17.09 69 8.18 69 -1 69 C-0.835 65.65875 -0.67 62.3175 -0.5 58.875 C-0.064691 49.0411625 0.11017782 39.21816533 0.125 29.375 C0.12951172 28.1566748 0.13402344 26.93834961 0.13867188 25.68310547 C0.12664099 18.29714659 -0.22708597 11.01237613 -0.88330078 3.65478516 C-0.92181152 2.77870605 -0.96032227 1.90262695 -1 1 C-0.67 0.67 -0.34 0.34 0 0 Z " fill="#262641" transform="translate(103,131)"/>
<path d="M0 0 C2.54173977 -0.02716824 5.08318415 -0.04691969 7.625 -0.0625 C8.33785156 -0.07087891 9.05070312 -0.07925781 9.78515625 -0.08789062 C10.48769531 -0.09111328 11.19023438 -0.09433594 11.9140625 -0.09765625 C12.5529541 -0.10289307 13.1918457 -0.10812988 13.85009766 -0.11352539 C16 0 16 0 18.81030273 0.49291992 C22.28456621 1.04523873 25.60411482 1.16042018 29.12109375 1.2109375 C30.48243405 1.2389987 31.84376203 1.26766311 33.20507812 1.296875 C35.32234438 1.33807745 37.43937847 1.37502337 39.55688477 1.40136719 C41.62041889 1.42917827 43.68295318 1.47502556 45.74609375 1.5234375 C47.58192017 1.5531665 47.58192017 1.5531665 49.45483398 1.58349609 C55.63989159 2.31014772 60.37283551 4.78111473 65 9 C66.91627725 12.83255449 66.70132847 16.84293207 66 21 C63.63794297 25.92527826 60.7743515 30.40066957 56.703125 34.0703125 C54.79632326 35.80981619 54.79632326 35.80981619 54.96875 37.91015625 C56.40896288 40.82876947 58.3513396 42.99373038 60.5 45.4375 C64.25615377 49.80680571 67.76896582 54.27094385 71.0625 59 C72.16271484 60.5778125 72.16271484 60.5778125 73.28515625 62.1875 C76.06386002 66.74482737 76.13717215 70.19294084 76.125 75.5 C76.12886719 77.18609375 76.12886719 77.18609375 76.1328125 78.90625 C76.02266367 81.4720699 75.75270662 83.56266427 75 86 C73.35 86.33 71.7 86.66 70 87 C70.33 85.02 70.66 83.04 71 81 C69.4221875 80.690625 69.4221875 80.690625 67.8125 80.375 C63.41937882 79.08920844 61.40339193 76.93282316 59 73 C58.62594465 69.2594465 58.83824033 66.17412075 59.34765625 62.4765625 C59.45980469 61.61804688 59.57195312 60.75953125 59.6875 59.875 C59.81511719 59.08867188 59.94273437 58.30234375 60.07421875 57.4921875 C59.85871611 50.25583575 53.97912787 45.41063347 49.08203125 40.74609375 C41.04645097 33.42512515 32.2419226 28.93565063 22.15234375 25.2265625 C19 24 19 24 16 22 C24.01772669 19.80159107 29.44914736 22.01930086 36.50390625 25.94140625 C41.43522259 28.8067347 46.26493837 31.82074433 51 35 C51.38478516 34.17628906 51.38478516 34.17628906 51.77734375 33.3359375 C53.70429392 29.65441609 56.11270174 26.28894337 58.44140625 22.8515625 C60.12503493 19.77123934 60.82566507 17.50122649 61 14 C58.84614331 11.38044456 57.04053406 9.52026703 54 8 C51.78859356 7.88003287 49.57380811 7.82063106 47.359375 7.7890625 C45.97386347 7.76299571 44.58836565 7.73619165 43.20288086 7.70874023 C42.47519501 7.69543671 41.74750916 7.68213318 40.99777222 7.66842651 C26.81115455 7.39434387 13.01114978 6.38264472 -1 4 C-0.67 2.68 -0.34 1.36 0 0 Z " fill="#0E0C0D" transform="translate(106,3)"/>
<path d="M0 0 C4.20740491 3.78761848 6.76170966 8.27753248 9.55664062 13.13085938 C11.27710614 15.95456968 12.47563958 17.76290493 15.53125 19.14453125 C18.82949095 18.95143803 19.79232556 17.84690002 22.0625 15.5 C24.03515625 13.46875 24.03515625 13.46875 26 12 C28.24609375 12.28125 28.24609375 12.28125 30 13 C30.54751041 29.52670326 30.54751041 29.52670326 27.75390625 35.91015625 C26.6524469 38.74202506 26.6524469 38.74202506 26 45 C15.77 45 5.54 45 -5 45 C-4.61430394 40.35879077 -4.22527098 35.71809247 -3.828125 31.07788086 C-3.69439543 29.5041474 -3.56251091 27.93025588 -3.43261719 26.35620117 C-2.6983847 17.47481207 -1.86157233 8.73314002 0 0 Z " fill="#FAFAFA" transform="translate(29,155)"/>
<path d="M0 0 C3.00965111 2.81477411 4.30454065 5.60260295 6 9.375 C11.14581103 20.2246529 19.3585069 28.78118863 28 37 C29.00138302 37.99861507 30.00155696 38.99844546 31 40 C28.75722666 41.98791273 26.50651246 43.9652902 24.25 45.9375 C23.61578125 46.50146484 22.9815625 47.06542969 22.328125 47.64648438 C21.4 48.45375977 21.4 48.45375977 20.453125 49.27734375 C19.88754883 49.77484131 19.32197266 50.27233887 18.73925781 50.78491211 C16.83376687 52.11613452 15.2704314 52.58027466 13 53 C11.95693915 51.52181613 10.91564846 50.04238319 9.875 48.5625 C9.29492188 47.73878906 8.71484375 46.91507813 8.1171875 46.06640625 C7.41851562 45.05449219 6.71984375 44.04257813 6 43 C5.48260254 42.42628662 4.96520508 41.85257324 4.43212891 41.26147461 C-1.65633731 33.84312602 -0.67320307 25.49143289 -0.375 16.4375 C-0.34485349 14.84054524 -0.31748596 13.24353548 -0.29296875 11.64648438 C-0.22736107 7.76294725 -0.12410977 3.88208987 0 0 Z " fill="#F8F8F8" transform="translate(30,117)"/>
<path d="M0 0 C0.33 0 0.66 0 1 0 C1.02931979 4.14581819 1.04690557 8.29160925 1.0625 12.4375 C1.07087891 13.60216797 1.07925781 14.76683594 1.08789062 15.96679688 C1.09272461 17.68286133 1.09272461 17.68286133 1.09765625 19.43359375 C1.10551147 20.99678345 1.10551147 20.99678345 1.11352539 22.59155273 C0.97528544 26.74202138 0.45859675 30.87262925 0 35 C-7.59 35 -15.18 35 -23 35 C-26.63972738 23.96707639 -28.71486322 17.6313497 -23.38671875 7.0390625 C-22 5 -22 5 -19 4 C-17.68 7.63 -16.36 11.26 -15 15 C-10.72728379 13.94645224 -10.72728379 13.94645224 -8.23828125 10.83984375 C-7.75939453 10.21142578 -7.28050781 9.58300781 -6.78710938 8.93554688 C-6.30048828 8.27619141 -5.81386719 7.61683594 -5.3125 6.9375 C-3.56191022 4.60715474 -1.79375303 2.2977828 0 0 Z " fill="#F8F8F8" transform="translate(99,165)"/>
<path d="M0 0 C2.9375 2.375 2.9375 2.375 5 5 C5 8 5 8 2.625 10.4375 C1.325625 11.7059375 1.325625 11.7059375 0 13 C-1.29519995 15.16620544 -1.29519995 15.16620544 -2 17 C-1.34 17 -0.68 17 0 17 C-0.03480469 17.67804688 -0.06960937 18.35609375 -0.10546875 19.0546875 C-0.283103 25.16192221 0.32014201 30.1352198 2.34375 35.90625 C3 38 3 38 3 41 C-3.93 41 -10.86 41 -18 41 C-18 32.96808511 -18 32.96808511 -16.75 29.125 C-16.51796875 28.36445313 -16.2859375 27.60390625 -16.046875 26.8203125 C-15 25 -15 25 -12.890625 24.2421875 C-11.95476563 24.12230469 -11.95476563 24.12230469 -11 24 C-11.11443603 21.9160597 -11.24195547 19.83283507 -11.375 17.75 C-11.47941406 16.00976562 -11.47941406 16.00976562 -11.5859375 14.234375 C-11.96700324 11.25774828 -12.55391751 9.56297547 -14 7 C-14 5 -14 5 -13 3 C-8.54000606 -0.92904228 -5.70808433 -1.76431697 0 0 Z " fill="#09080A" transform="translate(73,159)"/>
<path d="M0 0 C0.95275876 18.44117514 0.95275876 18.44117514 -5 26 C-5.62390625 26.83660156 -6.2478125 27.67320312 -6.890625 28.53515625 C-8.55567368 30.72476295 -10.2555486 32.87347855 -12 35 C-14.52060868 32.75787216 -15.69675048 30.74551168 -16.9375 27.625 C-19.08672527 22.58006281 -21.37638417 19.08241055 -26 16 C-26 15.34 -26 14.68 -26 14 C-23.828563 12.12602012 -21.65021599 10.36460176 -19.375 8.625 C-18.75753906 8.14289063 -18.14007813 7.66078125 -17.50390625 7.1640625 C-15.68457917 5.75456278 -13.84364904 4.37743894 -12 3 C-10.98164062 2.20335937 -9.96328125 1.40671875 -8.9140625 0.5859375 C-5.40320267 -1.32479855 -3.77542285 -1.07869224 0 0 Z " fill="#F8F8F8" transform="translate(100,140)"/>
<path d="M0 0 C2.52309303 1.11369403 3.90259086 1.95663012 5.56640625 4.1328125 C6.19257968 8.15821313 5.71551867 9.86938055 3.69140625 13.4453125 C1.56640625 16.1328125 1.56640625 16.1328125 -0.43359375 17.1328125 C-14.93766074 18.34726787 -14.93766074 18.34726787 -19.18359375 15.1953125 C-22.59390337 10.55350219 -24.49470367 6.00497875 -24.37109375 0.1953125 C-20.53005184 -8.25497971 -6.23059097 -2.06332478 0 0 Z " fill="#1A1716" transform="translate(97.43359375,74.8671875)"/>
<path d="M0 0 C2.9375 2.375 2.9375 2.375 5 5 C5 5.99 5 6.98 5 8 C4.2575 8.70125 3.515 9.4025 2.75 10.125 C-0.21936559 13.22933676 -1.50867047 15.89575686 -3.10546875 19.81640625 C-3.97421434 21.93705596 -4.95157855 23.96319886 -6 26 C-7.65 25.67 -9.3 25.34 -11 25 C-11.07347656 23.55367187 -11.07347656 23.55367187 -11.1484375 22.078125 C-11.22320312 20.81484375 -11.29796875 19.5515625 -11.375 18.25 C-11.44460937 16.99703125 -11.51421875 15.7440625 -11.5859375 14.453125 C-11.95861625 11.3451249 -12.47660341 9.65046236 -14 7 C-14 5 -14 5 -13 3 C-8.54000606 -0.92904228 -5.70808433 -1.76431697 0 0 Z " fill="#0358CB" transform="translate(73,159)"/>
<path d="M0 0 C-1.62422084 10.31106485 -9.09018977 18.64008502 -17 25 C-26.38904754 30.87377017 -38.67643719 36.52716773 -50 36 C-49.01 35.505 -49.01 35.505 -48 35 C-48.33 33.68 -48.66 32.36 -49 31 C-47.98421875 30.78085938 -46.9684375 30.56171875 -45.921875 30.3359375 C-32.34490583 27.27043739 -20.41530377 22.80582016 -11 12 C-9.18818603 9.12440314 -7.62085694 6.25295638 -6.15625 3.1875 C-4.47825872 0.0129219 -3.57157381 0 0 0 Z " fill="#100E0F" transform="translate(181,89)"/>
<path d="M0 0 C0 1.32 0 2.64 0 4 C-1.98136711 5.6068404 -3.84687926 6.916498 -6 8.25 C-11.69037718 11.96393961 -16.38022485 15.99435036 -21 21 C-22.32 22.32 -23.64 23.64 -25 25 C-25 18.73 -25 12.46 -25 6 C-17.9375 4.6875 -17.9375 4.6875 -15.75756836 4.2956543 C-12.3742011 3.64183459 -9.34283296 2.80483823 -6.19140625 1.39453125 C-3 0 -3 0 0 0 Z " fill="#0B0A0D" transform="translate(25,97)"/>
<path d="M0 0 C6.625 -0.125 6.625 -0.125 10 1 C10.66 4.96 11.32 8.92 12 13 C7.71 13 3.42 13 -1 13 C-0.67 8.71 -0.34 4.42 0 0 Z " fill="#0358CB" transform="translate(60,187)"/>
<path d="M0 0 C2.31 0 4.62 0 7 0 C6.814375 1.093125 6.62875 2.18625 6.4375 3.3125 C5.7421932 6.93624133 5.7421932 6.93624133 7 10 C8.32 9.67 9.64 9.34 11 9 C11 6.69 11 4.38 11 2 C12.48206495 2.254496 13.96068615 2.52911762 15.4375 2.8125 C16.67306641 3.03873047 16.67306641 3.03873047 17.93359375 3.26953125 C18.61550781 3.51058594 19.29742187 3.75164062 20 4 C20.33 4.99 20.66 5.98 21 7 C19.5625 9.6875 19.5625 9.6875 17 12 C12.293265 12.52297056 8.09582115 12.61677462 4 10 C1.62505862 6.83860263 0 4.04488068 0 0 Z " fill="#DAD9E3" transform="translate(78,76)"/>
<path d="M0 0 C3 1 3 1 4 3 C4.41578025 9.46905151 4.9604386 18.07912279 2 24 C0.68 24 -0.64 24 -2 24 C-1.85790331 21.3122562 -1.7114277 18.62486698 -1.5625 15.9375 C-1.52318359 15.18533203 -1.48386719 14.43316406 -1.44335938 13.65820312 C-1.18419281 9.05301259 -0.7200579 4.55633276 0 0 Z " fill="#1A181E" transform="translate(22,176)"/>
<path d="M0 0 C3.95491128 0.41630645 7.4470547 0.8245462 11.25 2.03125 C15.46397237 3.11985953 19.12023381 3.22769801 23.4375 3.125 C24.16904297 3.11597656 24.90058594 3.10695313 25.65429688 3.09765625 C27.43634298 3.07436153 29.21821759 3.0385019 31 3 C30 6 30 6 28 7 C17.55337948 7.8726294 9.44811334 7.01036313 0 2 C0 1.34 0 0.68 0 0 Z " fill="#363230" transform="translate(119,102)"/>
<path d="M0 0 C0.33 0 0.66 0 1 0 C1.02480062 4.32331963 1.04290758 8.64660106 1.05493164 12.9699707 C1.05994669 14.43937909 1.06676033 15.90878252 1.07543945 17.37817383 C1.08762928 19.49561795 1.09325669 21.61299583 1.09765625 23.73046875 C1.10551147 25.63928833 1.10551147 25.63928833 1.11352539 27.58666992 C1.01539606 30.5370919 0.69063835 33.13946675 0 36 C-0.99 36 -1.98 36 -3 36 C-1.55775717 1.55775717 -1.55775717 1.55775717 0 0 Z " fill="#090708" transform="translate(102,164)"/>
<path d="M0 0 C3.91211733 1.15585285 6.8745041 2.35534962 10 5 C9.5 6.9375 9.5 6.9375 8 9 C5.30341548 9.68790422 2.7982981 9.81946464 0 10 C0 6.7 0 3.4 0 0 Z " fill="#0D0C0F" transform="translate(0,131)"/>
<path d="M0 0 C3.3 0 6.6 0 10 0 C8.27035628 3.45928744 7.10462427 5.14412493 4.4375 7.75 C3.50744141 8.67039062 3.50744141 8.67039062 2.55859375 9.609375 C1 11 1 11 0 11 C0 7.37 0 3.74 0 0 Z " fill="#24243D" transform="translate(0,106)"/>
<path d="M0 0 C0.99 0.33 1.98 0.66 3 1 C2.67 3.97 2.34 6.94 2 10 C3.65 10.33 5.3 10.66 7 11 C7 12.32 7 13.64 7 15 C4.75 15.3125 4.75 15.3125 2 15 C-0.85449117 12.37695406 -1.90148695 10.80452321 -2.375 6.9375 C-2.01777222 4.13921574 -1.46607416 2.38237052 0 0 Z " fill="#C4C3CC" transform="translate(171,65)"/>
<path d="M0 0 C0.89203125 0.11085938 1.7840625 0.22171875 2.703125 0.3359375 C3.37859375 0.43132812 4.0540625 0.52671875 4.75 0.625 C1.75 2.625 1.75 2.625 -0.25 2.625 C-0.25 3.285 -0.25 3.945 -0.25 4.625 C-1.9 4.625 -3.55 4.625 -5.25 4.625 C-5.58 5.615 -5.91 6.605 -6.25 7.625 C-7.57 7.295 -8.89 6.965 -10.25 6.625 C-10 4.25 -10 4.25 -9.25 1.625 C-6.07130038 -0.57119246 -3.75096515 -0.49354805 0 0 Z " fill="#241E1C" transform="translate(83.25,71.375)"/>
<path d="M0 0 C1.98 0.99 1.98 0.99 4 2 C3.97679687 2.60328125 3.95359375 3.2065625 3.9296875 3.828125 C3.91164062 4.62734375 3.89359375 5.4265625 3.875 6.25 C3.84019531 7.43335938 3.84019531 7.43335938 3.8046875 8.640625 C4.0171622 11.20731941 4.71345895 12.7916067 6 15 C4.02 15 2.04 15 0 15 C0 10.05 0 5.1 0 0 Z " fill="#0E0C0C" transform="translate(0,185)"/>
<path d="M0 0 C1.65 0.33 3.3 0.66 5 1 C5 3.64 5 6.28 5 9 C3.35 9.33 1.7 9.66 0 10 C-2 7 -2 7 -1.6875 4.4375 C-1 2 -1 2 0 0 Z " fill="#282728" transform="translate(85,76)"/>
<path d="M0 0 C2 1 2 1 2.8515625 3.1796875 C3.23441406 4.51386719 3.23441406 4.51386719 3.625 5.875 C3.88539062 6.75929687 4.14578125 7.64359375 4.4140625 8.5546875 C5 11 5 11 5 14 C3.35 13.67 1.7 13.34 0 13 C-0.19551338 11.39679026 -0.38111983 9.79237014 -0.5625 8.1875 C-0.71912109 6.84751953 -0.71912109 6.84751953 -0.87890625 5.48046875 C-1 3 -1 3 0 0 Z " fill="#0F131D" transform="translate(71,186)"/>
<path d="M0 0 C-1 3 -1 3 -3 4 C-8.15445016 4.17472712 -12.91940468 3.84676589 -18 3 C-18 2.34 -18 1.68 -18 1 C-15.93769732 0.8309093 -13.8751477 0.66482867 -11.8125 0.5 C-10.08966797 0.36078125 -10.08966797 0.36078125 -8.33203125 0.21875 C-5.53927574 0.0354038 -2.79680188 -0.04213637 0 0 Z " fill="#272625" transform="translate(150,105)"/>
<path d="M0 0 C3 3 3 3 3.29296875 6.13671875 C3.25816406 7.30847656 3.22335938 8.48023438 3.1875 9.6875 C3.16042969 10.86699219 3.13335937 12.04648438 3.10546875 13.26171875 C3.07066406 14.16535156 3.03585938 15.06898438 3 16 C2.01 16.33 1.02 16.66 0 17 C0 11.39 0 5.78 0 0 Z " fill="#1A2330" transform="translate(59,167)"/>
<path d="M0 0 C0.33 0.99 0.66 1.98 1 3 C1.66 3 2.32 3 3 3 C3.05447047 4.41623216 3.09300508 5.83308191 3.125 7.25 C3.14820313 8.03890625 3.17140625 8.8278125 3.1953125 9.640625 C2.9828378 12.20731941 2.28654105 13.7916067 1 16 C0.34 15.67 -0.32 15.34 -1 15 C-1.10251672 9.87416389 -1.03590199 5.05002222 0 0 Z " fill="#0C0B0D" transform="translate(24,163)"/>
<path d="M0 0 C0.99773437 0.02320312 1.99546875 0.04640625 3.0234375 0.0703125 C4.52777344 0.09738281 4.52777344 0.09738281 6.0625 0.125 C6.83335938 0.14820312 7.60421875 0.17140625 8.3984375 0.1953125 C8.7284375 1.5153125 9.0584375 2.8353125 9.3984375 4.1953125 C7.62794061 4.24941937 5.85696901 4.28815369 4.0859375 4.3203125 C2.60673828 4.35511719 2.60673828 4.35511719 1.09765625 4.390625 C-1.6015625 4.1953125 -1.6015625 4.1953125 -4.6015625 2.1953125 C-2.6015625 0.1953125 -2.6015625 0.1953125 0 0 Z " fill="#080606" transform="translate(87.6015625,87.8046875)"/>
<path d="M0 0 C-0.33 3.63 -0.66 7.26 -1 11 C-2.32 11 -3.64 11 -5 11 C-5.125 4.375 -5.125 4.375 -4 1 C-2 0 -2 0 0 0 Z " fill="#070D18" transform="translate(60,189)"/>
<path d="M0 0 C0.33 0 0.66 0 1 0 C1.50423019 5.29441695 0.18923033 7.81413519 -3 12 C-4.32 11.34 -5.64 10.68 -7 10 C-6 8 -5 6 -4 4 C-2.68 4.33 -1.36 4.66 0 5 C0 3.35 0 1.7 0 0 Z " fill="#201B1A" transform="translate(102,79)"/>
<path d="M0 0 C1.67427615 0.92384166 3.33928003 1.86450569 5 2.8125 C6.3921875 3.59560547 6.3921875 3.59560547 7.8125 4.39453125 C8.534375 4.92433594 9.25625 5.45414062 10 6 C10 6.99 10 7.98 10 9 C5.14922412 7.88059018 2.222107 6.8665284 -1 3 C-0.67 2.01 -0.34 1.02 0 0 Z " fill="#161211" transform="translate(167,75)"/>
<path d="M0 0 C3.37503669 1.1858237 5.64722731 2.27573689 8 5 C7.01 6.485 7.01 6.485 6 8 C3.36 6.68 0.72 5.36 -2 4 C-1.34 3.67 -0.68 3.34 0 3 C0 2.01 0 1.02 0 0 Z " fill="#1B1610" transform="translate(139,28)"/>
<path d="M0 0 C1.875 0.6875 1.875 0.6875 2.875 1.6875 C2.91580783 3.68708364 2.91754356 5.68795254 2.875 7.6875 C-0.125 6.6875 -0.125 6.6875 -2.125 3.6875 C-3.115 3.0275 -4.105 2.3675 -5.125 1.6875 C-2.125 -0.3125 -2.125 -0.3125 0 0 Z " fill="#090808" transform="translate(99.125,76.3125)"/>
<path d="M0 0 C0.66 0.33 1.32 0.66 2 1 C1.01 3.64 0.02 6.28 -1 9 C-2.32 9 -3.64 9 -5 9 C-3.7508258 5.54074837 -2.32472205 2.85306797 0 0 Z " fill="#101520" transform="translate(75,168)"/>
<path d="M0 0 C0.99 0.33 1.98 0.66 3 1 C2.30058404 4.14737182 1.23921302 7.02588876 0 10 C-0.66 10 -1.32 10 -2 10 C-2.17942163 6.05272412 -2.09350689 3.4019487 0 0 Z " fill="#D1D0DA" transform="translate(171,65)"/>
<path d="M0 0 C2 2 2 2 2.1953125 4.3828125 C2.17210937 5.28773438 2.14890625 6.19265625 2.125 7.125 C2.10695313 8.03507813 2.08890625 8.94515625 2.0703125 9.8828125 C2.04710937 10.58148438 2.02390625 11.28015625 2 12 C1.34 10.68 0.68 9.36 0 8 C-0.99 8.495 -0.99 8.495 -2 9 C-1.125 1.125 -1.125 1.125 0 0 Z " fill="#282626" transform="translate(24,177)"/>
<path d="M0 0 C0.33 0 0.66 0 1 0 C1.28571429 8.57142857 1.28571429 8.57142857 -1 12 C-1.92470553 7.28400182 -2.22923777 4.32734391 0 0 Z " fill="#050303" transform="translate(24,181)"/>
<path d="M0 0 C0 1.98 0 3.96 0 6 C-0.66 5.34 -1.32 4.68 -2 4 C-2.99 5.32 -3.98 6.64 -5 8 C-4.74438677 5.6568787 -4.40729228 3.32156597 -4 1 C-2 0 -2 0 0 0 Z " fill="#222F42" transform="translate(60,189)"/>
<path d="M0 0 C1.65 0.33 3.3 0.66 5 1 C3 3 3 3 1 4 C0.67 4.99 0.34 5.98 0 7 C-0.66 7 -1.32 7 -2 7 C-1.125 2.25 -1.125 2.25 0 0 Z " fill="#363638" transform="translate(85,76)"/>
<path d="M0 0 C-0.99 0.495 -0.99 0.495 -2 1 C-2 1.66 -2 2.32 -2 3 C-4.97 2.505 -4.97 2.505 -8 2 C-8 1.34 -8 0.68 -8 0 C-5.13822943 -1.43088528 -3.06624227 -0.59991697 0 0 Z " fill="#070605" transform="translate(91,74)"/>
<path d="M0 0 C2 3 2 3 2 6 C0.35 5.67 -1.3 5.34 -3 5 C-2.67 3.68 -2.34 2.36 -2 1 C-1.67 1.33 -1.34 1.66 -1 2 C-0.67 1.34 -0.34 0.68 0 0 Z " fill="#272C36" transform="translate(74,194)"/>
<path d="M0 0 C1.65 0 3.3 0 5 0 C4.01 0.495 4.01 0.495 3 1 C3 1.66 3 2.32 3 3 C5.31 3 7.62 3 10 3 C10 3.33 10 3.66 10 4 C7.36 4 4.72 4 2 4 C1.34 2.68 0.68 1.36 0 0 Z " fill="#48403D" transform="translate(129,105)"/>
<path d="M0 0 C1.74627478 2.61941217 2.38722388 4.03824877 3 7 C1.68 6.34 0.36 5.68 -1 5 C-1.33 6.32 -1.66 7.64 -2 9 C-2.20140476 5.37471432 -1.85776765 3.13498292 0 0 Z " fill="#1D181B" transform="translate(30,102)"/>
<path d="M0 0 C0.99 0.495 0.99 0.495 2 1 C2.73075648 3.3140622 3.40138258 5.64828869 4 8 C2.68 7.67 1.36 7.34 0 7 C0 4.69 0 2.38 0 0 Z " fill="#060505" transform="translate(166,69)"/>
</svg>
