<?xml version="1.0" encoding="UTF-8"?>
<svg version="1.1" xmlns="http://www.w3.org/2000/svg" width="200" height="200">
<path d="M0 0 C66 0 132 0 200 0 C200 66 200 132 200 200 C134 200 68 200 0 200 C0 134 0 68 0 0 Z " fill="#FDFDFD" transform="translate(0,0)"/>
<path d="M0 0 C22.5192961 15.09837265 34.59530753 40.65610566 39.75 66.5402832 C44.44916939 92.44561156 40.50478818 118.43817814 25.95263672 140.46484375 C23.65733522 143.55544708 21.10897149 146.32090305 18.35888672 149.01171875 C16.88270899 150.8840786 16.88270899 150.8840786 17.48388672 153.58984375 C17.71076172 154.34007812 17.93763672 155.0903125 18.17138672 155.86328125 C17.05763672 156.06953125 15.94388672 156.27578125 14.79638672 156.48828125 C10.93989799 157.46976529 10.93989799 157.46976529 9.79638672 160.80078125 C9.59013672 161.81140625 9.38388672 162.82203125 9.17138672 163.86328125 C8.84138672 164.85328125 8.51138672 165.84328125 8.17138672 166.86328125 C8.50138672 167.52328125 8.83138672 168.18328125 9.17138672 168.86328125 C1.87325247 171.80814244 -4.65191962 172.988167 -12.57470703 172.99609375 C-14.44932617 172.99802734 -14.44932617 172.99802734 -16.36181641 173 C-18.29444336 172.99419922 -18.29444336 172.99419922 -20.26611328 172.98828125 C-21.55066406 172.99214844 -22.83521484 172.99601563 -24.15869141 173 C-42.17621138 172.98143481 -42.17621138 172.98143481 -48.82861328 168.86328125 C-49.48861328 167.87328125 -50.14861328 166.88328125 -50.82861328 165.86328125 C-50.49861328 165.20328125 -50.16861328 164.54328125 -49.82861328 163.86328125 C-53.70839197 160.48956065 -57.62730664 157.24694198 -61.70361328 154.11328125 C-79.28528828 139.98942433 -87.79379552 121.65660613 -91.82861328 99.86328125 C-91.96267578 99.14527344 -92.09673828 98.42726563 -92.23486328 97.6875 C-96.34654234 71.01869279 -89.02331329 40.50806899 -74.07861328 18.2578125 C-72.41841974 16.02500591 -70.67921919 13.94024883 -68.82861328 11.86328125 C-68.18666016 11.11691406 -67.54470703 10.37054687 -66.88330078 9.6015625 C-49.69796625 -9.07401322 -21.72931018 -13.50756585 0 0 Z " fill="#EBA261" transform="translate(127.82861328125,13.13671875)"/>
<path d="M0 0 C0.66 0 1.32 0 2 0 C2 0.66 2 1.32 2 2 C2.99 2 3.98 2 5 2 C5.495 2.99 5.495 2.99 6 4 C6.99 4.33 7.98 4.66 9 5 C9.495 6.485 9.495 6.485 10 8 C10.99 8.66 11.98 9.32 13 10 C13 10.99 13 11.98 13 13 C13.75667969 12.90847656 14.51335937 12.81695312 15.29296875 12.72265625 C18 13 18 13 19.73828125 14.80859375 C21.5558807 17.84393973 23.31408414 20.88887692 25 24 C25.33467285 24.61085449 25.6693457 25.22170898 26.01416016 25.85107422 C39.53767682 50.9807366 42.64670978 81.30083208 36 109 C29.57075164 129.72084952 15.93375313 146.59644933 -3.20703125 156.69140625 C-6 158 -6 158 -9 159 C-9 159.66 -9 160.32 -9 161 C-15.01113192 162.74115545 -20.38179579 163.30945909 -26.625 163.25 C-27.44484375 163.25773438 -28.2646875 163.26546875 -29.109375 163.2734375 C-34.60208793 163.25577604 -39.02498683 162.48750659 -44 160 C-44 159.34 -44 158.68 -44 158 C-42.35 158 -40.7 158 -39 158 C-38.61126172 156.04434742 -38.23939167 154.08533496 -37.875 152.125 C-37.66617188 151.03445312 -37.45734375 149.94390625 -37.2421875 148.8203125 C-37.16226563 147.88960937 -37.08234375 146.95890625 -37 146 C-37.66 145.34 -38.32 144.68 -39 144 C-38.01 143.01 -37.02 142.02 -36 141 C-36.556875 141.37125 -37.11375 141.7425 -37.6875 142.125 C-40 143 -40 143 -42.75 142.125 C-43.86375 141.568125 -43.86375 141.568125 -45 141 C-44.67 139.02 -44.34 137.04 -44 135 C-42.35 135.66 -40.7 136.32 -39 137 C-40.05270463 135.84188612 -40.05270463 135.84188612 -42 135 C-41.62875 134.278125 -41.2575 133.55625 -40.875 132.8125 C-39.79054202 129.32674221 -40.58139991 128.2544355 -42 125 C-41.70630173 123.65737935 -41.3721042 122.32303717 -41 121 C-41.38567131 118.31850007 -41.38567131 118.31850007 -42 116 C-41.34 116 -40.68 116 -40 116 C-40 115.34 -40 114.68 -40 114 C-39.01 113.01 -39.01 113.01 -38 112 C-37.505 111.01 -37.505 111.01 -37 110 C-37.66 110 -38.32 110 -39 110 C-39.33 110.99 -39.66 111.98 -40 113 C-40 112.34 -40 111.68 -40 111 C-40.99 111 -41.98 111 -43 111 C-42.67 110.01 -42.34 109.02 -42 108 C-41.34 108 -40.68 108 -40 108 C-40.33 107.34 -40.66 106.68 -41 106 C-41.99 106 -42.98 106 -44 106 C-43.649375 105.38125 -43.29875 104.7625 -42.9375 104.125 C-42.628125 103.42375 -42.31875 102.7225 -42 102 C-42.33 101.34 -42.66 100.68 -43 100 C-42.01 99.01 -41.02 98.02 -40 97 C-40.88214887 94.11785113 -40.88214887 94.11785113 -42 92 C-41.01 91.505 -41.01 91.505 -40 91 C-39.67 90.01 -39.34 89.02 -39 88 C-36.5 86.375 -36.5 86.375 -34 85 C-33.505 84.505 -33.505 84.505 -33 84 C-33.99 83.67 -34.98 83.34 -36 83 C-34.515 82.505 -34.515 82.505 -33 82 C-32.67 81.175 -32.34 80.35 -32 79.5 C-31.67 78.675 -31.34 77.85 -31 77 C-29.515 76.505 -29.515 76.505 -28 76 C-27.01 75.01 -27.01 75.01 -26 74 C-26.99 74 -27.98 74 -29 74 C-29 72 -29 72 -28 71 C-29.98 67.535 -29.98 67.535 -32 64 C-32.99 64 -33.98 64 -35 64 C-35 62 -35 62 -33.5 60.375 C-33.005 59.92125 -32.51 59.4675 -32 59 C-32.66 58.01 -33.32 57.02 -34 56 C-33.34 56 -32.68 56 -32 56 C-31.87625 54.700625 -31.7525 53.40125 -31.625 52.0625 C-31.4140625 49.84765625 -31.4140625 49.84765625 -31 48 C-30.01 47.505 -30.01 47.505 -29 47 C-29.495 45.515 -29.495 45.515 -30 44 C-29.67 43.34 -29.34 42.68 -29 42 C-28.34 42 -27.68 42 -27 42 C-27 41.34 -27 40.68 -27 40 C-24.525 39.505 -24.525 39.505 -22 39 C-21.34 41.31 -20.68 43.62 -20 46 C-18.68 46 -17.36 46 -16 46 C-15.34 46.33 -14.68 46.66 -14 47 C-14.33 48.65 -14.66 50.3 -15 52 C-13.68 52 -12.36 52 -11 52 C-9.9375 54.375 -9.9375 54.375 -9 57 C-9.495 57.99 -9.495 57.99 -10 59 C-10.66 59 -11.32 59 -12 59 C-12 59.99 -12 60.98 -12 62 C-11.505 61.01 -11.505 61.01 -11 60 C-8.69 60.33 -6.38 60.66 -4 61 C-4.33 62.32 -4.66 63.64 -5 65 C-4.01 65.66 -3.02 66.32 -2 67 C-2 67.99 -2 68.98 -2 70 C-1.01 69.67 -0.02 69.34 1 69 C0.67 68.34 0.34 67.68 0 67 C1.98 66.505 1.98 66.505 4 66 C4 65.34 4 64.68 4 64 C4.99 64 5.98 64 7 64 C7.78375 63.21625 8.5675 62.4325 9.375 61.625 C11.95858569 59.04141431 13.54408737 58.00039576 17 57 C17.99 57 18.98 57 20 57 C19.979375 55.88625 19.95875 54.7725 19.9375 53.625 C20 50 20 50 21 48 C20.236875 47.896875 19.47375 47.79375 18.6875 47.6875 C15.750546 46.93618619 14.59761191 46.57393029 13 44 C13.3125 40.8125 13.3125 40.8125 14 38 C12.68 37.34 11.36 36.68 10 36 C10.2784375 35.2265625 10.2784375 35.2265625 10.5625 34.4375 C11.15419517 31.14091261 10.567267 28.27754265 10 25 C9.34 25 8.68 25 8 25 C7.505 23.02 7.505 23.02 7 21 C6.01 21.495 6.01 21.495 5 22 C5.2475 21.2575 5.495 20.515 5.75 19.75 C5.8325 18.8425 5.915 17.935 6 17 C4.16641665 14.66545339 4.16641665 14.66545339 2 13 C2.99 13 3.98 13 5 13 C5 12.34 5 11.68 5 11 C4.01 10.67 3.02 10.34 2 10 C2 8.33333333 2 6.66666667 2 5 C1.34 4.67 0.68 4.34 0 4 C0 2.68 0 1.36 0 0 Z M-18 49 C-18.33 49.99 -18.66 50.98 -19 52 C-19.99 52.495 -19.99 52.495 -21 53 C-20.01 54.65 -19.02 56.3 -18 58 C-17.34 57.67 -16.68 57.34 -16 57 C-15.04932701 53.71585695 -14.89897803 52.30306592 -16 49 C-16.66 49 -17.32 49 -18 49 Z M-45 107 C-44 111 -44 111 -44 111 Z " fill="#E49553" transform="translate(130,20)"/>
<path d="M0 0 C2.9375 2.70703125 2.9375 2.70703125 5 5 C4.01 5 3.02 5 2 5 C2 4.34 2 3.68 2 3 C-1.3 2.01 -4.6 1.02 -8 0 C-8 -0.66 -8 -1.32 -8 -2 C-14.47540072 -2.76826788 -20.92108293 -3.12793494 -27.4375 -3.1875 C-28.12328125 -3.20039063 -28.8090625 -3.21328125 -29.515625 -3.2265625 C-33.18664103 -3.23380316 -35.88139209 -3.01792276 -39 -1 C-39 -0.01 -39 0.98 -39 2 C-36.55503957 3.71711243 -36.55503957 3.71711243 -34 5 C-32.35 4.01 -30.7 3.02 -29 2 C-28.34 2.99 -27.68 3.98 -27 5 C-27.99 5.33 -28.98 5.66 -30 6 C-29.505 7.485 -29.505 7.485 -29 9 C-29.33 9.33 -29.66 9.66 -30 10 C-28.68 10 -27.36 10 -26 10 C-26 10.66 -26 11.32 -26 12 C-26.66 12 -27.32 12 -28 12 C-28.309375 12.61875 -28.61875 13.2375 -28.9375 13.875 C-29.625 15.25 -30.3125 16.625 -31 18 C-30.34 18 -29.68 18 -29 18 C-28.505 19.485 -28.505 19.485 -28 21 C-28.66 21 -29.32 21 -30 21 C-29.34 23.31 -28.68 25.62 -28 28 C-28.99 28.33 -29.98 28.66 -31 29 C-30.2236068 32.0745356 -30.2236068 32.0745356 -28 34 C-29.3125 36.5 -29.3125 36.5 -31 39 C-31.99 39 -32.98 39 -34 39 C-34.185625 40.6396875 -34.185625 40.6396875 -34.375 42.3125 C-35 46 -35 46 -37 49 C-37 49.66 -37 50.32 -37 51 C-37.66 51 -38.32 51 -39 51 C-38.7525 52.2684375 -38.7525 52.2684375 -38.5 53.5625 C-39.09653456 57.6636751 -39.89331333 58.0926128 -43 60.625 C-43.7425 61.17414063 -44.485 61.72328125 -45.25 62.2890625 C-45.8275 62.85367188 -46.405 63.41828125 -47 64 C-47 65.32 -47 66.64 -47 68 C-47.61875 68.226875 -48.2375 68.45375 -48.875 68.6875 C-51.6219805 70.38416443 -51.86635273 72.05251711 -53 75 C-53.99 75.33 -54.98 75.66 -56 76 C-56 76.66 -56 77.32 -56 78 C-55.01 77.67 -54.02 77.34 -53 77 C-53.185625 77.598125 -53.37125 78.19625 -53.5625 78.8125 C-54.22093687 81.16408762 -54.22093687 81.16408762 -53 84 C-53.99 84.66 -54.98 85.32 -56 86 C-56.33 86.66 -56.66 87.32 -57 88 C-58.64646685 89.68662458 -60.31183067 91.35511706 -62 93 C-61.34 93.33 -60.68 93.66 -60 94 C-60.66 94 -61.32 94 -62 94 C-62 94.99 -62 95.98 -62 97 C-61.34 97 -60.68 97 -60 97 C-59.67 98.65 -59.34 100.3 -59 102 C-59.9590625 102.37125 -59.9590625 102.37125 -60.9375 102.75 C-63.18741541 103.81562433 -63.18741541 103.81562433 -63.75 106.125 C-63.8325 106.74375 -63.915 107.3625 -64 108 C-62.35 108.66 -60.7 109.32 -59 110 C-59 112.66666667 -59 115.33333333 -59 118 C-60.98 117.67 -62.96 117.34 -65 117 C-65.33 118.32 -65.66 119.64 -66 121 C-66.99 121 -67.98 121 -69 121 C-68.67 120.34 -68.34 119.68 -68 119 C-69.98 119.495 -69.98 119.495 -72 120 C-71.34 120.33 -70.68 120.66 -70 121 C-70.99 122.98 -70.99 122.98 -72 125 C-72.66 125 -73.32 125 -74 125 C-74 125.99 -74 126.98 -74 128 C-72.515 128.99 -72.515 128.99 -71 130 C-70.8125 133.625 -70.8125 133.625 -71 137 C-70.34 137 -69.68 137 -69 137 C-69 137.66 -69 138.32 -69 139 C-69.99 139 -70.98 139 -72 139 C-72 139.66 -72 140.32 -72 141 C-71.38125 141.0825 -70.7625 141.165 -70.125 141.25 C-67.31268665 142.24258118 -67.30149721 143.39700558 -66 146 C-63.46811352 147.75322937 -63.46811352 147.75322937 -61 149 C-61.66 148.01 -62.32 147.02 -63 146 C-60.525 145.01 -60.525 145.01 -58 144 C-58 143.34 -58 142.68 -58 142 C-57.34 142 -56.68 142 -56 142 C-56 144.31 -56 146.62 -56 149 C-53.03 148.01 -53.03 148.01 -50 147 C-49.67 148.32 -49.34 149.64 -49 151 C-47.68 151.33 -46.36 151.66 -45 152 C-45 152.99 -45 153.98 -45 155 C-45.66 155.66 -46.32 156.32 -47 157 C-46.34 157.33 -45.68 157.66 -45 158 C-44.87625 158.969375 -44.7525 159.93875 -44.625 160.9375 C-44.3508355 164.11582828 -44.3508355 164.11582828 -41.9375 165.375 C-41.298125 165.58125 -40.65875 165.7875 -40 166 C-40 166.66 -40 167.32 -40 168 C-34.0141515 169.73671981 -28.715364 170.28227682 -22.5 170.1875 C-21.69691406 170.18685547 -20.89382812 170.18621094 -20.06640625 170.18554688 C-14.96633838 170.14835027 -10.04817625 169.72364912 -5 169 C-5 168.34 -5 167.68 -5 167 C-1.84529419 164.63397064 1.31809576 162.8120692 4.875 161.125 C9.34552347 158.96741145 13.13188578 156.08626134 17 153 C18.485 153.99 18.485 153.99 20 155 C20 155.66 20 156.32 20 157 C18.88625 157.20625 17.7725 157.4125 16.625 157.625 C12.76851127 158.60648404 12.76851127 158.60648404 11.625 161.9375 C11.41875 162.948125 11.2125 163.95875 11 165 C10.67 165.99 10.34 166.98 10 168 C10.33 168.66 10.66 169.32 11 170 C3.70186575 172.94486119 -2.82330634 174.12488575 -10.74609375 174.1328125 C-12.62071289 174.13474609 -12.62071289 174.13474609 -14.53320312 174.13671875 C-16.46583008 174.13091797 -16.46583008 174.13091797 -18.4375 174.125 C-19.72205078 174.12886719 -21.00660156 174.13273438 -22.33007812 174.13671875 C-40.3475981 174.11815356 -40.3475981 174.11815356 -47 170 C-47.66 169.01 -48.32 168.02 -49 167 C-48.67 166.34 -48.34 165.68 -48 165 C-51.87977869 161.6262794 -55.79869336 158.38366073 -59.875 155.25 C-77.456675 141.12614308 -85.96518224 122.79332488 -90 101 C-90.1340625 100.28199219 -90.268125 99.56398438 -90.40625 98.82421875 C-94.51792906 72.15541154 -87.19470001 41.64478774 -72.25 19.39453125 C-70.58980646 17.16172466 -68.85060591 15.07696758 -67 13 C-66.35804687 12.25363281 -65.71609375 11.50726562 -65.0546875 10.73828125 C-48.32495982 -7.44217927 -21.71706435 -12.03313301 0 0 Z " fill="#F5BA86" transform="translate(126,12)"/>
<path d="M0 0 C-2 2 -2 2 -5 3 C-5 3.99 -5 4.98 -5 6 C-4.67 5.525625 -4.34 5.05125 -4 4.5625 C-0.82591928 2.08274944 2.00362102 2.19030376 6 2 C6.66 2.66 7.32 3.32 8 4 C6.02 4.66 4.04 5.32 2 6 C1.896875 6.78375 1.79375 7.5675 1.6875 8.375 C1 11 1 11 -2 13 C-1.34 13.99 -0.68 14.98 0 16 C-1.65 16.33 -3.3 16.66 -5 17 C-5 17.66 -5 18.32 -5 19 C-3.8553125 18.4740625 -3.8553125 18.4740625 -2.6875 17.9375 C0 17 0 17 3 18 C5.12816413 17.84311576 5.12816413 17.84311576 7 17 C7.495 15.515 7.495 15.515 8 14 C7.34 13.67 6.68 13.34 6 13 C6.33 11.35 6.66 9.7 7 8 C9 8 11 8 13 8 C13 7.34 13 6.68 13 6 C14.32 6 15.64 6 17 6 C17.125 8.375 17.125 8.375 17 11 C16.34 11.66 15.68 12.32 15 13 C15.99 13.66 16.98 14.32 18 15 C16.68 15.99 15.36 16.98 14 18 C13.34 17.67 12.68 17.34 12 17 C12.6954344 20.00384054 12.6954344 20.00384054 14 23 C15.99660454 23.89582173 15.99660454 23.89582173 18 24 C18.33 24.33 18.66 24.66 19 25 C19.66 25 20.32 25 21 25 C21 24.34 21 23.68 21 23 C21.99 23 22.98 23 24 23 C23.67 21.35 23.34 19.7 23 18 C23.99 17.34 24.98 16.68 26 16 C26.495 14.515 26.495 14.515 27 13 C27.66 13 28.32 13 29 13 C29 13.66 29 14.32 29 15 C30.485 15.495 30.485 15.495 32 16 C32.495 17.485 32.495 17.485 33 19 C33.66 19.33 34.32 19.66 35 20 C34.67 20.66 34.34 21.32 34 22 C33.34 22 32.68 22 32 22 C32.226875 22.763125 32.45375 23.52625 32.6875 24.3125 C32.790625 25.199375 32.89375 26.08625 33 27 C31.75 28.4375 31.75 28.4375 30 30 C28.95377125 31.97620986 27.94560065 33.9737129 27 36 C27.66 36 28.32 36 29 36 C29 37.32 29 38.64 29 40 C28.34 40 27.68 40 27 40 C27.08636719 41.04414063 27.17273438 42.08828125 27.26171875 43.1640625 C26.80531688 49.85341531 21.84236036 53.74618888 17 58 C10.34458899 63.3361257 3.13789692 68.28736769 -5 71 C-5 71.66 -5 72.32 -5 73 C-11.01113192 74.74115545 -16.38179579 75.30945909 -22.625 75.25 C-23.85476562 75.26160156 -23.85476562 75.26160156 -25.109375 75.2734375 C-30.60208793 75.25577604 -35.02498683 74.48750659 -40 72 C-40 71.34 -40 70.68 -40 70 C-38.35 70 -36.7 70 -35 70 C-34.61126172 68.04434742 -34.23939167 66.08533496 -33.875 64.125 C-33.66617188 63.03445312 -33.45734375 61.94390625 -33.2421875 60.8203125 C-33.16226563 59.88960937 -33.08234375 58.95890625 -33 58 C-33.66 57.34 -34.32 56.68 -35 56 C-34.01 55.01 -33.02 54.02 -32 53 C-32.556875 53.37125 -33.11375 53.7425 -33.6875 54.125 C-36 55 -36 55 -38.75 54.125 C-39.4925 53.75375 -40.235 53.3825 -41 53 C-40.505 50.03 -40.505 50.03 -40 47 C-38.35 47.66 -36.7 48.32 -35 49 C-36.05270463 47.84188612 -36.05270463 47.84188612 -38 47 C-37.62875 46.278125 -37.2575 45.55625 -36.875 44.8125 C-35.79054202 41.32674221 -36.58139991 40.2544355 -38 37 C-37.70630173 35.65737935 -37.3721042 34.32303717 -37 33 C-37.38567131 30.31850007 -37.38567131 30.31850007 -38 28 C-37.34 28 -36.68 28 -36 28 C-36 27.34 -36 26.68 -36 26 C-35.34 25.34 -34.68 24.68 -34 24 C-33.67 23.34 -33.34 22.68 -33 22 C-32.34 22.33 -31.68 22.66 -31 23 C-30.59270772 25.32156597 -30.25561323 27.6568787 -30 30 C-27.03268602 28.16343011 -27.03268602 28.16343011 -25 26 C-21.91908427 24.15145056 -20.79972824 24 -17 24 C-16.67 24.33 -16.34 24.66 -16 25 C-16.33 24.01 -16.66 23.02 -17 22 C-15.78515625 20.17578125 -15.78515625 20.17578125 -14.0625 18.3125 C-13.49660156 17.68988281 -12.93070313 17.06726563 -12.34765625 16.42578125 C-11.90292969 15.95527344 -11.45820312 15.48476562 -11 15 C-11.99 15 -12.98 15 -14 15 C-14.33 14.67 -14.66 14.34 -15 14 C-15.66 15.98 -16.32 17.96 -17 20 C-19.49361571 18.79618552 -21.68143083 17.54571278 -24 16 C-22.35 15.34 -20.7 14.68 -19 14 C-19 13.34 -19 12.68 -19 12 C-19.99 12.495 -19.99 12.495 -21 13 C-21 11.02 -21 9.04 -21 7 C-21.66 6.67 -22.32 6.34 -23 6 C-23 5.01 -23 4.02 -23 3 C-22.01 3.33 -21.02 3.66 -20 4 C-19.67 3.34 -19.34 2.68 -19 2 C-16.9375 1.375 -16.9375 1.375 -15 1 C-13 4 -13 4 -13 6 C-10.21081851 7.10540926 -10.21081851 7.10540926 -8 7 C-7.67 6.34 -7.34 5.68 -7 5 C-7.99 5.33 -8.98 5.66 -10 6 C-10.66 5.67 -11.32 5.34 -12 5 C-11.8125 3.125 -11.8125 3.125 -11 1 C-7.11220387 -1.33267768 -4.31933651 -1.00449686 0 0 Z M-28 16 C-26.02 16.495 -26.02 16.495 -24 17 C-24.33 17.66 -24.66 18.32 -25 19 C-27.0625 19.625 -27.0625 19.625 -29 20 C-28.67 18.68 -28.34 17.36 -28 16 Z " fill="#E18D51" transform="translate(126,108)"/>
<path d="M0 0 C0.70189453 0.00451172 1.40378906 0.00902344 2.12695312 0.01367188 C3.85550538 0.02543073 5.58401365 0.04336546 7.3125 0.0625 C7.3125 2.0425 7.3125 4.0225 7.3125 6.0625 C7.89 6.145 8.4675 6.2275 9.0625 6.3125 C11.9284304 7.26781013 13.3115764 8.84719173 15.3125 11.0625 C14.9825 11.7225 14.6525 12.3825 14.3125 13.0625 C15.3025 12.7325 16.2925 12.4025 17.3125 12.0625 C17.3125 13.3825 17.3125 14.7025 17.3125 16.0625 C16.6525 16.0625 15.9925 16.0625 15.3125 16.0625 C14.8175 18.5375 14.8175 18.5375 14.3125 21.0625 C15.3025 20.7325 16.2925 20.4025 17.3125 20.0625 C17.3125 21.3825 17.3125 22.7025 17.3125 24.0625 C16.8175 23.0725 16.8175 23.0725 16.3125 22.0625 C14.9925 23.3825 13.6725 24.7025 12.3125 26.0625 C12.9725 26.0625 13.6325 26.0625 14.3125 26.0625 C14.3125 26.7225 14.3125 27.3825 14.3125 28.0625 C14.9725 28.3925 15.6325 28.7225 16.3125 29.0625 C14.4375 29.6875 14.4375 29.6875 12.3125 30.0625 C11.6525 29.4025 10.9925 28.7425 10.3125 28.0625 C9.3225 29.7125 8.3325 31.3625 7.3125 33.0625 C7.9725 33.0625 8.6325 33.0625 9.3125 33.0625 C9.3125 33.7225 9.3125 34.3825 9.3125 35.0625 C8.3225 35.5575 8.3225 35.5575 7.3125 36.0625 C6.6525 37.0525 5.9925 38.0425 5.3125 39.0625 C4.3225 38.5675 4.3225 38.5675 3.3125 38.0625 C3.3125 39.3825 3.3125 40.7025 3.3125 42.0625 C2.3225 42.0625 1.3325 42.0625 0.3125 42.0625 C-0.0175 43.3825 -0.3475 44.7025 -0.6875 46.0625 C-2.0075 45.7325 -3.3275 45.4025 -4.6875 45.0625 C-4.86925781 46.27486328 -4.86925781 46.27486328 -5.0546875 47.51171875 C-5.22226563 48.58035156 -5.38984375 49.64898437 -5.5625 50.75 C-5.72492188 51.80574219 -5.88734375 52.86148438 -6.0546875 53.94921875 C-6.64643069 56.86044914 -7.4906806 59.35205607 -8.6875 62.0625 C-8.0275 62.0625 -7.3675 62.0625 -6.6875 62.0625 C-7.1825 63.0525 -7.1825 63.0525 -7.6875 64.0625 C-8.6775 63.5675 -8.6775 63.5675 -9.6875 63.0625 C-9.6875 63.7225 -9.6875 64.3825 -9.6875 65.0625 C-8.6975 65.5575 -8.6975 65.5575 -7.6875 66.0625 C-6.33441687 67.37578657 -4.99879922 68.70749081 -3.6875 70.0625 C-4.3475 70.7225 -5.0075 71.3825 -5.6875 72.0625 C-6.6775 72.0625 -7.6675 72.0625 -8.6875 72.0625 C-8.6875 73.0525 -8.6875 74.0425 -8.6875 75.0625 C-9.3475 75.0625 -10.0075 75.0625 -10.6875 75.0625 C-10.6875 76.7125 -10.6875 78.3625 -10.6875 80.0625 C-8.7075 79.5675 -8.7075 79.5675 -6.6875 79.0625 C-7.1825 80.5475 -7.1825 80.5475 -7.6875 82.0625 C-6.6975 82.7225 -5.7075 83.3825 -4.6875 84.0625 C-5.6875 86.0625 -5.6875 86.0625 -7.6875 87.0625 C-7.0275 88.3825 -6.3675 89.7025 -5.6875 91.0625 C-7.3375 91.0625 -8.9875 91.0625 -10.6875 91.0625 C-9.2025 93.5375 -9.2025 93.5375 -7.6875 96.0625 C-10.52717231 96.0625 -12.92485711 95.65982819 -15.6875 95.0625 C-15.6875 95.7225 -15.6875 96.3825 -15.6875 97.0625 C-15.3575 97.3925 -15.0275 97.7225 -14.6875 98.0625 C-13.6975 99.5475 -13.6975 99.5475 -12.6875 101.0625 C-14.6675 101.5575 -14.6675 101.5575 -16.6875 102.0625 C-16.6875 101.4025 -16.6875 100.7425 -16.6875 100.0625 C-17.3475 100.0625 -18.0075 100.0625 -18.6875 100.0625 C-17.72884491 102.39325929 -17.72884491 102.39325929 -14.6875 104.0625 C-15.3475 104.7225 -16.0075 105.3825 -16.6875 106.0625 C-18.1725 105.5675 -18.1725 105.5675 -19.6875 105.0625 C-19.3575 106.3825 -19.0275 107.7025 -18.6875 109.0625 C-19.6775 109.5575 -19.6775 109.5575 -20.6875 110.0625 C-21.80576085 113.74504865 -21.63517284 116.52543326 -20.8125 120.25 C-20.62945312 121.10980469 -20.44640625 121.96960938 -20.2578125 122.85546875 C-19.76416599 125.08351391 -19.76416599 125.08351391 -18.6875 127.0625 C-20.3375 127.0625 -21.9875 127.0625 -23.6875 127.0625 C-24.3475 129.0425 -25.0075 131.0225 -25.6875 133.0625 C-26.3475 132.4025 -27.0075 131.7425 -27.6875 131.0625 C-29.19680183 134.4488251 -29.19680183 134.4488251 -29.6875 138.0625 C-30.6775 138.3925 -31.6675 138.7225 -32.6875 139.0625 C-34.36169438 138.0751546 -36.02801852 137.07437895 -37.6875 136.0625 C-39.0075 136.0625 -40.3275 136.0625 -41.6875 136.0625 C-40.56895414 139.78864153 -40.56895414 139.78864153 -37.6875 142.0625 C-37.0625 144.125 -37.0625 144.125 -36.6875 146.0625 C-34.7075 145.0725 -34.7075 145.0725 -32.6875 144.0625 C-33.244375 145.42375 -33.244375 145.42375 -33.8125 146.8125 C-35.01256684 149.9328187 -35.01256684 149.9328187 -33.7421875 152.265625 C-33.39414063 152.85859375 -33.04609375 153.4515625 -32.6875 154.0625 C-34.00628578 153.30247083 -35.3173684 152.52906347 -36.625 151.75 C-37.35589844 151.32074219 -38.08679688 150.89148438 -38.83984375 150.44921875 C-40.6875 149.0625 -40.6875 149.0625 -41.6875 146.0625 C-42.6775 145.7325 -43.6675 145.4025 -44.6875 145.0625 C-44.6875 144.4025 -44.6875 143.7425 -44.6875 143.0625 C-43.6975 143.0625 -42.7075 143.0625 -41.6875 143.0625 C-41.6875 142.4025 -41.6875 141.7425 -41.6875 141.0625 C-42.3475 141.0625 -43.0075 141.0625 -43.6875 141.0625 C-43.790625 139.969375 -43.89375 138.87625 -44 137.75 C-44.66057727 134.20690371 -44.8902092 133.13006277 -47.6875 131.0625 C-46.0375 129.0825 -44.3875 127.1025 -42.6875 125.0625 C-43.6775 124.7325 -44.6675 124.4025 -45.6875 124.0625 C-44.2025 123.0725 -44.2025 123.0725 -42.6875 122.0625 C-40.6875 123.0625 -40.6875 123.0625 -39.6875 124.0625 C-39.0275 123.0725 -38.3675 122.0825 -37.6875 121.0625 C-34.5625 120.875 -34.5625 120.875 -31.6875 121.0625 C-32.0175 118.7525 -32.3475 116.4425 -32.6875 114.0625 C-34.3375 113.7325 -35.9875 113.4025 -37.6875 113.0625 C-37.4375 110.1875 -37.4375 110.1875 -36.6875 107.0625 C-34.625 105.6875 -34.625 105.6875 -32.6875 105.0625 C-32.6875 103.7425 -32.6875 102.4225 -32.6875 101.0625 C-33.3475 101.0625 -34.0075 101.0625 -34.6875 101.0625 C-35 98.375 -35 98.375 -34.6875 95.0625 C-32.25 92.3125 -32.25 92.3125 -29.6875 90.0625 C-29.3575 89.4025 -29.0275 88.7425 -28.6875 88.0625 C-27.6975 88.0625 -26.7075 88.0625 -25.6875 88.0625 C-25.6875 87.4025 -25.6875 86.7425 -25.6875 86.0625 C-26.3475 85.7325 -27.0075 85.4025 -27.6875 85.0625 C-27.1925 83.5775 -27.1925 83.5775 -26.6875 82.0625 C-27.3475 82.0625 -28.0075 82.0625 -28.6875 82.0625 C-28.6875 81.4025 -28.6875 80.7425 -28.6875 80.0625 C-27.2025 79.0725 -27.2025 79.0725 -25.6875 78.0625 C-24.95406572 74.99693402 -24.95406572 74.99693402 -24.6875 72.0625 C-22.2125 71.5675 -22.2125 71.5675 -19.6875 71.0625 C-19.6875 69.7425 -19.6875 68.4225 -19.6875 67.0625 C-19.06875 66.815 -18.45 66.5675 -17.8125 66.3125 C-15.33681313 64.85621361 -14.73624998 63.68437494 -13.6875 61.0625 C-13.0275 61.0625 -12.3675 61.0625 -11.6875 61.0625 C-11.6875 59.0825 -11.6875 57.1025 -11.6875 55.0625 C-11.0275 55.0625 -10.3675 55.0625 -9.6875 55.0625 C-10.0175 54.0725 -10.3475 53.0825 -10.6875 52.0625 C-9.73254326 50.36962215 -8.7284066 48.70392963 -7.6875 47.0625 C-6.99170546 44.87119466 -6.99170546 44.87119466 -6.6875 43.0625 C-5.6975 43.0625 -4.7075 43.0625 -3.6875 43.0625 C-2.89514787 40.09117951 -2.37740688 38.05479798 -3.3125 35.0625 C-3.43625 34.4025 -3.56 33.7425 -3.6875 33.0625 C-3.0275 32.4025 -2.3675 31.7425 -1.6875 31.0625 C-1.98618656 29.05703311 -2.32121323 27.05672795 -2.6875 25.0625 C-2.1925 23.5775 -2.1925 23.5775 -1.6875 22.0625 C-2.3475 22.0625 -3.0075 22.0625 -3.6875 22.0625 C-0.6875 16.0625 -0.6875 16.0625 0.3125 15.0625 C-1.0075 14.7325 -2.3275 14.4025 -3.6875 14.0625 C-3.11405063 11.19525314 -2.8260485 10.2010485 -0.6875 8.0625 C-2.7696538 7.86409082 -2.7696538 7.86409082 -4.375 9.3125 C-6.6875 10.0625 -6.6875 10.0625 -8.50390625 9.3046875 C-10.26854937 8.28511592 -11.98174616 7.17780059 -13.6875 6.0625 C-10.22927601 -0.35991599 -6.83653504 -0.08298315 0 0 Z M-40.6875 144.0625 C-39.6975 145.5475 -39.6975 145.5475 -38.6875 147.0625 C-38.6875 146.0725 -38.6875 145.0825 -38.6875 144.0625 C-39.3475 144.0625 -40.0075 144.0625 -40.6875 144.0625 Z " fill="#F3B478" transform="translate(98.6875,7.9375)"/>
<path d="M0 0 C1.74627478 2.61941217 2.38722388 4.03824877 3 7 C4.32 7 5.64 7 7 7 C7.66 7.33 8.32 7.66 9 8 C8.67 9.65 8.34 11.3 8 13 C9.32 13 10.64 13 12 13 C13.0625 15.375 13.0625 15.375 14 18 C13.67 18.66 13.34 19.32 13 20 C12.34 20 11.68 20 11 20 C11 20.99 11 21.98 11 23 C11.33 22.34 11.66 21.68 12 21 C14.31 21.33 16.62 21.66 19 22 C18.67 23.32 18.34 24.64 18 26 C18.99 26.66 19.98 27.32 21 28 C21 28.99 21 29.98 21 31 C21.99 30.67 22.98 30.34 24 30 C23.505 29.01 23.505 29.01 23 28 C24.32 27.67 25.64 27.34 27 27 C27 26.34 27 25.68 27 25 C27.99 25 28.98 25 30 25 C30.825 24.175 31.65 23.35 32.5 22.5 C33.325 21.675 34.15 20.85 35 20 C35.99 20 36.98 20 38 20 C37.835 21.03125 37.67 22.0625 37.5 23.125 C36.89306079 26.88799982 36.89306079 26.88799982 37.1875 30.25 C37 33 37 33 35 34.875 C34.34 35.24625 33.68 35.6175 33 36 C33 35.34 33 34.68 33 34 C32.34 34 31.68 34 31 34 C31 34.66 31 35.32 31 36 C30.01 36.33 29.02 36.66 28 37 C28 38.32 28 39.64 28 41 C25.99967627 42.00016187 24.16874252 42.49396008 22 43 C22 41.68 22 40.36 22 39 C21.01 40.32 20.02 41.64 19 43 C19 41.02 19 39.04 19 37 C18.01 37.495 18.01 37.495 17 38 C17 39.32 17 40.64 17 42 C16.01 41.67 15.02 41.34 14 41 C13.01 41.495 13.01 41.495 12 42 C11.01 42.495 11.01 42.495 10 43 C10.34444881 45.47266765 10.34444881 45.47266765 11 48 C11.99 48.495 11.99 48.495 13 49 C12.195625 49.268125 11.39125 49.53625 10.5625 49.8125 C9.2940625 50.4003125 9.2940625 50.4003125 8 51 C7.67 51.99 7.34 52.98 7 54 C8.65 54 10.3 54 12 54 C11.34 55.32 10.68 56.64 10 58 C9.34 57.67 8.68 57.34 8 57 C6.515 56.505 6.515 56.505 5 56 C4.34 55.34 3.68 54.68 3 54 C3.66 53.34 4.32 52.68 5 52 C3.35 51.67 1.7 51.34 0 51 C-0.33 51.99 -0.66 52.98 -1 54 C-1.66 53.67 -2.32 53.34 -3 53 C-2.34 55.64 -1.68 58.28 -1 61 C-0.01 61 0.98 61 2 61 C1 64 1 64 -2 66 C-1.34 66.33 -0.68 66.66 0 67 C0.33 66.34 0.66 65.68 1 65 C1.33 65 1.66 65 2 65 C2.33 64.01 2.66 63.02 3 62 C3.66 62 4.32 62 5 62 C5 62.66 5 63.32 5 64 C5.66 64 6.32 64 7 64 C7.33 63.34 7.66 62.68 8 62 C8.66 62.33 9.32 62.66 10 63 C9 65 9 65 7.0625 65.875 C4.57998766 67.22909764 4.03128603 68.42178493 3 71 C3.66 71.66 4.32 72.32 5 73 C4.67 73.66 4.34 74.32 4 75 C3.34 75 2.68 75 2 75 C2 74.34 2 73.68 2 73 C1.38125 73.185625 0.7625 73.37125 0.125 73.5625 C-2 74 -2 74 -4 73 C-4.33 73.99 -4.66 74.98 -5 76 C-5.99 76.495 -5.99 76.495 -7 77 C-7.495 77.99 -7.495 77.99 -8 79 C-8.99 79 -9.98 79 -11 79 C-12.4606285 76.35261084 -13 75.10551666 -13 72 C-13.99 71.67 -14.98 71.34 -16 71 C-16.33 71.99 -16.66 72.98 -17 74 C-17 73.34 -17 72.68 -17 72 C-17.99 72 -18.98 72 -20 72 C-19.67 71.01 -19.34 70.02 -19 69 C-18.34 69 -17.68 69 -17 69 C-17.33 68.34 -17.66 67.68 -18 67 C-18.99 67 -19.98 67 -21 67 C-20.649375 66.38125 -20.29875 65.7625 -19.9375 65.125 C-19.628125 64.42375 -19.31875 63.7225 -19 63 C-19.33 62.34 -19.66 61.68 -20 61 C-19.01 60.01 -18.02 59.02 -17 58 C-17.88214887 55.11785113 -17.88214887 55.11785113 -19 53 C-18.01 52.505 -18.01 52.505 -17 52 C-16.67 51.01 -16.34 50.02 -16 49 C-13.5 47.375 -13.5 47.375 -11 46 C-10.505 45.505 -10.505 45.505 -10 45 C-10.99 44.67 -11.98 44.34 -13 44 C-11.515 43.505 -11.515 43.505 -10 43 C-9.67 42.175 -9.34 41.35 -9 40.5 C-8.67 39.675 -8.34 38.85 -8 38 C-6.515 37.505 -6.515 37.505 -5 37 C-4.34 36.34 -3.68 35.68 -3 35 C-3.99 35 -4.98 35 -6 35 C-6 33 -6 33 -5 32 C-6.32 29.69 -7.64 27.38 -9 25 C-9.99 25 -10.98 25 -12 25 C-12 23 -12 23 -10.5 21.375 C-10.005 20.92125 -9.51 20.4675 -9 20 C-9.66 19.01 -10.32 18.02 -11 17 C-10.34 17 -9.68 17 -9 17 C-8.87625 15.700625 -8.7525 14.40125 -8.625 13.0625 C-8.4140625 10.84765625 -8.4140625 10.84765625 -8 9 C-7.34 8.67 -6.68 8.34 -6 8 C-6.33 7.01 -6.66 6.02 -7 5 C-6.67 4.34 -6.34 3.68 -6 3 C-5.34 3 -4.68 3 -4 3 C-4 2.34 -4 1.68 -4 1 C-2.68 0.67 -1.36 0.34 0 0 Z M5 10 C4.67 10.99 4.34 11.98 4 13 C3.01 13.495 3.01 13.495 2 14 C2.99 15.65 3.98 17.3 5 19 C5.66 18.67 6.32 18.34 7 18 C7.95067299 14.71585695 8.10102197 13.30306592 7 10 C6.34 10 5.68 10 5 10 Z M-9 65 C-9.33 66.32 -9.66 67.64 -10 69 C-8.35 68.67 -6.7 68.34 -5 68 C-5 67.34 -5 66.68 -5 66 C-6.32 65.67 -7.64 65.34 -9 65 Z M-22 68 C-21 72 -21 72 -21 72 Z " fill="#E89A53" transform="translate(107,59)"/>
<path d="M0 0 C0.66 0 1.32 0 2 0 C2 0.66 2 1.32 2 2 C2.99 2 3.98 2 5 2 C5.33 2.66 5.66 3.32 6 4 C6.99 4.33 7.98 4.66 9 5 C9.33 5.99 9.66 6.98 10 8 C10.99 8.66 11.98 9.32 13 10 C13 10.99 13 11.98 13 13 C14.12535156 12.84144531 14.12535156 12.84144531 15.2734375 12.6796875 C18 13 18 13 19.9140625 15.1953125 C20.47867188 16.16210938 21.04328125 17.12890625 21.625 18.125 C22.21925781 19.14078125 22.81351563 20.1565625 23.42578125 21.203125 C23.94527344 22.12609375 24.46476562 23.0490625 25 24 C25.8971875 25.423125 25.8971875 25.423125 26.8125 26.875 C28.4375924 31.15155894 28.91844241 35.44784369 29.47265625 39.9765625 C29.96515638 42.80022993 30.72490294 44.48949762 32 47 C33.00022825 51.491591 33.10581633 55.78346929 33.0625 60.375 C33.05347656 61.62023437 33.04445312 62.86546875 33.03515625 64.1484375 C33.02355469 65.08945313 33.01195312 66.03046875 33 67 C32.01 67.495 32.01 67.495 31 68 C31 68.66 31 69.32 31 70 C31.99 70 32.98 70 34 70 C34.9702889 72.91086669 35.16467847 74.90223685 35.1875 77.9375 C35.20167969 78.79214844 35.21585938 79.64679688 35.23046875 80.52734375 C34.89903872 84.08319471 33.38421061 86.36521726 31.5625 89.375 C29.88981467 92.18511136 28.43465098 95.06238133 27 98 C26.731875 97.360625 26.46375 96.72125 26.1875 96.0625 C25.11332248 93.66868314 25.11332248 93.66868314 22 93 C22.33 93.99 22.66 94.98 23 96 C21.515 95.505 21.515 95.505 20 95 C17.85744207 95.38932856 17.85744207 95.38932856 16 96 C16 91.73173127 16.37613513 91.06117568 19 88 C18.01 87.01 17.02 86.02 16 85 C17.33333333 80.33333333 18.66666667 75.66666667 20 71 C19.34 70.34 18.68 69.68 18 69 C18.26524018 67.32115023 18.61530422 65.65556578 19 64 C19.2939265 60.3626596 19.5051374 56.72488898 19.71875 53.08203125 C20 50 20 50 21 48 C20.236875 47.896875 19.47375 47.79375 18.6875 47.6875 C15.750546 46.93618619 14.59761191 46.57393029 13 44 C13.3125 40.8125 13.3125 40.8125 14 38 C12.68 37.34 11.36 36.68 10 36 C10.185625 35.484375 10.37125 34.96875 10.5625 34.4375 C11.15419517 31.14091261 10.567267 28.27754265 10 25 C9.34 25 8.68 25 8 25 C7.67 23.68 7.34 22.36 7 21 C6.34 21.33 5.68 21.66 5 22 C5.2475 21.2575 5.495 20.515 5.75 19.75 C5.8325 18.8425 5.915 17.935 6 17 C4.16641665 14.66545339 4.16641665 14.66545339 2 13 C2.99 13 3.98 13 5 13 C5 12.34 5 11.68 5 11 C4.01 10.67 3.02 10.34 2 10 C2 8.33333333 2 6.66666667 2 5 C1.34 4.67 0.68 4.34 0 4 C0 2.68 0 1.36 0 0 Z " fill="#DB8239" transform="translate(130,20)"/>
<path d="M0 0 C0.33 0.66 0.66 1.32 1 2 C2.32 1.34 3.64 0.68 5 0 C5.268125 0.94875 5.53625 1.8975 5.8125 2.875 C6.74986588 6.25267273 6.74986588 6.25267273 10 8 C12.64632287 7.6878236 12.64632287 7.6878236 15 7 C14.67 7.99 14.34 8.98 14 10 C14.99 10 15.98 10 17 10 C17 10.66 17 11.32 17 12 C16.34 12.33 15.68 12.66 15 13 C13.93772661 15.20562765 13.93772661 15.20562765 13 17.8125 C11.80433368 20.97447695 10.51843189 23.98211662 9 27 C7.8198077 29.94816386 7.8198077 29.94816386 8.125 33 C7.97871379 36.51086912 7.39100021 36.71295632 5 39 C5.185625 39.639375 5.37125 40.27875 5.5625 40.9375 C5.706875 41.618125 5.85125 42.29875 6 43 C4.66666667 44.33333333 3.33333333 45.66666667 2 47 C1.13634886 49.07195179 0.45087738 51.14271487 -0.19140625 53.29296875 C-0.45824219 53.85628906 -0.72507812 54.41960937 -1 55 C-2.485 55.495 -2.485 55.495 -4 56 C-4.53625 55.360625 -5.0725 54.72125 -5.625 54.0625 C-8.44367193 51.61470596 -10.33860732 51.33285388 -14 51 C-14 50.34 -14 49.68 -14 49 C-14.66 48.67 -15.32 48.34 -16 48 C-15.01 48 -14.02 48 -13 48 C-13.99 47.67 -14.98 47.34 -16 47 C-15.34 44.69 -14.68 42.38 -14 40 C-14.66 40 -15.32 40 -16 40 C-16.495 38.515 -16.495 38.515 -17 37 C-16.525625 36.21625 -16.05125 35.4325 -15.5625 34.625 C-13.82150245 31.70012412 -13.82518361 30.32151135 -14 27 C-11.875 20.625 -11.875 20.625 -9 18 C-9.33 17.34 -9.66 16.68 -10 16 C-9.34 16 -8.68 16 -8 16 C-8 14.68 -8 13.36 -8 12 C-7.34 12 -6.68 12 -6 12 C-6.33 10.35 -6.66 8.7 -7 7 C-6.01 6.34 -5.02 5.68 -4 5 C-2.63360658 3.3603279 -1.29486821 1.69672386 0 0 Z " fill="#F7CBAB" transform="translate(76,23)"/>
<path d="M0 0 C2.31 0.99 4.62 1.98 7 3 C6.34 3.99 5.68 4.98 5 6 C4.01 6 3.02 6 2 6 C2 6.99 2 7.98 2 9 C1.34 9 0.68 9 0 9 C0 10.65 0 12.3 0 14 C1.32 13.67 2.64 13.34 4 13 C3.67 13.99 3.34 14.98 3 16 C3.99 16.66 4.98 17.32 6 18 C5 20 5 20 3 21 C3.66 22.32 4.32 23.64 5 25 C3.35 25 1.7 25 0 25 C0.99 26.65 1.98 28.3 3 30 C0.16032769 30 -2.23735711 29.59732819 -5 29 C-5 29.66 -5 30.32 -5 31 C-4.67 31.33 -4.34 31.66 -4 32 C-3.34 32.99 -2.68 33.98 -2 35 C-3.98 35.495 -3.98 35.495 -6 36 C-6 35.34 -6 34.68 -6 34 C-6.66 34 -7.32 34 -8 34 C-7.04134491 36.33075929 -7.04134491 36.33075929 -4 38 C-4.66 38.66 -5.32 39.32 -6 40 C-7.485 39.505 -7.485 39.505 -9 39 C-8.67 40.32 -8.34 41.64 -8 43 C-8.99 43.495 -8.99 43.495 -10 44 C-11.11826085 47.68254865 -10.94767284 50.46293326 -10.125 54.1875 C-9.94195312 55.04730469 -9.75890625 55.90710938 -9.5703125 56.79296875 C-9.07666599 59.02101391 -9.07666599 59.02101391 -8 61 C-9.65 61 -11.3 61 -13 61 C-13.99 63.97 -13.99 63.97 -15 67 C-15.66 66.34 -16.32 65.68 -17 65 C-18.50930183 68.3863251 -18.50930183 68.3863251 -19 72 C-20.485 72.495 -20.485 72.495 -22 73 C-23.67419438 72.0126546 -25.34051852 71.01187895 -27 70 C-28.32 70 -29.64 70 -31 70 C-29.88145414 73.72614153 -29.88145414 73.72614153 -27 76 C-26.375 78.0625 -26.375 78.0625 -26 80 C-24.02 79.01 -24.02 79.01 -22 78 C-22.556875 79.36125 -22.556875 79.36125 -23.125 80.75 C-24.32506684 83.8703187 -24.32506684 83.8703187 -23.0546875 86.203125 C-22.70664063 86.79609375 -22.35859375 87.3890625 -22 88 C-23.31878578 87.23997083 -24.6298684 86.46656347 -25.9375 85.6875 C-26.66839844 85.25824219 -27.39929688 84.82898438 -28.15234375 84.38671875 C-30 83 -30 83 -31 80 C-31.99 79.67 -32.98 79.34 -34 79 C-34 78.34 -34 77.68 -34 77 C-33.01 77 -32.02 77 -31 77 C-31 76.34 -31 75.68 -31 75 C-31.66 75 -32.32 75 -33 75 C-33.103125 73.906875 -33.20625 72.81375 -33.3125 71.6875 C-33.97307727 68.14440371 -34.2027092 67.06756277 -37 65 C-35.35 63.02 -33.7 61.04 -32 59 C-32.99 58.67 -33.98 58.34 -35 58 C-34.01 57.34 -33.02 56.68 -32 56 C-30 57 -30 57 -29 58 C-28.34 57.01 -27.68 56.02 -27 55 C-23.875 54.8125 -23.875 54.8125 -21 55 C-21.33 52.69 -21.66 50.38 -22 48 C-23.65 47.67 -25.3 47.34 -27 47 C-26.34 45.35 -25.68 43.7 -25 42 C-24.01 42.66 -23.02 43.32 -22 44 C-19.35367713 43.6878236 -19.35367713 43.6878236 -17 43 C-17 41.02 -17 39.04 -17 37 C-16.01 37 -15.02 37 -14 37 C-14.33 36.01 -14.66 35.02 -15 34 C-13 31 -13 31 -10 30 C-10.309375 29.1646875 -10.309375 29.1646875 -10.625 28.3125 C-11.10695211 25.340462 -10.26565028 23.68020059 -9 21 C-8.34 21 -7.68 21 -7 21 C-6.67 20.34 -6.34 19.68 -6 19 C-6.99 19.33 -7.98 19.66 -9 20 C-9 19.34 -9 18.68 -9 18 C-7.35 17.34 -5.7 16.68 -4 16 C-4.66 14.35 -5.32 12.7 -6 11 C-5.34 10.34 -4.68 9.68 -4 9 C-3.75787127 7.01871492 -3.75787127 7.01871492 -3.875 4.875 C-3.91625 3.59625 -3.9575 2.3175 -4 1 C-2.68 1.33 -1.36 1.66 0 2 C0 1.34 0 0.68 0 0 Z M-30 78 C-29.01 79.485 -29.01 79.485 -28 81 C-28 80.01 -28 79.02 -28 78 C-28.66 78 -29.32 78 -30 78 Z M-8 13 C-7.01 13.33 -6.02 13.66 -5 14 C-5.99 14.66 -6.98 15.32 -8 16 C-8 15.01 -8 14.02 -8 13 Z " fill="#EFAA71" transform="translate(88,74)"/>
<path d="M0 0 C4.72818006 -0.32987303 7.08293305 0.38862204 11 3 C11.66 3 12.32 3 13 3 C13 3.99 13 4.98 13 6 C15.64 5.34 18.28 4.68 21 4 C21 4.66 21 5.32 21 6 C20.34 6 19.68 6 19 6 C18.690625 6.61875 18.38125 7.2375 18.0625 7.875 C17.375 9.25 16.6875 10.625 16 12 C16.66 12 17.32 12 18 12 C18.495 13.485 18.495 13.485 19 15 C18.34 15 17.68 15 17 15 C17.66 17.31 18.32 19.62 19 22 C18.01 22.33 17.02 22.66 16 23 C16.7763932 26.0745356 16.7763932 26.0745356 19 28 C17.6875 30.5 17.6875 30.5 16 33 C15.01 33 14.02 33 13 33 C12.87625 34.093125 12.7525 35.18625 12.625 36.3125 C12 40 12 40 10 43 C10 43.66 10 44.32 10 45 C9.34 45 8.68 45 8 45 C8.2475 46.2684375 8.2475 46.2684375 8.5 47.5625 C7.90346544 51.6636751 7.10668667 52.0926128 4 54.625 C3.2575 55.17414063 2.515 55.72328125 1.75 56.2890625 C1.1725 56.85367188 0.595 57.41828125 0 58 C0 59.32 0 60.64 0 62 C-0.61875 62.226875 -1.2375 62.45375 -1.875 62.6875 C-4.6219805 64.38416443 -4.86635273 66.05251711 -6 69 C-7.485 69.495 -7.485 69.495 -9 70 C-9 70.66 -9 71.32 -9 72 C-7.515 71.505 -7.515 71.505 -6 71 C-6.185625 71.598125 -6.37125 72.19625 -6.5625 72.8125 C-7.22093687 75.16408762 -7.22093687 75.16408762 -6 78 C-9.75 79.125 -9.75 79.125 -12 78 C-12 76.02 -12 74.04 -12 72 C-14.97 72.495 -14.97 72.495 -18 73 C-18 70.36 -18 67.72 -18 65 C-16.68 65 -15.36 65 -14 65 C-12.95107762 63.36368108 -11.95093297 61.69514137 -11 60 C-8 59 -8 59 -6 59 C-4.02370431 56.76592661 -2.77545997 54.55091994 -1.4375 51.875 C0 49 0 49 2 47 C1.814375 46.360625 1.62875 45.72125 1.4375 45.0625 C1.293125 44.381875 1.14875 43.70125 1 43 C1.48210937 42.55914062 1.96421875 42.11828125 2.4609375 41.6640625 C4.20955816 40.0955999 4.20955816 40.0955999 4.29296875 37.73828125 C4.24076172 36.53751953 4.24076172 36.53751953 4.1875 35.3125 C4.16042969 34.50425781 4.13335937 33.69601563 4.10546875 32.86328125 C4.05326172 31.94095703 4.05326172 31.94095703 4 31 C4.66 30.67 5.32 30.34 6 30 C6.33 29.01 6.66 28.02 7 27 C7.65313155 25.47330499 8.32096316 23.9528506 9 22.4375 C9.5259375 21.25994141 9.5259375 21.25994141 10.0625 20.05859375 C10.68381293 18.69429411 11.32957576 17.34084847 12 16 C12.66 16.33 13.32 16.66 14 17 C14 16.34 14 15.68 14 15 C13.01 15 12.02 15 11 15 C11 14.34 11 13.68 11 13 C9.02 13.33 7.04 13.66 5 14 C2.84622436 11.37801226 1.59927826 9.35595828 1 6 C0.01 6.33 -0.98 6.66 -2 7 C-1.125 2.25 -1.125 2.25 0 0 Z " fill="#F5C093" transform="translate(79,18)"/>
<path d="M0 0 C0.495 1.485 0.495 1.485 1 3 C1.66 3 2.32 3 3 3 C3.33 2.01 3.66 1.02 4 0 C4.6875 1.625 4.6875 1.625 5 4 C3.5625 7.25 3.5625 7.25 2 10 C2.66 10 3.32 10 4 10 C4 11.32 4 12.64 4 14 C3.34 14 2.68 14 2 14 C2.08636719 15.04414063 2.17273438 16.08828125 2.26171875 17.1640625 C1.80531688 23.85341531 -3.15763964 27.74618888 -8 32 C-14.65541101 37.3361257 -21.86210308 42.28736769 -30 45 C-30 45.66 -30 46.32 -30 47 C-36.01113192 48.74115545 -41.38179579 49.30945909 -47.625 49.25 C-48.85476562 49.26160156 -48.85476562 49.26160156 -50.109375 49.2734375 C-54.7646469 49.25846878 -58.67598762 48.9369393 -63 47 C-63.33 46.34 -63.66 45.68 -64 45 C-62.60587891 45.05220703 -62.60587891 45.05220703 -61.18359375 45.10546875 C-51.65179401 45.40965784 -51.65179401 45.40965784 -43 42 C-42.67 41.34 -42.34 40.68 -42 40 C-41.01 40 -40.02 40 -39 40 C-38.67 39.34 -38.34 38.68 -38 38 C-37.34 38 -36.68 38 -36 38 C-35.67 36.35 -35.34 34.7 -35 33 C-34.34 33.99 -33.68 34.98 -33 36 C-27.4532089 34.80363329 -24.84274772 33.39171168 -21 29 C-20.34 28.34 -19.68 27.68 -19 27 C-18.34 27 -17.68 27 -17 27 C-16.34 26.67 -15.68 26.34 -15 26 C-15.495 24.02 -15.495 24.02 -16 22 C-13.525 22.99 -13.525 22.99 -11 24 C-10.855625 22.9275 -10.71125 21.855 -10.5625 20.75 C-10.16250558 18.08337051 -9.72408076 15.58600271 -9 13 C-8.34 13 -7.68 13 -7 13 C-7.495 10.525 -7.495 10.525 -8 8 C-7.4225 8.185625 -6.845 8.37125 -6.25 8.5625 C-3.79307475 9.04023546 -2.35602466 8.75729364 0 8 C0 5.36 0 2.72 0 0 Z " fill="#DB8148" transform="translate(151,134)"/>
<path d="M0 0 C0.66 0 1.32 0 2 0 C3.12029814 5.48946087 2.79217969 8.83430559 1 14 C0.01 14 -0.98 14 -2 14 C-1.773125 14.598125 -1.54625 15.19625 -1.3125 15.8125 C-1.209375 16.534375 -1.10625 17.25625 -1 18 C-1.495 18.45375 -1.99 18.9075 -2.5 19.375 C-2.995 19.91125 -3.49 20.4475 -4 21 C-3.76716851 24.14921909 -3.76716851 24.14921909 -3 27 C-3.99 26.67 -4.98 26.34 -6 26 C-6.33 27.65 -6.66 29.3 -7 31 C-6.34 31 -5.68 31 -5 31 C-6 33 -7 35 -8 37 C-6.35 37.66 -4.7 38.32 -3 39 C-3.556875 40.36125 -3.556875 40.36125 -4.125 41.75 C-5.30359299 44.88097015 -5.30359299 44.88097015 -4.125 47.375 C-3.75375 47.91125 -3.3825 48.4475 -3 49 C-5 52 -5 52 -6 53 C-6 53.99 -6 54.98 -6 56 C-7.32 56.66 -8.64 57.32 -10 58 C-10.33 56.68 -10.66 55.36 -11 54 C-12.32 55.32 -13.64 56.64 -15 58 C-13.0745356 60.2236068 -13.0745356 60.2236068 -10 61 C-10.66 62.32 -11.32 63.64 -12 65 C-12.66 65 -13.32 65 -14 65 C-14 65.66 -14 66.32 -14 67 C-16 67 -16 67 -18.125 65.625 C-20.94963612 61.67050943 -20.62531269 57.71892949 -20 53 C-19.50306641 51.83404297 -19.50306641 51.83404297 -18.99609375 50.64453125 C-17.71066551 47.23184528 -17.75654607 44.26627166 -17.6875 40.625 C-17.16924517 28.31893249 -13.12671819 16.13415681 -6 6 C-2.56304348 3 -2.56304348 3 0 3 C0 2.01 0 1.02 0 0 Z " fill="#F4B274" transform="translate(57,30)"/>
<path d="M0 0 C0.66 0.33 1.32 0.66 2 1 C2 1.66 2 2.32 2 3 C1.34 3 0.68 3 0 3 C0 3.99 0 4.98 0 6 C0.99 5.67 1.98 5.34 3 5 C3.99 5.99 4.98 6.98 6 8 C5.34 8 4.68 8 4 8 C4 8.66 4 9.32 4 10 C5.32 10.66 6.64 11.32 8 12 C8 12.99 8 13.98 8 15 C8.99 15.33 9.98 15.66 11 16 C10.01 16.495 10.01 16.495 9 17 C9 17.66 9 18.32 9 19 C7.68 19.33 6.36 19.66 5 20 C5.33 18.35 5.66 16.7 6 15 C4.02 15.99 4.02 15.99 2 17 C2 17.99 2 18.98 2 20 C2.66 20.33 3.32 20.66 4 21 C4 21.66 4 22.32 4 23 C4.66 23 5.32 23 6 23 C5.835 23.928125 5.67 24.85625 5.5 25.8125 C4.92251612 28.95621353 4.92251612 28.95621353 5 32 C0.44799679 33.17471051 -1.44352886 32.55113911 -6 31 C-6 31.99 -6 32.98 -6 34 C-7.485 33.505 -7.485 33.505 -9 33 C-9.33 33.66 -9.66 34.32 -10 35 C-10.66 33.68 -11.32 32.36 -12 31 C-13.65 32.98 -15.3 34.96 -17 37 C-17.66 35.68 -18.32 34.36 -19 33 C-19.33 34.32 -19.66 35.64 -20 37 C-20.66 37 -21.32 37 -22 37 C-22 37.66 -22 38.32 -22 39 C-22.66 39 -23.32 39 -24 39 C-24 39.66 -24 40.32 -24 41 C-23.34 41.33 -22.68 41.66 -22 42 C-22.495 44.475 -22.495 44.475 -23 47 C-24.98 46.34 -26.96 45.68 -29 45 C-28.64989059 35.82713348 -28.64989059 35.82713348 -25.9375 32.375 C-24.9784375 31.694375 -24.9784375 31.694375 -24 31 C-23.34 31.33 -22.68 31.66 -22 32 C-21.67 31.01 -21.34 30.02 -21 29 C-20.01 29 -19.02 29 -18 29 C-18 27.68 -18 26.36 -18 25 C-17.34 25 -16.68 25 -16 25 C-15.34 24.01 -14.68 23.02 -14 22 C-13.34 22 -12.68 22 -12 22 C-12 21.34 -12 20.68 -12 20 C-12.66 20 -13.32 20 -14 20 C-12.125 15.25 -12.125 15.25 -11 13 C-10.01 14.485 -10.01 14.485 -9 16 C-8.34 15.67 -7.68 15.34 -7 15 C-7 14.34 -7 13.68 -7 13 C-7.66 13 -8.32 13 -9 13 C-8.34 11.68 -7.68 10.36 -7 9 C-6.01 9.33 -5.02 9.66 -4 10 C-4.33 9.34 -4.66 8.68 -5 8 C-5.66 8 -6.32 8 -7 8 C-6.62952882 5.25851328 -6.31412056 3.41406801 -4.625 1.1875 C-3 0 -3 0 0 0 Z " fill="#F0AD68" transform="translate(120,21)"/>
<path d="M0 0 C1.32 0 2.64 0 4 0 C4.08226668 3.04386724 3.97608217 5.07175348 3 8 C3.99 8.33 4.98 8.66 6 9 C4.02 9.99 4.02 9.99 2 11 C2.66 11.45375 3.32 11.9075 4 12.375 C4.66 12.91125 5.32 13.4475 6 14 C6 14.66 6 15.32 6 16 C7.65 15.01 9.3 14.02 11 13 C14.07692308 17.30769231 14.07692308 17.30769231 13.6875 20.8125 C13.460625 21.534375 13.23375 22.25625 13 23 C12.01 23 11.02 23 10 23 C6.54872431 24.29422838 5.10159098 26.03866725 3 29 C0.50907189 30.24546405 -0.41080733 29.7767578 -3 29 C-3.495 30.485 -3.495 30.485 -4 32 C-4.66 31.01 -5.32 30.02 -6 29 C-6.33 29.99 -6.66 30.98 -7 32 C-7.66 32 -8.32 32 -9 32 C-9.33 32.99 -9.66 33.98 -10 35 C-11.485 34.505 -11.485 34.505 -13 34 C-13.309375 34.928125 -13.309375 34.928125 -13.625 35.875 C-15.60773021 38.93921942 -17.49693987 39.10013134 -21 40 C-23.66787642 40.13474123 -26.21646441 40.19197861 -28.875 40.125 C-29.56335938 40.11597656 -30.25171875 40.10695312 -30.9609375 40.09765625 C-32.64077838 40.07432513 -34.32043746 40.03846326 -36 40 C-36 39.34 -36 38.68 -36 38 C-34.54263913 37.80508548 -33.08405407 37.61930642 -31.625 37.4375 C-30.40683594 37.28087891 -30.40683594 37.28087891 -29.1640625 37.12109375 C-27 37 -27 37 -25 38 C-24.67 37.01 -24.34 36.02 -24 35 C-23.01 35.33 -22.02 35.66 -21 36 C-20.67 35.34 -20.34 34.68 -20 34 C-19.34 34 -18.68 34 -18 34 C-18.7018576 31.1490712 -18.7018576 31.1490712 -20 30 C-19.34 28.68 -18.68 27.36 -18 26 C-17.34 26 -16.68 26 -16 26 C-16 27.98 -16 29.96 -16 32 C-14.35 31.67 -12.7 31.34 -11 31 C-11 30.01 -11 29.02 -11 28 C-12.32 28.33 -13.64 28.66 -15 29 C-14.67 27.02 -14.34 25.04 -14 23 C-13.34 23 -12.68 23 -12 23 C-12 22.34 -12 21.68 -12 21 C-10.5 19.375 -10.5 19.375 -9 18 C-9.66 18 -10.32 18 -11 18 C-11.33 18.66 -11.66 19.32 -12 20 C-11.67 18.35 -11.34 16.7 -11 15 C-10.34 15 -9.68 15 -9 15 C-9 15.66 -9 16.32 -9 17 C-8.34 17 -7.68 17 -7 17 C-6.7525 16.071875 -6.505 15.14375 -6.25 14.1875 C-4.93545755 10.83541675 -4.02036616 9.8122197 -1 8 C-1.66 7.67 -2.32 7.34 -3 7 C-3 7.66 -3 8.32 -3 9 C-4.98 9.99 -4.98 9.99 -7 11 C-7.99 10.34 -8.98 9.68 -10 9 C-9.67 7.68 -9.34 6.36 -9 5 C-6.03 5.495 -6.03 5.495 -3 6 C-3 5.34 -3 4.68 -3 4 C-1.35 3.67 0.3 3.34 2 3 C2 2.34 2 1.68 2 1 C1.34 0.67 0.68 0.34 0 0 Z " fill="#DE834E" transform="translate(122,140)"/>
<path d="M0 0 C0.66 0 1.32 0 2 0 C2 2.31 2 4.62 2 7 C3.98 6.34 5.96 5.68 8 5 C8.33 6.32 8.66 7.64 9 9 C10.32 9.33 11.64 9.66 13 10 C13 10.99 13 11.98 13 13 C12.34 13.66 11.68 14.32 11 15 C11.66 15.33 12.32 15.66 13 16 C13.12375 16.969375 13.2475 17.93875 13.375 18.9375 C13.6491645 22.11582828 13.6491645 22.11582828 16.0625 23.375 C17.0215625 23.684375 17.0215625 23.684375 18 24 C18 24.66 18 25.32 18 26 C23.9858485 27.73671981 29.284636 28.28227682 35.5 28.1875 C36.30308594 28.18685547 37.10617188 28.18621094 37.93359375 28.18554688 C43.03366162 28.14835027 47.95182375 27.72364912 53 27 C53 26.34 53 25.68 53 25 C56.15470581 22.63397064 59.31809576 20.8120692 62.875 19.125 C67.34552347 16.96741145 71.13188578 14.08626134 75 11 C75.99 11.66 76.98 12.32 78 13 C78 13.66 78 14.32 78 15 C76.88625 15.20625 75.7725 15.4125 74.625 15.625 C70.76851127 16.60648404 70.76851127 16.60648404 69.625 19.9375 C69.41875 20.948125 69.2125 21.95875 69 23 C68.505 24.485 68.505 24.485 68 26 C68.495 26.99 68.495 26.99 69 28 C61.70186575 30.94486119 55.17669366 32.12488575 47.25390625 32.1328125 C45.37928711 32.13474609 45.37928711 32.13474609 43.46679688 32.13671875 C41.53416992 32.13091797 41.53416992 32.13091797 39.5625 32.125 C38.27794922 32.12886719 36.99339844 32.13273437 35.66992188 32.13671875 C17.6524019 32.11815356 17.6524019 32.11815356 11 28 C10.34 27.01 9.68 26.02 9 25 C9.33 24.34 9.66 23.68 10 23 C8.89764064 22.03958829 7.79303376 21.08175593 6.6875 20.125 C5.76517578 19.32449219 5.76517578 19.32449219 4.82421875 18.5078125 C2.86501788 16.8359553 2.86501788 16.8359553 0 15 C-0.1875 11.375 -0.1875 11.375 0 8 C-0.66 8 -1.32 8 -2 8 C-3.625 6 -3.625 6 -5 4 C-3.35 3.34 -1.7 2.68 0 2 C0 1.34 0 0.68 0 0 Z " fill="#EBA078" transform="translate(68,154)"/>
<path d="M0 0 C0.99 0.33 1.98 0.66 3 1 C3 2.32 3 3.64 3 5 C4.65 4.34 6.3 3.68 8 3 C8.33 3.99 8.66 4.98 9 6 C8.67 6.66 8.34 7.32 8 8 C9.32 7.67 10.64 7.34 12 7 C12 8.98 12 10.96 12 13 C11.01 13.495 11.01 13.495 10 14 C10 14.66 10 15.32 10 16 C10.99 16 11.98 16 13 16 C13.9702889 18.91086669 14.16467847 20.90223685 14.1875 23.9375 C14.20167969 24.79214844 14.21585938 25.64679688 14.23046875 26.52734375 C13.89903872 30.08319471 12.38421061 32.36521726 10.5625 35.375 C8.88981467 38.18511136 7.43465098 41.06238133 6 44 C5.731875 43.360625 5.46375 42.72125 5.1875 42.0625 C4.11332248 39.66868314 4.11332248 39.66868314 1 39 C1.33 39.99 1.66 40.98 2 42 C1.01 41.67 0.02 41.34 -1 41 C-3.14255793 41.38932856 -3.14255793 41.38932856 -5 42 C-5 37.73173127 -4.62386487 37.06117568 -2 34 C-2.99 33.01 -3.98 32.02 -5 31 C-3.66666667 26.33333333 -2.33333333 21.66666667 -1 17 C-1.66 16.34 -2.32 15.68 -3 15 C-2.6875 12.8125 -2.6875 12.8125 -2 10 C-1.835 8.80375 -1.67 7.6075 -1.5 6.375 C-1 3 -1 3 0 0 Z " fill="#E08E4B" transform="translate(151,74)"/>
<path d="M0 0 C3.36581195 2.65155534 4.30961013 6.10977684 5.5 10.0625 C5.71358154 10.76713379 5.92716309 11.47176758 6.1472168 12.19775391 C13.75655363 38.3600636 13.97593662 67.55629484 1 92 C-0.55727006 94.80864779 -2.14103562 97.3755797 -4 100 C-4.33 100 -4.66 100 -5 100 C-5 98.35 -5 96.7 -5 95 C-4.34 95 -3.68 95 -3 95 C-3 93.68 -3 92.36 -3 91 C-3.66 91 -4.32 91 -5 91 C-4.7452486 89.68428397 -4.47065859 88.37239624 -4.1875 87.0625 C-4.03667969 86.33160156 -3.88585937 85.60070312 -3.73046875 84.84765625 C-3.48941406 84.23792969 -3.24835938 83.62820312 -3 83 C-1.515 82.505 -1.515 82.505 0 82 C0 80.35 0 78.7 0 77 C0.66 77 1.32 77 2 77 C1.34165348 75.68330696 0.67517171 74.3706452 0 73.0625 C-1 71 -1 71 -2 68 C0.475 67.505 0.475 67.505 3 67 C3.16687448 64.58354218 3.16687448 64.58354218 3 62 C2.34 61.34 1.68 60.68 1 60 C1.433125 58.948125 1.433125 58.948125 1.875 57.875 C3.02133588 54.94547497 4.02625654 51.99078347 5 49 C5.33 49 5.66 49 6 49 C6 45.04 6 41.08 6 37 C4.02 37.495 4.02 37.495 2 38 C2.33 36.68 2.66 35.36 3 34 C3.33 34 3.66 34 4 34 C4.22975873 25.02664514 4.38231538 16.69108674 0.875 8.3125 C-0.20834223 5.44938126 -0.14114994 3.03472369 0 0 Z " fill="#DF905B" transform="translate(158,53)"/>
<path d="M0 0 C0.66 0 1.32 0 2 0 C2 0.66 2 1.32 2 2 C2.99 2 3.98 2 5 2 C5.33 2.66 5.66 3.32 6 4 C6.99 4.33 7.98 4.66 9 5 C9.33 5.99 9.66 6.98 10 8 C10.99 8.66 11.98 9.32 13 10 C13.765625 12.2421875 13.765625 12.2421875 14.25 14.875 C14.42015625 15.73867188 14.5903125 16.60234375 14.765625 17.4921875 C14.99778803 19.97633196 14.76635351 21.64619994 14 24 C15.32 24.33 16.64 24.66 18 25 C18.11133607 29.00809841 17.74051371 32.23415961 16.1875 35.9375 C15.89412912 39.16457969 17.99711184 40.58475251 20 43 C20.75 45.8125 20.75 45.8125 21 48 C18.35831079 47.64301497 16.39109264 47.247692 14.125 45.8125 C13 44 13 44 13.3125 40.8125 C13.539375 39.884375 13.76625 38.95625 14 38 C12.68 37.34 11.36 36.68 10 36 C10.185625 35.484375 10.37125 34.96875 10.5625 34.4375 C11.15419517 31.14091261 10.567267 28.27754265 10 25 C9.34 25 8.68 25 8 25 C7.67 23.68 7.34 22.36 7 21 C6.34 21.33 5.68 21.66 5 22 C5.2475 21.2575 5.495 20.515 5.75 19.75 C5.8325 18.8425 5.915 17.935 6 17 C4.16641665 14.66545339 4.16641665 14.66545339 2 13 C2.99 13 3.98 13 5 13 C5 12.34 5 11.68 5 11 C4.01 10.67 3.02 10.34 2 10 C2 8.33333333 2 6.66666667 2 5 C1.34 4.67 0.68 4.34 0 4 C0 2.68 0 1.36 0 0 Z " fill="#E39349" transform="translate(130,20)"/>
<path d="M0 0 C0.763125 0.061875 1.52625 0.12375 2.3125 0.1875 C2.3125 1.5075 2.3125 2.8275 2.3125 4.1875 C0.3359375 6.00390625 0.3359375 6.00390625 -2.3125 7.75 C-3.22386719 8.35199219 -4.13523438 8.95398438 -5.07421875 9.57421875 C-8.84144834 11.89987767 -12.48960887 13.78820296 -16.6875 15.1875 C-16.6875 15.8475 -16.6875 16.5075 -16.6875 17.1875 C-22.69863192 18.92865545 -28.06929579 19.49695909 -34.3125 19.4375 C-35.13234375 19.44523437 -35.9521875 19.45296875 -36.796875 19.4609375 C-41.4521469 19.44596878 -45.36348762 19.1244393 -49.6875 17.1875 C-50.0175 16.5275 -50.3475 15.8675 -50.6875 15.1875 C-49.31078125 15.20490234 -49.31078125 15.20490234 -47.90625 15.22265625 C-38.04603193 15.29515785 -29.83264661 15.01484506 -20.6875 11.1875 C-19.49125 10.73375 -18.295 10.28 -17.0625 9.8125 C-13.30946731 8.00548426 -10.82856687 5.89027847 -7.6875 3.1875 C-7.0275 3.1875 -6.3675 3.1875 -5.6875 3.1875 C-5.254375 2.6925 -4.82125 2.1975 -4.375 1.6875 C-2.6875 0.1875 -2.6875 0.1875 0 0 Z " fill="#CC6A3F" transform="translate(137.6875,163.8125)"/>
<path d="M0 0 C2.0625 0.4375 2.0625 0.4375 4 1 C4.3432555 4.39267284 4.61535456 7.78748766 4.875 11.1875 C5.02195312 12.62706055 5.02195312 12.62706055 5.171875 14.09570312 C5.65763091 21.11487607 5.65763091 21.11487607 3.66894531 23.79150391 C2.0078125 25.17578125 2.0078125 25.17578125 -1 27 C0.72226496 30.24849977 0.72226496 30.24849977 4 31 C3.34 32.32 2.68 33.64 2 35 C1.34 35 0.68 35 0 35 C0 35.66 0 36.32 0 37 C-2 37 -2 37 -4.125 35.625 C-6.97897037 31.62944148 -6.54570487 27.76322394 -6 23 C-5.36096883 21.32254318 -4.69658363 19.65438613 -4 18 C-4.03222957 16.06622593 -4.0660851 14.13236384 -4.125 12.19921875 C-3.90681871 8.36059161 -2.80839132 2.80839132 0 0 Z " fill="#F2A95A" transform="translate(43,60)"/>
<path d="M0 0 C1.485 0.99 1.485 0.99 3 2 C3.99 1.34 4.98 0.68 6 0 C6.33 1.65 6.66 3.3 7 5 C8.98 4.34 10.96 3.68 13 3 C13 3.66 13 4.32 13 5 C14.98 4.67 16.96 4.34 19 4 C18.67 4.99 18.34 5.98 18 7 C18.33 7.66 18.66 8.32 19 9 C18.59255295 11.0571802 18.10151304 13.09831097 17.5625 15.125 C17.13130859 16.76855469 17.13130859 16.76855469 16.69140625 18.4453125 C16.46324219 19.28835937 16.23507813 20.13140625 16 21 C10.375 21.25 10.375 21.25 7 19 C6.3125 15.875 6.3125 15.875 6 13 C5.01 12.67 4.02 12.34 3 12 C2.67 11.34 2.34 10.68 2 10 C3.32 10 4.64 10 6 10 C4.27773504 6.75150023 4.27773504 6.75150023 1 6 C0.67 4.02 0.34 2.04 0 0 Z " fill="#E79568" transform="translate(75,157)"/>
<path d="M0 0 C0.99 0.66 1.98 1.32 3 2 C3 2.66 3 3.32 3 4 C1.329375 4.309375 1.329375 4.309375 -0.375 4.625 C-4.23148873 5.60648404 -4.23148873 5.60648404 -5.375 8.9375 C-5.58125 9.948125 -5.7875 10.95875 -6 12 C-6.33 12.99 -6.66 13.98 -7 15 C-6.505 15.99 -6.505 15.99 -6 17 C-13.29813425 19.94486119 -19.82330634 21.12488575 -27.74609375 21.1328125 C-29.62071289 21.13474609 -29.62071289 21.13474609 -31.53320312 21.13671875 C-33.46583008 21.13091797 -33.46583008 21.13091797 -35.4375 21.125 C-37.36432617 21.13080078 -37.36432617 21.13080078 -39.33007812 21.13671875 C-57.3475981 21.11815356 -57.3475981 21.11815356 -64 17 C-64.66 16.01 -65.32 15.02 -66 14 C-65.67 13.34 -65.34 12.68 -65 12 C-65.99 11.01 -66.98 10.02 -68 9 C-64.508067 9.64665426 -61.84610101 10.86542424 -59 13 C-59 14.32 -59 15.64 -59 17 C-52.48381576 18.25191159 -46.03060712 18.18604898 -39.42480469 18.18530273 C-37.26997843 18.18747982 -35.11567283 18.20564337 -32.9609375 18.22460938 C-25.44954594 18.25422022 -18.30685397 17.94812647 -11 16 C-11.226875 14.845 -11.45375 13.69 -11.6875 12.5 C-11.73046875 10.3125 -11.73046875 10.3125 -11 8 C-7.64397616 4.83131402 -3.93195016 2.40002153 0 0 Z " fill="#D5C0BF" transform="translate(143,165)"/>
<path d="M0 0 C9.59048102 14.38572153 5.76665909 41.50454235 2.62597656 57.47119141 C1.00748823 64.0095308 -1.92248171 70.03888923 -5 76 C-6 73 -6 73 -5.1640625 71.26953125 C-4.58785156 70.14611328 -4.58785156 70.14611328 -4 69 C-3.39764948 66.57678254 -2.86232732 64.13644286 -2.375 61.6875 C-2.11460937 60.41261719 -1.85421875 59.13773438 -1.5859375 57.82421875 C-0.59162897 51.35622109 -0.59162897 51.35622109 -1.6875 45 C-2 43 -2 43 -0.53515625 39.9296875 C1.37415619 35.62303458 1.37678087 31.77603291 1.25 27.125 C1.23904297 26.30797607 1.22808594 25.49095215 1.21679688 24.64916992 C1.07102166 16.42000073 0.58853664 8.20798425 0 0 Z " fill="#E1AA8D" transform="translate(164,69)"/>
<path d="M0 0 C0.99 0.33 1.98 0.66 3 1 C3 1.66 3 2.32 3 3 C3.70125 2.896875 4.4025 2.79375 5.125 2.6875 C11.39053908 3.36853686 15.62989421 9.64848924 19.58203125 14.1328125 C21 16 21 16 22 19 C20.68 19 19.36 19 18 19 C17.67 18.01 17.34 17.02 17 16 C16.01 15.34 15.02 14.68 14 14 C14 13.01 14 12.02 14 11 C12.68 10.67 11.36 10.34 10 10 C10 9.34 10 8.68 10 8 C9.01 8 8.02 8 7 8 C7 7.34 7 6.68 7 6 C6.34 6 5.68 6 5 6 C6.27624119 9.63473078 6.27624119 9.63473078 8.625 12.625 C9.07875 13.07875 9.5325 13.5325 10 14 C10 16.33333333 10 18.66666667 10 21 C10.66 21.66 11.32 22.32 12 23 C12 23.99 12 24.98 12 26 C12.33 26 12.66 26 13 26 C13 27.65 13 29.3 13 31 C13.66 31.33 14.32 31.66 15 32 C14.01 32.495 14.01 32.495 13 33 C12.01 32.01 11.02 31.02 10 30 C9.67 30.66 9.34 31.32 9 32 C8.67 30.02 8.34 28.04 8 26 C6.68 26 5.36 26 4 26 C4.66 23.36 5.32 20.72 6 18 C5.34 17.67 4.68 17.34 4 17 C3.375 13.9375 3.375 13.9375 3 11 C1.68 11 0.36 11 -1 11 C-0.67 9.02 -0.34 7.04 0 5 C-1.32 5.33 -2.64 5.66 -4 6 C-3.67 5.34 -3.34 4.68 -3 4 C-2.34 4 -1.68 4 -1 4 C-0.67 2.68 -0.34 1.36 0 0 Z " fill="#E89D4F" transform="translate(125,14)"/>
<path d="M0 0 C1.33333333 0.66666667 2.66666667 1.33333333 4 2 C4 2.99 4 3.98 4 5 C3.34 5.33 2.68 5.66 2 6 C1.38125 7.2375 1.38125 7.2375 0.75 8.5 C-1 11 -1 11 -3.9375 11.6875 C-4.948125 11.790625 -5.95875 11.89375 -7 12 C-9.59530715 13.11227449 -11.63137928 14.42091952 -14 16 C-14.66 16 -15.32 16 -16 16 C-16.5878125 16.61617187 -17.175625 17.23234375 -17.78125 17.8671875 C-20.28681211 20.27570319 -22.21873348 21.05227825 -25.5 22.125 C-29.39312322 23.40788925 -29.39312322 23.40788925 -33.109375 25.109375 C-36.02660817 26.48360881 -38.83151308 26.12186488 -42 26 C-42 25.67 -42 25.34 -42 25 C-41.030625 24.71125 -40.06125 24.4225 -39.0625 24.125 C-35.89335797 23.35785318 -35.89335797 23.35785318 -35 21 C-34.01 21 -33.02 21 -32 21 C-31.67 20.34 -31.34 19.68 -31 19 C-30.34 19 -29.68 19 -29 19 C-28.67 17.35 -28.34 15.7 -28 14 C-27.01 15.485 -27.01 15.485 -26 17 C-20.4532089 15.80363329 -17.84274772 14.39171168 -14 10 C-13.34 9.34 -12.68 8.68 -12 8 C-11.34 8 -10.68 8 -10 8 C-9.34 7.67 -8.68 7.34 -8 7 C-8.495 5.02 -8.495 5.02 -9 3 C-8.236875 3.350625 -7.47375 3.70125 -6.6875 4.0625 C-3.95240621 5.32360884 -3.95240621 5.32360884 -1 4 C-0.26676204 1.98491642 -0.26676204 1.98491642 0 0 Z " fill="#D67443" transform="translate(144,153)"/>
<path d="M0 0 C0.99 0 1.98 0 3 0 C4.20628008 2.33214148 5.1654738 4.49642139 6 7 C6.66 7 7.32 7 8 7 C8.18175781 8.12148438 8.18175781 8.12148438 8.3671875 9.265625 C8.53476563 10.25046875 8.70234375 11.2353125 8.875 12.25 C9.11863281 13.71179688 9.11863281 13.71179688 9.3671875 15.203125 C9.95275185 17.79117483 10.75980674 19.67963841 12 22 C13.07228916 26.71807229 13.0829243 31.19039074 13 36 C11.02 36.495 11.02 36.495 9 37 C8.34 32.05 7.68 27.1 7 22 C6.34 22 5.68 22 5 22 C4.731875 20.989375 4.46375 19.97875 4.1875 18.9375 C3.44185088 16.26603768 2.57895277 14.10932317 1.375 11.5625 C-0.2624072 7.32012679 -0.23685312 4.50020925 0 0 Z " fill="#D67932" transform="translate(150,45)"/>
<path d="M0 0 C0.33 0 0.66 0 1 0 C1.64719553 3.8539392 2.29251139 7.70819089 2.9375 11.5625 C3.11990234 12.64853516 3.30230469 13.73457031 3.49023438 14.85351562 C4.38879021 20.22851325 5.26401763 25.60021353 6 31 C6.66 31 7.32 31 8 31 C8.33 30.34 8.66 29.68 9 29 C9.67684298 32.03949302 10.33961872 35.08189165 11 38.125 C11.19078125 38.9809375 11.3815625 39.836875 11.578125 40.71875 C12.54920333 45.22732794 13.24359575 49.35645604 13 54 C5.3077826 45.09923889 3.01617054 33.32157306 1 22 C0.86722656 21.28457031 0.73445313 20.56914063 0.59765625 19.83203125 C-0.42093894 13.28790601 -0.08344283 6.60125466 0 0 Z " fill="#F5C3AA" transform="translate(35,91)"/>
<path d="M0 0 C2.90598539 0.54064844 4.84993077 0.22966066 7.6875 -0.5 C4.38572177 3.77288948 -0.62823521 4.2192892 -5.6875 5.0625 C-7.481875 5.2790625 -7.481875 5.2790625 -9.3125 5.5 C-10.256698 5.62507935 -10.256698 5.62507935 -11.2199707 5.75268555 C-24.70413426 7.43128434 -41.53520443 9.00484276 -54.3125 3.5 C-54.9725 2.84 -55.6325 2.18 -56.3125 1.5 C-55.26654663 1.60501831 -55.26654663 1.60501831 -54.19946289 1.7121582 C-46.03814791 2.4691866 -37.94357837 2.6832169 -29.75 2.6875 C-28.51314453 2.69974609 -27.27628906 2.71199219 -26.00195312 2.72460938 C-18.30556502 2.7368194 -6.84170612 -1.47928781 0 0 Z " fill="#ECE1E3" transform="translate(137.3125,182.5)"/>
<path d="M0 0 C0.33 0.99 0.66 1.98 1 3 C1.66 3.33 2.32 3.66 3 4 C5.29013653 7.4352048 5.17842973 8.985331 5 13 C5.66 13 6.32 13 7 13 C8.57917814 16.99439176 9.70510273 19.90775344 8 24 C5.4375 25.3125 5.4375 25.3125 3 26 C3.061875 25.236875 3.12375 24.47375 3.1875 23.6875 C3.30007713 20.9652429 3.30007713 20.9652429 1.5 19.5625 C1.005 19.046875 0.51 18.53125 0 18 C0.020625 17.0925 0.04125 16.185 0.0625 15.25 C-0.00125013 11.93499345 -0.35313044 11.02667875 -2 8.3125 C-4 5 -4 5 -4 2 C-2.68 1.34 -1.36 0.68 0 0 Z " fill="#DD863A" transform="translate(150,54)"/>
<path d="M0 0 C-0.25 2.875 -0.25 2.875 -1 6 C-7.12561758 10.76436923 -17.43318465 9.18612509 -24.79492188 9.18530273 C-26.99368526 9.18749371 -29.19194982 9.20569762 -31.390625 9.22460938 C-32.80208164 9.22754323 -34.21354063 9.22952808 -35.625 9.23046875 C-36.89601563 9.23457764 -38.16703125 9.23868652 -39.4765625 9.24291992 C-43.03805686 8.99737621 -45.74660651 8.46360345 -49 7 C-50.375 3.875 -50.375 3.875 -51 1 C-49.02 1.99 -49.02 1.99 -47 3 C-47 3.66 -47 4.32 -47 5 C-41.0141515 6.73671981 -35.715364 7.28227682 -29.5 7.1875 C-28.69691406 7.18685547 -27.89382812 7.18621094 -27.06640625 7.18554688 C-21.96633838 7.14835027 -17.04817625 6.72364912 -12 6 C-12 5.34 -12 4.68 -12 4 C-4.5 -1.5 -4.5 -1.5 0 0 Z " fill="#B49094" transform="translate(133,175)"/>
<path d="M0 0 C2.90883109 1.40896506 5.57299378 2.84975764 8 5 C8.5 8.8125 8.5 8.8125 8 12 C8.66 12 9.32 12 10 12 C10 12.66 10 13.32 10 14 C9.01 14 8.02 14 7 14 C7 14.66 7 15.32 7 16 C7.61875 16.0825 8.2375 16.165 8.875 16.25 C9.57625 16.4975 10.2775 16.745 11 17 C11.29003906 17.63550781 11.58007812 18.27101562 11.87890625 18.92578125 C13.27530452 21.50936133 14.37311879 21.87834261 17.0625 22.9375 C19.22265625 23.91796875 19.22265625 23.91796875 21 25 C22 27.75 22 27.75 22 30 C17.71723493 30 16.20973484 27.93386147 13.12890625 25.13671875 C9.70255514 21.69779387 6.82361098 17.93957395 4 14 C3.38125 13.175 2.7625 12.35 2.125 11.5 C0.45542185 7.78982633 0.25459194 4.02957591 0 0 Z " fill="#F0AE8D" transform="translate(47,137)"/>
<path d="M0 0 C0.66 0.33 1.32 0.66 2 1 C1.67 2.98 1.34 4.96 1 7 C0.01 7.33 -0.98 7.66 -2 8 C-2.33 7.67 -2.66 7.34 -3 7 C-2.01 7.99 -1.02 8.98 0 10 C-0.33 10.66 -0.66 11.32 -1 12 C-1.99 11.67 -2.98 11.34 -4 11 C-4 11.99 -4 12.98 -4 14 C-4.66 14 -5.32 14 -6 14 C-5.67 15.32 -5.34 16.64 -5 18 C-5.66 18.33 -6.32 18.66 -7 19 C-7.99 18.34 -8.98 17.68 -10 17 C-10 14 -10 14 -8 12 C-8.29868656 9.99453311 -8.63371323 7.99422795 -9 6 C-8.67 5.01 -8.34 4.02 -8 3 C-8.66 3 -9.32 3 -10 3 C-9.1875 1.0625 -9.1875 1.0625 -8 -1 C-4.34566236 -2.21811255 -3.39369816 -1.56632223 0 0 Z " fill="#F3BA7E" transform="translate(105,27)"/>
<path d="M0 0 C0.9585791 0.36557007 0.9585791 0.36557007 1.93652344 0.73852539 C6.15051713 2.53520256 8.95626981 4.92865602 12 8.3125 C11.01 8.3125 10.02 8.3125 9 8.3125 C9 7.6525 9 6.9925 9 6.3125 C5.7 5.3225 2.4 4.3325 -1 3.3125 C-1 2.6525 -1 1.9925 -1 1.3125 C-12.72643809 -0.07877232 -25.58820118 -1.29122594 -37 2.3125 C-37.33 2.9725 -37.66 3.6325 -38 4.3125 C-41.81995829 5.92537128 -44.05432816 6.51931069 -48 5.3125 C-45.75243216 4.16167315 -43.50218252 3.01673142 -41.25 1.875 C-40.29867187 1.38676758 -40.29867187 1.38676758 -39.328125 0.88867188 C-27.58295191 -5.04508745 -12.19070504 -4.65049601 0 0 Z " fill="#ECBA91" transform="translate(119,8.6875)"/>
<path d="M0 0 C0.66 0 1.32 0 2 0 C2 0.66 2 1.32 2 2 C2.99 2 3.98 2 5 2 C5.33 2.66 5.66 3.32 6 4 C6.99 4.33 7.98 4.66 9 5 C9.33 5.99 9.66 6.98 10 8 C10.99 8.66 11.98 9.32 13 10 C13.73046875 12.3828125 13.73046875 12.3828125 14.1875 15.125 C14.34605469 16.03507812 14.50460938 16.94515625 14.66796875 17.8828125 C14.77753906 18.58148438 14.88710937 19.28015625 15 20 C14.34 20.33 13.68 20.66 13 21 C9.75700849 18.61042731 7.49097658 16.7952131 6 13 C5.67 13.66 5.34 14.32 5 15 C4.01 14.34 3.02 13.68 2 13 C2.99 13 3.98 13 5 13 C5 12.34 5 11.68 5 11 C4.01 10.67 3.02 10.34 2 10 C2 8.33333333 2 6.66666667 2 5 C1.34 4.67 0.68 4.34 0 4 C0 2.68 0 1.36 0 0 Z " fill="#E08E40" transform="translate(130,20)"/>
<path d="M0 0 C-0.66 0 -1.32 0 -2 0 C-2 0.66 -2 1.32 -2 2 C-8.01113192 3.74115545 -13.38179579 4.30945909 -19.625 4.25 C-20.44484375 4.25773438 -21.2646875 4.26546875 -22.109375 4.2734375 C-26.7646469 4.25846878 -30.67598762 3.9369393 -35 2 C-35.33 1.34 -35.66 0.68 -36 0 C-35.20827393 0.00523682 -34.41654785 0.01047363 -33.60083008 0.01586914 C-30.00472816 0.03668937 -26.40863895 0.04967627 -22.8125 0.0625 C-21.56662109 0.07087891 -20.32074219 0.07925781 -19.03710938 0.08789062 C-17.2340332 0.09272461 -17.2340332 0.09272461 -15.39453125 0.09765625 C-14.28956299 0.10289307 -13.18459473 0.10812988 -12.04614258 0.11352539 C-0.90506055 -0.30168685 -0.90506055 -0.30168685 0 0 Z " fill="#693B3A" transform="translate(123,179)"/>
<path d="M0 0 C2.02910711 0.25327449 4.04962145 0.57730068 6.0625 0.9375 C7.16722656 1.13214844 8.27195312 1.32679687 9.41015625 1.52734375 C10.69212891 1.76130859 10.69212891 1.76130859 12 2 C11.67 5.63 11.34 9.26 11 13 C9.68 13 8.36 13 7 13 C7 12.01 7 11.02 7 10 C4.37403939 8.15473038 2.04872454 7.01624151 -1 6 C-1.042721 4.33388095 -1.04063832 2.66617115 -1 1 C-0.67 0.67 -0.34 0.34 0 0 Z " fill="#EEAA60" transform="translate(106,8)"/>
<path d="M0 0 C0.82020418 2.88711871 1.16181621 5.50013311 1.1875 8.5 C1.20167969 9.2528125 1.21585938 10.005625 1.23046875 10.78125 C1 13 1 13 0.0078125 14.9609375 C-1.2316683 17.46872423 -1.30002629 19.33920461 -1.3125 22.125 C-1.32925781 22.99382812 -1.34601562 23.86265625 -1.36328125 24.7578125 C-1.24339844 25.49773437 -1.12351563 26.23765625 -1 27 C-0.01 27.66 0.98 28.32 2 29 C2.2578125 31.0234375 2.2578125 31.0234375 2.125 33.375 C2.00376855 35.79154691 1.92248198 37.71081932 2.55078125 40.0546875 C3.2902385 43.25685888 1.9971673 45.94984119 1 49 C0.67 49 0.34 49 0 49 C-3.29649168 32.04661423 -4.08508183 16.92391043 0 0 Z " fill="#F5BD90" transform="translate(39,66)"/>
<path d="M0 0 C3.491933 0.64665426 6.15389899 1.86542424 9 4 C9 5.32 9 6.64 9 8 C17.60299662 9.66920887 25.99754006 10.38737665 34.75 10.625 C36.52890625 10.68300781 36.52890625 10.68300781 38.34375 10.7421875 C41.22902375 10.83526085 44.11431021 10.92108941 47 11 C47 11.33 47 11.66 47 12 C43.01644868 12.02493556 39.03292833 12.04297028 35.04931641 12.05493164 C33.03676759 12.06236421 31.02424051 12.07507829 29.01171875 12.08789062 C10.677928 12.13395543 10.677928 12.13395543 4 8 C3.34 7.01 2.68 6.02 2 5 C2.33 4.34 2.66 3.68 3 3 C2.01 2.01 1.02 1.02 0 0 Z " fill="#DCC9CD" transform="translate(75,174)"/>
<path d="M0 0 C0.66 0.33 1.32 0.66 2 1 C2.66719444 4.06909445 3 6.85786017 3 10 C3.66 10.33 4.32 10.66 5 11 C5 12.98 5 14.96 5 17 C5.66 17.33 6.32 17.66 7 18 C8.26229508 22.47540984 8.26229508 22.47540984 7 25 C5.68 25 4.36 25 3 25 C3 23.68 3 22.36 3 21 C2.34 21 1.68 21 1 21 C1 20.34 1 19.68 1 19 C1.66 19 2.32 19 3 19 C3 18.34 3 17.68 3 17 C2.01 16.67 1.02 16.34 0 16 C0.33 15.34 0.66 14.68 1 14 C0.67 13.195625 0.34 12.39125 0 11.5625 C-1 9 -1 9 0 6 C-0.66 5.01 -1.32 4.02 -2 3 C-1.34 2.01 -0.68 1.02 0 0 Z " fill="#E59C57" transform="translate(139,47)"/>
<path d="M0 0 C0.33 0 0.66 0 1 0 C1.67684298 3.03949302 2.33961872 6.08189165 3 9.125 C3.28617188 10.40890625 3.28617188 10.40890625 3.578125 11.71875 C4.54920333 16.22732794 5.24359575 20.35645604 5 25 C-0.74708519 18.48663678 -1.2203663 13.03490026 -1.16796875 4.609375 C-1 2 -1 2 0 0 Z " fill="#F3BB9D" transform="translate(43,120)"/>
<path d="M0 0 C1.32 1.32 2.64 2.64 4 4 C-3.56467182 9.04311454 -13.24698792 8.24695018 -22 8 C-22 7.67 -22 7.34 -22 7 C-20.845 6.896875 -19.69 6.79375 -18.5 6.6875 C-11.76915808 5.84317177 -5.97120786 3.13488413 0 0 Z " fill="#C3603E" transform="translate(123,172)"/>
<path d="M0 0 C7.0116951 1.03876965 11.92136288 7.66049388 16 13 C16.33 13.99 16.66 14.98 17 16 C15.68 16 14.36 16 13 16 C12.67 15.01 12.34 14.02 12 13 C11.01 12.34 10.02 11.68 9 11 C9 10.01 9 9.02 9 8 C7.68 7.67 6.36 7.34 5 7 C5 6.34 5 5.68 5 5 C4.01 5 3.02 5 2 5 C2 4.34 2 3.68 2 3 C1.34 3 0.68 3 0 3 C0 2.01 0 1.02 0 0 Z " fill="#E1A16C" transform="translate(130,17)"/>
<path d="M0 0 C2.875 0.75 2.875 0.75 6 2 C6.46599609 2.96873047 6.46599609 2.96873047 6.94140625 3.95703125 C8.28059342 6.54151423 9.39778512 6.88805693 12.0625 7.9375 C14.22265625 8.91796875 14.22265625 8.91796875 16 10 C17 12.75 17 12.75 17 15 C12.70588533 15 11.16691945 12.88527932 8.07421875 10.08984375 C5.00048596 6.99295666 2.46341302 3.59247731 0 0 Z " fill="#E9B8A9" transform="translate(52,152)"/>
<path d="M0 0 C0.268125 0.639375 0.53625 1.27875 0.8125 1.9375 C1.88667752 4.33131686 1.88667752 4.33131686 5 5 C5.66 5.66 6.32 6.32 7 7 C7.99 7.33 8.98 7.66 10 8 C9.34 9.32 8.68 10.64 8 12 C7.34 12 6.68 12 6 12 C6 12.66 6 13.32 6 14 C4 14 4 14 1.875 12.625 C-0.96841605 8.64421752 -0.32581856 4.74247013 0 0 Z " fill="#F3B16C" transform="translate(37,83)"/>
<path d="M0 0 C0.33 0 0.66 0 1 0 C1.19534474 2.41626418 1.38153404 4.83265229 1.5625 7.25 C1.61857422 7.93191406 1.67464844 8.61382812 1.73242188 9.31640625 C2.22300016 16.05368142 2.22300016 16.05368142 1 19 C-1.5625 21.25 -1.5625 21.25 -4 23 C-4.66 21.68 -5.32 20.36 -6 19 C-4.68 19 -3.36 19 -2 19 C-2.33 18.01 -2.66 17.02 -3 16 C-2.34 16 -1.68 16 -1 16 C-1.33 13.36 -1.66 10.72 -2 8 C-1.34 8 -0.68 8 0 8 C-0.2784375 6.2984375 -0.2784375 6.2984375 -0.5625 4.5625 C-0.706875 3.386875 -0.85125 2.21125 -1 1 C-0.67 0.67 -0.34 0.34 0 0 Z " fill="#F4AE67" transform="translate(46,64)"/>
<path d="M0 0 C4.82360189 -0.19294408 8.49646738 0.24252386 13 2 C13.33 4.31 13.66 6.62 14 9 C11.07377109 7.55362598 8.18213061 6.05576668 5.3125 4.5 C4.52488281 4.0771875 3.73726563 3.654375 2.92578125 3.21875 C1 2 1 2 0 0 Z " fill="#E39E85" transform="translate(68,168)"/>
<path d="M0 0 C3.5117964 3.15440119 5.55209593 6.46401067 7.75 10.625 C8.36359375 11.77226563 8.9771875 12.91953125 9.609375 14.1015625 C11 17 11 17 11 19 C10.34 19 9.68 19 9 19 C8.34 18.34 7.68 17.68 7 17 C6.67 17 6.34 17 6 17 C6 15.35 6 13.7 6 12 C5.34 12 4.68 12 4 12 C3.87625 11.360625 3.7525 10.72125 3.625 10.0625 C3.41875 9.381875 3.2125 8.70125 3 8 C2.34 7.67 1.68 7.34 1 7 C0.59270772 4.67843403 0.25561323 2.3431213 0 0 Z " fill="#D9935F" transform="translate(147,33)"/>
<path d="M0 0 C0.33 0.99 0.66 1.98 1 3 C-2.24516418 6.89419701 -5.06868227 7.99702012 -10 9 C-12.33215844 9.07403678 -14.66860788 9.09515886 -17 9 C-17 8.67 -17 8.34 -17 8 C-14.36 7.67 -11.72 7.34 -9 7 C-9 6.34 -9 5.68 -9 5 C-6.03812728 2.82796 -3.49314009 1.16438003 0 0 Z " fill="#987671" transform="translate(130,174)"/>
<path d="M0 0 C0.99 0.66 1.98 1.32 3 2 C3 2.66 3 3.32 3 4 C1.329375 4.309375 1.329375 4.309375 -0.375 4.625 C-1.57125 5.07875 -2.7675 5.5325 -4 6 C-5.39619529 8.93798554 -5.39619529 8.93798554 -6 12 C-6.66 12.66 -7.32 13.32 -8 14 C-9 13 -9 13 -9.625 10.375 C-8.72447177 5.51214756 -5.86809835 4.10040345 -1.96875 1.3203125 C-1.3190625 0.88460937 -0.669375 0.44890625 0 0 Z " fill="#DCCFCB" transform="translate(143,165)"/>
<path d="M0 0 C1.2065625 0.0309375 1.2065625 0.0309375 2.4375 0.0625 C0.92767269 3.49106619 -1.07963969 6.01928216 -3.5625 8.8125 C-4.614375 10.01132813 -4.614375 10.01132813 -5.6875 11.234375 C-7.5625 13.0625 -7.5625 13.0625 -9.5625 13.0625 C-8.44804288 9.71912865 -7.57861809 7.6303307 -4.4375 5.875 C-3.81875 5.606875 -3.2 5.33875 -2.5625 5.0625 C-2.8409375 4.1034375 -2.8409375 4.1034375 -3.125 3.125 C-3.269375 2.444375 -3.41375 1.76375 -3.5625 1.0625 C-2.5625 0.0625 -2.5625 0.0625 0 0 Z " fill="#CE805C" transform="translate(150.5625,152.9375)"/>
<path d="M0 0 C0.66 0 1.32 0 2 0 C2.54330269 6.65545792 1.77304004 10.45834744 -2 16 C-2.33 16 -2.66 16 -3 16 C-3 14.35 -3 12.7 -3 11 C-2.34 11 -1.68 11 -1 11 C-1 9.68 -1 8.36 -1 7 C-1.66 7 -2.32 7 -3 7 C-1.125 1.125 -1.125 1.125 0 0 Z " fill="#D8895C" transform="translate(156,137)"/>
<path d="M0 0 C0.66 0.33 1.32 0.66 2 1 C1.75 3.875 1.75 3.875 1 7 C-3.88244445 10.79745679 -11.12598249 10.10127616 -17 10 C-17 9.67 -17 9.34 -17 9 C-16.09636719 8.81824219 -15.19273438 8.63648438 -14.26171875 8.44921875 C-13.08222656 8.19785156 -11.90273437 7.94648438 -10.6875 7.6875 C-8.92986328 7.32205078 -8.92986328 7.32205078 -7.13671875 6.94921875 C-4.08163746 6.02470474 -2.83627221 5.53819197 -1 3 C-0.67 2.01 -0.34 1.02 0 0 Z " fill="#BFA3A0" transform="translate(131,174)"/>
<path d="M0 0 C-0.66 0 -1.32 0 -2 0 C-2 0.66 -2 1.32 -2 2 C-8.15502282 3.80946273 -13.60537019 4.25269614 -20 4.125 C-20.87011719 4.11597656 -21.74023438 4.10695312 -22.63671875 4.09765625 C-24.7579342 4.07434619 -26.87900562 4.03848579 -29 4 C-29 3.67 -29 3.34 -29 3 C-27.72382812 2.95101562 -26.44765625 2.90203125 -25.1328125 2.8515625 C-23.46351928 2.77653809 -21.79424954 2.70099012 -20.125 2.625 C-19.28324219 2.5940625 -18.44148438 2.563125 -17.57421875 2.53125 C-16.76855469 2.49257812 -15.96289062 2.45390625 -15.1328125 2.4140625 C-14.38918457 2.3826416 -13.64555664 2.3512207 -12.87939453 2.31884766 C-10.75989026 2.14580449 -10.75989026 2.14580449 -9 0 C-5.64103108 -0.97233311 -3.32221382 -1.10740461 0 0 Z " fill="#795251" transform="translate(123,179)"/>
<path d="M0 0 C2.78566115 2.78566115 2.49240714 5.12960447 3 9 C3.33 10.155 3.66 11.31 4 12.5 C5.0002376 16.00083159 5.55802565 19.39054277 6 23 C4 22 4 22 3.18359375 19.8828125 C1.38940668 13.25089591 0.38472752 6.8587631 0 0 Z " fill="#F2D8CD" transform="translate(36,109)"/>
<path d="M0 0 C0.51046875 0.23589844 1.0209375 0.47179687 1.546875 0.71484375 C0.4125 1.16859375 -0.721875 1.62234375 -1.890625 2.08984375 C-5.50034192 3.28580181 -5.50034192 3.28580181 -6.453125 5.71484375 C-10.27308329 7.32771503 -12.50745316 7.92165444 -16.453125 6.71484375 C-14.21005472 5.51234217 -11.9602459 4.32792755 -9.703125 3.15234375 C-8.75179687 2.63897461 -8.75179687 2.63897461 -7.78125 2.11523438 C-3.00217062 -0.34897843 -3.00217062 -0.34897843 0 0 Z " fill="#EEC2A0" transform="translate(87.453125,7.28515625)"/>
<path d="M0 0 C0.99 0.33 1.98 0.66 3 1 C3 2.32 3 3.64 3 5 C-1.95 5 -6.9 5 -12 5 C-12 4.34 -12 3.68 -12 3 C-10.54263913 2.80508548 -9.08405407 2.61930642 -7.625 2.4375 C-6.81289062 2.33308594 -6.00078125 2.22867188 -5.1640625 2.12109375 C-3 2 -3 2 -1 3 C-0.67 2.01 -0.34 1.02 0 0 Z " fill="#CE7256" transform="translate(98,175)"/>
<path d="M0 0 C2.18828861 7.85313252 0.96628017 14.5313303 -2 22 C-2.33 22 -2.66 22 -3 22 C-2.55761615 14.46783285 -1.86094772 7.3197277 0 0 Z " fill="#F0C59D" transform="translate(39,66)"/>
<path d="M0 0 C2.36557373 2.13300328 3.62967528 3.95949399 4.75 6.9375 C5.01296875 7.60652344 5.2759375 8.27554688 5.546875 8.96484375 C6.07046274 11.31647491 5.74954377 12.73617523 5 15 C4.72285156 14.43410156 4.44570312 13.86820313 4.16015625 13.28515625 C3.79792969 12.55167969 3.43570313 11.81820312 3.0625 11.0625 C2.70285156 10.33160156 2.34320313 9.60070312 1.97265625 8.84765625 C1.13628173 7.03750973 1.13628173 7.03750973 0 6 C-0.04080783 4.00041636 -0.04254356 1.99954746 0 0 Z " fill="#DEA581" transform="translate(158,53)"/>
<path d="M0 0 C-4.51350747 3.52273754 -7.28341664 4.45732667 -13 4 C-9.53474375 0.53474375 -4.80335354 -2.11347556 0 0 Z " fill="#C06A4B" transform="translate(136,171)"/>
<path d="M0 0 C1.98 0.66 3.96 1.32 6 2 C6.33 3.65 6.66 5.3 7 7 C4 7 4 7 1 5 C0.3125 2.375 0.3125 2.375 0 0 Z " fill="#ECAF9B" transform="translate(62,160)"/>
<path d="M0 0 C2.3125 1.25 2.3125 1.25 3.3125 3.25 C1.9925 3.58 0.6725 3.91 -0.6875 4.25 C-0.6875 3.59 -0.6875 2.93 -0.6875 2.25 C-1.3475 2.25 -2.0075 2.25 -2.6875 2.25 C-3.0175 3.24 -3.3475 4.23 -3.6875 5.25 C-5.0075 4.59 -6.3275 3.93 -7.6875 3.25 C-5.91872503 -0.28754995 -3.75784736 -1.04870159 0 0 Z " fill="#F3B070" transform="translate(82.6875,105.75)"/>
<path d="M0 0 C0.33 0 0.66 0 1 0 C2.19088986 5.38027025 3.2919519 10.45291384 3 16 C2.67 15.34 2.34 14.68 2 14 C1.34 14 0.68 14 0 14 C0 9.38 0 4.76 0 0 Z " fill="#F3D4C1" transform="translate(35,91)"/>
<path d="M0 0 C-5.39459439 3.08467498 -9.79011871 4.55643705 -16 5 C-13.51196416 1.99748896 -11.16518552 1.22287132 -7.4375 0.25 C-6.46683594 -0.01296875 -5.49617187 -0.2759375 -4.49609375 -0.546875 C-2 -1 -2 -1 0 0 Z " fill="#F0E9E9" transform="translate(145,183)"/>
<path d="M0 0 C0.99 0.66 1.98 1.32 3 2 C3.1875 5.125 3.1875 5.125 3 8 C2.34 8 1.68 8 1 8 C0.67 7.34 0.34 6.68 0 6 C-0.99 6.99 -1.98 7.98 -3 9 C-2.01 6.03 -1.02 3.06 0 0 Z " fill="#F1BA87" transform="translate(46,45)"/>
<path d="M0 0 C1.32 0.66 2.64 1.32 4 2 C4 2.66 4 3.32 4 4 C3.34 4 2.68 4 2 4 C1.67 5.32 1.34 6.64 1 8 C0.34 7.67 -0.32 7.34 -1 7 C-1.625 4.9375 -1.625 4.9375 -2 3 C-1.34 3 -0.68 3 0 3 C0 2.01 0 1.02 0 0 Z M4 0 C4.66 0.66 5.32 1.32 6 2 C5.34 2 4.68 2 4 2 C4 1.34 4 0.68 4 0 Z " fill="#F2AD67" transform="translate(49,42)"/>
<path d="M0 0 C0.33 0.66 0.66 1.32 1 2 C1.99 2.33 2.98 2.66 4 3 C3.34 5.31 2.68 7.62 2 10 C0.68 9.67 -0.64 9.34 -2 9 C-1.505 7.88625 -1.505 7.88625 -1 6.75 C0.22782871 3.86116688 0.22782871 3.86116688 0 0 Z " fill="#F5B97C" transform="translate(56,34)"/>
<path d="M0 0 C2.94721162 2.74395564 5.19168608 5.38337216 7 9 C6.67 9.66 6.34 10.32 6 11 C3.5625 9.4375 3.5625 9.4375 1 7 C0.1875 3.25 0.1875 3.25 0 0 Z " fill="#DB9F76" transform="translate(147,33)"/>
<path d="M0 0 C-1.69179328 2.04219706 -2.63727666 2.91793306 -5.26171875 3.51171875 C-6.06222656 3.56972656 -6.86273438 3.62773437 -7.6875 3.6875 C-8.49574219 3.75324219 -9.30398437 3.81898438 -10.13671875 3.88671875 C-10.75160156 3.92410156 -11.36648437 3.96148437 -12 4 C-11.01 3.67 -10.02 3.34 -9 3 C-9 2.34 -9 1.68 -9 1 C-5.8035914 -0.06546953 -3.34252724 -0.07427838 0 0 Z " fill="#B15A41" transform="translate(127,175)"/>
<path d="M0 0 C0.99 0.33 1.98 0.66 3 1 C5.14255793 0.61067144 5.14255793 0.61067144 7 0 C6.4375 1.9375 6.4375 1.9375 5 4 C1.375 4.75 1.375 4.75 -2 5 C-1.34 3.35 -0.68 1.7 0 0 Z " fill="#DE7A4C" transform="translate(102,174)"/>
<path d="M0 0 C2.31 0 4.62 0 7 0 C7.12375 0.61875 7.2475 1.2375 7.375 1.875 C7.87197356 4.19120832 7.87197356 4.19120832 10 6 C6.00452264 5.38531118 3.22493358 3.34540624 0 1 C0 0.67 0 0.34 0 0 Z " fill="#E6AEA0" transform="translate(68,168)"/>
<path d="M0 0 C0.99 0.33 1.98 0.66 3 1 C3.33 1.99 3.66 2.98 4 4 C3.01 5.485 3.01 5.485 2 7 C-1 6 -1 6 -2.1875 3.9375 C-2.5896875 2.9784375 -2.5896875 2.9784375 -3 2 C-2.01 1.34 -1.02 0.68 0 0 Z " fill="#DC864B" transform="translate(101,138)"/>
<path d="M0 0 C0.33 0 0.66 0 1 0 C2.125 7.75 2.125 7.75 1 10 C-2.0625 10.625 -2.0625 10.625 -5 11 C-3.68 10.34 -2.36 9.68 -1 9 C-1.020625 7.700625 -1.04125 6.40125 -1.0625 5.0625 C-1.08399454 3.70834367 -1.07148199 2.35243917 -1 1 C-0.67 0.67 -0.34 0.34 0 0 Z " fill="#CFBAB6" transform="translate(133,172)"/>
<path d="M0 0 C0.66 0.33 1.32 0.66 2 1 C1.67 2.65 1.34 4.3 1 6 C0.01 6 -0.98 6 -2 6 C-2 6.99 -2 7.98 -2 9 C-2.66 9 -3.32 9 -4 9 C-2.94124926 5.59687262 -1.99097846 2.98646769 0 0 Z " fill="#EDB481" transform="translate(51,36)"/>
<path d="M0 0 C2.0625 0.4375 2.0625 0.4375 4 1 C0.55384615 5.8 0.55384615 5.8 -2.25 6.8125 C-3.11625 6.9053125 -3.11625 6.9053125 -4 7 C-4 6.34 -4 5.68 -4 5 C-3.34 5 -2.68 5 -2 5 C-1.7834375 4.0409375 -1.7834375 4.0409375 -1.5625 3.0625 C-1 1 -1 1 0 0 Z " fill="#EFAB6A" transform="translate(128,60)"/>
<path d="M0 0 C0.99 0.33 1.98 0.66 3 1 C3 1.66 3 2.32 3 3 C2.01 3.66 1.02 4.32 0 5 C-0.72382467 7.05925139 -0.72382467 7.05925139 -1 9 C-1 8.01 -1 7.02 -1 6 C-1.66 5.67 -2.32 5.34 -3 5 C-3 4.01 -3 3.02 -3 2 C-2.01 1.34 -1.02 0.68 0 0 Z " fill="#F8B884" transform="translate(55,48)"/>
<path d="M0 0 C2.72107452 2.3500189 3.96702492 4.55674975 5 8 C4.67 8.99 4.34 9.98 4 11 C1.52214277 7.33708062 0.51035831 4.3890815 0 0 Z " fill="#F1CEC4" transform="translate(42,132)"/>
<path d="M0 0 C0.99 0 1.98 0 3 0 C3 0.66 3 1.32 3 2 C2.34 2 1.68 2 1 2 C1.33 3.98 1.66 5.96 2 8 C1.01 8 0.02 8 -1 8 C-1.04241723 5.66705225 -1.04092937 3.33297433 -1 1 C-0.67 0.67 -0.34 0.34 0 0 Z " fill="#F0BE91" transform="translate(65,31)"/>
<path d="M0 0 C0.33 0.66 0.66 1.32 1 2 C1.66 2 2.32 2 3 2 C3 5.63 3 9.26 3 13 C2.67 13 2.34 13 2 13 C1.66127487 11.58461283 1.32925376 10.16762037 1 8.75 C0.814375 7.96109375 0.62875 7.1721875 0.4375 6.359375 C0 4 0 4 0 0 Z " fill="#F3CAB2" transform="translate(36,105)"/>
<path d="M0 0 C0.33 0.99 0.66 1.98 1 3 C-1.83430453 6.2542015 -3.68607774 7.5206753 -8 8 C-7 6 -7 6 -5.125 5.125 C-2.63203665 3.80519587 -1.54852219 2.32278328 0 0 Z " fill="#A88B88" transform="translate(130,174)"/>
<path d="M0 0 C0.33 0 0.66 0 1 0 C1 2.97 1 5.94 1 9 C-0.32 9.33 -1.64 9.66 -3 10 C-2.67 8.68 -2.34 7.36 -2 6 C-1.67 6 -1.34 6 -1 6 C-0.67 4.02 -0.34 2.04 0 0 Z " fill="#DB7F3D" transform="translate(163,81)"/>
<path d="M0 0 C0.33 0.99 0.66 1.98 1 3 C1.66 3 2.32 3 3 3 C3 5 3 5 1.625 6.4375 C1.08875 6.953125 0.5525 7.46875 0 8 C-0.66 8.99 -1.32 9.98 -2 11 C-1 3.57142857 -1 3.57142857 0 0 Z " fill="#F0BD95" transform="translate(42,55)"/>
<path d="M0 0 C3.375 -0.1875 3.375 -0.1875 7 0 C7.66 0.99 8.32 1.98 9 3 C3.46153846 3.36923077 3.46153846 3.36923077 1.125 1.5 C0.75375 1.005 0.3825 0.51 0 0 Z " fill="#DD8A72" transform="translate(82,175)"/>
<path d="M0 0 C0.99 0.33 1.98 0.66 3 1 C2.1875 2.9375 2.1875 2.9375 1 5 C0.01 5.33 -0.98 5.66 -2 6 C-1.34 4.02 -0.68 2.04 0 0 Z " fill="#C5714F" transform="translate(138,164)"/>
<path d="M0 0 C1.485 0.99 1.485 0.99 3 2 C2.67 3.32 2.34 4.64 2 6 C1.34 6 0.68 6 0 6 C-0.33 6.66 -0.66 7.32 -1 8 C-1.08226668 4.95613276 -0.97608217 2.92824652 0 0 Z " fill="#DA7D45" transform="translate(141,151)"/>
</svg>
