<?xml version="1.0" encoding="UTF-8"?>
<svg version="1.1" xmlns="http://www.w3.org/2000/svg" width="200" height="200">
<path d="M0 0 C66 0 132 0 200 0 C200 66 200 132 200 200 C134 200 68 200 0 200 C0 134 0 68 0 0 Z " fill="#2B2B33" transform="translate(0,0)"/>
<path d="M0 0 C66 0 132 0 200 0 C200 66 200 132 200 200 C198.35 200 196.7 200 195 200 C195 189.11 195 178.22 195 167 C193.68 167 192.36 167 191 167 C191 154.46 191 141.92 191 129 C189.35 129 187.7 129 186 129 C186 118.44 186 107.88 186 97 C184.35 97 182.7 97 181 97 C181 92.05 181 87.1 181 82 C179.68 82 178.36 82 177 82 C177 79.03 177 76.06 177 73 C175.35 73 173.7 73 172 73 C172 71.35 172 69.7 172 68 C170.35 68 168.7 68 167 68 C167 66.68 167 65.36 167 64 C164.03 64 161.06 64 158 64 C158 62.35 158 60.7 158 59 C153.38 59 148.76 59 144 59 C144 57.35 144 55.7 144 54 C134.76 54 125.52 54 116 54 C116 52.68 116 51.36 116 50 C104.78 50 93.56 50 82 50 C82 51.32 82 52.64 82 54 C72.76 54 63.52 54 54 54 C54 55.65 54 57.3 54 59 C49.38 59 44.76 59 40 59 C40 60.65 40 62.3 40 64 C37.03 64 34.06 64 31 64 C31 65.32 31 66.64 31 68 C29.35 68 27.7 68 26 68 C26 69.65 26 71.3 26 73 C24.35 73 22.7 73 21 73 C21 75.97 21 78.94 21 82 C19.68 82 18.36 82 17 82 C17 86.95 17 91.9 17 97 C15.35 97 13.7 97 12 97 C12 107.56 12 118.12 12 129 C10.35 129 8.7 129 7 129 C7 141.54 7 154.08 7 167 C5.68 167 4.36 167 3 167 C3 177.89 3 188.78 3 200 C2.01 200 1.02 200 0 200 C0 134 0 68 0 0 Z " fill="#ABA2FC" transform="translate(0,0)"/>
<path d="M0 0 C11.22 0 22.44 0 34 0 C34 1.32 34 2.64 34 4 C43.24 4 52.48 4 62 4 C62 5.65 62 7.3 62 9 C66.62 9 71.24 9 76 9 C76 12.3 76 15.6 76 19 C77.32 19 78.64 19 80 19 C80 23.62 80 28.24 80 33 C81.65 33 83.3 33 85 33 C85 40.59 85 48.18 85 56 C86.65 56 88.3 56 90 56 C90 65.24 90 74.48 90 84 C88.35 84 86.7 84 85 84 C85 76.41 85 68.82 85 61 C83.35 61 81.7 61 80 61 C80.33 62.32 80.66 63.64 81 65 C81 71.27 81 77.54 81 84 C42.06 84 3.12 84 -37 84 C-37 82.68 -37 81.36 -37 80 C-38.65 80 -40.3 80 -42 80 C-42 78.35 -42 76.7 -42 75 C-43.65 75 -45.3 75 -47 75 C-47 70.38 -47 65.76 -47 61 C-48.32 61 -49.64 61 -51 61 C-51 68.59 -51 76.18 -51 84 C-52.65 84 -54.3 84 -56 84 C-56 74.76 -56 65.52 -56 56 C-54.35 56 -52.7 56 -51 56 C-51 48.41 -51 40.82 -51 33 C-49.35 33 -47.7 33 -46 33 C-46 28.38 -46 23.76 -46 19 C-44.68 19 -43.36 19 -42 19 C-42 15.7 -42 12.4 -42 9 C-37.38 9 -32.76 9 -28 9 C-28 7.35 -28 5.7 -28 4 C-18.76 4 -9.52 4 0 4 C0 2.68 0 1.36 0 0 Z " fill="#434A54" transform="translate(82,50)"/>
<path d="M0 0 C2.97 0 5.94 0 9 0 C9 1.65 9 3.3 9 5 C7.68 5 6.36 5 5 5 C5 9.62 5 14.24 5 19 C3.35 19 1.7 19 0 19 C0 26.59 0 34.18 0 42 C-1.65 42 -3.3 42 -5 42 C-5 51.24 -5 60.48 -5 70 C-3.35 70 -1.7 70 0 70 C0 62.41 0 54.82 0 47 C1.32 47 2.64 47 4 47 C4 51.62 4 56.24 4 61 C5.65 61 7.3 61 9 61 C9 62.65 9 64.3 9 66 C10.65 66 12.3 66 14 66 C14 67.32 14 68.64 14 70 C52.94 70 91.88 70 132 70 C131.67 62.41 131.34 54.82 131 47 C132.65 47 134.3 47 136 47 C136 54.59 136 62.18 136 70 C137.65 70 139.3 70 141 70 C141 76.27 141 82.54 141 89 C139.35 89 137.7 89 136 89 C136 85.7 136 82.4 136 79 C134.68 79 133.36 79 132 79 C132 77.68 132 76.36 132 75 C91.41 75 50.82 75 9 75 C9 76.65 9 78.3 9 80 C7.68 80 6.36 80 5 80 C5 85.94 5 91.88 5 98 C6.32 98 7.64 98 9 98 C9 99.65 9 101.3 9 103 C12.3 103 15.6 103 19 103 C19 104.65 19 106.3 19 108 C23.29 108 27.58 108 32 108 C32 109.32 32 110.64 32 112 C29.03 112 26.06 112 23 112 C23 113.65 23 115.3 23 117 C26.3 117 29.6 117 33 117 C33 115.68 33 114.36 33 113 C38.94 113 44.88 113 51 113 C51 114.32 51 115.64 51 117 C49.68 117 48.36 117 47 117 C47 118.65 47 120.3 47 122 C44.36 122 41.72 122 39 122 C38.505 123.98 38.505 123.98 38 126 C38 124.68 38 123.36 38 122 C36.02 122 34.04 122 32 122 C32 123.32 32 124.64 32 126 C27.545 126.495 27.545 126.495 23 127 C23 125.35 23 123.7 23 122 C20.03 122 17.06 122 14 122 C14 120.35 14 118.7 14 117 C9.38 117 4.76 117 0 117 C0 123.27 0 129.54 0 136 C-9.24 136 -18.48 136 -28 136 C-28 125.11 -28 114.22 -28 103 C-26.68 103 -25.36 103 -24 103 C-24 90.46 -24 77.92 -24 65 C-22.35 65 -20.7 65 -19 65 C-19 54.44 -19 43.88 -19 33 C-17.35 33 -15.7 33 -14 33 C-14 28.05 -14 23.1 -14 18 C-12.68 18 -11.36 18 -10 18 C-10 15.03 -10 12.06 -10 9 C-8.35 9 -6.7 9 -5 9 C-5 7.35 -5 5.7 -5 4 C-3.35 4 -1.7 4 0 4 C0 2.68 0 1.36 0 0 Z " fill="#2B2B34" transform="translate(31,64)"/>
<path d="M0 0 C21.78 0 43.56 0 66 0 C66 1.65 66 3.3 66 5 C75.24 5 84.48 5 94 5 C94 6.32 94 7.64 94 9 C81.79 9 69.58 9 57 9 C57 7.68 57 6.36 57 5 C43.14 5 29.28 5 15 5 C15 12.59 15 20.18 15 28 C28.86 28 42.72 28 57 28 C57 29.65 57 31.3 57 33 C69.21 33 81.42 33 94 33 C94 34.32 94 35.64 94 37 C81.79 37 69.58 37 57 37 C57 38.65 57 40.3 57 42 C58.65 42 60.3 42 62 42 C62 44.97 62 47.94 62 51 C63.32 51 64.64 51 66 51 C66 49.68 66 48.36 66 47 C67.65 47 69.3 47 71 47 C71 48.32 71 49.64 71 51 C72.32 51 73.64 51 75 51 C75 49.68 75 48.36 75 47 C87.54 47 100.08 47 113 47 C113 45.35 113 43.7 113 42 C117.62 42 122.24 42 127 42 C127 48.27 127 54.54 127 61 C82.12 61 37.24 61 -9 61 C-9 54.73 -9 48.46 -9 42 C-4.38 42 0.24 42 5 42 C5 43.65 5 45.3 5 47 C7.97 47 10.94 47 14 47 C14 48.65 14 50.3 14 52 C18.455 51.505 18.455 51.505 23 51 C23 49.68 23 48.36 23 47 C27.95 47 32.9 47 38 47 C38 45.35 38 43.7 38 42 C39.32 42 40.64 42 42 42 C42 40.68 42 39.36 42 38 C36.06 38 30.12 38 24 38 C24 39.32 24 40.64 24 42 C20.7 42 17.4 42 14 42 C14 40.35 14 38.7 14 37 C16.97 37 19.94 37 23 37 C23 35.68 23 34.36 23 33 C18.71 33 14.42 33 10 33 C10 31.35 10 29.7 10 28 C6.7 28 3.4 28 0 28 C0 26.35 0 24.7 0 23 C-1.32 23 -2.64 23 -4 23 C-4 17.06 -4 11.12 -4 5 C-2.68 5 -1.36 5 0 5 C0 3.35 0 1.7 0 0 Z " fill="#262F25" transform="translate(40,139)"/>
<path d="M0 0 C13.86 0 27.72 0 42 0 C42 1.32 42 2.64 42 4 C54.21 4 66.42 4 79 4 C79 5.65 79 7.3 79 9 C66.79 9 54.58 9 42 9 C42 10.65 42 12.3 42 14 C54.21 14 66.42 14 79 14 C79 15.32 79 16.64 79 18 C92.86 18.495 92.86 18.495 107 19 C107 20.32 107 21.64 107 23 C105.68 23 104.36 23 103 23 C103 24.65 103 26.3 103 28 C104.32 28 105.64 28 107 28 C107 29.32 107 30.64 107 32 C104.36 32 101.72 32 99 32 C99 30.68 99 29.36 99 28 C97.02 28 95.04 28 93 28 C93 26.35 93 24.7 93 23 C88.38 23 83.76 23 79 23 C79 24.65 79 26.3 79 28 C66.79 28 54.58 28 42 28 C42 26.35 42 24.7 42 23 C28.14 23 14.28 23 0 23 C0 15.41 0 7.82 0 0 Z " fill="#403423" transform="translate(55,144)"/>
<path d="M0 0 C32.34 0 64.68 0 98 0 C98 1.65 98 3.3 98 5 C99.65 5 101.3 5 103 5 C103 7.97 103 10.94 103 14 C70.33 14 37.66 14 4 14 C4 12.35 4 10.7 4 9 C2.68 9 1.36 9 0 9 C0 6.03 0 3.06 0 0 Z " fill="#6E96F5" transform="translate(50,111)"/>
<path d="M0 0 C10.56 0 21.12 0 32 0 C32 1.65 32 3.3 32 5 C29.03 5 26.06 5 23 5 C23 9.62 23 14.24 23 19 C24.65 19 26.3 19 28 19 C28 20.65 28 22.3 28 24 C32.62 24 37.24 24 42 24 C42 22.35 42 20.7 42 19 C45.3 19 48.6 19 52 19 C52 17.35 52 15.7 52 14 C53.32 14 54.64 14 56 14 C56 12.68 56 11.36 56 10 C58.97 10 61.94 10 65 10 C65 11.32 65 12.64 65 14 C66.65 14 68.3 14 70 14 C70 15.65 70 17.3 70 19 C71.32 19 72.64 19 74 19 C74 20.65 74 22.3 74 24 C75.65 24 77.3 24 79 24 C79 28.62 79 33.24 79 38 C77.68 38 76.36 38 75 38 C75 34.7 75 31.4 75 28 C36.06 28 -2.88 28 -43 28 C-43 31.3 -43 34.6 -43 38 C-44.32 38 -45.64 38 -47 38 C-47 33.38 -47 28.76 -47 24 C-45.68 24 -44.36 24 -43 24 C-43 22.35 -43 20.7 -43 19 C-41.35 19 -39.7 19 -38 19 C-38 20.65 -38 22.3 -38 24 C-22.49 24 -6.98 24 9 24 C9 22.35 9 20.7 9 19 C10.32 19 11.64 19 13 19 C13 20.65 13 22.3 13 24 C14.98 24 16.96 24 19 24 C19 19.05 19 14.1 19 9 C17.35 9 15.7 9 14 9 C14 7.68 14 6.36 14 5 C9.38 5 4.76 5 0 5 C0 3.35 0 1.7 0 0 Z " fill="#030304" transform="translate(83,73)"/>
<path d="M0 0 C35.64 0 71.28 0 108 0 C108 1.65 108 3.3 108 5 C109.32 5 110.64 5 112 5 C112 10.94 112 16.88 112 23 C76.69 23 41.38 23 5 23 C5 21.68 5 20.36 5 19 C3.35 19 1.7 19 0 19 C0 12.73 0 6.46 0 0 Z M5 5 C5 7.97 5 10.94 5 14 C6.32 14 7.64 14 9 14 C9 15.65 9 17.3 9 19 C41.67 19 74.34 19 108 19 C108 16.03 108 13.06 108 10 C106.35 10 104.7 10 103 10 C103 8.35 103 6.7 103 5 C70.66 5 38.32 5 5 5 Z " fill="#020101" transform="translate(45,106)"/>
<path d="M0 0 C4.62 0 9.24 0 14 0 C14 1.65 14 3.3 14 5 C16.97 5 19.94 5 23 5 C23 6.65 23 8.3 23 10 C27.455 9.505 27.455 9.505 32 9 C32 7.68 32 6.36 32 5 C36.95 5 41.9 5 47 5 C47 3.35 47 1.7 47 0 C48.32 0 49.64 0 51 0 C51 1.65 51 3.3 51 5 C57.27 5 63.54 5 70 5 C70 6.65 70 8.3 70 10 C71.65 10 73.3 10 75 10 C75 12.97 75 15.94 75 19 C50.25 19 25.5 19 0 19 C0 12.73 0 6.46 0 0 Z " fill="#414951" transform="translate(31,181)"/>
<path d="M0 0 C1.32 0 2.64 0 4 0 C4 4.62 4 9.24 4 14 C5.65 14 7.3 14 9 14 C9 15.65 9 17.3 9 19 C10.65 19 12.3 19 14 19 C14 20.32 14 21.64 14 23 C52.94 23 91.88 23 132 23 C131.67 15.41 131.34 7.82 131 0 C132.65 0 134.3 0 136 0 C136 7.59 136 15.18 136 23 C137.65 23 139.3 23 141 23 C141 29.27 141 35.54 141 42 C139.35 42 137.7 42 136 42 C136 38.7 136 35.4 136 32 C134.68 32 133.36 32 132 32 C132 30.68 132 29.36 132 28 C91.41 28 50.82 28 9 28 C9 26.35 9 24.7 9 23 C6.03 23 3.06 23 0 23 C0 15.41 0 7.82 0 0 Z " fill="#020204" transform="translate(31,111)"/>
<path d="M0 0 C0.33 0 0.66 0 1 0 C1 1.65 1 3.3 1 5 C5.62 5 10.24 5 15 5 C15 6.32 15 7.64 15 9 C16.65 9 18.3 9 20 9 C20 13.95 20 18.9 20 24 C18.02 24 16.04 24 14 24 C14 22.35 14 20.7 14 19 C12.68 19 11.36 19 10 19 C10 20.65 10 22.3 10 24 C-5.51 24 -21.02 24 -37 24 C-37 20.7 -37 17.4 -37 14 C-35.68 14 -34.36 14 -33 14 C-33 12.35 -33 10.7 -33 9 C-29.7 9 -26.4 9 -23 9 C-23 7.68 -23 6.36 -23 5 C-15.41 5 -7.82 5 0 5 C0 3.35 0 1.7 0 0 Z " fill="#060907" transform="translate(82,73)"/>
<path d="M0 0 C21.78 0 43.56 0 66 0 C66 1.65 66 3.3 66 5 C75.24 5 84.48 5 94 5 C94 6.32 94 7.64 94 9 C81.79 9 69.58 9 57 9 C57 7.35 57 5.7 57 4 C42.81 4 28.62 4 14 4 C14 11.92 14 19.84 14 28 C9.38 28 4.76 28 0 28 C0 26.35 0 24.7 0 23 C-1.32 23 -2.64 23 -4 23 C-4 17.06 -4 11.12 -4 5 C-2.68 5 -1.36 5 0 5 C0 3.35 0 1.7 0 0 Z " fill="#5D8F38" transform="translate(40,139)"/>
<path d="M0 0 C10.89 0 21.78 0 33 0 C33 1.65 33 3.3 33 5 C34.65 5 36.3 5 38 5 C38 7.97 38 10.94 38 14 C20.84 14 3.68 14 -14 14 C-14 12.35 -14 10.7 -14 9 C-10.7 9 -7.4 9 -4 9 C-4 7.35 -4 5.7 -4 4 C-2.68 4 -1.36 4 0 4 C0 2.68 0 1.36 0 0 Z " fill="#D468F1" transform="translate(115,111)"/>
<path d="M0 0 C18.81 0 37.62 0 57 0 C57 1.32 57 2.64 57 4 C58.32 4 59.64 4 61 4 C61 7.3 61 10.6 61 14 C50.11 14 39.22 14 28 14 C28 11.03 28 8.06 28 5 C18.76 5 9.52 5 0 5 C0 3.35 0 1.7 0 0 Z " fill="#455F32" transform="translate(106,139)"/>
<path d="M0 0 C4.62 0 9.24 0 14 0 C14 6.27 14 12.54 14 19 C3.11 19 -7.78 19 -19 19 C-19 16.03 -19 13.06 -19 10 C-20.65 10 -22.3 10 -24 10 C-24 8.35 -24 6.7 -24 5 C-16.08 5 -8.16 5 0 5 C0 3.35 0 1.7 0 0 Z " fill="#424A53" transform="translate(153,181)"/>
<path d="M0 0 C0.33 0 0.66 0 1 0 C1 1.65 1 3.3 1 5 C8.59 5 16.18 5 24 5 C24 6.32 24 7.64 24 9 C27.3 9 30.6 9 34 9 C34 10.65 34 12.3 34 14 C33.505 12.02 33.505 12.02 33 10 C30.03 10 27.06 10 24 10 C24 11.32 24 12.64 24 14 C22.68 14 21.36 14 20 14 C20 15.65 20 17.3 20 19 C16.7 19 13.4 19 10 19 C10 20.65 10 22.3 10 24 C5.38 24 0.76 24 -4 24 C-4 22.35 -4 20.7 -4 19 C-5.65 19 -7.3 19 -9 19 C-9 14.38 -9 9.76 -9 5 C-6.03 5 -3.06 5 0 5 C0 3.35 0 1.7 0 0 Z " fill="#46672E" transform="translate(115,73)"/>
<path d="M0 0 C4.62 0 9.24 0 14 0 C14 1.65 14 3.3 14 5 C16.97 5 19.94 5 23 5 C23 6.65 23 8.3 23 10 C27.455 9.505 27.455 9.505 32 9 C32 7.68 32 6.36 32 5 C33.98 5 35.96 5 38 5 C38 6.65 38 8.3 38 10 C36.35 10 34.7 10 33 10 C33 12.97 33 15.94 33 19 C22.11 19 11.22 19 0 19 C0 12.73 0 6.46 0 0 Z " fill="#424A53" transform="translate(31,181)"/>
<path d="M0 0 C2.97 0 5.94 0 9 0 C9 1.32 9 2.64 9 4 C10.65 4 12.3 4 14 4 C14 5.65 14 7.3 14 9 C15.32 9 16.64 9 18 9 C18 10.65 18 12.3 18 14 C19.65 14 21.3 14 23 14 C23 18.62 23 23.24 23 28 C21.68 28 20.36 28 19 28 C19 24.7 19 21.4 19 18 C17.98574951 18.01571045 16.97149902 18.0314209 15.92651367 18.04760742 C12.16389913 18.10190319 8.40131922 18.13634851 4.63842773 18.16479492 C3.00978777 18.17988243 1.38118844 18.20035506 -0.24731445 18.22631836 C-2.58815535 18.26270449 -4.92845919 18.2797262 -7.26953125 18.29296875 C-8.36186821 18.31619453 -8.36186821 18.31619453 -9.47627258 18.33988953 C-14.55384196 18.34158031 -14.55384196 18.34158031 -16.9831543 16.48168945 C-17.31871338 15.99273193 -17.65427246 15.50377441 -18 15 C-16.68 14.67 -15.36 14.34 -14 14 C-14 12.35 -14 10.7 -14 9 C-10.7 9 -7.4 9 -4 9 C-4 7.35 -4 5.7 -4 4 C-2.68 4 -1.36 4 0 4 C0 2.68 0 1.36 0 0 Z " fill="#020303" transform="translate(139,83)"/>
<path d="M0 0 C33.99 0 67.98 0 103 0 C104.4783226 2.95664519 104.06032783 5.74229737 104 9 C105.65 9 107.3 9 109 9 C109 12.3 109 15.6 109 19 C108.67 19 108.34 19 108 19 C108 16.03 108 13.06 108 10 C106.35 10 104.7 10 103 10 C103 8.35 103 6.7 103 5 C70.66 5 38.32 5 5 5 C5 4.67 5 4.34 5 4 C6.65 3.67 8.3 3.34 10 3 C10 2.67 10 2.34 10 2 C7.03 1.67 4.06 1.34 1 1 C1 6.61 1 12.22 1 18 C2.32 18.33 3.64 18.66 5 19 C3.35 19 1.7 19 0 19 C0 12.73 0 6.46 0 0 Z " fill="#18151A" transform="translate(45,106)"/>
<path d="M0 0 C0.33 0 0.66 0 1 0 C1 1.65 1 3.3 1 5 C5.62 5 10.24 5 15 5 C15 6.32 15 7.64 15 9 C16.65 9 18.3 9 20 9 C20 13.95 20 18.9 20 24 C18.02 24 16.04 24 14 24 C14 22.35 14 20.7 14 19 C12.68 19 11.36 19 10 19 C10 17.35 10 15.7 10 14 C-0.89 14 -11.78 14 -23 14 C-23 12.68 -23 11.36 -23 10 C-25.97 10 -28.94 10 -32 10 C-32.33 11.32 -32.66 12.64 -33 14 C-33 12.35 -33 10.7 -33 9 C-29.7 9 -26.4 9 -23 9 C-23 7.68 -23 6.36 -23 5 C-15.41 5 -7.82 5 0 5 C0 3.35 0 1.7 0 0 Z " fill="#3E582C" transform="translate(82,73)"/>
<path d="M0 0 C6.27 0 12.54 0 19 0 C19 3.3 19 6.6 19 10 C17.68 10 16.36 10 15 10 C15 12.97 15 15.94 15 19 C13.35 19 11.7 19 10 19 C10 22.3 10 25.6 10 29 C11.32 29 12.64 29 14 29 C14 30.32 14 31.64 14 33 C11.03 33 8.06 33 5 33 C5 31.35 5 29.7 5 28 C3.68 28 2.36 28 1 28 C0.0178006 24.72373625 -0.11580914 21.77211881 -0.09765625 18.359375 C-0.09443359 17.28945312 -0.09121094 16.21953125 -0.08789062 15.1171875 C-0.07951172 14.00601563 -0.07113281 12.89484375 -0.0625 11.75 C-0.05798828 10.62335938 -0.05347656 9.49671875 -0.04882812 8.3359375 C-0.03705411 5.55726894 -0.019119 2.77862773 0 0 Z " fill="#3F562D" transform="translate(21,134)"/>
<path d="M0 0 C35.64 0 71.28 0 108 0 C108 1.32 108 2.64 108 4 C72.36 4 36.72 4 0 4 C0 2.68 0 1.36 0 0 Z " fill="#CBCBCB" transform="translate(50,130)"/>
<path d="M0 0 C1.32 0 2.64 0 4 0 C4 4.62 4 9.24 4 14 C5.65 14 7.3 14 9 14 C9 15.65 9 17.3 9 19 C10.65 19 12.3 19 14 19 C14 20.32 14 21.64 14 23 C51.29 23 88.58 23 127 23 C127 23.33 127 23.66 127 24 C90.37 24 53.74 24 16 24 C16 24.99 16 25.98 16 27 C54.28 27 92.56 27 132 27 C132 27.33 132 27.66 132 28 C91.41 28 50.82 28 9 28 C9 26.35 9 24.7 9 23 C6.03 23 3.06 23 0 23 C0 15.41 0 7.82 0 0 Z " fill="#161A15" transform="translate(31,111)"/>
<path d="M0 0 C33.99 0 67.98 0 103 0 C103 1.32 103 2.64 103 4 C69.01 4 35.02 4 0 4 C0 2.68 0 1.36 0 0 Z " fill="#CCCCCB" transform="translate(45,102)"/>
<path d="M0 0 C13.53 0 27.06 0 41 0 C41 1.32 41 2.64 41 4 C28.79 4 16.58 4 4 4 C4 8.95 4 13.9 4 19 C16.21 19 28.42 19 41 19 C41 20.32 41 21.64 41 23 C27.47 23 13.94 23 0 23 C0 15.41 0 7.82 0 0 Z " fill="#030302" transform="translate(55,144)"/>
<path d="M0 0 C12.21 0 24.42 0 37 0 C37 1.65 37 3.3 37 5 C40.3 5 43.6 5 47 5 C47 6.32 47 7.64 47 9 C42.05 9 37.1 9 32 9 C31.67 10.32 31.34 11.64 31 13 C31 11.68 31 10.36 31 9 C26.71 9 22.42 9 18 9 C18 10.32 18 11.64 18 13 C16.68 13 15.36 13 14 13 C14 11.68 14 10.36 14 9 C12.35 9 10.7 9 9 9 C9 10.32 9 11.64 9 13 C7.68 13 6.36 13 5 13 C5 10.03 5 7.06 5 4 C3.35 4 1.7 4 0 4 C0 2.68 0 1.36 0 0 Z " fill="#030305" transform="translate(97,177)"/>
<path d="M0 0 C12.21 0 24.42 0 37 0 C37 1.32 37 2.64 37 4 C34.03 4 31.06 4 28 4 C28 5.65 28 7.3 28 9 C26.35 9 24.7 9 23 9 C23 10.65 23 12.3 23 14 C16.73 14 10.46 14 4 14 C4 12.35 4 10.7 4 9 C2.68 9 1.36 9 0 9 C0 6.03 0 3.06 0 0 Z " fill="#6EF479" transform="translate(50,111)"/>
<path d="M0 0 C4.29 0 8.58 0 13 0 C13 1.32 13 2.64 13 4 C10.03 4 7.06 4 4 4 C4 5.65 4 7.3 4 9 C7.3 9 10.6 9 14 9 C14 7.68 14 6.36 14 5 C19.94 5 25.88 5 32 5 C32 6.32 32 7.64 32 9 C30.68 9 29.36 9 28 9 C28 10.65 28 12.3 28 14 C25.36 14 22.72 14 20 14 C19.67 15.32 19.34 16.64 19 18 C19 16.68 19 15.36 19 14 C17.02 14 15.04 14 13 14 C13 15.32 13 16.64 13 18 C10.03 18.33 7.06 18.66 4 19 C4 17.35 4 15.7 4 14 C1.03 14 -1.94 14 -5 14 C-5 11.03 -5 8.06 -5 5 C-3.35 5 -1.7 5 0 5 C0 3.35 0 1.7 0 0 Z " fill="#16171A" transform="translate(50,172)"/>
<path d="M0 0 C0.33 0 0.66 0 1 0 C1 7.59 1 15.18 1 23 C2.65 23 4.3 23 6 23 C6 24.32 6 25.64 6 27 C41.64 27 77.28 27 114 27 C114 24.03 114 21.06 114 18 C115.32 18 116.64 18 118 18 C118 22.62 118 27.24 118 32 C116.68 32 115.36 32 114 32 C114 30.68 114 29.36 114 28 C78.36 28 42.72 28 6 28 C6 29.32 6 30.64 6 32 C4.35 32 2.7 32 1 32 C1 30.68 1 29.36 1 28 C-0.65 28 -2.3 28 -4 28 C-4 26.35 -4 24.7 -4 23 C-5.32 23 -6.64 23 -8 23 C-8 19.7 -8 16.4 -8 13 C-6.35 13 -4.7 13 -3 13 C-3 10.03 -3 7.06 -3 4 C-2.01 4 -1.02 4 0 4 C0 2.68 0 1.36 0 0 Z " fill="#5E5E5E" transform="translate(44,102)"/>
<path d="M0 0 C9.57 0 19.14 0 29 0 C29 1.65 29 3.3 29 5 C41.21 5 53.42 5 66 5 C66 6.32 66 7.64 66 9 C53.79 9.33 41.58 9.66 29 10 C28.67 11.32 28.34 12.64 28 14 C26.68 14 25.36 14 24 14 C24 12.68 24 11.36 24 10 C22.35 10 20.7 10 19 10 C19 8.35 19 6.7 19 5 C12.73 5 6.46 5 0 5 C0 3.35 0 1.7 0 0 Z " fill="#5E8C3B" transform="translate(68,167)"/>
<path d="M0 0 C12.21 0 24.42 0 37 0 C37 1.65 37 3.3 37 5 C26.44 5 15.88 5 5 5 C5 6.65 5 8.3 5 10 C15.56 10 26.12 10 37 10 C37 11.32 37 12.64 37 14 C24.79 14 12.58 14 0 14 C0 9.38 0 4.76 0 0 Z " fill="#835A3D" transform="translate(59,148)"/>
<path d="M0 0 C12.21 0 24.42 0 37 0 C37.495 1.98 37.495 1.98 38 4 C51.365 4.495 51.365 4.495 65 5 C65 6.32 65 7.64 65 9 C55.76 9 46.52 9 37 9 C37 7.68 37 6.36 37 5 C24.79 5 12.58 5 0 5 C0 3.35 0 1.7 0 0 Z " fill="#5C422F" transform="translate(97,153)"/>
<path d="M0 0 C3.96 0 7.92 0 12 0 C12.33 1.32 12.66 2.64 13 4 C15.475 4.495 15.475 4.495 18 5 C18 7.97 18 10.94 18 14 C10.41 14 2.82 14 -5 14 C-5 11.03 -5 8.06 -5 5 C-3.35 5 -1.7 5 0 5 C0 3.35 0 1.7 0 0 Z " fill="#404850" transform="translate(116,186)"/>
<path d="M0 0 C10.89 0 21.78 0 33 0 C32.67 0.99 32.34 1.98 32 3 C22.76 3 13.52 3 4 3 C4 6.3 4 9.6 4 13 C5.32 13 6.64 13 8 13 C8 14.65 8 16.3 8 18 C40.67 18 73.34 18 107 18 C107 18.33 107 18.66 107 19 C57.5 19.495 57.5 19.495 7 20 C6.67 19.34 6.34 18.68 6 18 C4.02 17.67 2.04 17.34 0 17 C0 11.39 0 5.78 0 0 Z " fill="#0E0916" transform="translate(46,107)"/>
<path d="M0 0 C21.45 0 42.9 0 65 0 C65 1.65 65 3.3 65 5 C74.24 5 83.48 5 93 5 C93 6.32 93 7.64 93 9 C80.79 9 68.58 9 56 9 C56 7.02 56 5.04 56 3 C57.98 3 59.96 3 62 3 C62 2.67 62 2.34 62 2 C41.54 1.67 21.08 1.34 0 1 C0 0.67 0 0.34 0 0 Z " fill="#608D3D" transform="translate(41,139)"/>
<path d="M0 0 C15.51 0 31.02 0 47 0 C47 1.65 47 3.3 47 5 C31.49 5 15.98 5 0 5 C0 3.35 0 1.7 0 0 Z " fill="#3B4F2F" transform="translate(45,92)"/>
<path d="M0 0 C1.65 0 3.3 0 5 0 C5 2.97 5 5.94 5 9 C6.32 9 7.64 9 9 9 C9 10.65 9 12.3 9 14 C12.3 14 15.6 14 19 14 C19 15.65 19 17.3 19 19 C17.02 19 15.04 19 13 19 C13 20.32 13 21.64 13 23 C10.03 23 7.06 23 4 23 C4 21.68 4 20.36 4 19 C1.03 19 -1.94 19 -5 19 C-5 17.35 -5 15.7 -5 14 C-2.03 14 0.94 14 4 14 C4 12.68 4 11.36 4 10 C2.68 10 1.36 10 0 10 C0 6.7 0 3.4 0 0 Z " fill="#171C19" transform="translate(31,153)"/>
<path d="M0 0 C1.65 0 3.3 0 5 0 C5 1.32 5 2.64 5 4 C12.59 4 20.18 4 28 4 C28 5.65 28 7.3 28 9 C25.03 9 22.06 9 19 9 C19 10.65 19 12.3 19 14 C14.38 14 9.76 14 5 14 C5 12.35 5 10.7 5 9 C3.35 9 1.7 9 0 9 C0 6.03 0 3.06 0 0 Z " fill="#5C8B39" transform="translate(106,83)"/>
<path d="M0 0 C1.65 0 3.3 0 5 0 C5 6.27 5 12.54 5 19 C6.65 19 8.3 19 10 19 C10 22.3 10 25.6 10 29 C11.32 29 12.64 29 14 29 C14 30.32 14 31.64 14 33 C11.03 33 8.06 33 5 33 C5 31.35 5 29.7 5 28 C3.68 28 2.36 28 1 28 C0.0178006 24.72373625 -0.11580914 21.77211881 -0.09765625 18.359375 C-0.09443359 17.28945312 -0.09121094 16.21953125 -0.08789062 15.1171875 C-0.07951172 14.00601563 -0.07113281 12.89484375 -0.0625 11.75 C-0.05798828 10.62335938 -0.05347656 9.49671875 -0.04882812 8.3359375 C-0.03705397 5.55723783 -0.0206084 2.77864591 0 0 Z " fill="#3E434C" transform="translate(21,134)"/>
<path d="M0 0 C4.62 0 9.24 0 14 0 C14 1.65 14 3.3 14 5 C9.71 5 5.42 5 1 5 C1 6.32 1 7.64 1 9 C3.97 9 6.94 9 10 9 C10 10.65 10 12.3 10 14 C12.97 14 15.94 14 19 14 C19 15.65 19 17.3 19 19 C16.03 19 13.06 19 10 19 C10 17.68 10 16.36 10 15 C6.7 15 3.4 15 0 15 C0 13.35 0 11.7 0 10 C-12.21 10 -24.42 10 -37 10 C-37 9.67 -37 9.34 -37 9 C-24.79 9 -12.58 9 0 9 C0 6.03 0 3.06 0 0 Z " fill="#2E3C27" transform="translate(134,167)"/>
<path d="M0 0 C1.65 0 3.3 0 5 0 C5 1.65 5 3.3 5 5 C6.65 5 8.3 5 10 5 C10 7.97 10 10.94 10 14 C3.73 14 -2.54 14 -9 14 C-9 5 -9 5 -8 4 C-5.32941149 3.85884839 -2.67567762 3.95752893 0 4 C0 2.68 0 1.36 0 0 Z " fill="#F26A9F" transform="translate(143,111)"/>
<path d="M0 0 C8.91 0 17.82 0 27 0 C27 1.32 27 2.64 27 4 C25.68 4 24.36 4 23 4 C23 5.65 23 7.3 23 9 C24.32 9 25.64 9 27 9 C27 10.32 27 11.64 27 13 C24.36 13 21.72 13 19 13 C19 11.68 19 10.36 19 9 C17.02 9 15.04 9 13 9 C13 7.35 13 5.7 13 4 C8.71 4 4.42 4 0 4 C0 2.68 0 1.36 0 0 Z " fill="#030304" transform="translate(135,163)"/>
<path d="M0 0 C0.33 0 0.66 0 1 0 C1 2.97 1 5.94 1 9 C4.96 9 8.92 9 13 9 C13.33 10.65 13.66 12.3 14 14 C4.76 14 -4.48 14 -14 14 C-14 12.35 -14 10.7 -14 9 C-12.35 9 -10.7 9 -9 9 C-9 7.35 -9 5.7 -9 4 C-6.03 4 -3.06 4 0 4 C0 2.68 0 1.36 0 0 Z " fill="#6794DD" transform="translate(87,111)"/>
<path d="M0 0 C12.21 0 24.42 0 37 0 C37 1.65 37 3.3 37 5 C24.79 5 12.58 5 0 5 C0 3.35 0 1.7 0 0 Z " fill="#13130C" transform="translate(97,167)"/>
<path d="M0 0 C1.32 0 2.64 0 4 0 C4 4.62 4 9.24 4 14 C2.68 14 1.36 14 0 14 C0 12.68 0 11.36 0 10 C-35.64 10 -71.28 10 -108 10 C-108 9.67 -108 9.34 -108 9 C-72.36 9 -36.72 9 0 9 C0 6.03 0 3.06 0 0 Z " fill="#707070" transform="translate(158,120)"/>
<path d="M0 0 C14.19 0 28.38 0 43 0 C43 0.33 43 0.66 43 1 C29.14 1 15.28 1 1 1 C1 8.59 1 16.18 1 24 C5.29 24 9.58 24 14 24 C14 25.65 14 27.3 14 29 C8.06 29 2.12 29 -4 29 C-4 27.35 -4 25.7 -4 24 C-2.68 24 -1.36 24 0 24 C0 16.08 0 8.16 0 0 Z " fill="#3D552E" transform="translate(54,143)"/>
<path d="M0 0 C0.99 0 1.98 0 3 0 C3.04241723 2.33294775 3.04092937 4.66702567 3 7 C1.06370245 8.93629755 -2.47603942 8.413051 -5.125 8.5625 C-5.83333984 8.6049585 -6.54167969 8.64741699 -7.27148438 8.69116211 C-14.51716592 9.08986713 -21.74530515 9.09381071 -29 9 C-29 7.35 -29 5.7 -29 4 C-19.43 4 -9.86 4 0 4 C0 2.68 0 1.36 0 0 Z " fill="#60422C" transform="translate(163,144)"/>
<path d="M0 0 C10.89 0 21.78 0 33 0 C33 2.97 33 5.94 33 9 C31.68 9 30.36 9 29 9 C29 7.35 29 5.7 29 4 C19.43 4 9.86 4 0 4 C0 2.68 0 1.36 0 0 Z " fill="#000003" transform="translate(134,153)"/>
<path d="M0 0 C5.94 0 11.88 0 18 0 C18 1.32 18 2.64 18 4 C16.35 4 14.7 4 13 4 C13 5.32 13 6.64 13 8 C5.74 8 -1.52 8 -9 8 C-9 7.01 -9 6.02 -9 5 C-6.03 5 -3.06 5 0 5 C0 3.35 0 1.7 0 0 Z " fill="#010102" transform="translate(64,177)"/>
<path d="M0 0 C12.21 0 24.42 0 37 0 C37 1.32 37 2.64 37 4 C24.79 4 12.58 4 0 4 C0 2.68 0 1.36 0 0 Z " fill="#8D5E3B" transform="translate(97,163)"/>
<path d="M0 0 C12.21 0 24.42 0 37 0 C37 1.32 37 2.64 37 4 C24.79 4 12.58 4 0 4 C0 2.68 0 1.36 0 0 Z " fill="#050104" transform="translate(97,158)"/>
<path d="M0 0 C12.21 0 24.42 0 37 0 C37 1.32 37 2.64 37 4 C24.79 4 12.58 4 0 4 C0 2.68 0 1.36 0 0 Z " fill="#0A0507" transform="translate(97,149)"/>
<path d="M0 0 C1.32 0 2.64 0 4 0 C4 12.21 4 24.42 4 37 C2.68 37 1.36 37 0 37 C0 24.79 0 12.58 0 0 Z " fill="#010103" transform="translate(186,130)"/>
<path d="M0 0 C1.32 0 2.64 0 4 0 C4 12.21 4 24.42 4 37 C2.68 37 1.36 37 0 37 C0 24.79 0 12.58 0 0 Z " fill="#010002" transform="translate(8,130)"/>
<path d="M0 0 C3.3 0 6.6 0 10 0 C10 3.3 10 6.6 10 10 C11.32 10 12.64 10 14 10 C14.84191782 12.9248633 15.11819313 15.50741656 15.09765625 18.546875 C15.09443359 19.39121094 15.09121094 20.23554687 15.08789062 21.10546875 C15.07951172 21.97816406 15.07113281 22.85085937 15.0625 23.75 C15.05798828 24.63816406 15.05347656 25.52632812 15.04882812 26.44140625 C15.037074 28.62767329 15.02064249 30.81380179 15 33 C14.67 33 14.34 33 14 33 C14 28.38 14 23.76 14 19 C12.68 19 11.36 19 10 19 C10 21.97 10 24.94 10 28 C9.67 28 9.34 28 9 28 C9 22.06 9 16.12 9 10 C7.68 10 6.36 10 5 10 C5 8.35 5 6.7 5 5 C3.35 5 1.7 5 0 5 C0 3.35 0 1.7 0 0 Z " fill="#454545" transform="translate(148,101)"/>
<path d="M0 0 C11.22 0 22.44 0 34 0 C34 0.33 34 0.66 34 1 C67.66 1.495 67.66 1.495 102 2 C102 2.33 102 2.66 102 3 C68.34 3 34.68 3 0 3 C0 2.01 0 1.02 0 0 Z " fill="#C3C2C1" transform="translate(45,103)"/>
<path d="M0 0 C1.32 0 2.64 0 4 0 C4 7.59 4 15.18 4 23 C2.68 23 1.36 23 0 23 C0 24.65 0 26.3 0 28 C-1.65 28 -3.3 28 -5 28 C-5 25.03 -5 22.06 -5 19 C-3.35 19 -1.7 19 0 19 C0 12.73 0 6.46 0 0 Z " fill="#414951" transform="translate(172,134)"/>
<path d="M0 0 C1.32 0 2.64 0 4 0 C4 10.89 4 21.78 4 33 C2.68 33 1.36 33 0 33 C0 22.11 0 11.22 0 0 Z " fill="#030405" transform="translate(13,97)"/>
<path d="M0 0 C10.56 0 21.12 0 32 0 C32 1.32 32 2.64 32 4 C21.44 4 10.88 4 0 4 C0 2.68 0 1.36 0 0 Z " fill="#090407" transform="translate(64,153)"/>
<path d="M0 0 C1.32 0 2.64 0 4 0 C4 10.56 4 21.12 4 32 C2.68 32 1.36 32 0 32 C0 21.44 0 10.88 0 0 Z " fill="#030307" transform="translate(181,97)"/>
<path d="M0 0 C10.56 0 21.12 0 32 0 C32 1.32 32 2.64 32 4 C21.44 4 10.88 4 0 4 C0 2.68 0 1.36 0 0 Z " fill="#000107" transform="translate(83,50)"/>
<path d="M0 0 C1.32 0 2.64 0 4 0 C4 10.23 4 20.46 4 31 C2.68 31 1.36 31 0 31 C0 20.77 0 10.54 0 0 Z " fill="#000103" transform="translate(191,168)"/>
<path d="M0 0 C1.32 0 2.64 0 4 0 C4 10.23 4 20.46 4 31 C2.68 31 1.36 31 0 31 C0 20.77 0 10.54 0 0 Z " fill="#000004" transform="translate(3,168)"/>
<path d="M0 0 C5.94 0 11.88 0 18 0 C18 1.65 18 3.3 18 5 C19.65 5 21.3 5 23 5 C23 6.32 23 7.64 23 9 C24.32 9 25.64 9 27 9 C27.33 7.68 27.66 6.36 28 5 C28 6.65 28 8.3 28 10 C21.07 9.505 21.07 9.505 14 9 C14 7.35 14 5.7 14 4 C9.38 4 4.76 4 0 4 C0 2.68 0 1.36 0 0 Z " fill="#45672C" transform="translate(69,172)"/>
<path d="M0 0 C4.62 0 9.24 0 14 0 C14 4.29 14 8.58 14 13 C12.68 13 11.36 13 10 13 C10 11.68 10 10.36 10 9 C8.35 9 6.7 9 5 9 C5 7.35 5 5.7 5 4 C3.35 4 1.7 4 0 4 C0 2.68 0 1.36 0 0 Z " fill="#628C43" transform="translate(87,83)"/>
<path d="M0 0 C9.24 0 18.48 0 28 0 C28 1.32 28 2.64 28 4 C18.76 4 9.52 4 0 4 C0 2.68 0 1.36 0 0 Z " fill="#63432C" transform="translate(134,158)"/>
<path d="M0 0 C9.24 0 18.48 0 28 0 C28 1.32 28 2.64 28 4 C18.76 4 9.52 4 0 4 C0 2.68 0 1.36 0 0 Z " fill="#618C40" transform="translate(64,92)"/>
<path d="M0 0 C9.24 0 18.48 0 28 0 C28 1.32 28 2.64 28 4 C18.76 4 9.52 4 0 4 C0 2.68 0 1.36 0 0 Z " fill="#030405" transform="translate(115,55)"/>
<path d="M0 0 C9.24 0 18.48 0 28 0 C28 1.32 28 2.64 28 4 C18.76 4 9.52 4 0 4 C0 2.68 0 1.36 0 0 Z " fill="#030305" transform="translate(55,55)"/>
<path d="M0 0 C10.89 0 21.78 0 33 0 C32.67 0.99 32.34 1.98 32 3 C22.76 3.33 13.52 3.66 4 4 C3.67 6.97 3.34 9.94 3 13 C2.34 13.99 1.68 14.98 1 16 C1.99 16.33 2.98 16.66 4 17 C2.68 17 1.36 17 0 17 C0 11.39 0 5.78 0 0 Z " fill="#010101" transform="translate(46,107)"/>
<path d="M0 0 C8.91 0 17.82 0 27 0 C27 1.32 27 2.64 27 4 C18.09 4 9.18 4 0 4 C0 2.68 0 1.36 0 0 Z " fill="#030202" transform="translate(135,144)"/>
<path d="M0 0 C1.32 0 2.64 0 4 0 C4 1.65 4 3.3 4 5 C5.65 5 7.3 5 9 5 C9 6.32 9 7.64 9 9 C10.65 9 12.3 9 14 9 C14 10.65 14 12.3 14 14 C10.7 14 7.4 14 4 14 C4 12.35 4 10.7 4 9 C2.68 9 1.36 9 0 9 C0 6.03 0 3.06 0 0 Z " fill="#3E5928" transform="translate(36,153)"/>
<path d="M0 0 C3.41664873 -0.02908357 6.8332655 -0.04682691 10.25 -0.0625 C11.70212891 -0.07506836 11.70212891 -0.07506836 13.18359375 -0.08789062 C14.11816406 -0.09111328 15.05273438 -0.09433594 16.015625 -0.09765625 C16.87446289 -0.10289307 17.73330078 -0.10812988 18.61816406 -0.11352539 C20.88670744 -0.00539986 22.82631715 0.36417577 25 1 C25 1.66 25 2.32 25 3 C25.99 3.33 26.98 3.66 28 4 C18.76 4 9.52 4 0 4 C0 2.68 0 1.36 0 0 Z " fill="#486B2C" transform="translate(106,140)"/>
<path d="M0 0 C1.65 0 3.3 0 5 0 C5 6.27 5 12.54 5 19 C3.35 19 1.7 19 0 19 C0 12.73 0 6.46 0 0 Z " fill="#070A09" transform="translate(26,134)"/>
<path d="M0 0 C0.33 0 0.66 0 1 0 C1 2.97 1 5.94 1 9 C2.32 9 3.64 9 5 9 C5 7.68 5 6.36 5 5 C6.65 5 8.3 5 10 5 C10 6.32 10 7.64 10 9 C11.32 9 12.64 9 14 9 C14.33 7.68 14.66 6.36 15 5 C15 6.65 15 8.3 15 10 C13.35 10 11.7 10 10 10 C10 12.97 10 15.94 10 19 C8.35 19 6.7 19 5 19 C5 16.03 5 13.06 5 10 C3.35 10 1.7 10 0 10 C0 6.7 0 3.4 0 0 Z " fill="#2F3337" transform="translate(101,181)"/>
<path d="M0 0 C4.29 0 8.58 0 13 0 C13 1.65 13 3.3 13 5 C14.65 5 16.3 5 18 5 C18 6.32 18 7.64 18 9 C15.03 9 12.06 9 9 9 C9 7.35 9 5.7 9 4 C6.03 4 3.06 4 0 4 C0 2.68 0 1.36 0 0 Z " fill="#020203" transform="translate(135,172)"/>
<path d="M0 0 C4.29 0 8.58 0 13 0 C13 1.32 13 2.64 13 4 C10.03 4 7.06 4 4 4 C4 5.65 4 7.3 4 9 C1.03 9 -1.94 9 -5 9 C-5 7.68 -5 6.36 -5 5 C-3.35 5 -1.7 5 0 5 C0 3.35 0 1.7 0 0 Z " fill="#010203" transform="translate(50,172)"/>
<path d="M0 0 C7.59 0 15.18 0 23 0 C23 1.32 23 2.64 23 4 C15.41 4 7.82 4 0 4 C0 2.68 0 1.36 0 0 Z " fill="#875C3E" transform="translate(97,153)"/>
<path d="M0 0 C7.59 0 15.18 0 23 0 C23 1.32 23 2.64 23 4 C15.41 4 7.82 4 0 4 C0 2.68 0 1.36 0 0 Z " fill="#4A6736" transform="translate(139,139)"/>
<path d="M0 0 C7.59 0 15.18 0 23 0 C23 1.32 23 2.64 23 4 C15.41 4 7.82 4 0 4 C0 2.68 0 1.36 0 0 Z " fill="#020205" transform="translate(59,78)"/>
<path d="M0 0 C7.59 0 15.18 0 23 0 C23 1.32 23 2.64 23 4 C15.41 4 7.82 4 0 4 C0 2.68 0 1.36 0 0 Z " fill="#020205" transform="translate(116,78)"/>
<path d="M0 0 C11.88 0 23.76 0 36 0 C36 0.99 36 1.98 36 3 C27.75 3 19.5 3 11 3 C11 2.34 11 1.68 11 1 C7.7 1 4.4 1 1 1 C0.67 1.99 0.34 2.98 0 4 C0 2.68 0 1.36 0 0 Z " fill="#925C3A" transform="translate(60,149)"/>
<path d="M0 0 C2.97 0 5.94 0 9 0 C9 1.98 9 3.96 9 6 C11.64 6.33 14.28 6.66 17 7 C17 7.33 17 7.66 17 8 C10.07 8 3.14 8 -4 8 C-4 7.01 -4 6.02 -4 5 C-3.01 4.67 -2.02 4.34 -1 4 C-0.67 2.68 -0.34 1.36 0 0 Z " fill="#6F8EF6" transform="translate(78,116)"/>
<path d="M0 0 C0.33 0 0.66 0 1 0 C1 3.3 1 6.6 1 10 C-3.95 10 -8.9 10 -14 10 C-14 11.32 -14 12.64 -14 14 C-16.97 14 -19.94 14 -23 14 C-23 12.68 -23 11.36 -23 10 C-25.97 10 -28.94 10 -32 10 C-32.33 11.32 -32.66 12.64 -33 14 C-33 12.35 -33 10.7 -33 9 C-22.11 9 -11.22 9 0 9 C0 6.03 0 3.06 0 0 Z " fill="#262F28" transform="translate(82,73)"/>
<path d="M0 0 C10.89 0 21.78 0 33 0 C33 1.65 33 3.3 33 5 C32.505 3.02 32.505 3.02 32 1 C29.03 1 26.06 1 23 1 C23 2.32 23 3.64 23 5 C21.68 5 20.36 5 19 5 C19 6.65 19 8.3 19 10 C18.67 10 18.34 10 18 10 C18 8.35 18 6.7 18 5 C16.35 5 14.7 5 13 5 C13 3.68 13 2.36 13 1 C8.71 1 4.42 1 0 1 C0 0.67 0 0.34 0 0 Z " fill="#2E3D27" transform="translate(116,82)"/>
<path d="M0 0 C1.98 0 3.96 0 6 0 C6 1.65 6 3.3 6 5 C4.35 5 2.7 5 1 5 C1 7.97 1 10.94 1 14 C-0.65 14 -2.3 14 -4 14 C-4 10.7 -4 7.4 -4 4 C-2.68 4 -1.36 4 0 4 C0 2.68 0 1.36 0 0 Z " fill="#EAEBED" transform="translate(63,186)"/>
<path d="M0 0 C1.98 0 3.96 0 6 0 C6 1.32 6 2.64 6 4 C7.32 4 8.64 4 10 4 C10 7.3 10 10.6 10 14 C8.35 14 6.7 14 5 14 C5 11.03 5 8.06 5 5 C3.35 5 1.7 5 0 5 C0 3.35 0 1.7 0 0 Z " fill="#EAEBED" transform="translate(129,186)"/>
<path d="M0 0 C9.24 0 18.48 0 28 0 C28 0.33 28 0.66 28 1 C19.42 1 10.84 1 2 1 C1.67 3.97 1.34 6.94 1 10 C-3.79300133 11.39151652 -8.15135782 10.68662689 -13 10 C-13.33 10.99 -13.66 11.98 -14 13 C-14 11.68 -14 10.36 -14 9 C-10.7 9 -7.4 9 -4 9 C-4 7.35 -4 5.7 -4 4 C-2.68 4 -1.36 4 0 4 C0 2.68 0 1.36 0 0 Z " fill="#D773F5" transform="translate(115,111)"/>
<path d="M0 0 C0.33 0 0.66 0 1 0 C1 4.62 1 9.24 1 14 C2.32 14 3.64 14 5 14 C5 10.7 5 7.4 5 4 C6.65 4 8.3 4 10 4 C9.67 5.65 9.34 7.3 9 9 C8.01 9 7.02 9 6 9 C6 11.97 6 14.94 6 18 C4.35 18 2.7 18 1 18 C1 21.3 1 24.6 1 28 C0.67 28 0.34 28 0 28 C0 23.38 0 18.76 0 14 C-1.32 13.67 -2.64 13.34 -4 13 C-2.68 13 -1.36 13 0 13 C0 8.71 0 4.42 0 0 Z " fill="#27282C" transform="translate(35,97)"/>
<path d="M0 0 C3.125 -0.1875 3.125 -0.1875 6 0 C6 2.64 6 5.28 6 8 C1.38 8 -3.24 8 -8 8 C-7.67 7.01 -7.34 6.02 -7 5 C-5.33927151 4.31867549 -3.672233 3.65257873 -2 3 C-1.34 2.01 -0.68 1.02 0 0 Z " fill="#F56CA5" transform="translate(147,116)"/>
<path d="M0 0 C6.27 0 12.54 0 19 0 C19 1.32 19 2.64 19 4 C12.73 4 6.46 4 0 4 C0 2.68 0 1.36 0 0 Z " fill="#476632" transform="translate(68,83)"/>
<path d="M0 0 C10.89 0 21.78 0 33 0 C33 2.97 33 5.94 33 9 C31.68 9 30.36 9 29 9 C29 7.35 29 5.7 29 4 C28.01 3.67 27.02 3.34 26 3 C26 2.67 26 2.34 26 2 C17.75 1.67 9.5 1.34 1 1 C0.67 1.99 0.34 2.98 0 4 C0 2.68 0 1.36 0 0 Z " fill="#0F0807" transform="translate(134,153)"/>
<path d="M0 0 C1.65 0 3.3 0 5 0 C5.84191782 2.9248633 6.11819313 5.50741656 6.09765625 8.546875 C6.09282227 9.81337891 6.09282227 9.81337891 6.08789062 11.10546875 C6.07951172 11.97816406 6.07113281 12.85085937 6.0625 13.75 C6.05798828 14.63816406 6.05347656 15.52632812 6.04882812 16.44140625 C6.037074 18.62767329 6.02064249 20.81380179 6 23 C5.67 23 5.34 23 5 23 C5 18.38 5 13.76 5 9 C3.68 9 2.36 9 1 9 C1 11.97 1 14.94 1 18 C0.67 18 0.34 18 0 18 C0 12.06 0 6.12 0 0 Z " fill="#3C3C3B" transform="translate(157,111)"/>
<path d="M0 0 C4.62 0 9.24 0 14 0 C14 1.65 14 3.3 14 5 C9.38 5 4.76 5 0 5 C0 3.35 0 1.7 0 0 Z " fill="#455E2E" transform="translate(134,167)"/>
<path d="M0 0 C4.62 0 9.24 0 14 0 C14 1.65 14 3.3 14 5 C9.38 5 4.76 5 0 5 C0 3.35 0 1.7 0 0 Z " fill="#486435" transform="translate(139,92)"/>
<path d="M0 0 C16.335 0.495 16.335 0.495 33 1 C33 1.66 33 2.32 33 3 C21.78 3 10.56 3 -1 3 C-0.67 2.01 -0.34 1.02 0 0 Z " fill="#905A35" transform="translate(62,158)"/>
<path d="M0 0 C4.62 0 9.24 0 14 0 C14 1.65 14 3.3 14 5 C9.38 5 4.76 5 0 5 C0 3.35 0 1.7 0 0 Z " fill="#354729" transform="translate(87,181)"/>
<path d="M0 0 C2.64 0 5.28 0 8 0 C8 0.99 8 1.98 8 3 C6.68 3.33 5.36 3.66 4 4 C3.67 5.32 3.34 6.64 3 8 C0.36 8 -2.28 8 -5 8 C-5 6.68 -5 5.36 -5 4 C-3.35 4 -1.7 4 0 4 C0 2.68 0 1.36 0 0 Z " fill="#000102" transform="translate(41,168)"/>
<path d="M0 0 C2.97 0 5.94 0 9 0 C9 0.66 9 1.32 9 2 C7.35 2 5.7 2 4 2 C4 3.65 4 5.3 4 7 C8.62 7 13.24 7 18 7 C18 7.33 18 7.66 18 8 C11.73 8 5.46 8 -1 8 C-0.67 5.36 -0.34 2.72 0 0 Z " fill="#E66887" transform="translate(135,117)"/>
<path d="M0 0 C4.62 0 9.24 0 14 0 C14 1.32 14 2.64 14 4 C9.38 4 4.76 4 0 4 C0 2.68 0 1.36 0 0 Z " fill="#765238" transform="translate(120,163)"/>
<path d="M0 0 C1.32 0 2.64 0 4 0 C4 4.62 4 9.24 4 14 C2.68 14 1.36 14 0 14 C0 9.38 0 4.76 0 0 Z " fill="#5E5D5E" transform="translate(158,120)"/>
<path d="M0 0 C4.62 0 9.24 0 14 0 C14 1.32 14 2.64 14 4 C9.38 4 4.76 4 0 4 C0 2.68 0 1.36 0 0 Z " fill="#486631" transform="translate(50,92)"/>
<path d="M0 0 C9.9 0 19.8 0 30 0 C30 0.33 30 0.66 30 1 C25.05 1.33 20.1 1.66 15 2 C15 2.33 15 2.66 15 3 C10.05 3 5.1 3 0 3 C0 2.01 0 1.02 0 0 Z " fill="#000002" transform="translate(97,168)"/>
<path d="M0 0 C0.33 0 0.66 0 1 0 C1 3.3 1 6.6 1 10 C-2.3 10 -5.6 10 -9 10 C-9 8.35 -9 6.7 -9 5 C-6.03 5 -3.06 5 0 5 C0 3.35 0 1.7 0 0 Z " fill="#32422A" transform="translate(115,73)"/>
<path d="M0 0 C0.33 1.32 0.66 2.64 1 4 C2.32 4 3.64 4 5 4 C5 7.3 5 10.6 5 14 C-0.94 14 -6.88 14 -13 14 C-13 13.67 -13 13.34 -13 13 C-5.08 12.505 -5.08 12.505 3 12 C3.33 9.69 3.66 7.38 4 5 C3.01 5 2.02 5 1 5 C0.67 6.32 0.34 7.64 0 9 C0 7.68 0 6.36 0 5 C-4.62 5 -9.24 5 -14 5 C-14 4.67 -14 4.34 -14 4 C-9.38 4 -4.76 4 0 4 C0 2.68 0 1.36 0 0 Z " fill="#5A4230" transform="translate(162,139)"/>
<path d="M0 0 C4.29 0 8.58 0 13 0 C13 1.32 13 2.64 13 4 C8.71 4 4.42 4 0 4 C0 2.68 0 1.36 0 0 Z " fill="#8B5E3C" transform="translate(135,149)"/>
<path d="M0 0 C1.32 0 2.64 0 4 0 C4 4.29 4 8.58 4 13 C2.68 13 1.36 13 0 13 C0 8.71 0 4.42 0 0 Z " fill="#010107" transform="translate(177,83)"/>
<path d="M0 0 C1.32 0 2.64 0 4 0 C4 4.29 4 8.58 4 13 C2.68 13 1.36 13 0 13 C0 8.71 0 4.42 0 0 Z " fill="#010105" transform="translate(17,83)"/>
<path d="M0 0 C4.29 0 8.58 0 13 0 C13 1.32 13 2.64 13 4 C8.71 4 4.42 4 0 4 C0 2.68 0 1.36 0 0 Z " fill="#050609" transform="translate(144,60)"/>
<path d="M0 0 C4.29 0 8.58 0 13 0 C13 1.32 13 2.64 13 4 C8.71 4 4.42 4 0 4 C0 2.68 0 1.36 0 0 Z " fill="#08090D" transform="translate(41,60)"/>
<path d="M0 0 C2.64 0.33 5.28 0.66 8 1 C8 2.32 8 3.64 8 5 C9.32 5 10.64 5 12 5 C12.33 3.68 12.66 2.36 13 1 C13 2.65 13 4.3 13 6 C6.07 5.505 6.07 5.505 -1 5 C-0.67 3.35 -0.34 1.7 0 0 Z " fill="#41612A" transform="translate(84,176)"/>
<path d="M0 0 C7.26 0 14.52 0 22 0 C22 0.33 22 0.66 22 1 C19.36 1 16.72 1 14 1 C14 1.66 14 2.32 14 3 C9.38 3 4.76 3 0 3 C0 2.01 0 1.02 0 0 Z " fill="#000001" transform="translate(97,149)"/>
<path d="M0 0 C1.65 0 3.3 0 5 0 C5 1.32 5 2.64 5 4 C6.32 4 7.64 4 9 4 C9 5.65 9 7.3 9 9 C7.35 9 5.7 9 4 9 C4 7.68 4 6.36 4 5 C2.68 5 1.36 5 0 5 C0 3.35 0 1.7 0 0 Z " fill="#090A0C" transform="translate(17,158)"/>
<path d="M0 0 C1.65 0 3.3 0 5 0 C5 1.65 5 3.3 5 5 C3.68 5 2.36 5 1 5 C1 6.32 1 7.64 1 9 C-0.65 9 -2.3 9 -4 9 C-4 7.35 -4 5.7 -4 4 C-2.68 4 -1.36 4 0 4 C0 2.68 0 1.36 0 0 Z " fill="#090A0C" transform="translate(176,158)"/>
<path d="M0 0 C1.65 0 3.3 0 5 0 C5 2.97 5 5.94 5 9 C3.35 9 1.7 9 0 9 C0 6.03 0 3.06 0 0 Z " fill="#08080B" transform="translate(106,191)"/>
<path d="M0 0 C2.97 0 5.94 0 9 0 C9 1.65 9 3.3 9 5 C6.03 5 3.06 5 0 5 C0 3.35 0 1.7 0 0 Z " fill="#060608" transform="translate(163,167)"/>
<path d="M0 0 C2.97 0 5.94 0 9 0 C9 1.65 9 3.3 9 5 C6.03 5 3.06 5 0 5 C0 3.35 0 1.7 0 0 Z " fill="#050609" transform="translate(26,167)"/>
<path d="M0 0 C0.33 0 0.66 0 1 0 C1.02904864 3.91665108 1.04681517 7.8332744 1.0625 11.75 C1.07087891 12.86117187 1.07925781 13.97234375 1.08789062 15.1171875 C1.09111328 16.18710938 1.09433594 17.25703125 1.09765625 18.359375 C1.10289307 19.34389648 1.10812988 20.32841797 1.11352539 21.34277344 C1.01159103 23.72869514 0.68303357 25.72164581 0 28 C-1.32 28 -2.64 28 -4 28 C-4 26.35 -4 24.7 -4 23 C-2.68 23 -1.36 23 0 23 C0 15.41 0 7.82 0 0 Z " fill="#31363E" transform="translate(176,134)"/>
<path d="M0 0 C4.29 0 8.58 0 13 0 C13 1.32 13 2.64 13 4 C8.71 3.67 4.42 3.34 0 3 C0 2.01 0 1.02 0 0 Z " fill="#46672D" transform="translate(55,168)"/>
<path d="M0 0 C1.65 0 3.3 0 5 0 C5 3.63 5 7.26 5 11 C4.34 11 3.68 11 3 11 C2.896875 10.360625 2.79375 9.72125 2.6875 9.0625 C2.460625 8.381875 2.23375 7.70125 2 7 C1.01 6.67 0.02 6.34 -1 6 C-0.67 4.02 -0.34 2.04 0 0 Z " fill="#5C9034" transform="translate(95,84)"/>
<path d="M0 0 C8.91 0 17.82 0 27 0 C27 0.33 27 0.66 27 1 C19.74 1 12.48 1 5 1 C5 1.99 5 2.98 5 4 C3.35 4 1.7 4 0 4 C0 2.68 0 1.36 0 0 Z " fill="#614532" transform="translate(134,158)"/>
<path d="M0 0 C2.97 0 5.94 0 9 0 C9 1.65 9 3.3 9 5 C6.03 4.67 3.06 4.34 0 4 C0 2.68 0 1.36 0 0 Z " fill="#2A2B31" transform="translate(135,186)"/>
<path d="M0 0 C2.97 0 5.94 0 9 0 C9 1.32 9 2.64 9 4 C4.545 4.495 4.545 4.495 0 5 C0 3.35 0 1.7 0 0 Z " fill="#292B32" transform="translate(54,186)"/>
<path d="M0 0 C0.33 0 0.66 0 1 0 C1 2.97 1 5.94 1 9 C2.32 9 3.64 9 5 9 C5 10.98 5 12.96 5 15 C5.66 15.33 6.32 15.66 7 16 C4 16 4 16 2.5 14.5625 C2.005 14.046875 1.51 13.53125 1 13 C0.01 12.67 -0.98 12.34 -2 12 C-1.7834375 11.2575 -1.7834375 11.2575 -1.5625 10.5 C-0.78005593 7.02247078 -0.41305236 3.54044877 0 0 Z " fill="#132214" transform="translate(49,111)"/>
<path d="M0 0 C1.32 0 2.64 0 4 0 C4 3.3 4 6.6 4 10 C2.68 10 1.36 10 0 10 C0 6.7 0 3.4 0 0 Z " fill="#4A4A4B" transform="translate(36,115)"/>
<path d="M0 0 C0.33 0 0.66 0 1 0 C1 4.29 1 8.58 1 13 C-0.32 13 -1.64 13 -3 13 C-3 10.03 -3 7.06 -3 4 C-2.01 4 -1.02 4 0 4 C0 2.68 0 1.36 0 0 Z " fill="#4B4B4B" transform="translate(44,102)"/>
<path d="M0 0 C4.29 0 8.58 0 13 0 C13 0.99 13 1.98 13 3 C8.71 3 4.42 3 0 3 C0 2.01 0 1.02 0 0 Z " fill="#654227" transform="translate(120,154)"/>
<path d="M0 0 C1.98 0 3.96 0 6 0 C6 1.32 6 2.64 6 4 C8.64 4 11.28 4 14 4 C14 4.33 14 4.66 14 5 C9.38 5 4.76 5 0 5 C0 3.35 0 1.7 0 0 Z " fill="#2E3238" transform="translate(148,172)"/>
<path d="M0 0 C1.98 0 3.96 0 6 0 C6 1.65 6 3.3 6 5 C1.38 5 -3.24 5 -8 5 C-8 4.67 -8 4.34 -8 4 C-5.36 4 -2.72 4 0 4 C0 2.68 0 1.36 0 0 Z " fill="#2E3239" transform="translate(44,172)"/>
<path d="M0 0 C1.98 0 3.96 0 6 0 C6 0.99 6 1.98 6 3 C5.01 3 4.02 3 3 3 C3 4.65 3 6.3 3 8 C1.35 8 -0.3 8 -2 8 C-1.34 7.67 -0.68 7.34 0 7 C-0.2784375 5.824375 -0.2784375 5.824375 -0.5625 4.625 C-1 2 -1 2 0 0 Z " fill="#375021" transform="translate(33,136)"/>
<path d="M0 0 C2.97 0 5.94 0 9 0 C9 1.32 9 2.64 9 4 C6.03 4 3.06 4 0 4 C0 2.68 0 1.36 0 0 Z " fill="#2A2D35" transform="translate(144,182)"/>
<path d="M0 0 C2.97 0 5.94 0 9 0 C9 1.32 9 2.64 9 4 C6.03 4 3.06 4 0 4 C0 2.68 0 1.36 0 0 Z " fill="#2A2C36" transform="translate(45,182)"/>
<path d="M0 0 C2.97 0 5.94 0 9 0 C9 1.32 9 2.64 9 4 C6.03 4 3.06 4 0 4 C0 2.68 0 1.36 0 0 Z " fill="#424A51" transform="translate(55,177)"/>
<path d="M0 0 C2.97 0 5.94 0 9 0 C9 1.32 9 2.64 9 4 C6.03 4 3.06 4 0 4 C0 2.68 0 1.36 0 0 Z " fill="#434951" transform="translate(134,177)"/>
<path d="M0 0 C2.97 0 5.94 0 9 0 C9 1.32 9 2.64 9 4 C6.03 4 3.06 4 0 4 C0 2.68 0 1.36 0 0 Z " fill="#363841" transform="translate(26,163)"/>
<path d="M0 0 C1.32 0 2.64 0 4 0 C4 2.97 4 5.94 4 9 C2.68 9 1.36 9 0 9 C0 6.03 0 3.06 0 0 Z " fill="#040406" transform="translate(31,153)"/>
<path d="M0 0 C2.97 0 5.94 0 9 0 C9 1.32 9 2.64 9 4 C6.03 4 3.06 4 0 4 C0 2.68 0 1.36 0 0 Z " fill="#5F8D3E" transform="translate(139,139)"/>
<path d="M0 0 C2.97 0 5.94 0 9 0 C9 1.32 9 2.64 9 4 C6.03 4 3.06 4 0 4 C0 2.68 0 1.36 0 0 Z " fill="#656CED" transform="translate(78,116)"/>
<path d="M0 0 C0.66 0 1.32 0 2 0 C2 1.65 2 3.3 2 5 C-2.62 5 -7.24 5 -12 5 C-11.67 3.68 -11.34 2.36 -11 1 C-11 1.66 -11 2.32 -11 3 C-7.37 3 -3.74 3 0 3 C0 2.01 0 1.02 0 0 Z " fill="#587940" transform="translate(123,92)"/>
<path d="M0 0 C2.97 0 5.94 0 9 0 C9 1.32 9 2.64 9 4 C6.03 4 3.06 4 0 4 C0 2.68 0 1.36 0 0 Z " fill="#364B27" transform="translate(59,83)"/>
<path d="M0 0 C1.32 0 2.64 0 4 0 C4 2.97 4 5.94 4 9 C2.68 9 1.36 9 0 9 C0 6.03 0 3.06 0 0 Z " fill="#030305" transform="translate(172,74)"/>
<path d="M0 0 C1.32 0 2.64 0 4 0 C4 2.97 4 5.94 4 9 C2.68 9 1.36 9 0 9 C0 6.03 0 3.06 0 0 Z " fill="#030306" transform="translate(22,74)"/>
<path d="M0 0 C2.97 0 5.94 0 9 0 C9 1.32 9 2.64 9 4 C6.03 4 3.06 4 0 4 C0 2.68 0 1.36 0 0 Z " fill="#04030E" transform="translate(158,64)"/>
<path d="M0 0 C1.98 0 3.96 0 6 0 C6 1.32 6 2.64 6 4 C7.32 4.33 8.64 4.66 10 5 C6.7 5 3.4 5 0 5 C0 3.35 0 1.7 0 0 Z " fill="#B7B7B8" transform="translate(129,186)"/>
<path d="M0 0 C1.98 0 3.96 0 6 0 C6 1.65 6 3.3 6 5 C2.7 5 -0.6 5 -4 5 C-2.68 4.67 -1.36 4.34 0 4 C0 2.68 0 1.36 0 0 Z " fill="#B8B7B9" transform="translate(63,186)"/>
<path d="M0 0 C7.26 0 14.52 0 22 0 C22 0.33 22 0.66 22 1 C16.72 1 11.44 1 6 1 C6 1.66 6 2.32 6 3 C4.02 3 2.04 3 0 3 C0 2.01 0 1.02 0 0 Z " fill="#925E37" transform="translate(97,154)"/>
<path d="M0 0 C1.65 0 3.3 0 5 0 C5 1.32 5 2.64 5 4 C3.68 4 2.36 4 1 4 C1 8.62 1 13.24 1 18 C0.67 18 0.34 18 0 18 C0 12.06 0 6.12 0 0 Z " fill="#222222" transform="translate(157,111)"/>
<path d="M0 0 C1.65 0 3.3 0 5 0 C5 1.65 5 3.3 5 5 C0.38 5 -4.24 5 -9 5 C-9 4.67 -9 4.34 -9 4 C-6.03 4 -3.06 4 0 4 C0 2.68 0 1.36 0 0 Z " fill="#334529" transform="translate(148,92)"/>
<path d="M0 0 C1.32 0 2.64 0 4 0 C4 2.64 4 5.28 4 8 C2.68 8 1.36 8 0 8 C0 5.36 0 2.72 0 0 Z " fill="#26272E" transform="translate(130,191)"/>
<path d="M0 0 C1.32 0 2.64 0 4 0 C4 2.64 4 5.28 4 8 C2.68 8 1.36 8 0 8 C0 5.36 0 2.72 0 0 Z " fill="#26262D" transform="translate(64,191)"/>
<path d="M0 0 C2.64 0 5.28 0 8 0 C8 1.32 8 2.64 8 4 C5.36 4 2.72 4 0 4 C0 2.68 0 1.36 0 0 Z " fill="#020209" transform="translate(32,64)"/>
<path d="M0 0 C1.65 0 3.3 0 5 0 C4.67 1.65 4.34 3.3 4 5 C3.01 5 2.02 5 1 5 C1 7.97 1 10.94 1 14 C0.67 14 0.34 14 0 14 C0 9.38 0 4.76 0 0 Z " fill="#363636" transform="translate(40,101)"/>
<path d="M0 0 C0.33 1.32 0.66 2.64 1 4 C2.32 4.33 3.64 4.66 5 5 C3.68 5 2.36 5 1 5 C0.67 6.32 0.34 7.64 0 9 C0 7.68 0 6.36 0 5 C-4.62 5 -9.24 5 -14 5 C-14 4.67 -14 4.34 -14 4 C-9.38 4 -4.76 4 0 4 C0 2.68 0 1.36 0 0 Z " fill="#353926" transform="translate(162,139)"/>
<path d="M0 0 C2.97 0 5.94 0 9 0 C9 0.99 9 1.98 9 3 C6.03 3 3.06 3 0 3 C0 2.01 0 1.02 0 0 Z " fill="#F06CF8" transform="translate(102,121)"/>
<path d="M0 0 C3.96 0 7.92 0 12 0 C12 0.99 12 1.98 12 3 C8.04 2.67 4.08 2.34 0 2 C0 1.34 0 0.68 0 0 Z " fill="#436829" transform="translate(149,140)"/>
<path d="M0 0 C1.65 0 3.3 0 5 0 C5 1.65 5 3.3 5 5 C3.35 5 1.7 5 0 5 C0 3.35 0 1.7 0 0 Z " fill="#5B7F40" transform="translate(134,167)"/>
<path d="M0 0 C1.65 0 3.3 0 5 0 C5 1.65 5 3.3 5 5 C3.35 5 1.7 5 0 5 C0 3.35 0 1.7 0 0 Z " fill="#486B2E" transform="translate(45,162)"/>
<path d="M0 0 C1.65 0 3.3 0 5 0 C5 1.65 5 3.3 5 5 C3.35 5 1.7 5 0 5 C0 3.35 0 1.7 0 0 Z " fill="#354926" transform="translate(40,162)"/>
<path d="M0 0 C1.65 0 3.3 0 5 0 C5 1.65 5 3.3 5 5 C3.35 5 1.7 5 0 5 C0 3.35 0 1.7 0 0 Z " fill="#454444" transform="translate(40,125)"/>
<path d="M0 0 C1.65 0 3.3 0 5 0 C5 1.65 5 3.3 5 5 C3.35 5 1.7 5 0 5 C0 3.35 0 1.7 0 0 Z " fill="#4E4E4D" transform="translate(148,101)"/>
<path d="M0 0 C1.65 0 3.3 0 5 0 C5 1.65 5 3.3 5 5 C3.35 5 1.7 5 0 5 C0 3.35 0 1.7 0 0 Z " fill="#242424" transform="translate(153,101)"/>
<path d="M0 0 C1.65 0 3.3 0 5 0 C5 1.65 5 3.3 5 5 C3.35 5 1.7 5 0 5 C0 3.35 0 1.7 0 0 Z " fill="#476532" transform="translate(106,78)"/>
<path d="M0 0 C2.97 0.33 5.94 0.66 9 1 C9 1.66 9 2.32 9 3 C4.545 3.495 4.545 3.495 0 4 C0 2.68 0 1.36 0 0 Z " fill="#654226" transform="translate(120,163)"/>
<path d="M0 0 C1.32 0 2.64 0 4 0 C4 1.65 4 3.3 4 5 C2.68 5 1.36 5 0 5 C0 3.35 0 1.7 0 0 Z " fill="#050809" transform="translate(83,181)"/>
<path d="M0 0 C1.65 0 3.3 0 5 0 C5 1.32 5 2.64 5 4 C3.35 4 1.7 4 0 4 C0 2.68 0 1.36 0 0 Z " fill="#374D27" transform="translate(64,172)"/>
<path d="M0 0 C1.32 0 2.64 0 4 0 C4 1.65 4 3.3 4 5 C2.68 5 1.36 5 0 5 C0 3.35 0 1.7 0 0 Z " fill="#42464F" transform="translate(158,167)"/>
<path d="M0 0 C1.32 0 2.64 0 4 0 C4 1.65 4 3.3 4 5 C2.68 5 1.36 5 0 5 C0 3.35 0 1.7 0 0 Z " fill="#364529" transform="translate(144,167)"/>
<path d="M0 0 C1.32 0 2.64 0 4 0 C4 1.65 4 3.3 4 5 C2.68 5 1.36 5 0 5 C0 3.35 0 1.7 0 0 Z " fill="#434750" transform="translate(36,167)"/>
<path d="M0 0 C1.65 0 3.3 0 5 0 C5 1.32 5 2.64 5 4 C3.35 4 1.7 4 0 4 C0 2.68 0 1.36 0 0 Z " fill="#855D3D" transform="translate(134,158)"/>
<path d="M0 0 C1.32 0 2.64 0 4 0 C4 1.65 4 3.3 4 5 C2.68 5 1.36 5 0 5 C0 3.35 0 1.7 0 0 Z " fill="#44662C" transform="translate(36,153)"/>
<path d="M0 0 C1.32 0 2.64 0 4 0 C4 1.65 4 3.3 4 5 C2.68 5 1.36 5 0 5 C0 3.35 0 1.7 0 0 Z " fill="#354A25" transform="translate(31,148)"/>
<path d="M0 0 C1.32 0 2.64 0 4 0 C4 1.65 4 3.3 4 5 C2.68 5 1.36 5 0 5 C0 3.35 0 1.7 0 0 Z " fill="#456A2B" transform="translate(36,139)"/>
<path d="M0 0 C1.32 0 2.64 0 4 0 C4 1.65 4 3.3 4 5 C2.68 5 1.36 5 0 5 C0 3.35 0 1.7 0 0 Z " fill="#374D27" transform="translate(83,78)"/>
<path d="M0 0 C0.99 0 1.98 0 3 0 C3 1.65 3 3.3 3 5 C1.68 5 0.36 5 -1 5 C-0.67 3.35 -0.34 1.7 0 0 Z " fill="#364C26" transform="translate(84,176)"/>
<path d="M0 0 C2.31 0 4.62 0 7 0 C6.67 0.99 6.34 1.98 6 3 C4.02 3 2.04 3 0 3 C0 2.01 0 1.02 0 0 Z " fill="#000003" transform="translate(41,60)"/>
<path d="M0 0 C1.65 0 3.3 0 5 0 C4.01 0.33 3.02 0.66 2 1 C1.67 2.65 1.34 4.3 1 6 C-0.65 5.67 -2.3 5.34 -4 5 C-2.68 4.67 -1.36 4.34 0 4 C0 2.68 0 1.36 0 0 Z " fill="#CE7AF9" transform="translate(115,111)"/>
</svg>
