<?xml version="1.0" encoding="UTF-8"?>
<svg version="1.1" xmlns="http://www.w3.org/2000/svg" width="200" height="200">
<path d="M0 0 C66 0 132 0 200 0 C200 66 200 132 200 200 C134 200 68 200 0 200 C0 134 0 68 0 0 Z " fill="#39923C" transform="translate(0,0)"/>
<path d="M0 0 C66 0 132 0 200 0 C200 66 200 132 200 200 C134 200 68 200 0 200 C0 134 0 68 0 0 Z M101 23 C101 23.66 101 24.32 101 25 C100.30132812 24.50628906 99.60265625 24.01257812 98.8828125 23.50390625 C97.51769531 22.54291016 97.51769531 22.54291016 96.125 21.5625 C95.22007813 20.92441406 94.31515625 20.28632813 93.3828125 19.62890625 C87.73931951 15.77097744 81.64947804 16.26755209 75 17 C65.53823639 20.61367648 59.36455793 30.27088414 55 39 C55 39.99 55 40.98 55 42 C54.319375 42.185625 53.63875 42.37125 52.9375 42.5625 C48.79422141 44.59006186 46.13061459 47.66741028 43 51 C40.46880006 53.5914666 38.07894038 55.94035616 35.1875 58.125 C34.1046875 59.053125 34.1046875 59.053125 33 60 C33 60.99 33 61.98 33 63 C33.66 63 34.32 63 35 63 C34.93039063 64.73636719 34.93039063 64.73636719 34.859375 66.5078125 C34.82183752 68.04684906 34.78543949 69.5859137 34.75 71.125 C34.71648438 71.88554688 34.68296875 72.64609375 34.6484375 73.4296875 C34.55353202 78.93420522 35.52256328 81.71481224 39 86 C37.87732414 88.38212441 36.6416611 90.57048189 35.23828125 92.8046875 C34.60277344 93.81789063 33.96726562 94.83109375 33.3125 95.875 C32.66925781 96.88304688 32.02601562 97.89109375 31.36328125 98.9296875 C29.75398787 102.55405598 29.81945323 104.25189634 31 108 C31.86625 108.78375 32.7325 109.5675 33.625 110.375 C36 113 36 113 35.96484375 114.9140625 C35.69604045 116.30766407 35.41864962 117.69963596 35.1328125 119.08984375 C34.91729343 122.18951511 37.0718555 123.72128378 39 126 C38.979375 127.0725 38.95875 128.145 38.9375 129.25 C39.01434007 133.8604045 40.52336917 136.23632636 42.90625 140.08203125 C44 142 44 142 44 144 C42.948125 144.37125 42.948125 144.37125 41.875 144.75 C28.66921329 150.49164639 19.16873687 163.9489394 14 177 C12.92999548 180.13441541 12.93435811 180.66986911 14 184 C22.60700236 191.2312242 32.04376983 192.3458885 42.875 192.3125 C43.91269531 192.32861328 44.95039062 192.34472656 46.01953125 192.36132812 C55.5834107 192.36735831 62.54821572 190.4104924 70.5 185 C71.5209375 184.319375 72.541875 183.63875 73.59375 182.9375 C76.24768982 181.15792371 76.24768982 181.15792371 77 178 C78.52994792 179.20442708 80.05989583 180.40885417 81.58984375 181.61328125 C90.33399013 186.64435413 99.50539175 186.5452772 109.3125 186.6875 C110.8457176 186.71761473 112.37892097 186.74846294 113.91210938 186.7800293 C116.92131182 186.83933072 119.93046688 186.88942971 122.93994141 186.93261719 C126.30927615 186.98321044 129.67518832 187.07899983 133.04296875 187.1953125 C151.09169604 187.70643297 171.96711711 184.33782179 186 172 C191.9915394 164.83592278 194.36655185 158.02989128 194.25 148.6875 C194.24395752 147.89843262 194.23791504 147.10936523 194.23168945 146.29638672 C194.10955527 138.87210891 193.36171705 131.59999181 192.31201172 124.25537109 C191.98020677 121.856925 191.69411461 119.45533505 191.41015625 117.05078125 C187.82039762 88.18602197 172.45343787 57.49231679 152.25 36.53125 C150.01329013 34.0149514 148.40192185 31.55027827 146.75 28.625 C143.52474831 22.92434506 139.57945616 18.96201849 133.3125 16.5 C121.73630449 13.99703881 110.11647964 15.40293363 101 23 Z " fill="#E5E5E5" transform="translate(0,0)"/>
<path d="M0 0 C3.5 1.75 3.5 1.75 6 4 C7.1137184 4.76665267 8.23885026 5.51700016 9.375 6.25 C10.24125 6.8275 11.1075 7.405 12 8 C12.226875 7.401875 12.45375 6.80375 12.6875 6.1875 C14.37304841 3.37825265 16.05002192 2.36706301 19 1 C19.99 1.33 20.98 1.66 22 2 C21.0925 2.5775 20.185 3.155 19.25 3.75 C13.94238051 7.4245058 11.91474926 9.83585106 10 16 C10.69561035 15.98428955 11.3912207 15.9685791 12.10791016 15.95239258 C15.28018971 15.88977137 18.45233885 15.85092323 21.625 15.8125 C23.26662109 15.77479492 23.26662109 15.77479492 24.94140625 15.73632812 C34.24807392 15.65172206 39.12885538 17.94684879 46 24 C44.515 24.495 44.515 24.495 43 25 C42.13375 24.236875 41.2675 23.47375 40.375 22.6875 C33.80422648 16.93207794 24.83909485 17.6301646 16.5390625 17.73828125 C12.0494244 18.07029643 9.02513654 19.02540472 5 21 C4.21625 21.309375 3.4325 21.61875 2.625 21.9375 C0.51166836 23.31929376 0.11287073 24.7384877 -1 27 C-2.54946835 29.35230169 -4.15132924 31.66291914 -5.7578125 33.9765625 C-7.17439306 35.88835656 -7.17439306 35.88835656 -7 38 C-6.01 37.01 -6.01 37.01 -5 36 C-1.98472818 35.78740406 0.93622379 35.69604981 3.953125 35.69921875 C4.84610291 35.69493362 5.73908081 35.6906485 6.65911865 35.68623352 C8.55219678 35.68048297 10.445297 35.67999528 12.33837891 35.68432617 C15.22467263 35.68747239 18.10992789 35.66408435 20.99609375 35.63867188 C22.83593621 35.63639747 24.67578142 35.63569604 26.515625 35.63671875 C27.37520813 35.627509 28.23479126 35.61829926 29.12042236 35.60881042 C36.03779103 35.66174641 40.85505808 37.44430149 45.875 42.375 C48.20107025 44.78286613 48.93364344 45.55446312 49.4375 48.9375 C49.293125 49.618125 49.14875 50.29875 49 51 C48.74863281 50.41476563 48.49726563 49.82953125 48.23828125 49.2265625 C46.84489118 46.7210977 45.34761168 45.25012562 43.1875 43.375 C42.52105469 42.78460938 41.85460937 42.19421875 41.16796875 41.5859375 C35.52612732 37.4587526 30.0751445 37.63405914 23.3125 37.625 C21.89807617 37.58826172 21.89807617 37.58826172 20.45507812 37.55078125 C11.9383059 37.51566054 4.71548234 39.28473471 -1.75 45.05859375 C-2.8491645 46.16945148 -3.9327822 47.29591616 -5 48.4375 C-5.55816406 48.99759766 -6.11632812 49.55769531 -6.69140625 50.13476562 C-9.67394464 53.21432635 -11.74523445 55.80437769 -13 60 C-13.33 60 -13.66 60 -14 60 C-15.0695349 55.72186038 -15.67346774 51.38203012 -15 47 C-13.71937515 45.2925002 -12.38232443 43.62626404 -11 42 C-10.57960868 40.09207018 -10.16112426 38.18357931 -9.76953125 36.26953125 C-8.20041535 31.64183411 -4.94631092 27.8443843 -2 24 C-11.3251282 20.47309826 -21.26257274 20.84951238 -30.453125 24.65625 C-35.83987901 27.49834107 -40.60685364 30.91028046 -44 36 C-43.443125 35.97679687 -42.88625 35.95359375 -42.3125 35.9296875 C-36.83141448 35.80006723 -32.23266821 36.31807093 -27 38 C-26.67 38.66 -26.34 39.32 -26 40 C-26.83917969 39.83757813 -27.67835937 39.67515625 -28.54296875 39.5078125 C-32.18125286 38.97337529 -35.63680665 38.86723718 -39.3125 38.875 C-40.54613281 38.87242188 -41.77976563 38.86984375 -43.05078125 38.8671875 C-45.88754261 38.66268264 -45.88754261 38.66268264 -47 40 C-45.9378125 39.95359375 -44.875625 39.9071875 -43.78125 39.859375 C-29.66321236 39.4272072 -29.66321236 39.4272072 -23 44 C-21.98144339 44.98109246 -20.97627096 45.97682112 -20 47 C-20.495 47.99 -20.495 47.99 -21 49 C-21.721875 48.38125 -22.44375 47.7625 -23.1875 47.125 C-28.58500366 43.04688612 -33.07800122 42.68296588 -39.625 42.75 C-40.388125 42.74226563 -41.15125 42.73453125 -41.9375 42.7265625 C-45.80781054 42.74014254 -47.71059323 42.80706215 -51 45 C-51 46.32 -51 47.64 -51 49 C-50.46375 48.175 -49.9275 47.35 -49.375 46.5 C-46.3552702 43.47161768 -43.33865051 43.50847751 -39.1875 43.375 C-31.08268154 43.71305291 -27.22928836 45.64418075 -21.70703125 51.3828125 C-17.54575346 56.18153216 -17.54575346 56.18153216 -16 59 C-16.28515625 61.8125 -16.28515625 61.8125 -17 64 C-17.99 63.505 -17.99 63.505 -19 63 C-19.37309899 61.34178227 -19.70700977 59.67422986 -20 58 C-20.33 57.67 -20.66 57.34 -21 57 C-21.33 59.31 -21.66 61.62 -22 64 C-21.01 64.495 -21.01 64.495 -20 65 C-22.52767366 67.52767366 -29.29532003 66.28293422 -32.6875 66.3125 C-33.77740234 66.34150391 -34.86730469 66.37050781 -35.99023438 66.40039062 C-42.30558898 66.45035996 -46.19822652 66.2635712 -51 62 C-49.24545615 65.18234105 -49.24545615 65.18234105 -47 68 C-44.67182036 68.36760731 -42.3381615 68.70241581 -40 69 C-40 69.66 -40 70.32 -40 71 C-42.475 71.495 -42.475 71.495 -45 72 C-42.69 72.66 -40.38 73.32 -38 74 C-38 74.33 -38 74.66 -38 75 C-45.42857143 75.28571429 -45.42857143 75.28571429 -49 73 C-51.40438664 75.50456942 -51.98543735 76.86893618 -52.375 80.375 C-51.7052941 86.84882366 -48.89886604 90.81804118 -44 95 C-39.16688331 96.6365603 -33.97740932 96.19141662 -28.9375 96.1875 C-27.86854492 96.18669434 -26.79958984 96.18588867 -25.69824219 96.18505859 C-16.03493675 96.11169917 -6.56525544 95.33546324 3 94 C4.03511719 93.855625 5.07023437 93.71125 6.13671875 93.5625 C9.10483767 93.09886078 12.04911652 92.56357324 15 92 C15.75458496 91.85804199 16.50916992 91.71608398 17.28662109 91.56982422 C25.99569376 89.92252416 34.57813451 88.28390647 43.015625 85.53125 C46.11708954 84.70093666 48.80943954 84.72846294 52 85 C53 86 53 86 53.5625 89.1875 C52.91241568 93.59362704 52.91241568 93.59362704 49.9375 95.9375 C44.15196349 99.78082265 37.92374753 102.92916655 31.74658203 106.08789062 C30.26808956 106.85999684 28.81610615 107.68254207 27.37109375 108.515625 C12.4476669 116.89900523 -7.4188367 116.38521895 -24 116 C-24.78729492 115.98211426 -25.57458984 115.96422852 -26.38574219 115.94580078 C-28.94566319 115.87848616 -31.50362874 115.78667916 -34.0625 115.6875 C-35.27715942 115.65390381 -35.27715942 115.65390381 -36.51635742 115.61962891 C-41.14327576 115.4054601 -44.17253501 114.87252403 -48 112 C-47.05066101 115.35433109 -46.10251165 118.69246505 -45 122 C-41.75016865 120.91215032 -41.75016865 120.91215032 -39 119 C-33.07397127 118.13578748 -30.1240898 119.7889524 -25.32421875 123.1953125 C-23.75034609 124.41737833 -22.21122211 125.68530958 -20.70703125 126.9921875 C-16.76076605 130.66460192 -16.76076605 130.66460192 -11.796875 132.11328125 C-9.85781853 131.77933264 -7.92812634 131.39216129 -6 131 C-3.5 132.0625 -3.5 132.0625 -2 134 C-1.3125 136.625 -1.3125 136.625 -2 140 C-3.09999864 141.43223173 -4.25262578 142.82465085 -5.4375 144.1875 C-9.66228302 149.17887671 -10.08365466 153.60639382 -10 160 C-10.66 160 -11.32 160 -12 160 C-12.59447876 154.01117696 -12.88469849 149.3926366 -9.125 144.4375 C-7.48672412 142.53409251 -5.77615947 140.77615947 -4 139 C-4 137.68 -4 136.36 -4 135 C-5.98 134.67 -7.96 134.34 -10 134 C-10.53625 135.134375 -11.0725 136.26875 -11.625 137.4375 C-13.36742851 140.54629332 -13.62276269 140.89118154 -17.25 141.9375 C-18.61125 141.9684375 -18.61125 141.9684375 -20 142 C-19.95875 142.928125 -19.9175 143.85625 -19.875 144.8125 C-20 148 -20 148 -22 151 C-24.86125842 149.56937079 -26.78823626 147.26373731 -29 145 C-30.20700622 143.79034101 -31.41538868 142.582054 -32.625 141.375 C-34.75 139.25 -36.875 137.125 -39 135 C-38.360625 136.11375 -37.72125 137.2275 -37.0625 138.375 C-35.99473894 140.23497087 -34.95928532 142.08142937 -34 144 C-38.01159407 143.38283168 -40.7328888 141.31420377 -44 139 C-44.78375 138.46375 -45.5675 137.9275 -46.375 137.375 C-46.91125 136.92125 -47.4475 136.4675 -48 136 C-48 135.34 -48 134.68 -48 134 C-47.38125 134.33 -46.7625 134.66 -46.125 135 C-44.08981656 136.14193235 -44.08981656 136.14193235 -42 136 C-42 135.34 -42 134.68 -42 134 C-39.42263523 132.24739196 -37.90709441 132 -34.75 132 C-31.10650591 132.97159842 -29.81155086 133.75768215 -27 136.0625 C-24.24920115 138.31364203 -22.59451104 139.41123499 -19 139.375 C-18.01 139.25125 -17.02 139.1275 -16 139 C-15.67 137.35 -15.34 135.7 -15 134 C-16.32 133.67 -17.64 133.34 -19 133 C-20.01111093 136.04913228 -20.01111093 136.04913228 -19 139 C-20.32 138.34 -21.64 137.68 -23 137 C-22.835 136.4225 -22.67 135.845 -22.5 135.25 C-21.85537969 132.73335631 -21.85537969 132.73335631 -22 129 C-23.40329977 127.25451744 -23.40329977 127.25451744 -25.3125 125.8125 C-25.92738281 125.30332031 -26.54226562 124.79414063 -27.17578125 124.26953125 C-30.96337279 121.63362707 -34.52213316 121.39283162 -39 122 C-40.65901819 123.55983776 -41.91816363 125.26569799 -43.28515625 127.0859375 C-45.2560309 129.2857748 -47.15042697 130.36302032 -49.75 131.75 C-61.20030658 138.27581382 -69.56871641 150.30080099 -73.1875 162.890625 C-73.455625 163.91671875 -73.72375 164.9428125 -74 166 C-74.33 166 -74.66 166 -75 166 C-75.83945569 157.60544314 -70.47788516 150.71030021 -66 144 C-65.54753906 143.31679687 -65.09507813 142.63359375 -64.62890625 141.9296875 C-60.02171729 135.36225826 -54.08221805 130.74940956 -47 127 C-46.34 127 -45.68 127 -45 127 C-45.48175734 123.98901664 -46.40715802 122.34607955 -48.0625 119.6875 C-50.25992147 116.03555755 -50 113.24039655 -50 109 C-50.680625 108.195625 -51.36125 107.39125 -52.0625 106.5625 C-52.701875 105.716875 -53.34125 104.87125 -54 104 C-53.67924621 102.01132648 -53.35456053 100.02241702 -52.9609375 98.046875 C-53.01452797 95.23873438 -54.07497947 94.36155087 -56 92.375 C-56.86625 91.61316406 -56.86625 91.61316406 -57.75 90.8359375 C-59 89 -59 89 -58.90625 86.14453125 C-57.90909886 82.68458871 -56.5219431 80.28326475 -54.5 77.3125 C-52.5863665 74.47734216 -51.08340509 72.25021526 -50 69 C-50.63421875 68.13117188 -51.2684375 67.26234375 -51.921875 66.3671875 C-54.58926393 62.04521522 -54.46792845 59.07029946 -54.25 54.125 C-54.22292969 52.949375 -54.22292969 52.949375 -54.1953125 51.75 C-54.14855148 49.83279811 -54.07682003 47.91623285 -54 46 C-54.66 46 -55.32 46 -56 46 C-55.62451005 43.48958151 -55.3268577 42.29018586 -53.3984375 40.578125 C-52.73070313 40.13984375 -52.06296875 39.7015625 -51.375 39.25 C-47.50082296 36.52141294 -44.62085769 33.49945352 -41.640625 29.83203125 C-39.90350936 27.89225212 -38.17534162 26.42812062 -36 25 C-35.34 25 -34.68 25 -34 25 C-33.89945313 24.28714844 -33.79890625 23.57429688 -33.6953125 22.83984375 C-31.72524849 14.79357108 -25.74386715 7.63455188 -19 3 C-18.24847656 2.46246094 -17.49695313 1.92492187 -16.72265625 1.37109375 C-11.51620584 -1.25080595 -5.67748732 -0.60854104 0 0 Z " fill="#060E05" transform="translate(89,17)"/>
<path d="M0 0 C2.03909894 2.57570392 3.72271857 5.23225137 5.375 8.0625 C7.82603399 12.0224288 10.19352071 14.06887837 14.671875 15.5546875 C41.09916777 20.60957236 72.90104432 12.83108181 98.16552734 5.4362793 C101.87609977 4.38131263 104.31571559 3.85301059 108 5 C108.36561899 9.53215202 108.36561899 9.53215202 106.8125 11.51953125 C100.26712396 16.18875424 93.1459886 19.63856677 85.90527344 23.08349609 C84.24961137 23.8799281 82.61132172 24.71228072 80.9765625 25.55078125 C74.93977242 28.55147309 69.34639799 29.84466136 62.65234375 30.640625 C60.02969742 30.85053772 60.02969742 30.85053772 58 32 C56.43334501 32.09667332 54.86260226 32.13075705 53.29296875 32.1328125 C51.83866455 32.13619629 51.83866455 32.13619629 50.35498047 32.13964844 C49.30971191 32.13481445 48.26444336 32.12998047 47.1875 32.125 C46.11902832 32.12016602 45.05055664 32.11533203 43.94970703 32.11035156 C40.63287187 32.08585138 37.31659945 32.04624838 34 32 C32.9795459 31.98743164 31.9590918 31.97486328 30.90771484 31.96191406 C28.06220612 31.91588999 25.21944829 31.83923159 22.375 31.75 C21.51801514 31.73598145 20.66103027 31.72196289 19.77807617 31.70751953 C14.38772763 31.49089251 11.32978375 30.4768489 7 27 C6.030625 26.29875 5.06125 25.5975 4.0625 24.875 C1.28847551 21.00817798 2.12960573 18.87787764 2.87109375 14.35546875 C3.06040363 10.89626095 1.19049729 9.53276249 -1 7 C-0.75 3.1875 -0.75 3.1875 0 0 Z " fill="#166514" transform="translate(33,99)"/>
<path d="M0 0 C0.79744629 0.00612305 1.59489258 0.01224609 2.41650391 0.01855469 C9.89185604 0.21531431 16.89885339 1.37659274 22.6640625 6.453125 C24.375 8.4375 24.375 8.4375 24.375 10.4375 C25.695 10.7675 27.015 11.0975 28.375 11.4375 C28.375 11.7675 28.375 12.0975 28.375 12.4375 C27.240625 12.685 26.10625 12.9325 24.9375 13.1875 C18.64426426 14.77468291 12.98356582 17.27881535 7.625 20.9375 C-2.51052046 27.40740733 -14.5494759 29.01005777 -26.28515625 26.9765625 C-28.08501923 26.53850061 -29.86072457 26.00206814 -31.625 25.4375 C-31.955 26.0975 -32.285 26.7575 -32.625 27.4375 C-23.94377156 31.54966084 -12.91156371 29.63263511 -3.5625 28.6875 C-2.86092773 28.62594727 -2.15935547 28.56439453 -1.43652344 28.50097656 C4.77249605 27.78260225 8.40875222 25.04624818 13.125 21.1875 C15.375 19.4375 15.375 19.4375 17.375 19.4375 C17.375 20.0975 17.375 20.7575 17.375 21.4375 C15.546875 23.09375 15.546875 23.09375 13.125 24.9375 C12.33609375 25.5459375 11.5471875 26.154375 10.734375 26.78125 C6.41591339 29.81275285 3.14746974 30.76025303 -2.140625 31.2890625 C-3.39101562 31.41796875 -4.64140625 31.546875 -5.9296875 31.6796875 C-7.88261719 31.86917969 -7.88261719 31.86917969 -9.875 32.0625 C-11.20580198 32.19719918 -12.53653232 32.3326082 -13.8671875 32.46875 C-17.11915433 32.79865968 -20.37167696 33.12129272 -23.625 33.4375 C-16.7759603 39.66872988 -10.02057766 43.44849183 -0.625 44.4375 C-0.625 45.0975 -0.625 45.7575 -0.625 46.4375 C-11.05389019 45.51048754 -18.51677199 42.33528243 -25.61328125 34.55078125 C-27.38830628 32.6861433 -28.93322211 31.43173694 -31.125 30.125 C-33.625 28.4375 -33.625 28.4375 -34.421875 26.578125 C-34.68663982 23.78791117 -33.94998178 22.78553391 -32.375 20.5 C-31.90578125 19.80519531 -31.4365625 19.11039063 -30.953125 18.39453125 C-30.29570313 17.42580078 -30.29570313 17.42580078 -29.625 16.4375 C-29.13 15.53 -28.635 14.6225 -28.125 13.6875 C-25.02129707 9.0319456 -20.6193533 6.78162161 -15.6875 4.46484375 C-13.52993173 3.45953696 -13.52993173 3.45953696 -11.4140625 1.84375 C-7.56338353 -0.09776881 -4.25636117 -0.05501238 0 0 Z " fill="#10130F" transform="translate(109.625,56.5625)"/>
<path d="M0 0 C2.03909894 2.57570392 3.72271857 5.23225137 5.375 8.0625 C7.82603399 12.0224288 10.19352071 14.06887837 14.671875 15.5546875 C41.09916777 20.60957236 72.90104432 12.83108181 98.16552734 5.4362793 C101.87609977 4.38131263 104.31571559 3.85301059 108 5 C108.23828125 7.296875 108.23828125 7.296875 108 10 C106.35546875 11.765625 106.35546875 11.765625 104.1875 13.25 C103.47980469 13.75015625 102.77210938 14.2503125 102.04296875 14.765625 C100 16 100 16 97 17 C97 15.68 97 14.36 97 13 C96.45061768 13.176521 95.90123535 13.35304199 95.33520508 13.53491211 C92.8285268 14.33858197 90.32053518 15.13807522 87.8125 15.9375 C86.94818359 16.21529297 86.08386719 16.49308594 85.19335938 16.77929688 C84.35224609 17.04677734 83.51113281 17.31425781 82.64453125 17.58984375 C81.87471924 17.83597412 81.10490723 18.08210449 80.31176758 18.33569336 C74.23980554 20.08052478 68.27087887 20.31459408 61.984375 20.62109375 C59.1527854 20.82095462 56.5468678 21.30954788 53.79418945 21.99609375 C49.26641866 23.0241767 44.94122763 23.36833711 40.30859375 23.44140625 C39.519048 23.45517807 38.72950226 23.46894989 37.91603088 23.48313904 C36.26155405 23.50621886 34.60698817 23.52358069 32.95239258 23.53540039 C30.43854932 23.56248869 27.92881537 23.63759248 25.41601562 23.71289062 C11.96387564 23.92957623 11.96387564 23.92957623 6.9296875 19.6328125 C4.49873351 16.97419663 3.03384843 14.47749019 2 11 C1.443125 10.38125 0.88625 9.7625 0.3125 9.125 C-1.65059168 5.94666109 -0.74711304 3.53180711 0 0 Z " fill="#166314" transform="translate(33,99)"/>
<path d="M0 0 C6.90619179 2.1979318 12.60015664 8.80085541 16 15 C15.71484375 17.8125 15.71484375 17.8125 15 20 C14.34 19.67 13.68 19.34 13 19 C12.62690101 17.34178227 12.29299023 15.67422986 12 14 C11.505 13.505 11.505 13.505 11 13 C10.67 15.31 10.34 17.62 10 20 C10.66 20.33 11.32 20.66 12 21 C9.45854161 23.54145839 2.60030845 22.28299445 -0.8125 22.3125 C-1.91916016 22.34150391 -3.02582031 22.37050781 -4.16601562 22.40039062 C-5.23142578 22.40876953 -6.29683594 22.41714844 -7.39453125 22.42578125 C-8.37268799 22.44036377 -9.35084473 22.45494629 -10.35864258 22.4699707 C-13.75053914 21.86645828 -14.84254366 20.62699766 -17 18 C-19 15 -19 15 -19 12 C-16.36 10.68 -13.72 9.36 -11 8 C-11.928125 8.309375 -12.85625 8.61875 -13.8125 8.9375 C-15.875 9.625 -17.9375 10.3125 -20 11 C-20.33 9.68 -20.66 8.36 -21 7 C-20.34 7 -19.68 7 -19 7 C-18.731875 6.21625 -18.46375 5.4325 -18.1875 4.625 C-15.0217109 -2.37306013 -6.4818373 -0.67053489 0 0 Z " fill="#0E140E" transform="translate(57,61)"/>
<path d="M0 0 C3.54551427 1.87046816 6.25933137 4.08850378 9 7 C7.87047743 11.63698741 6.79411547 15.14632587 3.5 18.6875 C-0.94415555 20.35405833 -3.53583478 19.62324505 -8.07421875 18.59765625 C-16.83927678 16.80719713 -24.60045442 18.27055386 -33 21 C-32.68289062 20.23300781 -32.36578125 19.46601562 -32.0390625 18.67578125 C-31.04302156 16.11078861 -30.46379524 13.70547223 -30 11 C-29.01 10.67 -28.02 10.34 -27 10 C-25.48013943 8.33964812 -24.15403187 6.58093831 -22.79296875 4.7890625 C-16.60194724 -1.38847095 -8.15985724 -1.24878318 0 0 Z " fill="#3A943C" transform="translate(90,19)"/>
<path d="M0 0 C0.66 0 1.32 0 2 0 C2.48828125 1.98567708 2.9765625 3.97135417 3.46484375 5.95703125 C3.91010705 7.65683202 4.44433985 9.33301954 5 11 C8.24983135 9.91215032 8.24983135 9.91215032 11 8 C16.92602873 7.13578748 19.8759102 8.7889524 24.67578125 12.1953125 C26.24965391 13.41737833 27.78877789 14.68530958 29.29296875 15.9921875 C33.23923395 19.66460192 33.23923395 19.66460192 38.203125 21.11328125 C40.14218147 20.77933264 42.07187366 20.39216129 44 20 C46.5 21.0625 46.5 21.0625 48 23 C48.6875 25.625 48.6875 25.625 48 29 C46.90000136 30.43223173 45.74737422 31.82465085 44.5625 33.1875 C40.33771698 38.17887671 39.91634534 42.60639382 40 49 C39.34 49 38.68 49 38 49 C37.40552124 43.01117696 37.11530151 38.3926366 40.875 33.4375 C42.51327588 31.53409251 44.22384053 29.77615947 46 28 C46 26.68 46 25.36 46 24 C44.02 23.67 42.04 23.34 40 23 C39.46375 24.134375 38.9275 25.26875 38.375 26.4375 C36.63257149 29.54629332 36.37723731 29.89118154 32.75 30.9375 C31.38875 30.9684375 31.38875 30.9684375 30 31 C30.04125 31.928125 30.0825 32.85625 30.125 33.8125 C30 37 30 37 28 40 C25.13874158 38.56937079 23.21176374 36.26373731 21 34 C19.79299378 32.79034101 18.58461132 31.582054 17.375 30.375 C15.25 28.25 13.125 26.125 11 24 C11.639375 25.11375 12.27875 26.2275 12.9375 27.375 C14.00526106 29.23497087 15.04071468 31.08142937 16 33 C11.98840593 32.38283168 9.2671112 30.31420377 6 28 C5.21625 27.46375 4.4325 26.9275 3.625 26.375 C2.820625 25.694375 2.820625 25.694375 2 25 C2 24.34 2 23.68 2 23 C2.61875 23.33 3.2375 23.66 3.875 24 C5.91018344 25.14193235 5.91018344 25.14193235 8 25 C8 24.34 8 23.68 8 23 C10.57736477 21.24739196 12.09290559 21 15.25 21 C18.89349409 21.97159842 20.18844914 22.75768215 23 25.0625 C25.75079885 27.31364203 27.40548896 28.41123499 31 28.375 C31.99 28.25125 32.98 28.1275 34 28 C34.33 26.35 34.66 24.7 35 23 C33.68 22.67 32.36 22.34 31 22 C29.98888907 25.04913228 29.98888907 25.04913228 31 28 C29.68 27.34 28.36 26.68 27 26 C27.165 25.4225 27.33 24.845 27.5 24.25 C28.14462031 21.73335631 28.14462031 21.73335631 28 18 C26.59670023 16.25451744 26.59670023 16.25451744 24.6875 14.8125 C24.07261719 14.30332031 23.45773438 13.79414063 22.82421875 13.26953125 C19.03662721 10.63362707 15.47786684 10.39283162 11 11 C9.34098181 12.55983776 8.08183637 14.26569799 6.71484375 16.0859375 C4.7439691 18.2857748 2.84957303 19.36302032 0.25 20.75 C-11.20030658 27.27581382 -19.56871641 39.30080099 -23.1875 51.890625 C-23.455625 52.91671875 -23.72375 53.9428125 -24 55 C-24.33 55 -24.66 55 -25 55 C-25.83945569 46.60544314 -20.47788516 39.71030021 -16 33 C-15.32130859 31.97519531 -15.32130859 31.97519531 -14.62890625 30.9296875 C-10.02171729 24.36225826 -4.08221805 19.74940956 3 16 C3.66 16 4.32 16 5 16 C4.53493229 13.09332682 3.46194049 11.02961571 1.9375 8.5625 C0.1569483 5.57991521 -0.42839099 3.53422566 0 0 Z " fill="#1A2719" transform="translate(39,128)"/>
<path d="M0 0 C1 1 1 1 1.5625 4.1875 C0.91241568 8.59362704 0.91241568 8.59362704 -2.0625 10.9375 C-7.84803651 14.78082265 -14.07625247 17.92916655 -20.25341797 21.08789062 C-21.73191044 21.85999684 -23.18389385 22.68254207 -24.62890625 23.515625 C-39.5616914 31.90426234 -59.41007667 31.36903773 -76 31 C-76.78197754 30.98743164 -77.56395508 30.97486328 -78.36962891 30.96191406 C-80.91421818 30.9136894 -83.45640914 30.83544551 -86 30.75 C-86.80139404 30.73598145 -87.60278809 30.72196289 -88.4284668 30.70751953 C-93.82796607 30.47925171 -96.77051023 29.38901424 -101 26 C-100.505 24.515 -100.505 24.515 -100 23 C-99.36707031 23.64453125 -98.73414063 24.2890625 -98.08203125 24.953125 C-93.90069915 27.73008067 -90.60826522 27.67078791 -85.6875 27.75 C-84.7797583 27.77747314 -83.8720166 27.80494629 -82.93676758 27.83325195 C-79.95783948 27.91295656 -76.97969729 27.95893003 -74 28 C-72.94425781 28.02046387 -71.88851562 28.04092773 -70.80078125 28.06201172 C-67.59631257 28.12047684 -64.39236442 28.15871899 -61.1875 28.1875 C-60.19258545 28.20071289 -59.1976709 28.21392578 -58.17260742 28.22753906 C-53.21078005 28.23258713 -48.78132267 27.95108667 -44.0144043 26.55249023 C-41.72558702 25.92473681 -39.44304793 25.56423224 -37.1015625 25.1796875 C-31.63182931 24.10665762 -27.20307091 21.83980053 -22.375 19.125 C-20.77903906 18.25188501 -19.18268863 17.37948156 -17.5859375 16.5078125 C-16.8218457 16.08604736 -16.05775391 15.66428223 -15.27050781 15.22973633 C-11.88954234 13.3985618 -8.44491586 11.70738171 -5 10 C-2.51990778 8.72927975 -2.51990778 8.72927975 -1 7 C-0.87490476 4.43480413 -0.87490476 4.43480413 -1 2 C-6.87512731 2.88456973 -12.58367483 4.12546687 -18.30004883 5.72680664 C-36.13355664 10.6987654 -54.48515297 13.584228 -73 14 C-73.77520996 14.02578125 -74.55041992 14.0515625 -75.34912109 14.078125 C-77.77441009 14.15565672 -80.19886577 14.20734488 -82.625 14.25 C-83.72702759 14.2823877 -83.72702759 14.2823877 -84.85131836 14.31542969 C-89.95325636 14.34590651 -93.43087513 13.27856621 -98 11 C-95.44628079 9.72314039 -94.70682866 10.29041362 -92 11 C-88.3160459 11.2271689 -84.62779419 11.19036781 -80.9375 11.1875 C-79.86854492 11.18669434 -78.79958984 11.18588867 -77.69824219 11.18505859 C-68.03493675 11.11169917 -58.56525544 10.33546324 -49 9 C-47.44732422 8.7834375 -47.44732422 8.7834375 -45.86328125 8.5625 C-42.89516233 8.09886078 -39.95088348 7.56357324 -37 7 C-36.24541504 6.85804199 -35.49083008 6.71608398 -34.71337891 6.56982422 C-26.00430624 4.92252416 -17.42186549 3.28390647 -8.984375 0.53125 C-5.88291046 -0.29906334 -3.19056046 -0.27153706 0 0 Z " fill="#071506" transform="translate(141,102)"/>
<path d="M0 0 C0.66 0.33 1.32 0.66 2 1 C1.01 2.98 0.02 4.96 -1 7 C-0.2575 6.67 0.485 6.34 1.25 6 C4 5 4 5 8 5 C8 5.66 8 6.32 8 7 C7.31035156 7.20753906 6.62070313 7.41507813 5.91015625 7.62890625 C-2.12129788 10.26198929 -9.20429343 13.80644014 -14 21 C-13.443125 20.97679688 -12.88625 20.95359375 -12.3125 20.9296875 C-6.83141448 20.80006723 -2.23266821 21.31807093 3 23 C3.495 23.99 3.495 23.99 4 25 C3.16082031 24.83757813 2.32164063 24.67515625 1.45703125 24.5078125 C-2.18125286 23.97337529 -5.63680665 23.86723718 -9.3125 23.875 C-10.54613281 23.87242188 -11.77976562 23.86984375 -13.05078125 23.8671875 C-15.88754261 23.66268264 -15.88754261 23.66268264 -17 25 C-15.9378125 24.95359375 -14.875625 24.9071875 -13.78125 24.859375 C0.33678764 24.4272072 0.33678764 24.4272072 7 29 C8.01855661 29.98109246 9.02372904 30.97682112 10 32 C9.505 32.99 9.505 32.99 9 34 C8.278125 33.38125 7.55625 32.7625 6.8125 32.125 C1.41499634 28.04688612 -3.07800122 27.68296588 -9.625 27.75 C-10.388125 27.74226563 -11.15125 27.73453125 -11.9375 27.7265625 C-15.80781054 27.74014254 -17.71059323 27.80706215 -21 30 C-21.2502157 33.08365871 -21.2502157 33.08365871 -21 36 C-21.66 36 -22.32 36 -23 36 C-22.34 36.99 -21.68 37.98 -21 39 C-20.071875 38.484375 -19.14375 37.96875 -18.1875 37.4375 C-15 36 -15 36 -12 37 C-18.75 41 -18.75 41 -21 41 C-20.01 42.98 -19.02 44.96 -18 47 C-19.485 47.495 -19.485 47.495 -21 48 C-19.45198044 50.5841005 -19.45198044 50.5841005 -17 53 C-13.35817665 53.89055736 -13.35817665 53.89055736 -10 54 C-10 54.66 -10 55.32 -10 56 C-12.475 56.495 -12.475 56.495 -15 57 C-12.69 57.66 -10.38 58.32 -8 59 C-8 59.33 -8 59.66 -8 60 C-15.42857143 60.28571429 -15.42857143 60.28571429 -19 58 C-21.40438664 60.50456942 -21.98543735 61.86893618 -22.375 65.375 C-21.74314788 71.4829038 -18.91562259 75.40927007 -15 80 C-15.99 80 -16.98 80 -18 80 C-21.12231795 76.68253718 -23.08717195 73.11258032 -25 69 C-25.33 69 -25.66 69 -26 69 C-25.67495741 73.82194643 -25.67495741 73.82194643 -23.4375 77.9375 C-22.963125 78.288125 -22.48875 78.63875 -22 79 C-22.495 79.99 -22.495 79.99 -23 81 C-24.04181761 79.97932072 -25.05785093 78.93228444 -26.0625 77.875 C-26.63097656 77.29492188 -27.19945313 76.71484375 -27.78515625 76.1171875 C-29 74 -29 74 -28.90234375 71.11328125 C-27.90473189 67.6713044 -26.51259765 65.26953384 -24.5 62.3125 C-22.5863665 59.47734216 -21.08340509 57.25021526 -20 54 C-20.63421875 53.13117188 -21.2684375 52.26234375 -21.921875 51.3671875 C-24.58926393 47.04521522 -24.46792845 44.07029946 -24.25 39.125 C-24.23195313 38.34125 -24.21390625 37.5575 -24.1953125 36.75 C-24.14855148 34.83279811 -24.07682003 32.91623285 -24 31 C-24.66 31 -25.32 31 -26 31 C-25.62451005 28.48958151 -25.3268577 27.29018586 -23.3984375 25.578125 C-22.39683594 24.92070313 -22.39683594 24.92070313 -21.375 24.25 C-17.50082296 21.52141294 -14.62085769 18.49945352 -11.640625 14.83203125 C-9.90350936 12.89225212 -8.17534162 11.42812062 -6 10 C-5.34 10 -4.68 10 -4 10 C-3.896875 9.278125 -3.79375 8.55625 -3.6875 7.8125 C-2.94013068 4.75508007 -1.71954811 2.61670365 0 0 Z " fill="#121F12" transform="translate(59,32)"/>
<path d="M0 0 C2.03909894 2.57570392 3.72271857 5.23225137 5.375 8.0625 C7.82603399 12.0224288 10.19352071 14.06887837 14.671875 15.5546875 C18.00548504 16.19232432 21.30632505 16.1904955 24.6875 16.1875 C25.45626465 16.18814453 26.2250293 16.18878906 27.01708984 16.18945312 C35.14842574 16.119204 43.22402455 15.44241015 51.3190918 14.71166992 C56.90955847 14.21138352 62.38688847 13.89231441 68 14 C68 14.99 68 15.98 68 17 C56.65477235 20.47313056 45.99589234 21.71827354 34.14257812 21.6862793 C31.47324381 21.68751236 28.80914565 21.74792728 26.140625 21.81054688 C11.94683883 21.95558816 11.94683883 21.95558816 6.97265625 17.67578125 C5.36352539 15.84887695 5.36352539 15.84887695 4 14 C3.45754639 13.3822168 2.91509277 12.76443359 2.35620117 12.12792969 C-0.48320928 8.86976605 -1.02516771 7.528522 -0.8125 3.0625 C-0.544375 2.051875 -0.27625 1.04125 0 0 Z " fill="#176615" transform="translate(33,99)"/>
<path d="M0 0 C3 1.6875 3 1.6875 4.4375 4.375 C4.623125 5.138125 4.80875 5.90125 5 6.6875 C3.68 6.6875 2.36 6.6875 1 6.6875 C1 7.3475 1 8.0075 1 8.6875 C-1.97 9.6775 -4.94 10.6675 -8 11.6875 C-8.99 10.0375 -9.98 8.3875 -11 6.6875 C-9.35 6.3575 -7.7 6.0275 -6 5.6875 C-20.85 5.1925 -20.85 5.1925 -36 4.6875 C-25.54159931 -5.77090069 -13.20131755 -4.81041799 0 0 Z " fill="#388C3A" transform="translate(127,61.3125)"/>
<path d="M0 0 C1.36882423 0.97272745 2.70134248 1.99790284 4 3.0625 C6.75079885 5.31364203 8.40548896 6.41123499 12 6.375 C12.99 6.25125 13.98 6.1275 15 6 C15.66 4.68 16.32 3.36 17 2 C17.66 2 18.32 2 19 2 C18.75 4.375 18.75 4.375 18 7 C15.43689172 8.7941758 14.16880694 9 11 9 C11.04125 9.928125 11.0825 10.85625 11.125 11.8125 C11 15 11 15 9 18 C6.13874158 16.56937079 4.21176374 14.26373731 2 12 C0.79299378 10.79034101 -0.41538868 9.582054 -1.625 8.375 C-3.75 6.25 -5.875 4.125 -8 2 C-7.360625 3.11375 -6.72125 4.2275 -6.0625 5.375 C-4.99473894 7.23497087 -3.95928532 9.08142937 -3 11 C-7.01159407 10.38283168 -9.7328888 8.31420377 -13 6 C-13.78375 5.46375 -14.5675 4.9275 -15.375 4.375 C-15.91125 3.92125 -16.4475 3.4675 -17 3 C-17 2.34 -17 1.68 -17 1 C-16.38125 1.33 -15.7625 1.66 -15.125 2 C-13.08981656 3.14193235 -13.08981656 3.14193235 -11 3 C-11 2.34 -11 1.68 -11 1 C-7.17556141 -1.60061824 -4.36684749 -1.16449267 0 0 Z " fill="#0B180B" transform="translate(58,150)"/>
<path d="M0 0 C0.90105469 0.02707031 1.80210938 0.05414063 2.73046875 0.08203125 C3.76107422 0.13423828 3.76107422 0.13423828 4.8125 0.1875 C4.80089844 1.01894531 4.78929688 1.85039063 4.77734375 2.70703125 C4.76832031 3.79371094 4.75929688 4.88039063 4.75 6 C4.73839844 7.07894531 4.72679688 8.15789062 4.71484375 9.26953125 C4.67625234 12.25262169 4.67625234 12.25262169 5.8125 15.1875 C3.91698978 15.24191656 2.0210208 15.28048035 0.125 15.3125 C-0.93074219 15.33570312 -1.98648438 15.35890625 -3.07421875 15.3828125 C-6.21001859 15.18608729 -8.36395373 14.51807654 -11.1875 13.1875 C-10.76226184 11.58003944 -10.32179874 9.97660164 -9.875 8.375 C-9.63136719 7.48167969 -9.38773437 6.58835937 -9.13671875 5.66796875 C-7.23300838 0.69325236 -5.22853636 -0.20370921 0 0 Z " fill="#ECF0EE" transform="translate(91.1875,66.8125)"/>
<path d="M0 0 C7.61981312 3.39960893 11.5467422 9.29067736 15.9140625 16.1328125 C17.81242236 18.86868406 19.71450857 20.89993163 22.0390625 23.2578125 C29.26790494 31.16324611 33.98487309 40.82241906 39.0390625 50.1953125 C39.52149414 51.08718262 40.00392578 51.97905273 40.50097656 52.89794922 C52.19806135 74.60789936 52.19806135 74.60789936 53.0390625 84.1953125 C50.48470854 81.64095854 49.61666314 78.80168039 48.37109375 75.48828125 C45.54358665 68.20986027 42.27242303 61.25771013 38.67211914 54.33276367 C37.7244512 52.50373764 36.79651679 50.66555333 35.86914062 48.82617188 C29.99154274 37.34506297 22.35156031 27.70365043 14.09765625 17.8046875 C11.68357175 14.74470942 9.65237537 11.54865363 7.71875 8.16796875 C4.60402124 4.50997335 1.195192 2.54227825 -3.49609375 1.78735352 C-6.30179598 1.58127229 -9.08562537 1.48761043 -11.8984375 1.4453125 C-12.86845703 1.41566406 -13.83847656 1.38601562 -14.83789062 1.35546875 C-17.21232048 1.28528856 -19.58579836 1.23233926 -21.9609375 1.1953125 C-15.4989935 -2.32610373 -6.9961092 -1.90131728 0 0 Z " fill="#1C251B" transform="translate(133.9609375,16.8046875)"/>
<path d="M0 0 C0.99 0.495 0.99 0.495 2 1 C-2.36870381 5.12699274 -6.87230725 6.5284941 -12.5 8.1875 C-13.34175781 8.44724609 -14.18351562 8.70699219 -15.05078125 8.97460938 C-22.81238884 11.33976066 -29.89353048 12.22509952 -38.015625 12.62109375 C-40.8472146 12.82095462 -43.4531322 13.30954788 -46.20581055 13.99609375 C-50.73358134 15.0241767 -55.05877237 15.36833711 -59.69140625 15.44140625 C-60.480952 15.45517807 -61.27049774 15.46894989 -62.08396912 15.48313904 C-63.73844595 15.50621886 -65.39301183 15.52358069 -67.04760742 15.53540039 C-69.56145068 15.56248869 -72.07118463 15.63759248 -74.58398438 15.71289062 C-88.04114818 15.92603469 -88.04114818 15.92603469 -93.15234375 11.46484375 C-94.89819336 9.51147461 -94.89819336 9.51147461 -96 8 C-95.67 7.34 -95.34 6.68 -95 6 C-94.40069168 6.63826721 -94.40069168 6.63826721 -93.78927612 7.28942871 C-89.74779345 11.21363285 -86.97803962 12.68719491 -81.33914185 12.7310791 C-80.12325882 12.6940387 -80.12325882 12.6940387 -78.8828125 12.65625 C-78.0262204 12.65250366 -77.1696283 12.64875732 -76.28707886 12.64489746 C-74.48338138 12.63151408 -72.67973912 12.60379882 -70.87646484 12.5625 C-68.13973949 12.50033481 -65.40532979 12.48055957 -62.66796875 12.46875 C-60.9062224 12.45039868 -59.14449911 12.42964354 -57.3828125 12.40625 C-56.57627228 12.39775024 -55.76973206 12.38925049 -54.93875122 12.38049316 C-50.10434018 12.2610245 -45.67088626 11.6309861 -40.97915649 10.44992065 C-38.07893445 9.79061463 -35.21618751 9.71724985 -32.25 9.625 C-25.03538019 9.18233764 -18.77940168 7.42061034 -12 5 C-10.93652344 4.63132812 -9.87304688 4.26265625 -8.77734375 3.8828125 C-4.0513644 2.53292656 -4.0513644 2.53292656 0 0 Z " fill="#061605" transform="translate(133,107)"/>
<path d="M0 0 C0.825 0.7425 1.65 1.485 2.5 2.25 C3.6137184 3.01665267 4.73885026 3.76700016 5.875 4.5 C6.74125 5.0775 7.6075 5.655 8.5 6.25 C8.8403125 5.3528125 8.8403125 5.3528125 9.1875 4.4375 C10.87304841 1.62825265 12.55002192 0.61706301 15.5 -0.75 C16.49 -0.42 17.48 -0.09 18.5 0.25 C17.5925 0.8275 16.685 1.405 15.75 2 C10.44238051 5.6745058 8.41474926 8.08585106 6.5 14.25 C7.19561035 14.23428955 7.8912207 14.2185791 8.60791016 14.20239258 C11.78018971 14.13977137 14.95233885 14.10092323 18.125 14.0625 C19.76662109 14.02479492 19.76662109 14.02479492 21.44140625 13.98632812 C30.74807392 13.90172206 35.62885538 16.19684879 42.5 22.25 C41.015 22.745 41.015 22.745 39.5 23.25 C38.63375 22.486875 37.7675 21.72375 36.875 20.9375 C30.30517052 15.18290483 21.3419641 15.88006968 13.04296875 15.98828125 C7.28993577 16.41325723 3.31426859 18.0404876 -1.5 21.25 C-1.5 20.26 -1.5 19.27 -1.5 18.25 C-0.71625 17.858125 0.0675 17.46625 0.875 17.0625 C3.84338147 15.01290327 4.00382467 14.41525611 4.8125 11.0625 C5.039375 9.804375 5.26625 8.54625 5.5 7.25 C2.0461909 3.54239662 -1.02551477 1.48585346 -6.08984375 0.67578125 C-12.79805808 0.48143738 -18.44561645 0.5712776 -23.9140625 4.73828125 C-26.38013878 7.08895002 -28.46428444 9.51450722 -30.5 12.25 C-30.5 8.18600011 -28.91501819 6.87806256 -26.24609375 3.96875 C-19.22134563 -2.94599088 -8.94474711 -4.47237356 0 0 Z " fill="#162216" transform="translate(92.5,18.75)"/>
<path d="M0 0 C1.84271484 0.00193359 1.84271484 0.00193359 3.72265625 0.00390625 C6.9375 0.4375 6.9375 0.4375 9.9375 3.4375 C5.9775 3.4375 2.0175 3.4375 -2.0625 3.4375 C-1.7325 4.7575 -1.4025 6.0775 -1.0625 7.4375 C-1.3925 7.7675 -1.7225 8.0975 -2.0625 8.4375 C-2.13455511 10.12358966 -2.14636068 11.81250659 -2.125 13.5 C-2.11146484 14.87865234 -2.11146484 14.87865234 -2.09765625 16.28515625 C-2.08605469 16.99542969 -2.07445312 17.70570312 -2.0625 18.4375 C-5.59399946 18.11645459 -7.62024608 17.78664783 -10.4375 15.5625 C-12.0625 13.4375 -12.0625 13.4375 -12.0625 10.4375 C-9.4225 9.1175 -6.7825 7.7975 -4.0625 6.4375 C-4.990625 6.746875 -5.91875 7.05625 -6.875 7.375 C-8.9375 8.0625 -11 8.75 -13.0625 9.4375 C-10.64535753 2.18607259 -7.69025611 -0.12129742 0 0 Z " fill="#39863B" transform="translate(50.0625,62.5625)"/>
<path d="M0 0 C0 0.66 0 1.32 0 2 C-1.828125 3.65625 -1.828125 3.65625 -4.25 5.5 C-5.03890625 6.1084375 -5.8278125 6.716875 -6.640625 7.34375 C-10.95908661 10.37525285 -14.22753026 11.32275303 -19.515625 11.8515625 C-20.76601562 11.98046875 -22.01640625 12.109375 -23.3046875 12.2421875 C-25.25761719 12.43167969 -25.25761719 12.43167969 -27.25 12.625 C-28.58080198 12.75969918 -29.91153232 12.8951082 -31.2421875 13.03125 C-34.49415433 13.36115968 -37.74667696 13.68379272 -41 14 C-34.1509603 20.23122988 -27.39557766 24.01099183 -18 25 C-18 25.66 -18 26.32 -18 27 C-27.93463351 26.11692147 -35.73754034 23.13247219 -42.63671875 15.8046875 C-44 14 -44 14 -44 12 C-43.09233887 11.89977539 -42.18467773 11.79955078 -41.24951172 11.69628906 C-37.85958522 11.31409359 -34.47201705 10.91730983 -31.08496094 10.51074219 C-29.62307014 10.33826104 -28.16049196 10.17150024 -26.69726562 10.01074219 C-24.58513877 9.77766007 -22.47639937 9.52361517 -20.3671875 9.265625 C-19.09987793 9.11899414 -17.83256836 8.97236328 -16.52685547 8.82128906 C-11.46003767 7.64139324 -8.21597732 4.99489053 -4.25 1.75 C-2 0 -2 0 0 0 Z " fill="#081407" transform="translate(127,76)"/>
<path d="M0 0 C4.3170411 1.32272976 5.75995082 2.68274856 7.875 6.625 C9.2881142 9.05947518 9.2881142 9.05947518 11 11 C14.75643424 11.75413353 14.75643424 11.75413353 18 11 C16.75 12.5 16.75 12.5 15 14 C13.68 14 12.36 14 11 14 C10.34 15.32 9.68 16.64 9 18 C5.7 18 2.4 18 -1 18 C-1.33 18.99 -1.66 19.98 -2 21 C-5.64955006 21.33949303 -7.49683387 21.32346394 -10.625 19.3125 C-13.00211459 16.99794106 -15.07797161 14.70507699 -17 12 C-17 11.34 -17 10.68 -17 10 C-12.90517007 11.36494331 -11.42938596 13.9590143 -8.81640625 17.28515625 C-6.93157173 19.45765718 -6.93157173 19.45765718 -3 19 C-3.27892331 14.25830365 -5.35396024 12.33611545 -8.72265625 9.33203125 C-10 8 -10 8 -10 6 C-6.75946384 7.37099607 -5.25134671 8.76425147 -3.25 11.625 C-1.05301957 14.34674745 -1.05301957 14.34674745 2.1640625 15.45703125 C4.61767804 15.47627852 4.61767804 15.47627852 8 15 C7.59709958 9.35939411 5.78085674 6.96528877 2 3 C1.34 2.67 0.68 2.34 0 2 C0 1.34 0 0.68 0 0 Z " fill="#0A1809" transform="translate(40,164)"/>
<path d="M0 0 C3.87879443 0.58226706 5.99382088 2.42924953 8.9375 4.9375 C12.16864983 7.68922111 14.90272886 9.77351423 19 11 C20.010625 10.814375 21.02125 10.62875 22.0625 10.4375 C25 10 25 10 27.375 11.0625 C29 13 29 13 29.6875 15.625 C28.92999263 19.34367257 27.99712655 20.38717852 25.5625 23.1875 C21.33771698 28.17887671 20.91634534 32.60639382 21 39 C20.34 39 19.68 39 19 39 C18.40552124 33.01117696 18.11530151 28.3926366 21.875 23.4375 C23.51327588 21.53409251 25.22384053 19.77615947 27 18 C27 16.68 27 15.36 27 14 C22.96542305 13.09643979 22.96542305 13.09643979 18.9375 13.5625 C16.17708011 14.18582062 14.49730883 13.17928473 12 12 C10.98888907 15.04913228 10.98888907 15.04913228 12 18 C10.68 17.34 9.36 16.68 8 16 C8.165 15.4225 8.33 14.845 8.5 14.25 C9.14462031 11.73335631 9.14462031 11.73335631 9 8 C7.02776863 6.01850737 7.02776863 6.01850737 4.5 4.3125 C2.98894345 3.22351326 1.48580375 2.12319688 0 1 C0 0.67 0 0.34 0 0 Z " fill="#071207" transform="translate(58,138)"/>
<path d="M0 0 C3.49971199 -0.1173794 6.99890955 -0.18763961 10.5 -0.25 C11.48226562 -0.28351562 12.46453125 -0.31703125 13.4765625 -0.3515625 C21.07367982 -0.4528574 26.06383494 0.99647106 32.09375 5.59765625 C36 9.66666667 36 9.66666667 36 13 C35.01 13 34.02 13 33 13 C32.505 12.2575 32.01 11.515 31.5 10.75 C26.28194208 5.01013629 19.07145415 3.9224891 11.61035156 3.51855469 C10.17668892 3.46507424 8.74219722 3.4301676 7.30761719 3.41503906 C5.30859375 3.37109375 5.30859375 3.37109375 2 3 C1.34 2.01 0.68 1.02 0 0 Z " fill="#307630" transform="translate(101,54)"/>
<path d="M0 0 C3.26748285 1.96048971 5.05984039 4.12015654 7.1484375 7.2890625 C6.1584375 7.6190625 5.1684375 7.9490625 4.1484375 8.2890625 C3.90351563 7.67417969 3.65859375 7.05929688 3.40625 6.42578125 C1.16789161 2.62335255 -2.81434841 1.64780283 -6.8515625 0.2890625 C-9.52992491 -0.33778828 -12.10850426 -0.57224354 -14.8515625 -0.7109375 C-16.00785156 -0.84048828 -16.00785156 -0.84048828 -17.1875 -0.97265625 C-24.67199403 -1.50389005 -29.6471281 1.32577361 -35.8515625 5.2890625 C-34.2015625 5.6190625 -32.5515625 5.9490625 -30.8515625 6.2890625 C-30.8515625 6.6190625 -30.8515625 6.9490625 -30.8515625 7.2890625 C-31.59921875 7.32644531 -32.346875 7.36382812 -33.1171875 7.40234375 C-34.10203125 7.46808594 -35.086875 7.53382812 -36.1015625 7.6015625 C-37.07609375 7.65957031 -38.050625 7.71757813 -39.0546875 7.77734375 C-42.10497861 8.33542774 -43.55867526 9.25276026 -45.8515625 11.2890625 C-44.34819188 7.07962477 -41.51313808 5.47263901 -37.8515625 3.2890625 C-37.12324219 2.76570313 -36.39492187 2.24234375 -35.64453125 1.703125 C-25.22620267 -5.11439877 -11.31032052 -4.83733708 0 0 Z " fill="#050C04" transform="translate(127.8515625,59.7109375)"/>
<path d="M0 0 C2.64 0 5.28 0 8 0 C8 0.66 8 1.32 8 2 C6.35 2.33 4.7 2.66 3 3 C5.31 3.66 7.62 4.32 10 5 C10 5.33 10 5.66 10 6 C2.57142857 6.28571429 2.57142857 6.28571429 -1 4 C-3.40438664 6.50456942 -3.98543735 7.86893618 -4.375 11.375 C-3.74314788 17.4829038 -0.91562259 21.40927007 3 26 C2.01 26 1.02 26 0 26 C-3.12231795 22.68253718 -5.08717195 19.11258032 -7 15 C-7.33 15 -7.66 15 -8 15 C-7.67495741 19.82194643 -7.67495741 19.82194643 -5.4375 23.9375 C-4.7259375 24.4634375 -4.7259375 24.4634375 -4 25 C-4.33 25.66 -4.66 26.32 -5 27 C-6.04181761 25.97932072 -7.05785093 24.93228444 -8.0625 23.875 C-8.63097656 23.29492188 -9.19945313 22.71484375 -9.78515625 22.1171875 C-11 20 -11 20 -10.89453125 17.12109375 C-9.91121923 13.69023653 -8.56436975 11.17838458 -6.625 8.1875 C-6.01914062 7.23230469 -5.41328125 6.27710937 -4.7890625 5.29296875 C-3 3 -3 3 0 2 C0 1.34 0 0.68 0 0 Z " fill="#121B11" transform="translate(41,86)"/>
<path d="M0 0 C0.90105469 0.01804688 1.80210938 0.03609375 2.73046875 0.0546875 C3.41753906 0.07789063 4.10460937 0.10109375 4.8125 0.125 C2.8125 2.125 2.8125 2.125 0.578125 3.39453125 C-2.81626687 5.51842334 -5.54341114 8.06382492 -8.4375 10.8125 C-14.06486444 16.125 -14.06486444 16.125 -15.1875 16.125 C-15.76532373 12.82315009 -15.65659647 10.80594649 -13.734375 8.015625 C-6.6224854 -0.17201261 -6.6224854 -0.17201261 0 0 Z " fill="#398E3A" transform="translate(91.1875,53.875)"/>
<path d="M0 0 C3.38055068 1.12685023 4.1079382 2.05384625 6.3125 4.75 C8.524095 7.37480171 10.67867103 9.68792272 13.375 11.8125 C16 14 16 14 17 17 C13.04 20.465 13.04 20.465 9 24 C8.34 23.34 7.68 22.68 7 22 C7.515625 21.608125 8.03125 21.21625 8.5625 20.8125 C10.24596874 19.07542291 10.24596874 19.07542291 10 16.625 C8.69468324 13.19854351 6.64269346 11.51977748 4 9 C0 3.59459459 0 3.59459459 0 0 Z " fill="#142114" transform="translate(50,152)"/>
<path d="M0 0 C0 3.96 0 7.92 0 12 C-3.53149946 11.67895459 -5.55774608 11.34914783 -8.375 9.125 C-10 7 -10 7 -10 4 C-8.71086513 3.32845067 -7.41859796 2.66291141 -6.125 2 C-5.40570313 1.62875 -4.68640625 1.2575 -3.9453125 0.875 C-2 0 -2 0 0 0 Z " fill="#E5E9E7" transform="translate(48,69)"/>
<path d="M0 0 C2.23360871 3.66011512 2.6617665 7.44493721 3.125 11.625 C3.2502002 12.73041138 3.2502002 12.73041138 3.37792969 13.8581543 C3.96125439 19.50866593 4.21160297 25.13323021 4.25 30.8125 C4.25918457 31.57062988 4.26836914 32.32875977 4.27783203 33.10986328 C4.2564885 36.88596016 4.11691076 39.79943254 2 43 C0.91049041 39.73147124 1.14471417 39.14768457 2 36 C2.56097185 28.42035711 1.53261193 21.10577091 0.4453125 13.6171875 C-0.11690426 9.05040928 -0.19445926 4.59139923 0 0 Z " fill="#1B271A" transform="translate(190,118)"/>
<path d="M0 0 C5.87645137 0.80370649 9.95531026 3.74789028 14 8 C14.5625 11.4375 14.5625 11.4375 14 14 C9.10565787 9.90473413 4.29279666 5.73642915 0 1 C0 0.67 0 0.34 0 0 Z " fill="#3B943D" transform="translate(53,151)"/>
<path d="M0 0 C0.4846875 0.42152344 0.969375 0.84304687 1.46875 1.27734375 C2.1390625 1.82519531 2.809375 2.37304688 3.5 2.9375 C4.1496875 3.48277344 4.799375 4.02804688 5.46875 4.58984375 C11.87593416 8.15927814 20.83082089 7.28883296 28 7.5625 C29.06089844 7.60568359 30.12179688 7.64886719 31.21484375 7.69335938 C33.80979151 7.79855996 36.40482084 7.90070119 39 8 C39 8.33 39 8.66 39 9 C34.73179948 9.17439217 30.46553888 9.30067865 26.19482422 9.38452148 C24.74556316 9.41950365 23.29654519 9.46710991 21.84814453 9.52807617 C8.27682309 10.08458453 8.27682309 10.08458453 3 5.59765625 C0 2.47521552 0 2.47521552 0 0 Z " fill="#030902" transform="translate(37,113)"/>
<path d="M0 0 C0 0.66 0 1.32 0 2 C-1.828125 3.65625 -1.828125 3.65625 -4.25 5.5 C-5.03890625 6.1084375 -5.8278125 6.716875 -6.640625 7.34375 C-13.09489226 11.87456013 -19.92114332 12.48393215 -27.6875 11.5625 C-28.8321875 11.2840625 -28.8321875 11.2840625 -30 11 C-30 10.67 -30 10.34 -30 10 C-28.84242187 9.90203125 -27.68484375 9.8040625 -26.4921875 9.703125 C-24.95303881 9.55296415 -23.41398068 9.40187309 -21.875 9.25 C-21.11445312 9.188125 -20.35390625 9.12625 -19.5703125 9.0625 C-13.04336046 8.38729807 -9.3190183 5.89737861 -4.25 1.75 C-2 0 -2 0 0 0 Z " fill="#0D200C" transform="translate(127,76)"/>
<path d="M0 0 C0 0.99 0 1.98 0 3 C-1.38735357 3.91362308 -2.78019172 4.81998542 -4.19921875 5.68359375 C-7.67590061 8.22511606 -10.28250795 11.68755407 -13 15 C-13.33 14.01 -13.66 13.02 -14 12 C-12.59554165 9.7363436 -10.8032087 7.9791315 -9 6 C-10.98 5.34 -12.96 4.68 -15 4 C-15 3.67 -15 3.34 -15 3 C-13.75283203 2.80083984 -13.75283203 2.80083984 -12.48046875 2.59765625 C-11.39378906 2.42105469 -10.30710937 2.24445313 -9.1875 2.0625 C-8.10855469 1.88847656 -7.02960937 1.71445313 -5.91796875 1.53515625 C-2.95066644 1.06128079 -2.95066644 1.06128079 0 0 Z " fill="#071207" transform="translate(69,85)"/>
<path d="M0 0 C0.66 0.66 1.32 1.32 2 2 C1.01 4.64 0.02 7.28 -1 10 C-0.01 10.33 0.98 10.66 2 11 C1.195625 11.12375 0.39125 11.2475 -0.4375 11.375 C-1.283125 11.58125 -2.12875 11.7875 -3 12 C-3.33 12.66 -3.66 13.32 -4 14 C-0.34920174 15.61064629 3.0507432 16.44894091 7 17 C7 17.33 7 17.66 7 18 C3.00503213 19.14141939 1.46085664 19.23477602 -2.3125 17.3125 C-5.70462269 14.39369676 -5.70462269 14.39369676 -6 11 C-5.0390625 8.96484375 -5.0390625 8.96484375 -3.625 6.9375 C-1.96835001 4.52656523 -0.93727774 2.81183321 0 0 Z " fill="#112110" transform="translate(81,70)"/>
<path d="M0 0 C0.66 0 1.32 0 2 0 C2 2.31 2 4.62 2 7 C3.98 5.02 5.96 3.04 8 1 C8.99 1.33 9.98 1.66 11 2 C10.16855469 2.77923828 10.16855469 2.77923828 9.3203125 3.57421875 C8.23363281 4.62029297 8.23363281 4.62029297 7.125 5.6875 C6.04605469 6.71423828 6.04605469 6.71423828 4.9453125 7.76171875 C2.91664113 10.09591291 1.97007267 12.08467634 1 15 C0.67 15 0.34 15 0 15 C-1.15774649 10.36901402 -2.19218189 4.38436379 0 0 Z " fill="#0B1B0A" transform="translate(75,62)"/>
<path d="M0 0 C3.37483413 -0.08767555 6.74937215 -0.14061628 10.125 -0.1875 C11.55199219 -0.22520508 11.55199219 -0.22520508 13.0078125 -0.26367188 C21.77616923 -0.35500892 26.54791625 2.31602146 33 8 C32.01 8.33 31.02 8.66 30 9 C28.700625 7.8553125 28.700625 7.8553125 27.375 6.6875 C20.21717768 0.40045899 9.0119649 1.45119192 0 1 C0 0.67 0 0.34 0 0 Z " fill="#081307" transform="translate(102,33)"/>
<path d="M0 0 C3.38055068 1.12685023 4.1079382 2.05384625 6.3125 4.75 C9.29895915 8.28291763 12.35818708 11.15760943 16 14 C15.01 14.99 14.02 15.98 13 17 C11.9171875 15.3603125 11.9171875 15.3603125 10.8125 13.6875 C8.55162769 10.49794077 6.43889057 8.90043952 3 7 C0.61753391 4.3710719 0 3.61165822 0 0 Z " fill="#D8DAD8" transform="translate(50,152)"/>
<path d="M0 0 C4.97968095 0.15089942 7.32187142 2.88119311 10.64453125 6.2109375 C12 8 12 8 12 11 C11.01 11 10.02 11 9 11 C7.65576661 9.34211215 6.32381517 7.67423683 5 6 C4.0925 5.46375 3.185 4.9275 2.25 4.375 C1.5075 3.92125 0.765 3.4675 0 3 C0 2.01 0 1.02 0 0 Z " fill="#3A8F3B" transform="translate(125,56)"/>
<path d="M0 0 C0.99 0.33 1.98 0.66 3 1 C2.57847656 1.37769531 2.15695313 1.75539062 1.72265625 2.14453125 C-3.41655355 7.30792556 -3.97419958 11.86618426 -4 19 C-4.66 19 -5.32 19 -6 19 C-6.6060575 12.89453189 -6.84926594 8.34546039 -3 3.3125 C-2.02495646 2.18623443 -1.03319469 1.07316949 0 0 Z " fill="#0E200D" transform="translate(83,158)"/>
<path d="M0 0 C6.04574691 0.20847403 10.95309941 1.60562438 16 5 C18.5 7.75 18.5 7.75 20 10 C19.01 10.33 18.02 10.66 17 11 C16.63261719 10.07767578 16.63261719 10.07767578 16.2578125 9.13671875 C14.0252031 5.34405619 10.0362092 4.33687436 6 3 C3.30173291 2.46212468 0.75255485 2.20018581 -2 2 C-1.34 1.34 -0.68 0.68 0 0 Z " fill="#091709" transform="translate(115,57)"/>
<path d="M0 0 C1.60332791 -0.08121924 3.20784026 -0.13929134 4.8125 -0.1875 C6.15248047 -0.23970703 6.15248047 -0.23970703 7.51953125 -0.29296875 C10 0 10 0 13 3 C8.05 3.33 3.1 3.66 -2 4 C-1.34 2.68 -0.68 1.36 0 0 Z " fill="#3C973E" transform="translate(47,63)"/>
<path d="M0 0 C5.56987857 -0.28809717 9.19670476 -0.20219683 14 3 C15.375 5.1875 15.375 5.1875 16 7 C13.53199953 5.84826645 11.95216435 4.95216435 10 3 C7.56747339 2.53837573 7.56747339 2.53837573 4.875 2.375 C3.96492187 2.30023438 3.05484375 2.22546875 2.1171875 2.1484375 C1.41851562 2.09945312 0.71984375 2.05046875 0 2 C0 1.34 0 0.68 0 0 Z " fill="#0D210D" transform="translate(131,98)"/>
<path d="M0 0 C1.32 1.65 2.64 3.3 4 5 C3.34 5.66 2.68 6.32 2 7 C2.309375 7.61875 2.61875 8.2375 2.9375 8.875 C3.625 10.25 4.3125 11.625 5 13 C4.34 13.66 3.68 14.32 3 15 C2.13058506 13.76055724 1.27994543 12.50792941 0.4375 11.25 C-0.03816406 10.55390625 -0.51382813 9.8578125 -1.00390625 9.140625 C-2 7 -2 7 -1.71484375 4.921875 C-1.47894531 4.28765625 -1.24304687 3.6534375 -1 3 C-0.67 2.01 -0.34 1.02 0 0 Z " fill="#243124" transform="translate(37,73)"/>
<path d="M0 0 C3.45201639 1.47721422 5.64961936 3.43794001 8.25 6.125 C8.95640625 6.84945312 9.6628125 7.57390625 10.390625 8.3203125 C11.18726563 9.15175781 11.18726563 9.15175781 12 10 C11.34 10.66 10.68 11.32 10 12 C8.51476358 10.56877218 7.03699538 9.12979111 5.5625 7.6875 C4.73878906 6.88699219 3.91507813 6.08648437 3.06640625 5.26171875 C1 3 1 3 0 0 Z " fill="#1F2A1F" transform="translate(52,152)"/>
<path d="M0 0 C1.45792884 -0.05399736 2.91642712 -0.09279177 4.375 -0.125 C5.18710938 -0.14820312 5.99921875 -0.17140625 6.8359375 -0.1953125 C9 0 9 0 11 2 C8.36 2.99 5.72 3.98 3 5 C2.01 3.35 1.02 1.7 0 0 Z " fill="#E6EAE6" transform="translate(116,68)"/>
<path d="M0 0 C2.0625 0.4375 2.0625 0.4375 4 1 C4.33 2.32 4.66 3.64 5 5 C3.35 5.33 1.7 5.66 0 6 C-0.38218767 4.34385343 -0.71395102 2.67542976 -1 1 C-0.67 0.67 -0.34 0.34 0 0 Z " fill="#D4D9D5" transform="translate(100,71)"/>
<path d="M0 0 C2.64 0 5.28 0 8 0 C8 0.66 8 1.32 8 2 C6.35 2.33 4.7 2.66 3 3 C5.31 3.66 7.62 4.32 10 5 C10 5.33 10 5.66 10 6 C6.6875 6.25 6.6875 6.25 3 6 C1.0625 4.125 1.0625 4.125 0 2 C0 1.34 0 0.68 0 0 Z " fill="#071207" transform="translate(41,86)"/>
<path d="M0 0 C0.47308594 0.34933594 0.94617187 0.69867188 1.43359375 1.05859375 C6.60032163 4.61386654 10.74807789 5.84080754 17 6 C17 6.33 17 6.66 17 7 C6.25828438 7.68808143 6.25828438 7.68808143 2.3125 5.1875 C1.549375 4.465625 0.78625 3.74375 0 3 C0 2.01 0 1.02 0 0 Z " fill="#060E05" transform="translate(40,125)"/>
<path d="M0 0 C-0.99 0.495 -0.99 0.495 -2 1 C-2 1.66 -2 2.32 -2 3 C-6.62 3 -11.24 3 -16 3 C-16 2.67 -16 2.34 -16 2 C-14.27192682 1.66104344 -12.54248026 1.32908475 -10.8125 1 C-9.84957031 0.814375 -8.88664062 0.62875 -7.89453125 0.4375 C-5.2065794 0.03122388 -2.71228981 -0.07933572 0 0 Z " fill="#3D9B3F" transform="translate(105,83)"/>
<path d="M0 0 C2.31 0 4.62 0 7 0 C7.33 0.99 7.66 1.98 8 3 C6.56640625 5.04296875 6.56640625 5.04296875 4.5625 7.1875 C3.90378906 7.90292969 3.24507812 8.61835937 2.56640625 9.35546875 C2.04949219 9.89816406 1.53257813 10.44085938 1 11 C0.67 10.01 0.34 9.02 0 8 C1.40445835 5.7363436 3.1967913 3.9791315 5 2 C3.35 1.67 1.7 1.34 0 1 C0 0.67 0 0.34 0 0 Z " fill="#0D1E0C" transform="translate(55,89)"/>
<path d="M0 0 C3.48872415 1.16290805 4.09976864 2.13967609 6.1875 5.0625 C6.71730469 5.79597656 7.24710938 6.52945313 7.79296875 7.28515625 C8.19128906 7.85105469 8.58960938 8.41695312 9 9 C6 9 6 9 4.39453125 7.5390625 C3.61142578 6.59160156 3.61142578 6.59160156 2.8125 5.625 C2.28269531 4.99851563 1.75289062 4.37203125 1.20703125 3.7265625 C0 2 0 2 0 0 Z " fill="#0D1F0C" transform="translate(23,174)"/>
<path d="M0 0 C1.4540625 0.0309375 1.4540625 0.0309375 2.9375 0.0625 C2.04804687 0.44535156 2.04804687 0.44535156 1.140625 0.8359375 C-1.27474538 2.18066498 -2.57461706 3.55464367 -4.3125 5.6875 C-4.83328125 6.31914063 -5.3540625 6.95078125 -5.890625 7.6015625 C-6.27734375 8.08367187 -6.6640625 8.56578125 -7.0625 9.0625 C-7.3925 8.0725 -7.7225 7.0825 -8.0625 6.0625 C-7.4025 6.0625 -6.7425 6.0625 -6.0625 6.0625 C-5.753125 5.258125 -5.44375 4.45375 -5.125 3.625 C-3.65286145 0.07454819 -3.65286145 0.07454819 0 0 Z " fill="#081407" transform="translate(44.0625,61.9375)"/>
<path d="M0 0 C0.99 0.33 1.98 0.66 3 1 C0.69 3.31 -1.62 5.62 -4 8 C-4.66 7.34 -5.32 6.68 -6 6 C-4.02 4.02 -2.04 2.04 0 0 Z " fill="#10240F" transform="translate(83,63)"/>
<path d="M0 0 C2 1.8125 2 1.8125 4 4 C4 4.99 4 5.98 4 7 C2.68 7 1.36 7 0 7 C0 4.69 0 2.38 0 0 Z " fill="#E4E9E4" transform="translate(67,73)"/>
<path d="M0 0 C3.57104439 1.87949705 5.54744301 3.17053157 7 7 C6.01 7.495 6.01 7.495 5 8 C4.38125 7.21625 3.7625 6.4325 3.125 5.625 C1.10141339 3.03162353 1.10141339 3.03162353 -1 1 C-0.67 0.67 -0.34 0.34 0 0 Z " fill="#1B271B" transform="translate(55,160)"/>
<path d="M0 0 C0.33 0 0.66 0 1 0 C2.12880057 3.31114834 3.21302675 6.58978257 4 10 C1.4375 7.8125 1.4375 7.8125 -1 5 C-0.8125 2.1875 -0.8125 2.1875 0 0 Z " fill="#242C23" transform="translate(36,116)"/>
<path d="M0 0 C0.99 0.66 1.98 1.32 3 2 C2.34 2 1.68 2 1 2 C1.33 3.32 1.66 4.64 2 6 C1.01 6.33 0.02 6.66 -1 7 C-1.33 5.02 -1.66 3.04 -2 1 C-1.34 0.67 -0.68 0.34 0 0 Z " fill="#1D261C" transform="translate(49,150)"/>
<path d="M0 0 C0.99 0.33 1.98 0.66 3 1 C-1.5 4 -1.5 4 -6 7 C-6 6.01 -6 5.02 -6 4 C-3.1875 1.75 -3.1875 1.75 0 0 Z " fill="#213020" transform="translate(108,18)"/>
<path d="M0 0 C1.9375 0.3125 1.9375 0.3125 4 1 C4.33 1.99 4.66 2.98 5 4 C3.35 3.67 1.7 3.34 0 3 C0 2.01 0 1.02 0 0 Z " fill="#39953C" transform="translate(70,151)"/>
<path d="M0 0 C2.475 0.495 2.475 0.495 5 1 C4.67 1.99 4.34 2.98 4 4 C2.68 3.67 1.36 3.34 0 3 C0 2.01 0 1.02 0 0 Z " fill="#E2E6E2" transform="translate(50,73)"/>
</svg>
